<svg width="350" height="325" viewBox="0 0 350 325" fill="none" xmlns="http://www.w3.org/2000/svg">
<path d="M175 306.25C271.65 306.25 350 257.281 350 196.875C350 136.469 271.65 87.5 175 87.5C78.3502 87.5 0 136.469 0 196.875C0 257.281 78.3502 306.25 175 306.25Z" fill="#2058BB" fill-opacity="0.1"/>
<path d="M1.13867 46.5308C4.49827 44.7795 9.05892 45.1198 14.0815 47.9915C16.485 49.3945 18.6882 51.1084 20.6327 53.0877C27.7299 60.1591 32.7693 70.8411 32.7693 79.9875C32.7693 91.7816 41.1683 106.107 51.4738 112.008L70.1784 122.674L149.893 77.2071L131.214 66.5334C120.891 60.6488 112.509 46.3067 112.509 34.5208C112.509 22.735 104.11 8.40946 93.8047 2.51655C88.7653 -0.380101 84.1123 -0.687193 80.7443 1.13878L80.2907 1.38777L53.9935 16.4022L49.794 18.7677L1.13867 46.5308Z" fill="#E6E6E6"/>
<path d="M237.436 109.942C237.344 109.882 237.236 109.85 237.125 109.85C237.015 109.85 236.907 109.882 236.814 109.942L234.522 111.262C234.276 111.426 234.072 111.644 233.927 111.899C233.781 112.154 233.697 112.438 233.682 112.731V139.349L330.27 193.505L334.075 165.045L237.436 109.942Z" fill="#263238"/>
<path d="M334.032 165.011C333.936 164.978 333.833 164.968 333.732 164.982C333.631 164.997 333.535 165.035 333.452 165.094L331.109 166.381C330.854 166.53 330.644 166.745 330.504 167.003L233.891 111.884C234.038 111.631 234.245 111.417 234.495 111.261L236.805 109.95C236.897 109.89 237.005 109.857 237.116 109.857C237.226 109.857 237.334 109.89 237.427 109.95L334.032 165.011Z" fill="#455A64"/>
<path d="M333.453 165.086L331.109 166.381C330.863 166.544 330.659 166.761 330.513 167.016C330.367 167.272 330.284 167.557 330.27 167.85V193.48L334.301 195.754V165.551C334.309 165.036 333.923 164.82 333.453 165.086Z" fill="#37474F"/>
<path d="M330.279 193.505V195.257L324.24 197.912L227.602 142.768L233.64 139.349L330.279 193.505Z" fill="black"/>
<path d="M326.256 201.365L333.454 197.215C333.701 197.052 333.905 196.835 334.051 196.579C334.197 196.324 334.28 196.039 334.294 195.746L330.262 193.472C330.249 193.765 330.167 194.05 330.021 194.306C329.875 194.561 329.67 194.779 329.422 194.941L327.113 196.26C326.642 196.526 326.273 196.31 326.273 195.771L326.256 201.365Z" fill="#37474F"/>
<path d="M348.488 198.594C348.936 198.29 349.306 197.887 349.569 197.418C349.831 196.948 349.979 196.424 350 195.888V109.76C349.971 109.206 349.809 108.667 349.529 108.187C349.249 107.707 348.858 107.299 348.388 106.996L236.58 43.2034C236.113 42.9131 235.575 42.7542 235.024 42.7437C234.472 42.7333 233.928 42.8717 233.451 43.144C232.973 43.4164 232.579 43.8124 232.312 44.2894C232.045 44.7664 231.915 45.3063 231.936 45.851V131.979C231.967 132.533 232.13 133.072 232.411 133.552C232.693 134.033 233.085 134.44 233.557 134.743L345.389 198.535C345.866 198.781 346.394 198.915 346.932 198.925C347.47 198.935 348.003 198.821 348.488 198.594Z" fill="#2058BB"/>
<path d="M346.977 111.485V197.613C346.977 198.626 346.254 199.041 345.364 198.534L233.557 134.742C233.085 134.44 232.693 134.032 232.411 133.551C232.13 133.071 231.967 132.532 231.936 131.978V45.8501C231.936 44.8375 232.666 44.4225 233.557 44.9288L345.389 108.722C345.855 109.027 346.241 109.436 346.516 109.916C346.792 110.396 346.95 110.934 346.977 111.485Z" fill="#2058BB"/>
<path opacity="0.2" d="M349.999 109.76V195.887C349.978 196.424 349.83 196.947 349.567 197.417C349.305 197.887 348.935 198.29 348.487 198.593C348.056 198.799 347.586 198.914 347.107 198.93C346.628 198.946 346.151 198.862 345.707 198.684C346.429 198.917 346.975 198.502 346.975 197.614V111.478C346.953 110.924 346.792 110.385 346.505 109.909L349.52 108.183C349.814 108.659 349.979 109.202 349.999 109.76Z" fill="black"/>
<path d="M337.89 133.937V147.524C337.89 148.545 337.168 148.952 336.277 148.445L318.312 138.162C317.843 137.86 317.452 137.453 317.172 136.974C316.892 136.496 316.73 135.958 316.699 135.406V121.844C316.699 120.832 317.422 120.417 318.312 120.923L336.277 131.173C336.747 131.476 337.138 131.884 337.419 132.364C337.699 132.845 337.86 133.384 337.89 133.937Z" fill="#455A64"/>
<mask id="mask0_1806_13014" style="mask-type:luminance" maskUnits="userSpaceOnUse" x="316" y="120" width="22" height="29">
<path d="M337.89 133.937V147.524C337.89 148.545 337.168 148.952 336.277 148.445L318.312 138.162C317.843 137.86 317.452 137.453 317.172 136.974C316.892 136.496 316.73 135.958 316.699 135.406V121.844C316.699 120.832 317.422 120.417 318.312 120.923L336.277 131.173C336.747 131.476 337.138 131.884 337.419 132.364C337.699 132.845 337.86 133.384 337.89 133.937Z" fill="white"/>
</mask>
<g mask="url(#mask0_1806_13014)">
<path d="M313.85 123.133L313.484 123.758L340.726 139.313L341.092 138.688L313.85 123.133Z" fill="white"/>
<path d="M332.201 133.821H331.471V140.743H332.201V133.821Z" fill="white"/>
<path d="M323.121 128.667H322.391V135.581H323.121V128.667Z" fill="white"/>
<path d="M313.85 130.073L313.484 130.698L340.726 146.253L341.092 145.628L313.85 130.073Z" fill="white"/>
</g>
<path d="M337.89 159.849V163.061C337.89 164.082 337.168 164.489 336.277 163.983L318.312 153.732C317.843 153.431 317.452 153.024 317.172 152.545C316.892 152.066 316.73 151.529 316.699 150.977V147.748C316.699 146.727 317.422 146.321 318.312 146.827L336.277 157.077C336.748 157.381 337.14 157.79 337.421 158.272C337.701 158.754 337.862 159.294 337.89 159.849Z" fill="#FAFAFA"/>
<path d="M312.634 145.449V148.677C312.634 149.69 311.912 150.105 311.021 149.599L293.056 139.348C292.586 139.046 292.195 138.638 291.915 138.157C291.634 137.677 291.473 137.138 291.443 136.584V133.364C291.443 132.343 292.166 131.928 293.056 132.443L311.021 142.693C311.49 142.995 311.881 143.402 312.161 143.88C312.441 144.359 312.603 144.896 312.634 145.449Z" fill="#FAFAFA"/>
<path d="M287.435 131.057V134.286C287.435 135.299 286.712 135.714 285.822 135.207L267.857 124.957C267.387 124.654 266.996 124.246 266.715 123.766C266.435 123.286 266.274 122.747 266.244 122.193V118.964C266.244 117.952 266.966 117.537 267.857 118.043L285.822 128.293C286.291 128.597 286.682 129.005 286.962 129.485C287.242 129.965 287.404 130.504 287.435 131.057Z" fill="#FAFAFA"/>
<path d="M262.239 116.665V119.902C262.239 120.923 261.517 121.338 260.627 120.823L242.661 110.581C242.193 110.277 241.803 109.868 241.523 109.388C241.243 108.908 241.08 108.37 241.049 107.817V104.588C241.049 103.576 241.771 103.161 242.661 103.667L260.627 113.917C261.095 114.218 261.485 114.624 261.765 115.101C262.045 115.578 262.207 116.114 262.239 116.665Z" fill="#FAFAFA"/>
<path opacity="0.15" d="M251.069 120.557L255.193 122.906C255.474 123.09 255.708 123.335 255.875 123.623C256.043 123.911 256.14 124.234 256.159 124.566V125.811C256.159 126.417 255.722 126.641 255.193 126.359L251.069 124.052C250.788 123.869 250.554 123.624 250.387 123.335C250.219 123.047 250.122 122.724 250.104 122.392V121.147C250.104 120.499 250.54 120.25 251.069 120.557Z" fill="black"/>
<path opacity="0.15" d="M241.989 115.379L246.105 117.727C246.388 117.909 246.624 118.154 246.793 118.442C246.963 118.731 247.061 119.054 247.079 119.387V120.632C247.079 121.247 246.642 121.462 246.105 121.189L241.989 118.84C241.707 118.658 241.473 118.413 241.305 118.124C241.137 117.836 241.04 117.512 241.023 117.18V115.935C241.023 115.32 241.452 115.072 241.989 115.379Z" fill="black"/>
<path opacity="0.15" d="M293.979 153.674L242.745 124.425C241.855 123.919 241.133 124.326 241.133 125.347V126.841C241.162 127.394 241.324 127.933 241.604 128.414C241.884 128.894 242.275 129.302 242.745 129.605L293.979 158.853C294.87 159.36 295.592 158.953 295.592 157.932V156.421C295.56 155.871 295.397 155.335 295.117 154.858C294.837 154.381 294.447 153.975 293.979 153.674Z" fill="black"/>
<path opacity="0.5" d="M349.52 108.183L346.505 109.942C346.231 109.458 345.838 109.05 345.363 108.755L233.547 44.9293C232.707 44.4728 232.069 44.7716 231.951 45.5932C231.973 45.0708 232.135 44.5633 232.418 44.1219C232.702 43.6804 233.098 43.3205 233.567 43.0782C234.036 42.836 234.561 42.72 235.09 42.7419C235.619 42.7638 236.132 42.9227 236.579 43.2029L348.386 106.996C348.863 107.286 349.254 107.696 349.52 108.183Z" fill="#FAFAFA"/>
<path d="M326.003 169.644L316.445 174.781C316.284 175.14 316.199 175.526 316.193 175.918V206.121C316.187 206.212 316.2 206.303 316.23 206.388C316.26 206.474 316.307 206.552 316.369 206.619L219.781 151.533C219.693 151.474 219.624 151.393 219.58 151.298C219.535 151.203 219.518 151.098 219.529 150.994V120.782C219.544 120.49 219.628 120.205 219.774 119.95C219.919 119.695 220.123 119.477 220.368 119.313L228.725 114.532C228.813 114.465 228.919 114.425 229.03 114.417C229.141 114.41 229.251 114.436 229.347 114.491L326.003 169.644Z" fill="#263238"/>
<path opacity="0.5" d="M326.011 169.635L237.679 119.222L233.648 116.923L229.389 114.491C229.293 114.436 229.183 114.41 229.072 114.417C228.961 114.425 228.855 114.465 228.768 114.532L220.411 119.313C220.159 119.468 219.953 119.685 219.814 119.944L316.453 174.773L326.011 169.635Z" fill="#37474F"/>
<path d="M316.446 174.78C316.284 175.144 316.195 175.536 316.186 175.934V206.137C316.186 206.677 316.572 206.892 317.025 206.627L326.264 201.365V170.19C326.277 170.085 326.26 169.978 326.216 169.882C326.171 169.785 326.101 169.702 326.012 169.643L316.446 174.78Z" fill="#37474F"/>
<path d="M317.135 206.545L317.462 206.387L318.882 205.557C320.255 203.87 321.005 201.771 321.007 199.606V174.084C321 173.524 320.929 172.968 320.797 172.424L320.032 172.839C320.117 173.243 320.162 173.654 320.167 174.067V199.606C320.012 202.199 318.939 204.656 317.135 206.545Z" fill="#263238"/>
<path d="M208.77 85.4411C205.511 82.835 199.581 79.4569 195.936 77.382C189.805 73.8711 166.884 60.7822 157.301 55.3126C155.971 54.6455 154.5 54.2979 153.009 54.2979C151.517 54.2979 150.047 54.6455 148.717 55.3126L70.6063 99.8995C69.3587 100.706 68.3202 101.791 67.5748 103.067C66.8293 104.343 66.3976 105.774 66.3145 107.245V153.932C66.3982 155.404 66.8302 156.836 67.5755 158.113C68.3209 159.39 69.359 160.477 70.6063 161.285L229.221 251.87C230.552 252.533 232.022 252.879 233.513 252.879C235.004 252.879 236.474 252.533 237.805 251.87L315.916 207.3C317.164 206.486 318.202 205.393 318.944 204.11C319.687 202.827 320.114 201.389 320.191 199.913V173.602C320.197 172.318 319.901 171.05 319.327 169.898C318.752 168.745 317.915 167.741 316.882 166.962C298.958 153.508 213.977 89.5994 208.77 85.4411Z" fill="#455A64"/>
<path d="M320.194 199.913V174.374C320.193 173.859 320.131 173.347 320.009 172.847L233.298 222.239C233.427 222.769 233.498 223.312 233.508 223.858V249.38C233.508 251.87 231.912 252.957 229.846 252.127H229.905C230.098 252.21 230.291 252.285 230.492 252.351L230.879 252.467C231.089 252.525 231.299 252.575 231.517 252.617C231.735 252.658 231.803 252.666 231.945 252.691L232.592 252.774H233.079H233.692H234.238L234.793 252.733C234.994 252.733 235.196 252.667 235.397 252.625L235.868 252.542C236.086 252.484 236.305 252.409 236.515 252.343C236.724 252.276 236.766 252.276 236.884 252.227C237.159 252.121 237.425 251.996 237.682 251.853C237.724 251.839 237.763 251.819 237.8 251.795L315.91 207.225L317.036 206.594C318.889 204.83 320.015 202.449 320.194 199.913Z" fill="#37474F"/>
<path d="M122.076 134.916C136.724 146.602 213.222 203.805 230.171 216.471C231.214 217.244 232.061 218.246 232.644 219.399C233.227 220.551 233.531 221.822 233.531 223.111V249.38C233.531 252.077 231.599 253.181 229.239 251.87L70.5653 161.318C69.3179 160.509 68.2799 159.423 67.5345 158.146C66.7891 156.868 66.3572 155.436 66.2734 153.964V107.244C66.2734 104.547 68.2052 103.443 70.5653 104.796L109.201 126.84C112.871 128.924 118.801 132.302 122.076 134.916Z" fill="#263238"/>
<path d="M121.606 119.786C125.252 121.861 131.181 125.239 134.465 127.861C137.636 130.443 140.642 133.215 143.469 136.161C144.086 136.755 144.878 137.14 145.73 137.263C146.582 137.385 147.452 137.238 148.214 136.842L204.891 104.472C205.225 104.311 205.514 104.071 205.733 103.773C205.952 103.476 206.095 103.13 206.148 102.766C206.201 102.402 206.163 102.031 206.037 101.684C205.912 101.338 205.703 101.027 205.428 100.779C202.592 97.8332 199.577 95.0615 196.399 92.479C193.132 89.8728 187.203 86.5031 183.557 84.4198C176.62 80.4525 168.834 76.012 161.821 72.0198C161.001 71.6125 160.097 71.4004 159.179 71.4004C158.262 71.4004 157.357 71.6125 156.538 72.0198L99.8866 104.373C98.4336 105.203 98.4336 106.556 99.8866 107.386L121.606 119.786Z" fill="#E0E0E0"/>
<path d="M156.537 74.6926C157.356 74.2854 158.261 74.0732 159.178 74.0732C160.095 74.0732 161 74.2854 161.82 74.6926C168.833 78.6849 176.619 83.1253 183.556 87.0926C187.201 89.1759 193.131 92.554 196.398 95.1601C199.576 97.7423 202.591 100.514 205.427 103.46C205.529 103.566 205.622 103.679 205.704 103.8C205.476 104.09 205.19 104.33 204.864 104.506L148.188 136.875C147.425 137.271 146.556 137.418 145.703 137.296C144.851 137.174 144.06 136.788 143.443 136.195C140.616 133.249 137.609 130.477 134.439 127.895C131.155 125.272 125.2 121.894 121.58 119.819L99.8854 107.386C99.7846 107.328 99.709 107.261 99.625 107.203C99.7069 107.136 99.7939 107.075 99.8854 107.021L156.537 74.6926Z" fill="white"/>
<path d="M157.469 117.725L140.512 117.468V110.778L152.657 112.953L152.497 86.3681L163.055 86.2021L157.469 117.725Z" fill="#3D86E6"/>
<path d="M206.581 118.092L207.143 115.785L209.495 115.594L217.18 111.212C220.825 109.137 225.655 109.552 228.007 112.133C228.505 112.671 228.87 113.316 229.073 114.017L229.737 113.959L229.14 116.408C228.877 117.276 228.44 118.083 227.856 118.781C227.272 119.479 226.552 120.055 225.739 120.475L216.382 125.803C215.622 126.205 214.752 126.357 213.898 126.236C213.045 126.115 212.252 125.728 211.637 125.131C210.159 123.57 208.681 121.952 207.202 120.309C206.921 120.019 206.717 119.665 206.609 119.278C206.5 118.891 206.491 118.484 206.581 118.092Z" fill="#2058BB"/>
<path opacity="0.1" d="M206.581 118.092L207.143 115.785L209.495 115.594L217.18 111.212C220.825 109.137 225.655 109.552 228.007 112.133C228.505 112.671 228.87 113.316 229.073 114.017L229.737 113.959L229.14 116.408C228.877 117.276 228.44 118.083 227.856 118.781C227.272 119.479 226.552 120.055 225.739 120.475L216.382 125.803C215.622 126.205 214.752 126.357 213.898 126.236C213.045 126.115 212.252 125.728 211.637 125.131C210.159 123.57 208.681 121.952 207.202 120.309C206.921 120.019 206.717 119.665 206.609 119.278C206.5 118.891 206.491 118.484 206.581 118.092Z" fill="black"/>
<path d="M216.885 123.504L226.241 118.167C229.895 116.084 230.869 112.357 228.517 109.817C226.165 107.278 221.336 106.821 217.691 108.896L208.334 114.233C207.998 114.401 207.707 114.644 207.484 114.944C207.261 115.244 207.113 115.592 207.052 115.959C206.99 116.326 207.017 116.702 207.131 117.057C207.244 117.412 207.441 117.735 207.705 118.001C209.183 119.661 210.664 121.268 212.148 122.823C212.761 123.421 213.551 123.809 214.403 123.932C215.255 124.054 216.125 123.904 216.885 123.504Z" fill="#2058BB"/>
<path d="M158.73 146.86L159.301 144.519L159.964 144.461C160.599 143.708 161.368 143.075 162.232 142.594L171.588 137.257C172.342 136.86 173.207 136.717 174.051 136.852C174.894 136.987 175.67 137.392 176.258 138.004C177.711 139.622 179.164 141.216 180.617 142.76L181.936 142.652L181.34 145.084C181.151 145.693 180.729 146.205 180.164 146.511L170.807 151.848C167.154 153.931 162.223 153.599 159.889 151.018C159.362 150.474 158.981 149.809 158.779 149.083C158.576 148.358 158.559 147.594 158.73 146.86Z" fill="#2058BB"/>
<path opacity="0.1" d="M158.73 146.86L159.301 144.519L159.964 144.461C160.599 143.708 161.368 143.075 162.232 142.594L171.588 137.257C172.342 136.86 173.207 136.717 174.051 136.852C174.894 136.987 175.67 137.392 176.258 138.004C177.711 139.622 179.164 141.216 180.617 142.76L181.936 142.652L181.34 145.084C181.151 145.693 180.729 146.205 180.164 146.511L170.807 151.848C167.154 153.931 162.223 153.599 159.889 151.018C159.362 150.474 158.981 149.809 158.779 149.083C158.576 148.358 158.559 147.594 158.73 146.86Z" fill="black"/>
<path d="M171.337 149.524L180.693 144.187C181.026 144.024 181.314 143.783 181.531 143.486C181.749 143.189 181.891 142.843 181.944 142.48C181.996 142.117 181.959 141.746 181.835 141.4C181.711 141.054 181.503 140.743 181.231 140.494C179.752 138.925 178.283 137.315 176.804 135.672C176.217 135.058 175.442 134.652 174.598 134.516C173.755 134.379 172.889 134.52 172.135 134.916L162.778 140.253C159.133 142.336 158.033 146.138 160.393 148.702C162.753 151.267 167.691 151.599 171.337 149.524Z" fill="#2058BB"/>
<path d="M182.147 132.252L182.701 129.97L184.499 129.853L195.694 123.462C196.637 122.967 197.719 122.791 198.773 122.96C199.827 123.129 200.796 123.635 201.532 124.4C202.652 125.662 203.785 126.899 204.933 128.11C205.044 128.233 205.145 128.363 205.236 128.5L206.353 128.434L205.773 130.816C205.671 131.218 205.485 131.595 205.228 131.922C204.971 132.249 204.647 132.52 204.278 132.717L192.276 139.556C191.329 140.06 190.243 140.252 189.177 140.103C188.112 139.953 187.123 139.471 186.355 138.726C185.221 137.514 184.079 136.277 182.945 135.016C182.591 134.656 182.333 134.215 182.194 133.733C182.055 133.251 182.039 132.742 182.147 132.252Z" fill="#2058BB"/>
<path opacity="0.1" d="M182.147 132.252L182.701 129.97L184.499 129.853L195.694 123.462C196.637 122.967 197.719 122.791 198.773 122.96C199.827 123.129 200.796 123.635 201.532 124.4C202.652 125.662 203.785 126.899 204.933 128.11C205.044 128.233 205.145 128.363 205.236 128.5L206.353 128.434L205.773 130.816C205.671 131.218 205.485 131.595 205.228 131.922C204.971 132.249 204.647 132.52 204.278 132.717L192.276 139.556C191.329 140.06 190.243 140.252 189.177 140.103C188.112 139.953 187.123 139.471 186.355 138.726C185.221 137.514 184.079 136.277 182.945 135.016C182.591 134.656 182.333 134.215 182.194 133.733C182.055 133.251 182.039 132.742 182.147 132.252Z" fill="black"/>
<path d="M183.474 132.7C184.607 133.961 185.75 135.19 186.883 136.41C187.651 137.155 188.641 137.637 189.706 137.787C190.772 137.936 191.857 137.744 192.805 137.24L204.807 130.401C205.222 130.196 205.581 129.896 205.853 129.525C206.125 129.153 206.302 128.723 206.369 128.269C206.435 127.816 206.39 127.353 206.237 126.921C206.083 126.488 205.826 126.099 205.487 125.786C204.353 124.574 203.22 123.296 202.086 122.068C201.35 121.303 200.38 120.798 199.326 120.63C198.271 120.462 197.19 120.64 196.248 121.138L184.255 127.977C183.832 128.187 183.466 128.492 183.186 128.868C182.906 129.244 182.721 129.681 182.645 130.142C182.568 130.602 182.604 131.074 182.748 131.519C182.892 131.964 183.141 132.368 183.474 132.7Z" fill="#2058BB"/>
<g opacity="0.75">
<path d="M216.881 123.503L226.237 118.166C229.891 116.083 230.865 112.356 228.513 109.816C226.162 107.277 221.332 106.82 217.687 108.895L208.331 114.232C207.994 114.4 207.703 114.643 207.48 114.943C207.257 115.243 207.109 115.591 207.048 115.958C206.986 116.325 207.013 116.701 207.127 117.056C207.24 117.411 207.437 117.734 207.701 118C209.179 119.66 210.66 121.268 212.144 122.822C212.757 123.42 213.547 123.808 214.399 123.931C215.251 124.053 216.121 123.903 216.881 123.503Z" fill="white"/>
<path d="M171.335 149.523L180.691 144.186C181.024 144.023 181.312 143.783 181.529 143.485C181.747 143.188 181.889 142.842 181.942 142.479C181.995 142.116 181.957 141.745 181.833 141.399C181.709 141.053 181.501 140.742 181.229 140.493C179.75 138.924 178.281 137.314 176.802 135.671C176.215 135.057 175.44 134.651 174.596 134.515C173.753 134.378 172.887 134.519 172.133 134.915L162.776 140.252C159.131 142.335 158.031 146.137 160.391 148.701C162.751 151.266 167.69 151.598 171.335 149.523Z" fill="white"/>
<path d="M183.472 132.699C184.605 133.96 185.748 135.189 186.882 136.409C187.649 137.154 188.639 137.636 189.704 137.786C190.77 137.935 191.855 137.743 192.803 137.239L204.805 130.4C205.22 130.195 205.579 129.895 205.851 129.524C206.123 129.152 206.3 128.722 206.367 128.268C206.433 127.815 206.388 127.352 206.235 126.92C206.081 126.487 205.824 126.098 205.485 125.785C204.351 124.573 203.218 123.295 202.084 122.067C201.348 121.302 200.378 120.797 199.324 120.629C198.269 120.461 197.188 120.639 196.246 121.137L184.253 127.976C183.83 128.186 183.464 128.491 183.184 128.867C182.905 129.243 182.719 129.68 182.643 130.141C182.566 130.601 182.602 131.073 182.746 131.518C182.89 131.963 183.139 132.367 183.472 132.699Z" fill="white"/>
</g>
<path d="M201.674 158.313L199.204 158.371L192.292 153.159C191.682 152.743 190.969 152.498 190.229 152.452C189.49 152.405 188.751 152.558 188.093 152.893L177.527 158.911L174.209 158.994V161.666C174.224 161.934 174.301 162.195 174.435 162.428C174.569 162.662 174.756 162.861 174.982 163.011L183.582 169.501C184.193 169.916 184.906 170.159 185.645 170.206C186.384 170.253 187.123 170.101 187.782 169.767L200.708 162.397C200.981 162.269 201.214 162.07 201.383 161.821C201.552 161.573 201.649 161.284 201.665 160.986L201.674 158.313Z" fill="#2058BB"/>
<path opacity="0.1" d="M201.674 158.313L199.204 158.371L192.292 153.159C191.682 152.743 190.969 152.498 190.229 152.452C189.49 152.405 188.751 152.558 188.093 152.893L177.527 158.911L174.209 158.994V161.666C174.224 161.934 174.301 162.195 174.435 162.428C174.569 162.662 174.756 162.861 174.982 163.011L183.582 169.501C184.193 169.916 184.906 170.159 185.645 170.206C186.384 170.253 187.123 170.101 187.782 169.767L200.708 162.397C200.981 162.269 201.214 162.07 201.383 161.821C201.552 161.573 201.649 161.284 201.665 160.986L201.674 158.313Z" fill="black"/>
<path d="M175.169 157.584L188.103 150.222C188.762 149.886 189.5 149.733 190.24 149.78C190.98 149.827 191.693 150.071 192.303 150.487L200.928 156.978C201.182 157.119 201.39 157.329 201.528 157.582C201.667 157.835 201.73 158.122 201.71 158.409C201.691 158.696 201.59 158.972 201.419 159.205C201.248 159.437 201.014 159.618 200.744 159.725L187.818 167.095C187.158 167.429 186.42 167.581 185.681 167.534C184.941 167.487 184.229 167.244 183.618 166.83L175.017 160.339C174.766 160.197 174.559 159.989 174.421 159.737C174.282 159.486 174.217 159.201 174.233 158.915C174.248 158.629 174.344 158.353 174.51 158.118C174.675 157.883 174.903 157.698 175.169 157.584Z" fill="#2058BB"/>
<path opacity="0.75" d="M175.169 157.584L188.103 150.222C188.762 149.886 189.5 149.733 190.24 149.78C190.98 149.827 191.693 150.071 192.303 150.487L200.928 156.978C201.182 157.119 201.39 157.329 201.528 157.582C201.667 157.835 201.73 158.122 201.71 158.409C201.691 158.696 201.59 158.972 201.419 159.205C201.248 159.437 201.014 159.618 200.744 159.725L187.818 167.095C187.158 167.429 186.42 167.581 185.681 167.534C184.941 167.487 184.229 167.244 183.618 166.83L175.017 160.339C174.766 160.197 174.559 159.989 174.421 159.737C174.282 159.486 174.217 159.201 174.233 158.915C174.248 158.629 174.344 158.353 174.51 158.118C174.675 157.883 174.903 157.698 175.169 157.584Z" fill="white"/>
<path d="M252.161 196.352L249.691 196.418L242.779 191.197C242.168 190.783 241.455 190.539 240.716 190.493C239.977 190.446 239.239 190.598 238.579 190.932L228.005 196.957L224.688 197.032V199.705C224.7 199.973 224.777 200.235 224.911 200.468C225.045 200.702 225.234 200.901 225.46 201.049L234.061 207.54C234.671 207.956 235.384 208.2 236.123 208.247C236.863 208.294 237.602 208.141 238.26 207.805L251.153 200.41C251.426 200.28 251.658 200.08 251.825 199.83C251.992 199.58 252.088 199.29 252.102 198.991L252.161 196.352Z" fill="#2058BB"/>
<path opacity="0.1" d="M252.161 196.352L249.691 196.418L242.779 191.197C242.168 190.783 241.455 190.539 240.716 190.493C239.977 190.446 239.239 190.598 238.579 190.932L228.005 196.957L224.688 197.032V199.705C224.7 199.973 224.777 200.235 224.911 200.468C225.045 200.702 225.234 200.901 225.46 201.049L234.061 207.54C234.671 207.956 235.384 208.2 236.123 208.247C236.863 208.294 237.602 208.141 238.26 207.805L251.153 200.41C251.426 200.28 251.658 200.08 251.825 199.83C251.992 199.58 252.088 199.29 252.102 198.991L252.161 196.352Z" fill="black"/>
<path d="M225.609 195.621L238.543 188.259C239.203 187.925 239.941 187.773 240.68 187.82C241.42 187.867 242.132 188.11 242.743 188.524L251.318 195.015C251.571 195.158 251.779 195.368 251.917 195.622C252.055 195.876 252.117 196.162 252.098 196.45C252.079 196.737 251.978 197.013 251.808 197.247C251.637 197.481 251.404 197.662 251.134 197.771L238.199 205.133C237.54 205.468 236.802 205.621 236.062 205.574C235.323 205.528 234.61 205.283 234 204.867L225.399 198.376C225.15 198.229 224.946 198.017 224.813 197.762C224.679 197.507 224.619 197.221 224.641 196.934C224.663 196.648 224.765 196.374 224.936 196.142C225.107 195.91 225.34 195.729 225.609 195.621Z" fill="#2058BB"/>
<path opacity="0.75" d="M225.609 195.621L238.543 188.259C239.203 187.925 239.941 187.773 240.68 187.82C241.42 187.867 242.132 188.11 242.743 188.524L251.318 195.015C251.571 195.158 251.779 195.368 251.917 195.622C252.055 195.876 252.117 196.162 252.098 196.45C252.079 196.737 251.978 197.013 251.808 197.247C251.637 197.481 251.404 197.662 251.134 197.771L238.199 205.133C237.54 205.468 236.802 205.621 236.062 205.574C235.323 205.528 234.61 205.283 234 204.867L225.399 198.376C225.15 198.229 224.946 198.017 224.813 197.762C224.679 197.507 224.619 197.221 224.641 196.934C224.663 196.648 224.765 196.374 224.936 196.142C225.107 195.91 225.34 195.729 225.609 195.621Z" fill="white"/>
<path d="M218.488 170.996L216.018 171.054L209.106 165.842C208.496 165.426 207.784 165.181 207.045 165.133C206.305 165.085 205.566 165.235 204.907 165.568L194.332 171.594L190.973 171.677V174.349C190.989 174.617 191.067 174.877 191.201 175.11C191.335 175.343 191.521 175.543 191.745 175.694L200.405 182.151C201.015 182.567 201.727 182.812 202.466 182.86C203.206 182.908 203.944 182.758 204.604 182.425L217.53 175.055C217.804 174.926 218.037 174.728 218.205 174.479C218.374 174.231 218.472 173.942 218.488 173.644V170.996Z" fill="#2058BB"/>
<path opacity="0.1" d="M218.488 170.996L216.018 171.054L209.106 165.842C208.496 165.426 207.784 165.181 207.045 165.133C206.305 165.085 205.566 165.235 204.907 165.568L194.332 171.594L190.973 171.677V174.349C190.989 174.617 191.067 174.877 191.201 175.11C191.335 175.343 191.521 175.543 191.745 175.694L200.405 182.151C201.015 182.567 201.727 182.812 202.466 182.86C203.206 182.908 203.944 182.758 204.604 182.425L217.53 175.055C217.804 174.926 218.037 174.728 218.205 174.479C218.374 174.231 218.472 173.942 218.488 173.644V170.996Z" fill="black"/>
<path d="M191.98 170.265L204.914 162.895C205.574 162.562 206.313 162.412 207.052 162.46C207.792 162.508 208.504 162.753 209.114 163.169L217.723 169.651C217.976 169.794 218.183 170.004 218.321 170.258C218.459 170.512 218.522 170.799 218.503 171.086C218.483 171.373 218.383 171.65 218.212 171.883C218.042 172.117 217.808 172.298 217.538 172.407L204.612 179.777C203.952 180.11 203.213 180.26 202.474 180.212C201.735 180.164 201.022 179.919 200.413 179.503L191.804 173.021C191.553 172.877 191.348 172.666 191.211 172.414C191.075 172.161 191.012 171.875 191.03 171.589C191.049 171.303 191.147 171.028 191.315 170.794C191.483 170.56 191.713 170.377 191.98 170.265Z" fill="#2058BB"/>
<path opacity="0.75" d="M191.98 170.265L204.914 162.895C205.574 162.562 206.313 162.412 207.052 162.46C207.792 162.508 208.504 162.753 209.114 163.169L217.723 169.651C217.976 169.794 218.183 170.004 218.321 170.258C218.459 170.512 218.522 170.799 218.503 171.086C218.483 171.373 218.383 171.65 218.212 171.883C218.042 172.117 217.808 172.298 217.538 172.407L204.612 179.777C203.952 180.11 203.213 180.26 202.474 180.212C201.735 180.164 201.022 179.919 200.413 179.503L191.804 173.021C191.553 172.877 191.348 172.666 191.211 172.414C191.075 172.161 191.012 171.875 191.03 171.589C191.049 171.303 191.147 171.028 191.315 170.794C191.483 170.56 191.713 170.377 191.98 170.265Z" fill="white"/>
<path d="M235.303 183.669L232.834 183.735L225.922 178.515C225.311 178.1 224.598 177.857 223.859 177.81C223.12 177.763 222.381 177.915 221.722 178.249L211.148 184.275L207.83 184.358V187.03C207.844 187.297 207.921 187.557 208.056 187.789C208.19 188.021 208.377 188.219 208.603 188.367L217.203 194.857C217.813 195.273 218.526 195.518 219.266 195.565C220.006 195.611 220.744 195.459 221.403 195.123L234.329 187.761C234.602 187.631 234.834 187.43 235.001 187.18C235.168 186.931 235.264 186.641 235.278 186.341L235.303 183.669Z" fill="#2058BB"/>
<path opacity="0.1" d="M235.303 183.669L232.834 183.735L225.922 178.515C225.311 178.1 224.598 177.857 223.859 177.81C223.12 177.763 222.381 177.915 221.722 178.249L211.148 184.275L207.83 184.358V187.03C207.844 187.297 207.921 187.557 208.056 187.789C208.19 188.021 208.377 188.219 208.603 188.367L217.203 194.857C217.813 195.273 218.526 195.518 219.266 195.565C220.006 195.611 220.744 195.459 221.403 195.123L234.329 187.761C234.602 187.631 234.834 187.43 235.001 187.18C235.168 186.931 235.264 186.641 235.278 186.341L235.303 183.669Z" fill="black"/>
<path d="M208.796 182.981L221.73 175.61C222.389 175.276 223.128 175.125 223.867 175.171C224.606 175.218 225.319 175.462 225.93 175.876L234.522 182.333C234.775 182.476 234.982 182.686 235.12 182.94C235.258 183.194 235.321 183.481 235.302 183.768C235.283 184.056 235.182 184.332 235.011 184.565C234.841 184.799 234.607 184.98 234.337 185.089L221.411 192.451C220.752 192.787 220.014 192.939 219.274 192.893C218.535 192.846 217.822 192.601 217.212 192.185L208.611 185.695C208.369 185.548 208.173 185.339 208.043 185.09C207.912 184.841 207.854 184.562 207.873 184.283C207.892 184.003 207.988 183.734 208.151 183.504C208.313 183.275 208.536 183.094 208.796 182.981Z" fill="#2058BB"/>
<path opacity="0.75" d="M208.796 182.981L221.73 175.61C222.389 175.276 223.128 175.125 223.867 175.171C224.606 175.218 225.319 175.462 225.93 175.876L234.522 182.333C234.775 182.476 234.982 182.686 235.12 182.94C235.258 183.194 235.321 183.481 235.302 183.768C235.283 184.056 235.182 184.332 235.011 184.565C234.841 184.799 234.607 184.98 234.337 185.089L221.411 192.451C220.752 192.787 220.014 192.939 219.274 192.893C218.535 192.846 217.822 192.601 217.212 192.185L208.611 185.695C208.369 185.548 208.173 185.339 208.043 185.09C207.912 184.841 207.854 184.562 207.873 184.283C207.892 184.003 207.988 183.734 208.151 183.504C208.313 183.275 208.536 183.094 208.796 182.981Z" fill="white"/>
<path d="M227.628 143.531L225.159 143.598L218.247 138.377C217.636 137.963 216.923 137.719 216.184 137.672C215.444 137.626 214.706 137.777 214.047 138.111L203.447 144.137L200.088 144.22V146.893C200.104 147.159 200.182 147.418 200.316 147.65C200.45 147.882 200.636 148.08 200.861 148.229L209.545 154.761C210.155 155.177 210.868 155.422 211.608 155.468C212.347 155.515 213.086 155.362 213.745 155.027L226.679 147.665C226.952 147.535 227.185 147.334 227.352 147.084C227.519 146.834 227.614 146.544 227.628 146.245V143.531Z" fill="#2058BB"/>
<path opacity="0.1" d="M227.628 143.531L225.159 143.598L218.247 138.377C217.636 137.963 216.923 137.719 216.184 137.672C215.444 137.626 214.706 137.777 214.047 138.111L203.447 144.137L200.088 144.22V146.893C200.104 147.159 200.182 147.418 200.316 147.65C200.45 147.882 200.636 148.08 200.861 148.229L209.545 154.761C210.155 155.177 210.868 155.422 211.608 155.468C212.347 155.515 213.086 155.362 213.745 155.027L226.679 147.665C226.952 147.535 227.185 147.334 227.352 147.084C227.519 146.834 227.614 146.544 227.628 146.245V143.531Z" fill="black"/>
<path d="M201.121 142.81L214.055 135.44C214.714 135.105 215.453 134.954 216.192 135C216.931 135.047 217.644 135.291 218.255 135.705L226.855 142.196C227.106 142.34 227.311 142.55 227.447 142.803C227.584 143.056 227.647 143.341 227.628 143.627C227.61 143.913 227.511 144.189 227.344 144.422C227.176 144.656 226.946 144.839 226.679 144.951L213.744 152.313C213.086 152.649 212.347 152.802 211.607 152.755C210.868 152.708 210.155 152.464 209.545 152.048L200.928 145.557C200.677 145.413 200.472 145.202 200.337 144.949C200.201 144.696 200.14 144.41 200.16 144.124C200.18 143.838 200.281 143.564 200.45 143.331C200.62 143.099 200.852 142.919 201.121 142.81Z" fill="#2058BB"/>
<path opacity="0.75" d="M201.121 142.81L214.055 135.44C214.714 135.105 215.453 134.954 216.192 135C216.931 135.047 217.644 135.291 218.255 135.705L226.855 142.196C227.106 142.34 227.311 142.55 227.447 142.803C227.584 143.056 227.647 143.341 227.628 143.627C227.61 143.913 227.511 144.189 227.344 144.422C227.176 144.656 226.946 144.839 226.679 144.951L213.744 152.313C213.086 152.649 212.347 152.802 211.607 152.755C210.868 152.708 210.155 152.464 209.545 152.048L200.928 145.557C200.677 145.413 200.472 145.202 200.337 144.949C200.201 144.696 200.14 144.41 200.16 144.124C200.18 143.838 200.281 143.564 200.45 143.331C200.62 143.099 200.852 142.919 201.121 142.81Z" fill="white"/>
<path d="M278.071 181.578L275.602 181.636L268.689 176.415C268.078 176.003 267.366 175.76 266.627 175.713C265.888 175.667 265.15 175.817 264.49 176.15L253.924 182.151L250.564 182.234V184.906C250.579 185.174 250.657 185.435 250.791 185.668C250.925 185.902 251.112 186.101 251.337 186.251L259.938 192.733C260.548 193.149 261.26 193.394 261.999 193.442C262.739 193.49 263.477 193.34 264.137 193.007L277.063 185.637C277.336 185.507 277.569 185.306 277.736 185.056C277.903 184.806 277.998 184.516 278.012 184.217L278.071 181.578Z" fill="#2058BB"/>
<path opacity="0.1" d="M278.071 181.578L275.602 181.636L268.689 176.415C268.078 176.003 267.366 175.76 266.627 175.713C265.888 175.667 265.15 175.817 264.49 176.15L253.924 182.151L250.564 182.234V184.906C250.579 185.174 250.657 185.435 250.791 185.668C250.925 185.902 251.112 186.101 251.337 186.251L259.938 192.733C260.548 193.149 261.26 193.394 261.999 193.442C262.739 193.49 263.477 193.34 264.137 193.007L277.063 185.637C277.336 185.507 277.569 185.306 277.736 185.056C277.903 184.806 277.998 184.516 278.012 184.217L278.071 181.578Z" fill="black"/>
<path d="M251.564 180.847L264.498 173.477C265.158 173.144 265.897 172.994 266.636 173.042C267.376 173.09 268.088 173.335 268.698 173.751L277.298 180.233C277.552 180.376 277.759 180.586 277.897 180.84C278.035 181.094 278.098 181.381 278.078 181.668C278.059 181.955 277.958 182.232 277.788 182.465C277.617 182.699 277.384 182.88 277.114 182.989L264.188 190.359C263.528 190.692 262.789 190.842 262.05 190.794C261.31 190.746 260.598 190.501 259.988 190.085L251.388 183.603C251.137 183.459 250.932 183.248 250.795 182.996C250.659 182.743 250.596 182.457 250.614 182.171C250.633 181.885 250.731 181.61 250.899 181.376C251.067 181.142 251.297 180.959 251.564 180.847Z" fill="#2058BB"/>
<path opacity="0.75" d="M251.564 180.847L264.498 173.477C265.158 173.144 265.897 172.994 266.636 173.042C267.376 173.09 268.088 173.335 268.698 173.751L277.298 180.233C277.552 180.376 277.759 180.586 277.897 180.84C278.035 181.094 278.098 181.381 278.078 181.668C278.059 181.955 277.958 182.232 277.788 182.465C277.617 182.699 277.384 182.88 277.114 182.989L264.188 190.359C263.528 190.692 262.789 190.842 262.05 190.794C261.31 190.746 260.598 190.501 259.988 190.085L251.388 183.603C251.137 183.459 250.932 183.248 250.795 182.996C250.659 182.743 250.596 182.457 250.614 182.171C250.633 181.885 250.731 181.61 250.899 181.376C251.067 181.142 251.297 180.959 251.564 180.847Z" fill="white"/>
<path d="M244.44 156.214L241.971 156.28L235.058 151.059C234.448 150.643 233.735 150.399 232.996 150.352C232.256 150.305 231.517 150.458 230.859 150.794L220.284 156.811L216.967 156.894V159.567C216.982 159.835 217.059 160.096 217.193 160.329C217.327 160.562 217.514 160.762 217.739 160.911L226.34 167.402C226.951 167.816 227.663 168.06 228.403 168.107C229.142 168.153 229.88 168.002 230.54 167.667L243.474 160.305C243.745 160.179 243.977 159.982 244.145 159.737C244.313 159.492 244.412 159.207 244.431 158.911L244.44 156.214Z" fill="#2058BB"/>
<path opacity="0.1" d="M244.44 156.214L241.971 156.28L235.058 151.059C234.448 150.643 233.735 150.399 232.996 150.352C232.256 150.305 231.517 150.458 230.859 150.794L220.284 156.811L216.967 156.894V159.567C216.982 159.835 217.059 160.096 217.193 160.329C217.327 160.562 217.514 160.762 217.739 160.911L226.34 167.402C226.951 167.816 227.663 168.06 228.403 168.107C229.142 168.153 229.88 168.002 230.54 167.667L243.474 160.305C243.745 160.179 243.977 159.982 244.145 159.737C244.313 159.492 244.412 159.207 244.431 158.911L244.44 156.214Z" fill="black"/>
<path d="M217.933 155.483L230.868 148.121C231.527 147.787 232.265 147.635 233.004 147.682C233.744 147.729 234.457 147.972 235.067 148.387L243.668 154.877C243.918 155.021 244.123 155.232 244.26 155.485C244.397 155.737 244.459 156.023 244.441 156.309C244.423 156.595 244.324 156.87 244.156 157.104C243.989 157.338 243.758 157.521 243.491 157.633L230.557 164.995C229.898 165.329 229.159 165.481 228.42 165.434C227.681 165.387 226.968 165.144 226.357 164.729L217.723 158.239C217.474 158.092 217.271 157.879 217.137 157.624C217.003 157.37 216.944 157.083 216.965 156.797C216.987 156.511 217.089 156.236 217.26 156.004C217.431 155.772 217.664 155.592 217.933 155.483Z" fill="#2058BB"/>
<path opacity="0.75" d="M217.933 155.483L230.868 148.121C231.527 147.787 232.265 147.635 233.004 147.682C233.744 147.729 234.457 147.972 235.067 148.387L243.668 154.877C243.918 155.021 244.123 155.232 244.26 155.485C244.397 155.737 244.459 156.023 244.441 156.309C244.423 156.595 244.324 156.87 244.156 157.104C243.989 157.338 243.758 157.521 243.491 157.633L230.557 164.995C229.898 165.329 229.159 165.481 228.42 165.434C227.681 165.387 226.968 165.144 226.357 164.729L217.723 158.239C217.474 158.092 217.271 157.879 217.137 157.624C217.003 157.37 216.944 157.083 216.965 156.797C216.987 156.511 217.089 156.236 217.26 156.004C217.431 155.772 217.664 155.592 217.933 155.483Z" fill="white"/>
<path d="M261.254 168.872L258.785 168.93L251.873 163.718C251.263 163.302 250.55 163.057 249.81 163.01C249.07 162.963 248.332 163.116 247.673 163.452L237.099 169.469L233.781 169.552V172.225C233.796 172.493 233.874 172.754 234.008 172.987C234.142 173.22 234.329 173.42 234.554 173.57L243.155 180.06C243.766 180.473 244.478 180.715 245.217 180.762C245.956 180.809 246.694 180.658 247.354 180.326L260.288 173.022C260.562 172.894 260.795 172.695 260.964 172.446C261.132 172.198 261.23 171.909 261.246 171.611L261.254 168.872Z" fill="#2058BB"/>
<path opacity="0.1" d="M261.254 168.872L258.785 168.93L251.873 163.718C251.263 163.302 250.55 163.057 249.81 163.01C249.07 162.963 248.332 163.116 247.673 163.452L237.099 169.469L233.781 169.552V172.225C233.796 172.493 233.874 172.754 234.008 172.987C234.142 173.22 234.329 173.42 234.554 173.57L243.155 180.06C243.766 180.473 244.478 180.715 245.217 180.762C245.956 180.809 246.694 180.658 247.354 180.326L260.288 173.022C260.562 172.894 260.795 172.695 260.964 172.446C261.132 172.198 261.23 171.909 261.246 171.611L261.254 168.872Z" fill="black"/>
<path d="M234.748 168.166L247.682 160.804C248.341 160.468 249.079 160.315 249.819 160.362C250.559 160.409 251.272 160.653 251.881 161.069L260.482 167.56C260.736 167.701 260.944 167.911 261.082 168.164C261.22 168.417 261.283 168.704 261.264 168.991C261.245 169.278 261.144 169.554 260.973 169.787C260.802 170.019 260.568 170.2 260.297 170.307L247.371 177.677C246.712 178.011 245.974 178.163 245.234 178.116C244.495 178.07 243.782 177.826 243.172 177.412L234.571 170.921C234.321 170.777 234.115 170.567 233.979 170.314C233.842 170.061 233.78 169.776 233.798 169.49C233.816 169.203 233.915 168.928 234.083 168.694C234.25 168.46 234.481 168.277 234.748 168.166Z" fill="#2058BB"/>
<path opacity="0.75" d="M234.748 168.166L247.682 160.804C248.341 160.468 249.079 160.315 249.819 160.362C250.559 160.409 251.272 160.653 251.881 161.069L260.482 167.56C260.736 167.701 260.944 167.911 261.082 168.164C261.22 168.417 261.283 168.704 261.264 168.991C261.245 169.278 261.144 169.554 260.973 169.787C260.802 170.019 260.568 170.2 260.297 170.307L247.371 177.677C246.712 178.011 245.974 178.163 245.234 178.116C244.495 178.07 243.782 177.826 243.172 177.412L234.571 170.921C234.321 170.777 234.115 170.567 233.979 170.314C233.842 170.061 233.78 169.776 233.798 169.49C233.816 169.203 233.915 168.928 234.083 168.694C234.25 168.46 234.481 168.277 234.748 168.166Z" fill="white"/>
<path d="M253.571 128.75L251.101 128.808L244.189 123.596C243.579 123.179 242.866 122.935 242.127 122.888C241.387 122.841 240.648 122.994 239.99 123.33L229.415 129.347L226.098 129.43V132.103C226.112 132.371 226.19 132.632 226.324 132.865C226.458 133.098 226.645 133.298 226.87 133.447L235.471 139.938C236.082 140.352 236.794 140.596 237.534 140.643C238.273 140.689 239.011 140.538 239.67 140.204L252.596 132.833C252.87 132.705 253.103 132.506 253.272 132.258C253.44 132.01 253.538 131.721 253.554 131.422L253.571 128.75Z" fill="#2058BB"/>
<path opacity="0.1" d="M253.571 128.75L251.101 128.808L244.189 123.596C243.579 123.179 242.866 122.935 242.127 122.888C241.387 122.841 240.648 122.994 239.99 123.33L229.415 129.347L226.098 129.43V132.103C226.112 132.371 226.19 132.632 226.324 132.865C226.458 133.098 226.645 133.298 226.87 133.447L235.471 139.938C236.082 140.352 236.794 140.596 237.534 140.643C238.273 140.689 239.011 140.538 239.67 140.204L252.596 132.833C252.87 132.705 253.103 132.506 253.272 132.258C253.44 132.01 253.538 131.721 253.554 131.422L253.571 128.75Z" fill="black"/>
<path d="M227.062 128.019L239.996 120.657C240.655 120.321 241.394 120.169 242.133 120.215C242.873 120.262 243.586 120.507 244.196 120.923L252.797 127.413C253.05 127.555 253.258 127.764 253.396 128.017C253.535 128.27 253.598 128.557 253.579 128.844C253.559 129.131 253.458 129.407 253.287 129.64C253.116 129.873 252.882 130.053 252.612 130.16L239.686 137.531C239.027 137.865 238.288 138.017 237.549 137.97C236.81 137.923 236.097 137.68 235.486 137.265L226.886 130.775C226.635 130.63 226.43 130.42 226.293 130.167C226.157 129.914 226.094 129.629 226.112 129.343C226.131 129.057 226.229 128.782 226.397 128.548C226.565 128.314 226.795 128.131 227.062 128.019Z" fill="#2058BB"/>
<path opacity="0.75" d="M227.062 128.019L239.996 120.657C240.655 120.321 241.394 120.169 242.133 120.215C242.873 120.262 243.586 120.507 244.196 120.923L252.797 127.413C253.05 127.555 253.258 127.764 253.396 128.017C253.535 128.27 253.598 128.557 253.579 128.844C253.559 129.131 253.458 129.407 253.287 129.64C253.116 129.873 252.882 130.053 252.612 130.16L239.686 137.531C239.027 137.865 238.288 138.017 237.549 137.97C236.81 137.923 236.097 137.68 235.486 137.265L226.886 130.775C226.635 130.63 226.43 130.42 226.293 130.167C226.157 129.914 226.094 129.629 226.112 129.343C226.131 129.057 226.229 128.782 226.397 128.548C226.565 128.314 226.795 128.131 227.062 128.019Z" fill="white"/>
<path d="M304.015 166.788L301.546 166.854L294.633 161.634C294.023 161.218 293.31 160.973 292.571 160.926C291.831 160.879 291.092 161.032 290.434 161.368L279.876 167.385L276.559 167.468V170.141C276.571 170.409 276.648 170.671 276.782 170.905C276.917 171.138 277.105 171.337 277.331 171.486L285.932 178.001C286.542 178.417 287.255 178.662 287.994 178.708C288.734 178.755 289.473 178.602 290.131 178.267L303.066 170.905C303.339 170.775 303.571 170.574 303.738 170.324C303.905 170.074 304.001 169.784 304.015 169.485V166.788Z" fill="#2058BB"/>
<path opacity="0.1" d="M304.015 166.788L301.546 166.854L294.633 161.634C294.023 161.218 293.31 160.973 292.571 160.926C291.831 160.879 291.092 161.032 290.434 161.368L279.876 167.385L276.559 167.468V170.141C276.571 170.409 276.648 170.671 276.782 170.905C276.917 171.138 277.105 171.337 277.331 171.486L285.932 178.001C286.542 178.417 287.255 178.662 287.994 178.708C288.734 178.755 289.473 178.602 290.131 178.267L303.066 170.905C303.339 170.775 303.571 170.574 303.738 170.324C303.905 170.074 304.001 169.784 304.015 169.485V166.788Z" fill="black"/>
<path d="M277.508 166.056L290.443 158.694C291.102 158.36 291.84 158.209 292.58 158.255C293.319 158.302 294.032 158.546 294.642 158.96L303.243 165.451C303.496 165.593 303.703 165.804 303.841 166.057C303.979 166.311 304.042 166.598 304.023 166.885C304.004 167.173 303.903 167.449 303.732 167.683C303.562 167.916 303.328 168.098 303.058 168.206L290.124 175.568C289.465 175.904 288.726 176.057 287.987 176.01C287.247 175.963 286.534 175.719 285.924 175.302L277.357 168.812C277.106 168.67 276.899 168.461 276.761 168.21C276.622 167.959 276.557 167.674 276.573 167.388C276.588 167.102 276.684 166.826 276.849 166.591C277.015 166.356 277.243 166.171 277.508 166.056Z" fill="#2058BB"/>
<path opacity="0.75" d="M277.508 166.056L290.443 158.694C291.102 158.36 291.84 158.209 292.58 158.255C293.319 158.302 294.032 158.546 294.642 158.96L303.243 165.451C303.496 165.593 303.703 165.804 303.841 166.057C303.979 166.311 304.042 166.598 304.023 166.885C304.004 167.173 303.903 167.449 303.732 167.683C303.562 167.916 303.328 168.098 303.058 168.206L290.124 175.568C289.465 175.904 288.726 176.057 287.987 176.01C287.247 175.963 286.534 175.719 285.924 175.302L277.357 168.812C277.106 168.67 276.899 168.461 276.761 168.21C276.622 167.959 276.557 167.674 276.573 167.388C276.588 167.102 276.684 166.826 276.849 166.591C277.015 166.356 277.243 166.171 277.508 166.056Z" fill="white"/>
<path d="M287.2 154.105L284.731 154.172L277.819 148.951C277.208 148.537 276.495 148.293 275.756 148.247C275.017 148.2 274.278 148.352 273.619 148.686L263.078 154.711L259.719 154.794V157.467C259.733 157.734 259.81 157.994 259.944 158.226C260.079 158.458 260.266 158.656 260.491 158.803L269.092 165.294C269.701 165.712 270.414 165.957 271.154 166.004C271.894 166.051 272.633 165.897 273.292 165.559L286.226 158.197C286.499 158.067 286.731 157.867 286.898 157.617C287.066 157.367 287.161 157.077 287.175 156.778L287.2 154.105Z" fill="#2058BB"/>
<path opacity="0.1" d="M287.2 154.105L284.731 154.172L277.819 148.951C277.208 148.537 276.495 148.293 275.756 148.247C275.017 148.2 274.278 148.352 273.619 148.686L263.078 154.711L259.719 154.794V157.467C259.733 157.734 259.81 157.994 259.944 158.226C260.079 158.458 260.266 158.656 260.491 158.803L269.092 165.294C269.701 165.712 270.414 165.957 271.154 166.004C271.894 166.051 272.633 165.897 273.292 165.559L286.226 158.197C286.499 158.067 286.731 157.867 286.898 157.617C287.066 157.367 287.161 157.077 287.175 156.778L287.2 154.105Z" fill="black"/>
<path d="M260.69 153.383L273.625 146.013C274.284 145.679 275.022 145.527 275.762 145.574C276.501 145.62 277.214 145.864 277.824 146.278L286.425 152.769C286.678 152.912 286.885 153.122 287.023 153.376C287.161 153.629 287.224 153.916 287.205 154.204C287.186 154.491 287.085 154.767 286.914 155.001C286.744 155.234 286.51 155.416 286.24 155.524L273.306 162.886C272.648 163.224 271.909 163.378 271.169 163.331C270.429 163.284 269.715 163.039 269.106 162.621L260.556 156.13C260.304 155.991 260.095 155.785 259.955 155.535C259.815 155.285 259.748 155.001 259.762 154.716C259.776 154.43 259.87 154.154 260.034 153.919C260.198 153.683 260.425 153.498 260.69 153.383Z" fill="#2058BB"/>
<path opacity="0.75" d="M260.69 153.383L273.625 146.013C274.284 145.679 275.022 145.527 275.762 145.574C276.501 145.62 277.214 145.864 277.824 146.278L286.425 152.769C286.678 152.912 286.885 153.122 287.023 153.376C287.161 153.629 287.224 153.916 287.205 154.204C287.186 154.491 287.085 154.767 286.914 155.001C286.744 155.234 286.51 155.416 286.24 155.524L273.306 162.886C272.648 163.224 271.909 163.378 271.169 163.331C270.429 163.284 269.715 163.039 269.106 162.621L260.556 156.13C260.304 155.991 260.095 155.785 259.955 155.535C259.815 155.285 259.748 155.001 259.762 154.716C259.776 154.43 259.87 154.154 260.034 153.919C260.198 153.683 260.425 153.498 260.69 153.383Z" fill="white"/>
<path d="M270.386 141.432L267.916 141.49L261.004 136.277C260.394 135.862 259.682 135.617 258.942 135.568C258.203 135.52 257.464 135.67 256.804 136.003L246.281 142.029L242.963 142.112V144.801C242.977 145.069 243.054 145.33 243.188 145.564C243.323 145.797 243.51 145.996 243.736 146.146L252.336 152.628C252.946 153.044 253.658 153.289 254.398 153.337C255.137 153.385 255.876 153.235 256.536 152.902L269.462 145.532C269.734 145.402 269.965 145.203 270.132 144.955C270.299 144.707 270.395 144.418 270.411 144.121L270.386 141.432Z" fill="#2058BB"/>
<path opacity="0.1" d="M270.386 141.432L267.916 141.49L261.004 136.277C260.394 135.862 259.682 135.617 258.942 135.568C258.203 135.52 257.464 135.67 256.804 136.003L246.281 142.029L242.963 142.112V144.801C242.977 145.069 243.054 145.33 243.188 145.564C243.323 145.797 243.51 145.996 243.736 146.146L252.336 152.628C252.946 153.044 253.658 153.289 254.398 153.337C255.137 153.385 255.876 153.235 256.536 152.902L269.462 145.532C269.734 145.402 269.965 145.203 270.132 144.955C270.299 144.707 270.395 144.418 270.411 144.121L270.386 141.432Z" fill="black"/>
<path d="M243.878 140.701L256.813 133.331C257.473 132.998 258.211 132.847 258.951 132.896C259.69 132.944 260.402 133.189 261.012 133.604L269.613 140.087C269.866 140.229 270.073 140.44 270.211 140.693C270.349 140.947 270.412 141.234 270.393 141.522C270.374 141.809 270.273 142.085 270.102 142.319C269.932 142.552 269.698 142.734 269.428 142.842L256.502 150.212C255.842 150.545 255.103 150.696 254.364 150.647C253.625 150.599 252.913 150.354 252.303 149.939L243.702 143.456C243.451 143.312 243.246 143.102 243.11 142.849C242.973 142.596 242.911 142.311 242.929 142.025C242.947 141.739 243.046 141.463 243.213 141.23C243.381 140.996 243.611 140.813 243.878 140.701Z" fill="#2058BB"/>
<path opacity="0.75" d="M243.878 140.701L256.813 133.331C257.473 132.998 258.211 132.847 258.951 132.896C259.69 132.944 260.402 133.189 261.012 133.604L269.613 140.087C269.866 140.229 270.073 140.44 270.211 140.693C270.349 140.947 270.412 141.234 270.393 141.522C270.374 141.809 270.273 142.085 270.102 142.319C269.932 142.552 269.698 142.734 269.428 142.842L256.502 150.212C255.842 150.545 255.103 150.696 254.364 150.647C253.625 150.599 252.913 150.354 252.303 149.939L243.702 143.456C243.451 143.312 243.246 143.102 243.11 142.849C242.973 142.596 242.911 142.311 242.929 142.025C242.947 141.739 243.046 141.463 243.213 141.23C243.381 140.996 243.611 140.813 243.878 140.701Z" fill="white"/>
<path d="M78.3955 71.7743V62.0207C78.386 59.6033 77.3956 57.288 75.6412 55.582C73.8868 53.8759 71.5114 52.918 69.0352 52.918V62.6715C69.0447 65.0889 70.0351 67.4042 71.7894 69.1103C73.5438 70.8164 75.9192 71.7743 78.3955 71.7743Z" fill="#263238"/>
<path d="M108.847 151.844L78.9277 137.007L81.6304 186.082L111.549 200.919L108.847 151.844Z" fill="#2058BB"/>
<path opacity="0.5" d="M108.847 151.844L78.9277 137.007L81.6304 186.082L111.549 200.919L108.847 151.844Z" fill="white"/>
<path d="M111.55 200.919L125.613 191.983L114.478 148.272L108.848 151.843L111.55 200.919Z" fill="#2058BB"/>
<path d="M125.614 191.984L116.064 191.28L111.551 200.919L125.614 191.984Z" fill="#2058BB"/>
<path opacity="0.3" d="M125.614 191.984L116.064 191.28L111.551 200.919L125.614 191.984Z" fill="#3D86E6"/>
<path d="M116.062 191.279L108.666 148.571L108.846 151.843L111.549 200.919L116.062 191.279Z" fill="#2058BB"/>
<path opacity="0.1" d="M116.062 191.279L108.666 148.571L108.846 151.843L111.549 200.919L116.062 191.279Z" fill="#3D86E6"/>
<path d="M78.9277 137.006L84.7295 136.707L84.5493 133.436L114.477 148.273L108.666 148.572L108.847 151.843L78.9277 137.006Z" fill="#3D86E6"/>
<path d="M99.3563 150.138C99.3563 150.551 99.0862 150.744 98.6991 150.551C98.496 150.436 98.3234 150.275 98.1952 150.083C98.067 149.89 97.9868 149.671 97.9609 149.443C97.9609 149.021 98.231 148.836 98.6181 149.021C98.8215 149.138 98.994 149.3 99.1222 149.494C99.2503 149.688 99.3304 149.908 99.3563 150.138Z" fill="#455A64"/>
<path d="M90.411 145.775C90.411 146.197 90.1409 146.391 89.7538 146.197C89.5521 146.08 89.3805 145.92 89.2525 145.727C89.1245 145.535 89.0435 145.317 89.0156 145.089C89.0156 144.667 89.2857 144.482 89.6728 144.667C89.8764 144.782 90.0494 144.942 90.1777 145.135C90.3059 145.327 90.3859 145.547 90.411 145.775Z" fill="#455A64"/>
<path d="M104.825 146.663C104.825 147.086 104.555 147.27 104.168 147.077C103.964 146.962 103.79 146.802 103.662 146.61C103.534 146.417 103.454 146.197 103.43 145.969C103.43 145.547 103.7 145.362 104.087 145.555C104.291 145.67 104.464 145.83 104.593 146.022C104.721 146.215 104.801 146.435 104.825 146.663Z" fill="#455A64"/>
<path d="M95.9344 142.257C95.9344 142.679 95.6644 142.864 95.2772 142.679C95.0725 142.564 94.8988 142.402 94.7705 142.208C94.6421 142.014 94.5628 141.792 94.5391 141.562C94.5391 141.14 94.8091 140.956 95.1962 141.149C95.3994 141.265 95.572 141.425 95.7002 141.617C95.8284 141.81 95.9086 142.029 95.9344 142.257Z" fill="#455A64"/>
<path d="M114.477 148.272L108.666 148.571L116.062 191.28L125.612 191.983L114.477 148.272Z" fill="#2058BB"/>
<path opacity="0.2" d="M114.477 148.272L108.666 148.571L116.062 191.28L125.612 191.983L114.477 148.272Z" fill="#3D86E6"/>
<path d="M84.5488 133.436L84.729 136.707L84.9092 139.979L86.4317 140.727L84.5488 133.436Z" fill="#2058BB"/>
<path opacity="0.2" d="M84.5488 133.436L84.729 136.707L84.9092 139.979L86.4317 140.727L84.5488 133.436Z" fill="black"/>
<path d="M71.0996 60.9223C75.1356 60.7112 83.3068 61.0454 86.2978 72.3557C88.8203 81.8542 95.6401 102.645 97.4149 111.88C98.7662 118.916 100.622 123.841 100.892 128.749C100.388 131.273 98.3248 134.026 92.6491 134.905C87.2437 133.507 88.1897 132.636 87.8113 127.957C87.4329 123.278 89.9014 121.941 89.1176 116.392C87.4779 104.739 76.7933 80.4558 76.7933 80.4558L71.0996 60.9223Z" fill="#FFA8A7"/>
<path d="M104.125 146.734C104.029 146.732 103.936 146.7 103.861 146.641C103.785 146.582 103.733 146.5 103.711 146.408C103.711 146.347 102.377 140.639 100.891 136.312C99.7196 132.908 97.1431 132.143 94.8818 131.466C94.3773 131.316 93.8998 131.176 93.4674 131.017C93.3629 130.974 93.2793 130.894 93.234 130.792C93.1887 130.691 93.1852 130.576 93.2242 130.472C93.2442 130.42 93.2745 130.372 93.3134 130.332C93.3524 130.291 93.3991 130.259 93.451 130.236C93.5029 130.213 93.5589 130.2 93.6159 130.198C93.6728 130.197 93.7295 130.206 93.7827 130.226C94.1971 130.384 94.6836 130.516 95.1341 130.666C97.4764 131.36 100.395 132.231 101.711 136.048C103.206 140.445 104.539 146.162 104.548 146.224C104.562 146.277 104.564 146.333 104.555 146.388C104.545 146.442 104.525 146.495 104.495 146.541C104.465 146.588 104.425 146.628 104.379 146.66C104.332 146.692 104.28 146.714 104.224 146.725L104.125 146.734Z" fill="#263238"/>
<path d="M97.1158 123.84C96.2276 125.475 95.5642 127.216 95.1429 129.02C94.9987 129.997 93.3411 129.231 93.0078 127.965C92.7415 125.944 92.6271 123.907 92.6654 121.87C92.6654 121.87 91.8906 125.766 92.3141 127.622C92.7375 129.478 93.2149 129.847 94.6023 130.26C95.9897 130.674 95.7735 129.478 96.0978 127.93C96.4221 126.382 97.1158 123.84 97.1158 123.84Z" fill="#776768"/>
<path d="M98.1516 149.565L97.53 138.229C97.4039 135.731 97.2507 132.89 92.9354 130.726C91.4219 129.97 90.3048 129.75 89.7733 130.12C89.2417 130.489 89.3769 131.404 89.3769 131.412L90.1426 145.326C90.1277 145.426 90.0762 145.518 89.9976 145.585C89.919 145.651 89.8186 145.687 89.7147 145.687C89.6108 145.687 89.5104 145.651 89.4318 145.585C89.3532 145.518 89.3017 145.426 89.2868 145.326L88.521 131.456C88.4624 131.08 88.5 130.695 88.6305 130.336C88.7609 129.977 88.9802 129.655 89.2688 129.398C90.1066 128.809 91.4399 128.985 93.3318 129.935C98.0886 132.327 98.2597 135.546 98.3859 138.141L99.0165 149.46C99.0214 149.573 98.9807 149.683 98.9032 149.767C98.8257 149.851 98.7176 149.901 98.6021 149.908C98.4971 149.914 98.3935 149.883 98.3106 149.82C98.2277 149.756 98.1711 149.666 98.1516 149.565Z" fill="#263238"/>
<path d="M95.2335 142.203C95.1372 142.202 95.0441 142.169 94.969 142.11C94.8939 142.051 94.8412 141.97 94.8191 141.878L92.9002 133.4C92.8883 133.345 92.8875 133.289 92.8978 133.235C92.9081 133.18 92.9294 133.128 92.9603 133.082C92.9913 133.035 93.0314 132.995 93.0782 132.963C93.1251 132.932 93.1779 132.91 93.2335 132.898C93.3456 132.877 93.4617 132.899 93.5575 132.96C93.6532 133.021 93.7211 133.115 93.747 133.224L95.6569 141.693C95.6702 141.747 95.6723 141.803 95.6631 141.857C95.6539 141.912 95.6335 141.964 95.6033 142.011C95.5731 142.058 95.5335 142.098 95.487 142.13C95.4405 142.161 95.388 142.183 95.3326 142.195L95.2335 142.203Z" fill="#263238"/>
<path d="M92.3224 130.446C90.6918 129.478 87.5206 128.062 86.7819 128.924C86.0431 129.786 85.0972 133.322 88.7729 134.571C91.2223 135.237 93.8355 135.018 96.1332 133.955L92.3224 130.446Z" fill="#FFA8A7"/>
<path d="M65.1889 55.117H61.6664C56.8877 55.117 52.3048 53.2638 48.9258 49.965C45.5468 46.6663 43.6484 42.1922 43.6484 37.5271C43.6484 32.5471 45.6749 27.7711 49.282 24.2497C52.8891 20.7283 57.7814 18.75 62.8826 18.75H64.0087C69.1006 18.7593 73.9809 20.7393 77.5797 24.2559C81.1785 27.7725 83.2021 32.5387 83.2069 37.5096C83.2093 39.821 82.745 42.1102 81.8405 44.2463C80.9361 46.3824 79.6093 48.3236 77.9359 49.9588C76.2626 51.594 74.2755 52.8913 72.0883 53.7763C69.9011 54.6614 67.5566 55.117 65.1889 55.117Z" fill="#263238"/>
<path d="M46.1446 23.6923C46.8179 23.8239 47.4101 24.2108 47.7918 24.768C48.1734 25.3251 48.3133 26.0073 48.1807 26.665L43.0996 25.6535C43.2406 25.0012 43.6394 24.4294 44.2094 24.0623C44.7795 23.6951 45.4748 23.5622 46.1446 23.6923Z" fill="#263238"/>
<path d="M49.4605 22.6201C49.5659 22.9354 49.6067 23.2679 49.5805 23.5985C49.5542 23.9292 49.4615 24.2516 49.3075 24.5473C49.1536 24.843 48.9415 25.1062 48.6833 25.3218C48.4251 25.5374 48.1259 25.7012 47.8028 25.8038L46.1992 20.993C46.5228 20.8902 46.8639 20.8508 47.2031 20.877C47.5423 20.9032 47.8728 20.9945 48.1758 21.1456C48.4788 21.2968 48.7482 21.5048 48.9687 21.7579C49.1891 22.0109 49.3562 22.3039 49.4605 22.6201Z" fill="#263238"/>
<path d="M74.8729 254.322C73.6927 253.443 72.3594 252.616 71.3234 251.684C69.0261 249.635 68.3234 244.446 68.1522 242.695C67.9765 241.206 67.9614 239.703 68.1072 238.21C68.5666 234.692 71.2153 226.961 71.2153 226.961C71.2153 226.961 62.6838 221.482 62.5576 221.552C62.4315 221.623 61.0171 231.623 59.6207 233.258C57.927 234.71 56.4766 235.114 55.5216 237.031C54.6838 239.397 55.0261 240.673 56.3144 243.135C57.2667 245.269 57.9737 247.499 58.4225 249.784C59.1522 252.669 58.8459 257.392 66.1883 258.834C70.0801 259.599 72.7738 259.089 74.6297 258.28C76.7198 257.374 76.7017 255.668 74.8729 254.322Z" fill="#FFA8A7"/>
<path d="M55.5216 237.039C54.6838 239.405 55.0261 240.68 56.3144 243.143C57.2667 245.276 57.9737 247.506 58.4225 249.792C59.1522 252.676 58.8459 257.399 66.1883 258.842C70.0801 259.607 72.7738 259.097 74.6297 258.288C76.7198 257.408 76.7017 255.649 74.8729 254.321C73.972 253.635 72.927 252.976 72.0351 252.272C73.0081 253.978 68.3324 254.383 65.6387 252.808C62.945 251.234 59.5847 240.144 59.2513 237.664C59.0493 236.189 59.1753 234.689 59.6207 233.266C59.7198 233.134 59.8459 232.941 59.8459 232.941C59.8459 232.941 59.5577 232.826 59.2513 233.055C57.6953 234.068 56.4152 235.435 55.5216 237.039Z" fill="#263238"/>
<path d="M83.8726 110.243C85.1879 124.315 89.1699 172.581 88.0978 181.675C87.6204 185.8 69.7105 231.71 69.7105 231.71C69.7105 231.71 65.3411 233.02 61.224 228.464C63.3502 208.729 65.3862 187.586 69.8006 181.033C68.9628 174.244 60.2871 140.419 60.2871 140.419L83.8726 110.243Z" fill="#37474F"/>
<path d="M51.5587 247.427V246.187C52.0632 247.638 54.3965 253.917 57.928 257.057C60.7298 259.564 64.5587 262.449 65.5316 265.237C66.5046 268.024 60.2073 269.106 57.5857 268.649C54.5317 268.13 50.5947 266.441 48.4506 263.865C46.9371 262.053 45.9731 259.907 44.9011 258.482C43.829 257.057 41.2975 255.474 40.7569 253.83C40.4326 252.95 40.82 250.936 41.2614 249.265C41.7029 247.594 42.1623 246.037 42.6668 246.187V247.128C43.3065 247.831 45.0992 248.526 47.1083 248.597C48.4146 248.649 51.5767 248.394 51.5587 247.427Z" fill="#263238"/>
<path d="M60.4678 259.256C59.5669 258.499 58.72 257.76 57.9272 257.048C55.4588 254.858 53.5759 251.129 52.5218 248.587C51.9182 247.135 51.6121 245.581 51.6209 244.014V239.062H42.666V247.119V247.33C43.0894 249.133 47.1705 253.935 49.4948 257.066C51.0534 259.168 53.9993 261.833 57.5398 262.299C60.9272 262.765 62.6389 261.736 60.4678 259.256Z" fill="#FFA8A7"/>
<path d="M44.4693 112.398C37.5684 127.112 44.7215 178.931 44.7215 178.931C44.5143 181.324 41.7125 186.02 40.6765 196.521C39.4422 208.931 42.6044 240.109 42.6044 240.109C43.9629 240.881 45.4945 241.316 47.0651 241.375C48.6358 241.435 50.1974 241.118 51.6134 240.452C51.6134 240.452 60.0998 193.505 61.6944 181.165C63.0818 170.392 66.9016 137.252 66.9016 137.252L83.9286 110.234L44.4693 112.398Z" fill="#37474F"/>
<path d="M59.1437 61.4523L49.8734 61.8832C48.6032 62.2702 45.1888 65.4012 43.8464 70.1944C42.8852 74.1404 43.1009 78.2726 44.4681 82.1027L50.6302 99.5079C50.6302 99.5079 47.7473 106.324 44.396 112.753C59.8644 121.187 79.1797 116.755 83.8373 110.598C84.0265 109.297 83.7652 103.413 84.1346 96.7287C84.54 89.5872 85.54 81.5311 84.3959 77.1248C82.2607 68.9367 78.2607 61.25 70.3058 61.25L59.1437 61.4523Z" fill="#2058BB"/>
<path d="M76.6821 26.5332C78.7722 27.7381 81.3578 32.8743 81.1056 43.6393C80.8893 52.7596 77.8533 55.0111 76.3398 55.6619C74.8263 56.3128 71.8804 55.917 69.0335 55.4509V60.9301C69.0335 60.9301 72.9704 65.3979 72.7272 67.9045C72.484 70.411 67.0335 71.0091 63.3488 68.5553C60.9567 66.888 58.9037 64.8002 57.2948 62.3989V50.2795C56.4579 50.5708 55.5625 50.6652 54.6812 50.5552C53.7999 50.4452 52.9576 50.1338 52.2228 49.6462C49.0516 47.641 48.9705 42.5311 50.7723 40.7194C52.5741 38.9076 56.5471 39.4793 57.2858 41.9859C57.2858 41.9859 61.8353 42.1442 67.8894 38.8988C70.2482 37.6584 72.2739 35.892 73.8018 33.7434C75.3296 31.5947 76.3165 29.1244 76.6821 26.5332Z" fill="#FFA8A7"/>
<path d="M71.0712 41.4847C71.0745 41.711 71.0094 41.9332 70.8841 42.1236C70.7589 42.3141 70.5789 42.4643 70.3668 42.5555C70.1546 42.6467 69.9196 42.6749 69.6912 42.6365C69.4627 42.5982 69.2508 42.495 69.0821 42.3399C68.9133 42.1847 68.7951 41.9845 68.7421 41.7642C68.6892 41.5438 68.7039 41.3131 68.7844 41.1009C68.8649 40.8887 69.0077 40.7043 69.1949 40.5708C69.382 40.4373 69.6054 40.3605 69.8369 40.3502C69.9943 40.3455 70.1511 40.3711 70.2983 40.4256C70.4455 40.4801 70.5803 40.5624 70.6949 40.6677C70.8095 40.7731 70.9018 40.8995 70.9663 41.0397C71.0309 41.1798 71.0665 41.3311 71.0712 41.4847Z" fill="#263238"/>
<path d="M70.9789 49.1016L73.6816 49.9811C73.6333 50.1629 73.5474 50.333 73.4291 50.4811C73.3107 50.6292 73.1625 50.7519 72.9936 50.8418C72.8247 50.9317 72.6387 50.9867 72.4471 51.0036C72.2555 51.0204 72.0624 50.9987 71.8798 50.9397C71.5152 50.8066 71.2177 50.5407 71.0497 50.198C70.8817 49.8552 70.8563 49.4622 70.9789 49.1016Z" fill="#9A4A4D"/>
<path d="M80.3061 37.843L77.9277 36.2072C78.0272 36.0509 78.1582 35.916 78.3128 35.8107C78.4674 35.7055 78.6424 35.6321 78.827 35.5951C79.0117 35.5581 79.2021 35.5581 79.3867 35.5953C79.5713 35.6325 79.7462 35.706 79.9007 35.8114C80.2255 36.0322 80.4495 36.3678 80.5252 36.747C80.6008 37.1263 80.5223 37.5194 80.3061 37.843Z" fill="#263238"/>
<path d="M79.9638 41.2911C79.967 41.5174 79.902 41.7396 79.7767 41.9301C79.6515 42.1205 79.4715 42.2707 79.2594 42.3619C79.0472 42.4531 78.8122 42.4813 78.5837 42.443C78.3553 42.4046 78.1434 42.3014 77.9746 42.1463C77.8059 41.9911 77.6876 41.7909 77.6347 41.5706C77.5818 41.3502 77.5965 41.1196 77.677 40.9073C77.7575 40.6951 77.9003 40.5107 78.0874 40.3772C78.2746 40.2437 78.4979 40.167 78.7295 40.1566C79.0467 40.1494 79.354 40.2644 79.585 40.4768C79.8159 40.6891 79.952 40.9816 79.9638 41.2911Z" fill="#263238"/>
<path d="M74.2148 39.876L74.404 46.7888L78.1247 45.663L74.2148 39.876Z" fill="#A78182"/>
<path d="M69.034 55.4688C66.025 55.0906 59.8448 53.3492 58.8809 50.9658C59.267 52.1739 60.0251 53.2365 61.052 54.0089C62.8538 55.5568 69.034 57.2982 69.034 57.2982V55.4688Z" fill="#968787"/>
<path d="M67.1604 168.36L64.5117 157.296L66.845 137.261C66.845 137.261 74.1874 134.561 78.0792 129.012C76.3456 133.056 73.4518 136.526 69.7459 139.003L65.746 157.243L67.1604 168.36Z" fill="#263238"/>
<path d="M60.0978 146.821L27.8906 128.668L21.4492 181.613L53.6563 199.766L60.0978 146.821Z" fill="#2058BB"/>
<path opacity="0.5" d="M60.0978 146.821L27.8906 128.668L21.4492 181.613L53.6563 199.766L60.0978 146.821Z" fill="white"/>
<path d="M69.7553 190.69L60.0977 188.869L53.6562 199.766L69.7553 190.69Z" fill="#2058BB"/>
<path opacity="0.3" d="M69.7553 190.69L60.0977 188.869L53.6562 199.766L69.7553 190.69Z" fill="#3D86E6"/>
<path d="M60.0977 188.869L63.3139 141.377L60.0977 146.821L53.6562 199.766L60.0977 188.869Z" fill="#2058BB"/>
<path opacity="0.1" d="M60.0977 188.869L63.3139 141.377L60.0977 146.821L53.6562 199.766L60.0977 188.869Z" fill="#3D86E6"/>
<path d="M27.8906 128.67L37.5483 126.858V123.226L69.7554 141.378H63.3139L60.0977 146.822L27.8906 128.67Z" fill="#3D86E6"/>
<path d="M48.271 146.303C48.271 146.769 47.9289 146.954 47.5148 146.725C47.2971 146.584 47.1161 146.395 46.9864 146.174C46.8566 145.952 46.7817 145.704 46.7676 145.45C46.7676 144.984 47.1007 144.79 47.5148 145.028C47.7346 145.167 47.9177 145.355 48.0491 145.577C48.1805 145.798 48.2565 146.047 48.271 146.303Z" fill="#455A64"/>
<path d="M38.8257 140.445C38.8257 140.92 38.4926 141.105 38.0695 140.876C37.8517 140.735 37.6708 140.547 37.5411 140.325C37.4113 140.104 37.3364 139.856 37.3223 139.601C37.3223 139.135 37.6554 138.941 38.0695 139.179C38.2902 139.315 38.4741 139.502 38.6057 139.722C38.7373 139.942 38.8127 140.19 38.8257 140.445Z" fill="#455A64"/>
<path d="M58.269 139.987C58.269 140.453 57.9359 140.647 57.5218 140.409C57.3026 140.271 57.1199 140.085 56.9885 139.865C56.8571 139.644 56.7807 139.397 56.7656 139.143C56.7656 138.668 57.1077 138.483 57.5218 138.712C57.7395 138.853 57.9205 139.042 58.0502 139.263C58.18 139.484 58.2549 139.732 58.269 139.987Z" fill="#455A64"/>
<path d="M48.7182 134.781C48.7182 135.247 48.3761 135.441 47.962 135.203C47.744 135.065 47.5626 134.878 47.4328 134.658C47.3029 134.438 47.2282 134.191 47.2148 133.937C47.2148 133.471 47.5479 133.277 47.962 133.515C48.1812 133.653 48.364 133.84 48.4954 134.06C48.6268 134.28 48.7031 134.527 48.7182 134.781Z" fill="#455A64"/>
<path d="M69.7572 141.377H63.3158L60.0996 188.869L69.7572 190.69V141.377Z" fill="#2058BB"/>
<path d="M37.5483 126.856V134.112L27.8906 128.668L37.5483 126.856Z" fill="#2058BB"/>
<path opacity="0.2" d="M69.7572 141.377H63.3158L60.0996 188.869L69.7572 190.69V141.377Z" fill="#3D86E6"/>
<path opacity="0.2" d="M37.5483 126.856V134.112L27.8906 128.668L37.5483 126.856Z" fill="black"/>
<path d="M38.0706 140.305C38.0143 140.317 37.9558 140.317 37.8995 140.305C37.7908 140.257 37.7051 140.17 37.6599 140.062C37.6147 139.954 37.6134 139.833 37.6562 139.724L45.8544 120.789C45.9021 120.681 45.991 120.596 46.1021 120.552C46.2133 120.508 46.3378 120.507 46.449 120.552C46.5577 120.6 46.6434 120.687 46.6886 120.795C46.7338 120.903 46.7351 121.023 46.6922 121.132L38.4941 140.067C38.4527 140.141 38.3912 140.202 38.3165 140.244C38.2418 140.286 38.1568 140.307 38.0706 140.305Z" fill="#263238"/>
<path d="M47.9638 134.711C47.8444 134.711 47.7299 134.665 47.6455 134.583C47.5611 134.5 47.5137 134.388 47.5137 134.272V121.167C47.5137 121.051 47.5611 120.939 47.6455 120.856C47.7299 120.774 47.8444 120.728 47.9638 120.728C48.0832 120.728 48.1977 120.774 48.2821 120.856C48.3665 120.939 48.4139 121.051 48.4139 121.167V134.28C48.4116 134.396 48.3631 134.505 48.2789 134.586C48.1948 134.666 48.0816 134.711 47.9638 134.711Z" fill="#263238"/>
<path d="M32.7562 100.833L45.2516 83.7619C47.2417 81.7972 48.7401 79.4104 49.63 76.7875C51.8102 70.0418 52.1525 66.0841 49.8642 61.5283C44.7831 61.5283 41.8102 62.0296 36.0354 71.5721C31.3237 79.3556 24.3237 92.6271 22.612 95.4943C20.4769 99.0122 19.8553 99.9885 21.7111 103.471C23.567 106.954 30.558 115.898 36.4408 122.627C42.3237 129.355 45.7651 131.624 50.1615 132.618C54.5579 133.611 56.5219 132.776 58.9993 130.551C61.4768 128.326 59.729 126.347 57.4227 125.828C55.2351 125.366 53.1487 124.53 51.2606 123.357C49.8642 122.372 49.4588 121.598 50.7291 121.545C52.4047 121.474 53.9723 121.149 54.4047 120.006C54.9453 118.572 53.5579 118.959 51.639 118.379C49.1599 117.643 46.6082 117.166 44.0264 116.954C40.8642 117.121 32.7562 100.833 32.7562 100.833Z" fill="#FFA8A7"/>
<path d="M56.0632 52.7861H57.2974V64.2195C57.2974 66.4331 56.3967 68.556 54.7933 70.1213C53.19 71.6865 51.0154 72.5659 48.7479 72.5659H47.5137V61.1325C47.5137 58.9189 48.4144 56.796 50.0178 55.2307C51.6211 53.6655 53.7957 52.7861 56.0632 52.7861Z" fill="#263238"/>
<path d="M57.0822 139.443V129.513C57.0822 128.062 56.6407 125.749 55.4245 125.318C55.3673 125.3 55.3145 125.27 55.2692 125.232C55.2238 125.193 55.1869 125.146 55.1606 125.093C55.1342 125.04 55.119 124.983 55.1159 124.924C55.1127 124.865 55.1216 124.806 55.1421 124.751C55.1626 124.696 55.1942 124.645 55.2351 124.602C55.276 124.559 55.3254 124.524 55.3803 124.5C55.4352 124.476 55.4945 124.463 55.5547 124.461C55.6149 124.46 55.6748 124.47 55.7308 124.492C57.92 125.274 57.9831 129.082 57.9831 129.513V139.443C57.9831 139.56 57.9356 139.671 57.8511 139.754C57.7667 139.836 57.6521 139.883 57.5326 139.883C57.4131 139.883 57.2986 139.836 57.2141 139.754C57.1296 139.671 57.0822 139.56 57.0822 139.443Z" fill="#263238"/>
<path d="M47.6306 146.258C47.5739 146.267 47.5162 146.267 47.4595 146.258C47.4041 146.236 47.3539 146.204 47.3116 146.162C47.2693 146.121 47.2359 146.072 47.2132 146.018C47.1906 145.964 47.1792 145.906 47.1797 145.848C47.1802 145.789 47.1926 145.732 47.2162 145.678C47.2162 145.625 49.4234 140.559 52.027 133.295C54.5586 126.259 53.6667 124.852 53.1622 124.588C53.11 124.56 53.0639 124.523 53.0266 124.478C52.9893 124.433 52.9615 124.381 52.9448 124.325C52.928 124.27 52.9227 124.211 52.9291 124.154C52.9355 124.096 52.9534 124.041 52.982 123.99C53.0408 123.889 53.1376 123.814 53.2519 123.781C53.3662 123.748 53.489 123.76 53.5946 123.814C55.1892 124.693 54.964 127.763 52.8829 133.585C50.2703 140.867 48.0721 145.942 48.0721 145.995C48.0363 146.078 47.9744 146.149 47.8951 146.196C47.8159 146.244 47.7233 146.265 47.6306 146.258Z" fill="#263238"/>
</svg>
