<svg width="340" height="307" viewBox="0 0 340 307" fill="none" xmlns="http://www.w3.org/2000/svg">
<path d="M170 306.25C263.888 306.25 340 262.598 340 208.75C340 154.902 263.888 111.25 170 111.25C76.1116 111.25 0 154.902 0 208.75C0 262.598 76.1116 306.25 170 306.25Z" fill="#E9EEF8"/>
<path d="M132.47 218.62L158.962 205.162C161.696 203.792 163.06 201.957 163.06 200.142C163.06 198.327 163.06 196.909 163.06 196.909L135.586 183.287C134.82 182.847 134.182 182.254 133.724 181.557C133.266 180.859 133.002 180.077 132.953 179.273V150.576L86.7012 174.068V202.765C86.7518 203.569 87.0165 204.351 87.4739 205.048C87.9314 205.745 88.5688 206.338 89.3348 206.779L112.71 218.62C118.156 221.387 127.008 221.387 132.47 218.62Z" fill="#263238"/>
<path d="M97.7966 207.847V211.073L89.3192 206.779C88.5538 206.338 87.9172 205.745 87.461 205.047C87.0049 204.35 86.7419 203.568 86.6934 202.765V174.075L95.498 169.603C95.685 171.568 95.8798 173.602 96.0668 175.582L89.888 178.725V201.149C89.9343 201.953 90.1971 202.737 90.655 203.434C91.1128 204.132 91.7526 204.724 92.5216 205.162L97.7966 207.847Z" fill="black"/>
<path d="M89.8867 201.157C89.9361 201.96 90.2003 202.743 90.6578 203.44C91.1154 204.137 91.7535 204.73 92.5203 205.17L112.693 215.382C118.147 218.156 127.006 218.156 132.468 215.382L158.96 201.93C164.415 199.191 164.415 194.671 158.96 191.897L138.772 181.671C138.004 181.232 137.365 180.64 136.907 179.942C136.449 179.245 136.186 178.462 136.138 177.658V155.241L89.8945 178.733L89.8867 201.157Z" fill="#37474F"/>
<path d="M144.14 184.404L138.772 181.664C138.004 181.226 137.365 180.633 136.907 179.936C136.449 179.238 136.186 178.455 136.138 177.651V155.241L89.8867 178.733V201.157C89.9361 201.96 90.2003 202.743 90.6578 203.44C91.1154 204.137 91.7535 204.73 92.5203 205.17L97.7953 207.841L144.14 184.404Z" fill="#263238"/>
<path d="M163.051 196.944V200.184C163.051 201.999 161.68 203.807 158.953 205.197L132.461 218.649C129.558 220.01 126.316 220.716 123.025 220.703V217.477C126.316 217.494 129.56 216.787 132.461 215.423L158.953 201.958C161.68 200.547 163.051 198.732 163.051 196.944Z" fill="#455A64"/>
<path d="M15.6246 229.024C16.6228 229.449 17.7206 229.66 18.8292 229.642C19.9378 229.625 21.026 229.378 22.006 228.922L200.873 138.146C201.833 137.598 202.633 136.858 203.205 135.987C203.778 135.116 204.108 134.137 204.169 133.132V5.52967C204.124 4.5536 203.818 3.60049 203.277 2.7474C202.736 1.89431 201.973 1.16518 201.052 0.618975C200.054 0.194876 198.956 -0.0168051 197.847 0.00104177C196.739 0.0188887 195.65 0.265763 194.671 0.721709L15.8271 91.4702C14.868 92.0192 14.0696 92.7593 13.4969 93.6304C12.9242 94.5015 12.5934 95.4791 12.5312 96.4837V224.114C12.5734 225.088 12.8753 226.04 13.4126 226.893C13.9498 227.746 14.7075 228.476 15.6246 229.024Z" fill="#455A64"/>
<path d="M22.0069 228.915L200.874 138.146C201.833 137.597 202.631 136.857 203.204 135.986C203.777 135.115 204.107 134.137 204.17 133.132V5.5297C204.17 3.68049 202.697 2.93396 200.874 3.85856L22.0147 94.6276C21.0555 95.1766 20.2571 95.9167 19.6844 96.7878C19.1118 97.6589 18.7809 98.6365 18.7188 99.6411V227.244C18.7188 229.093 20.1914 229.819 22.0069 228.915Z" fill="#2058BB"/>
<path d="M22.0069 228.915L200.874 138.146C201.833 137.597 202.631 136.857 203.204 135.986C203.777 135.115 204.107 134.137 204.17 133.132V5.5297C204.17 3.68049 202.697 2.93396 200.874 3.85856L22.0147 94.6276C21.0555 95.1766 20.2571 95.9167 19.6844 96.7878C19.1118 97.6589 18.7809 98.6365 18.7188 99.6411V227.244C18.7188 229.093 20.1914 229.819 22.0069 228.915Z" fill="#37474F"/>
<path d="M21.5228 232.223C20.5869 232.578 19.5752 232.751 18.5562 232.733C17.5372 232.714 16.5348 232.502 15.6167 232.113C14.6943 231.566 13.9314 230.836 13.3899 229.982C12.8485 229.128 12.5436 228.173 12.5 227.196V215.614L18.6788 218.758V230.339C18.71 232.024 19.9255 232.785 21.5228 232.223Z" fill="#263238"/>
<path d="M18.7109 218.758V230.333C18.7109 232.182 20.1836 232.928 21.999 232.004L200.874 141.235C201.834 140.685 202.633 139.944 203.206 139.072C203.778 138.199 204.109 137.22 204.169 136.214V124.619L18.7109 218.758Z" fill="#37474F"/>
<path opacity="0.2" d="M18.7188 218.731V230.333C18.7188 232.182 20.1914 232.928 22.0069 232.004L200.874 141.235C201.834 140.685 202.633 139.944 203.206 139.072C203.778 138.199 204.109 137.22 204.17 136.214V124.619L18.7188 218.731Z" fill="black"/>
<path d="M24.8965 204.224V101.449C24.934 100.845 25.1327 100.258 25.4765 99.7345C25.8204 99.2109 26.2997 98.7659 26.8756 98.4355L196.003 12.6045C197.101 12.0497 197.982 12.5018 197.982 13.6045V116.387C197.944 116.99 197.746 117.578 197.402 118.101C197.058 118.625 196.579 119.07 196.003 119.4L26.8444 205.231C25.7769 205.786 24.8965 205.334 24.8965 204.224Z" fill="#2058BB"/>
<path opacity="0.3" d="M24.8965 204.224V101.449C24.934 100.845 25.1327 100.258 25.4765 99.7345C25.8204 99.2109 26.2997 98.7659 26.8756 98.4355L196.003 12.6045C197.101 12.0497 197.982 12.5018 197.982 13.6045V116.387C197.944 116.99 197.746 117.578 197.402 118.101C197.058 118.625 196.579 119.07 196.003 119.4L26.8444 205.231C25.7769 205.786 24.8965 205.334 24.8965 204.224Z" fill="#3D86E6"/>
<path d="M111.439 175.37C110.535 175.883 109.782 176.577 109.24 177.395C108.699 178.212 108.384 179.13 108.322 180.075C108.322 181.808 109.709 182.513 111.439 181.643C112.344 181.131 113.098 180.437 113.639 179.619C114.181 178.802 114.495 177.883 114.556 176.938C114.532 175.205 113.145 174.5 111.439 175.37Z" fill="#455A64"/>
<path d="M19.684 96.7784C19.0972 97.648 18.7627 98.6312 18.7101 99.6413V218.758L12.5312 215.614V96.5113C12.5764 95.5001 12.9114 94.5154 13.5052 93.6484L19.684 96.7784Z" fill="#263238"/>
<path d="M217.293 8.90384C217.027 8.78621 216.73 8.73486 216.433 8.75539C216.136 8.77592 215.852 8.86753 215.61 9.02028L37.343 99.5154C36.6659 99.8976 36.1011 100.415 35.6949 101.026C35.2886 101.636 35.0524 102.323 35.0055 103.029V208.674C34.978 209.017 35.0535 209.36 35.2245 209.669C35.3954 209.978 35.6558 210.242 35.9795 210.434C36.3535 210.612 38.317 211.626 38.9248 211.907C39.1348 212.001 39.3698 212.045 39.6055 212.033C39.8411 212.021 40.0688 211.953 40.2649 211.838L218.555 121.309C219.233 120.927 219.798 120.41 220.204 119.799C220.61 119.188 220.846 118.502 220.893 117.795V11.6366C220.932 11.3721 220.885 11.1033 220.759 10.861C220.632 10.6187 220.43 10.4127 220.176 10.2668C219.739 10.1367 217.714 9.15041 217.293 8.90384Z" fill="#2058BB"/>
<path d="M40.2965 100.988L218.556 10.5206C219.833 9.87677 220.893 10.4041 220.893 11.6986V117.857C220.847 118.564 220.611 119.25 220.205 119.861C219.798 120.472 219.233 120.989 218.556 121.371L40.2965 211.839C39.0187 212.482 37.959 211.434 37.959 210.14V104.502C38.0053 103.796 38.2412 103.109 38.6475 102.498C39.0538 101.888 39.6189 101.37 40.2965 100.988Z" fill="#FAFAFA"/>
<path d="M219.592 10.8969C220.02 10.8969 220.09 11.3763 220.09 11.6639V117.823C220.049 118.407 219.853 118.974 219.519 119.481C219.185 119.987 218.722 120.418 218.166 120.74L39.9069 211.242C39.7965 211.309 39.6669 211.347 39.5329 211.352C39.1277 211.352 38.7537 210.783 38.7537 210.14V104.501C38.7957 103.916 38.9914 103.348 39.3253 102.841C39.6592 102.333 40.1223 101.901 40.6783 101.577L218.945 11.0818C219.14 10.9734 219.362 10.9098 219.592 10.8969ZM219.592 10.212C219.225 10.2241 218.869 10.3185 218.556 10.4859L40.2965 100.988C39.6189 101.37 39.0538 101.887 38.6475 102.498C38.2412 103.109 38.0053 103.795 37.959 104.501V210.14C37.959 211.167 38.6057 212.037 39.5173 212.037C39.7928 212.035 40.0624 211.966 40.2965 211.838L218.556 121.309C219.233 120.927 219.798 120.41 220.205 119.799C220.611 119.188 220.847 118.502 220.893 117.795V11.6365C220.893 10.7119 220.371 10.1846 219.615 10.1846L219.592 10.212Z" fill="#E0E0E0"/>
<path d="M36.0038 210.434C36.2531 210.55 38.053 211.454 38.84 211.845C38.5557 211.639 38.3306 211.378 38.183 211.081C38.0354 210.785 37.9695 210.462 37.9907 210.139V111.138L35.0298 109.617V208.674C35.0054 209.016 35.0823 209.358 35.253 209.666C35.4237 209.975 35.6823 210.239 36.0038 210.434Z" fill="#F0F0F0"/>
<path d="M220.87 11.6427C220.87 10.3619 219.826 9.84139 218.532 10.4852L40.2965 100.987C39.6189 101.369 39.0538 101.886 38.6475 102.497C38.2412 103.108 38.0053 103.794 37.959 104.501V111.137L220.87 18.3067V11.6427Z" fill="#2058BB"/>
<g opacity="0.4">
<path d="M218.555 10.5201L40.2964 100.988C39.6157 101.359 39.0549 101.878 38.668 102.495L35.7383 101.002C36.1194 100.393 36.6722 99.8815 37.3434 99.5153L215.61 9.02022C215.851 8.86838 216.133 8.77673 216.428 8.75501C216.723 8.7333 217.02 8.78235 217.285 8.89694C217.698 9.12295 219.623 10.0818 220.106 10.3078C219.847 10.231 219.571 10.2102 219.301 10.2471C219.031 10.2841 218.775 10.3778 218.555 10.5201Z" fill="white"/>
</g>
<path opacity="0.15" d="M35.0293 109.625V103.029C35.0583 102.302 35.3027 101.594 35.7383 100.975L38.6758 102.461C38.2525 103.068 38.0163 103.762 37.9902 104.474V111.111L35.0293 109.625Z" fill="black"/>
<path d="M37.9902 111.138L37.9824 123.097L220.862 30.2796V18.3076L37.9902 111.138Z" fill="#EBEBEB"/>
<path d="M45.6015 110.255L57.4294 104.282V110.234L45.5938 116.24L45.6015 110.255Z" fill="#E0E0E0"/>
<path d="M60.3516 102.768V105.124L66.2499 102.125V99.7754L60.3516 102.768Z" fill="#E0E0E0"/>
<path d="M60.3516 106.405V108.761L66.2499 105.761V103.412L60.3516 106.405Z" fill="#E0E0E0"/>
<path d="M69.2031 98.2762V100.632L75.1015 97.6392V95.2832L69.2031 98.2762Z" fill="#E0E0E0"/>
<path d="M69.2031 101.912V104.268L75.1015 101.275V98.9189L69.2031 101.912Z" fill="#E0E0E0"/>
<path d="M78.0469 93.783V96.1391L83.9452 93.1461V90.79L78.0469 93.783Z" fill="#E0E0E0"/>
<path d="M78.0469 97.4198V99.7758L83.9452 96.7828V94.4268L78.0469 97.4198Z" fill="#E0E0E0"/>
<path d="M104.594 80.3113V82.6674L110.492 79.6744V77.3184L104.594 80.3113Z" fill="#E0E0E0"/>
<path d="M104.594 83.9549V86.3041L110.492 83.3111V80.9551L104.594 83.9549Z" fill="#E0E0E0"/>
<path d="M113.445 75.825V78.1742L119.344 75.1812V72.8252L113.445 75.825Z" fill="#E0E0E0"/>
<path d="M113.445 79.4618V81.8109L119.344 78.818V76.4619L113.445 79.4618Z" fill="#E0E0E0"/>
<path d="M122.289 71.3319L122.297 73.6879L128.195 70.6949V68.3389L122.289 71.3319Z" fill="#E0E0E0"/>
<path d="M122.289 74.9686L122.297 77.3246L128.195 74.3248V71.9756L122.289 74.9686Z" fill="#E0E0E0"/>
<path d="M86.8984 89.2965L101.648 81.8105V87.7965L86.8984 95.2824V89.2965Z" fill="#E0E0E0"/>
<path d="M131.148 66.8385L142.976 60.8662V66.8248L131.141 72.8313L131.148 66.8385Z" fill="#E0E0E0"/>
<path d="M145.891 59.3533L145.898 61.7094L151.797 58.7164V56.3604L145.891 59.3533Z" fill="#E0E0E0"/>
<path d="M145.891 62.9901L145.898 65.3461L151.797 62.3531V59.9971L145.891 62.9901Z" fill="#E0E0E0"/>
<path d="M154.74 54.867V57.2231L160.639 54.2232V51.8672L154.74 54.867Z" fill="#E0E0E0"/>
<path d="M154.74 58.5037V60.8598L160.639 57.8599V55.5039L154.74 58.5037Z" fill="#E0E0E0"/>
<path d="M163.592 50.3739V52.7299L169.49 49.7301V47.374L163.592 50.3739Z" fill="#E0E0E0"/>
<path d="M163.592 54.0106V56.3666L169.49 53.3668V51.0176L163.592 54.0106Z" fill="#E0E0E0"/>
<path d="M190.139 36.9022V39.2582L196.037 36.2584V33.9023L190.139 36.9022Z" fill="#E0E0E0"/>
<path d="M190.139 40.5389V42.8949L196.037 39.8951V37.5459L190.139 40.5389Z" fill="#E0E0E0"/>
<path d="M198.99 32.409V34.765L204.889 31.7721V29.416L198.99 32.409Z" fill="#E0E0E0"/>
<path d="M198.99 36.0457V38.4018L204.889 35.4088V33.0527L198.99 36.0457Z" fill="#E0E0E0"/>
<path d="M207.834 27.9168V30.2729L213.74 27.2799V24.9238L207.834 27.9168Z" fill="#E0E0E0"/>
<path d="M207.834 31.5535V33.9096L213.74 30.9166V28.5605L207.834 31.5535Z" fill="#E0E0E0"/>
<path d="M172.443 45.8814L187.193 38.3955V44.3883L172.443 51.8674V45.8814Z" fill="#E0E0E0"/>
<path d="M37.9902 111.138L35.0293 109.617V121.596L37.9824 123.096L37.9902 111.138Z" fill="#E0E0E0"/>
<path d="M173.674 37.5468V37.992C173.674 38.6769 174.235 38.9783 174.928 38.629L210.77 20.445C211.136 20.2341 211.44 19.9507 211.657 19.6176C211.875 19.2845 212.001 18.911 212.025 18.5273V18.089C212.025 17.4041 211.464 17.0959 210.77 17.452L174.928 35.636C174.563 35.845 174.258 36.127 174.04 36.4591C173.822 36.7912 173.697 37.1639 173.674 37.5468Z" fill="#F5F5F5"/>
<path d="M212.017 18.5273V18.089C212.017 17.4041 211.456 17.0959 210.763 17.452L206.088 19.8081V22.801L210.763 20.445C211.128 20.2341 211.432 19.9507 211.65 19.6176C211.868 19.2845 211.994 18.911 212.017 18.5273Z" fill="#455A64"/>
<path d="M40.9355 124.583L217.925 34.7793V40.7516L55.6775 123.096V200.935L40.9355 208.414V124.583Z" fill="#F0F0F0"/>
<path d="M55.6758 123.096L70.4177 115.617V121.589L55.6758 129.082V123.096Z" fill="#2058BB"/>
<path d="M55.6758 170.991L70.4177 163.512V169.484L55.6758 176.977V170.991Z" fill="#2058BB"/>
<path d="M55.6758 176.977L70.4177 169.498V175.47L55.6758 182.963V176.977Z" fill="#2058BB"/>
<path opacity="0.8" d="M55.6758 176.977L70.4177 169.498V175.47L55.6758 182.963V176.977Z" fill="white"/>
<path d="M144.16 126.083L158.902 118.604V124.576L144.16 132.069V126.083Z" fill="#2058BB"/>
<path opacity="0.3" d="M144.16 126.083L158.902 118.604V124.576L144.16 132.069V126.083Z" fill="black"/>
<path d="M144.16 132.069L158.902 124.59V130.562L144.16 138.055V132.069Z" fill="#2058BB"/>
<path opacity="0.4" d="M144.16 132.069L158.902 124.59V130.562L144.16 138.055V132.069Z" fill="black"/>
<path d="M144.16 138.061L158.902 130.582V136.554L144.16 144.047V138.061Z" fill="#2058BB"/>
<path opacity="0.5" d="M144.16 138.061L158.902 130.582V136.554L144.16 144.047V138.061Z" fill="black"/>
<path d="M144.16 144.047L158.902 136.568V142.541L144.16 150.033V144.047Z" fill="#2058BB"/>
<path opacity="0.3" d="M144.16 144.047L158.902 136.568V142.541L144.16 150.033V144.047Z" fill="black"/>
<path d="M129.424 85.6665L144.158 78.1875V108.124L129.424 115.617V85.6665Z" fill="#3D86E6"/>
<path d="M129.424 121.596L144.158 114.117V156.026L129.424 163.519V121.596Z" fill="#2058BB"/>
<path d="M70.418 151.533L85.1521 144.054V150.026L70.418 157.519V151.533Z" fill="#2058BB"/>
<path opacity="0.3" d="M70.418 151.533L85.1521 144.054V150.026L70.418 157.519V151.533Z" fill="black"/>
<path d="M99.9258 106.625L114.668 99.1455V105.118L99.9258 112.611V106.625Z" fill="#2058BB"/>
<path opacity="0.6" d="M99.9258 106.625L114.668 99.1455V105.118L99.9258 112.611V106.625Z" fill="white"/>
<path d="M173.674 105.125L188.408 97.6455V103.618L173.674 111.111V105.125Z" fill="#2058BB"/>
<path opacity="0.8" d="M173.674 105.125L188.408 97.6455V103.618L173.674 111.111V105.125Z" fill="white"/>
<path d="M173.674 117.104L188.408 109.625V115.597L173.674 123.09V117.104Z" fill="#3D86E6"/>
<path d="M40.771 124.316L40.5918 124.405V208.975L218.095 118.878L218.282 118.789V34.2178L40.771 124.316ZM217.573 112.446L203.548 119.562V114.309L217.573 107.2V112.446ZM41.3008 130.761L55.3259 123.644V128.898L41.3008 136.014V130.761ZM129.067 122.158V127.411L115.042 134.527V129.274L129.067 122.158ZM115.042 128.535V123.281L129.067 116.165V121.419L115.042 128.535ZM129.791 121.788L143.817 114.672V119.925L129.791 127.042V121.788ZM129.791 121.049V115.802L143.817 108.68V113.94L129.791 121.049ZM129.791 115.063V109.83L143.817 102.714V107.967L129.791 115.063ZM129.791 109.07V103.824L143.817 96.7007V101.954L129.791 109.07ZM129.067 109.44L115.042 116.556V111.303L129.067 104.187V109.44ZM129.067 110.179V115.433L115.042 122.549V117.295L129.067 110.179ZM114.317 122.918L100.292 130.035V124.781L114.317 117.665V122.918ZM114.317 123.651V128.904L100.292 136.021V130.767L114.317 123.651ZM114.317 129.644V134.897L100.292 142.013V136.76L114.317 129.644ZM114.317 135.63V140.883L100.292 147.999V142.746L114.317 135.63ZM115.042 135.26L129.067 128.144V133.397L115.042 140.513V135.26ZM129.067 134.137V139.39L115.042 146.506V141.253L129.067 134.137ZM129.791 133.767L143.817 126.651V131.904L129.791 139.02V133.767ZM129.791 133.028V127.774L143.817 120.658V125.911L129.791 133.028ZM144.541 120.295L158.566 113.179V118.432L144.541 125.548V120.295ZM144.541 119.556V114.303L158.566 107.186V112.44L144.541 119.556ZM144.541 113.57V108.317L158.566 101.2V106.454L144.541 113.57ZM144.541 107.577V102.296L158.566 95.1802V100.433L144.541 107.577ZM144.541 101.591V96.3377L158.566 89.2217V94.468L144.541 101.591ZM144.541 95.598V90.3449L158.566 83.2288V88.482L144.541 95.598ZM143.817 95.9679L129.791 103.084V97.8308L143.817 90.7147V95.9679ZM129.067 103.454L115.042 110.57V105.317L129.067 98.2006V103.454ZM114.317 110.94L100.292 118.056V112.803L114.317 105.687V110.94ZM114.317 111.673V116.926L100.292 124.042V118.789L114.317 111.673ZM99.5674 124.412L85.5423 131.528V126.268L99.5674 119.152V124.412ZM99.5674 125.151V130.377L85.5423 137.5V132.247L99.5674 125.151ZM99.5674 131.137V136.39L85.5423 143.506V138.253L99.5674 131.137ZM99.5674 137.13V142.376L85.5423 149.499V144.246L99.5674 137.13ZM99.5674 143.116V148.369L85.5423 155.485V150.239L99.5674 143.116ZM99.5674 149.109V154.348L85.5423 161.471V156.218L99.5674 149.109ZM100.292 148.739L114.317 141.623V146.876L100.292 153.992V148.739ZM114.317 147.609V152.862L100.292 159.978V154.725L114.317 147.609ZM115.042 147.239L129.067 140.123V145.376L115.042 152.492V147.239ZM129.791 139.753L143.817 132.637V137.911L129.791 145.027V139.753ZM144.541 132.274L158.566 125.158V130.411L144.541 137.527V132.274ZM144.541 131.534V126.268L158.566 119.152V124.405L144.541 131.534ZM159.291 118.795L173.316 111.679V116.932L159.291 124.049V118.795ZM159.291 118.063V112.809L173.316 105.693V110.947L159.291 118.063ZM159.291 112.07V106.817L173.316 99.7006V104.954L159.291 112.07ZM159.291 106.084V100.831L173.316 93.7146V98.9677L159.291 106.084ZM159.291 100.091V94.8378L173.316 87.7217V92.9749L159.291 100.091ZM159.291 94.105V88.8518L173.316 81.7358V86.9889L159.291 94.105ZM159.291 88.1121V82.859L173.316 75.7429V80.9961L159.291 88.1121ZM159.291 82.1262V76.873L173.316 69.757V75.0101L159.291 82.1262ZM158.566 82.4891L144.541 89.612V84.3589L158.566 77.2429V82.4891ZM143.817 89.9682L129.791 97.0843V91.838L143.817 84.7151V89.9682ZM129.067 97.4541L115.042 104.57V99.317L129.067 92.201V97.4541ZM114.317 104.94L100.292 112.056V106.803L114.317 99.6869V104.94ZM99.5674 112.433L85.5423 119.549V114.296L99.5674 107.18V112.433ZM99.5674 113.172V118.419L85.5423 125.542V120.288L99.5674 113.172ZM84.8176 125.905L70.7925 133.021V127.774L84.8176 120.651V125.905ZM84.8176 126.644V131.897L70.7925 139.014V133.76L84.8176 126.644ZM84.8176 132.63V137.911L70.7925 145.027V139.774L84.8176 132.63ZM84.8176 138.623V143.876L70.7925 150.992V145.739L84.8176 138.623ZM84.8176 144.609V149.862L70.7925 156.978V151.732L84.8176 144.609ZM84.8176 150.602V155.855L70.7925 162.971V157.718L84.8176 150.602ZM84.8176 156.588V161.841L70.7925 168.957V163.711L84.8176 156.588ZM84.8176 162.581V167.834L70.7925 174.95V169.697L84.8176 162.581ZM85.5423 162.211L99.5674 155.095V160.348L85.5423 167.464V162.211ZM99.5674 161.088V166.341L85.5423 173.457V168.204L99.5674 161.088ZM100.292 160.718L114.317 153.602V158.855L100.292 165.971V160.718ZM115.042 153.232L129.067 146.116V151.369L115.042 158.485V153.232ZM129.791 145.746L143.817 138.63V143.883L129.791 150.999V145.746ZM144.541 138.26L158.566 131.144V136.397L144.541 143.513V138.26ZM159.291 130.774L173.316 123.658V128.911L159.291 136.027V130.774ZM159.291 130.041V124.788L173.316 117.672V122.925L159.291 130.041ZM174.009 117.302L188.035 110.186V115.439L174.009 122.555V117.302ZM174.009 116.563V111.31L188.035 104.193V109.447L174.009 116.563ZM174.009 110.577V105.324L188.035 98.1869V103.44L174.009 110.577ZM174.009 104.584V99.3307L188.035 92.2146V97.502L174.009 104.584ZM174.009 98.5979V93.3447L188.035 86.2287V91.4818L174.009 98.5979ZM174.009 92.605V87.3519L188.035 80.2358V85.489L174.009 92.605ZM174.009 86.6191V81.3659L188.035 74.2499V79.503L174.009 86.6191ZM174.009 80.6262V75.3731L188.035 68.257V73.5307L174.009 80.6262ZM174.009 74.6403V69.4214L188.035 62.3053V67.5584L174.009 74.6403ZM174.009 68.6474V63.3943L188.035 56.2782V61.5314L174.009 68.6474ZM173.285 69.0173L159.26 76.1333V70.8802L173.285 63.7641V69.0173ZM158.535 76.5032L144.51 83.6192V78.3661L158.535 71.25V76.5032ZM143.785 83.9891L129.76 91.1051V85.8588L143.785 78.7428V83.9891ZM129.067 91.475L115.042 98.591V93.3379L129.067 86.2218V91.475ZM114.317 98.9609L100.292 106.077V100.824L114.317 93.7077V98.9609ZM99.5674 106.44L85.5423 113.563V108.31L99.5674 101.194V106.44ZM84.8176 113.94L70.7925 121.056V115.809L84.8176 108.686V113.94ZM84.8176 114.679V119.932L70.7925 127.048V121.795L84.8176 114.679ZM70.0679 127.418L56.0428 134.534V129.281L70.0679 122.165V127.418ZM70.0679 128.151V133.404L56.0428 140.52V135.267L70.0679 128.151ZM70.0679 134.144V139.397L56.0428 146.513V141.26L70.0679 134.144ZM70.0679 140.13V145.383L56.0428 152.499V147.246L70.0679 140.13ZM70.0679 146.123V151.376L56.0428 158.458V153.205L70.0679 146.123ZM70.0679 152.109V157.362L56.0428 164.478V159.211L70.0679 152.109ZM70.0679 158.102V163.355L56.0428 170.471V165.218L70.0679 158.102ZM70.0679 164.087V169.341L56.0428 176.457V171.204L70.0679 164.087ZM70.0679 170.08V175.333L56.0428 182.429V177.176L70.0679 170.08ZM70.0679 176.066V181.319L56.0428 188.435V183.182L70.0679 176.066ZM70.7925 175.703L84.8176 168.58V173.834L70.7925 180.95V175.703ZM84.8176 174.573V179.826L70.7925 186.942V181.676L84.8176 174.573ZM85.5423 174.203L99.5674 167.087V172.34L85.5423 179.457V174.203ZM100.292 166.676L114.317 159.56V164.813L100.292 171.93V166.676ZM115.042 159.19L129.067 152.074V157.328L115.042 164.444V159.19ZM129.791 151.711L143.817 144.589V149.842L129.791 156.958V151.711ZM144.541 144.226L158.566 137.109V142.363L144.541 149.479V144.226ZM159.291 136.74L173.316 129.624V134.877L159.291 141.993V136.74ZM174.009 129.281L188.035 122.158V127.411L174.009 134.527V129.281ZM174.009 128.541V123.288L188.035 116.172V121.425L174.009 128.541ZM188.814 115.809L202.839 108.686V113.94L188.814 121.056V115.809ZM188.814 115.07V109.83L202.839 102.714V107.967L188.814 115.07ZM188.814 109.077V103.83L202.839 96.7076V101.961L188.814 109.077ZM188.814 103.091V97.8376L202.839 90.7216V95.9747L188.814 103.091ZM188.814 97.098V91.8517L202.839 84.7288V89.9682L188.814 97.098ZM188.814 91.112V85.8588L202.839 78.7428V83.9959L188.814 91.112ZM188.814 85.1191V79.8728L202.839 72.7499V78.0031L188.814 85.1191ZM188.814 79.1332V73.88L202.839 66.764V72.0171L188.814 79.1332ZM188.814 73.1403V67.894L202.839 60.7711V65.9969L188.814 73.1403ZM188.814 67.1544V61.8875L202.839 54.7715V60.0246L188.814 67.1544ZM188.814 61.1615V55.9152L202.839 48.7923V54.0455L188.814 61.1615ZM188.814 55.1755V49.9224L202.839 42.8064V48.0595L188.814 55.1755ZM188.081 55.5454L174.056 62.6614V57.4083L188.081 50.2923V55.5454ZM173.339 63.0313L159.314 70.1473V64.8942L173.339 57.7781V63.0313ZM158.59 70.5103L144.565 77.6332V72.3801L158.59 65.264V70.5103ZM143.84 77.9962L129.815 85.1123V79.866L143.84 72.7499V77.9962ZM129.09 85.4821L115.065 92.5982V87.3519L129.09 80.2358V85.4821ZM114.34 92.968L100.315 100.084V94.8378L114.34 87.7217V92.968ZM99.5907 100.454L85.5656 107.57V102.296L99.5907 95.1802V100.454ZM84.841 107.94L70.8159 115.056V109.83L84.841 102.707V107.94ZM70.0679 115.426L56.0428 122.542V117.289L70.0679 110.173V115.426ZM70.0679 116.159V121.412L56.0428 128.528V123.275L70.0679 116.159ZM41.3008 136.753L55.3259 129.637V134.89L41.3008 142.006V136.753ZM41.3008 142.739L55.3259 135.623V140.876L41.3008 147.992V142.739ZM41.3008 148.732L55.3259 141.616V146.869L41.3008 153.985V148.732ZM41.3008 154.718L55.3259 147.602V152.855L41.3008 159.971V154.718ZM41.3008 160.711L55.3259 153.595V158.848L41.3008 165.964V160.711ZM41.3008 166.697L55.3259 159.581V164.834L41.3008 171.95V166.697ZM41.3008 172.69L55.3259 165.574V170.827L41.3008 177.943V172.69ZM41.3008 178.676L55.3259 171.56V176.813L41.3008 183.929V178.676ZM41.3008 184.669L55.3259 177.553V182.806L41.3008 189.922V184.669ZM41.3008 190.655L55.3259 183.538V188.792L41.3008 195.908V190.655ZM41.3008 196.647L55.3259 189.531V194.757L41.3008 201.873V196.647ZM56.0428 189.161L70.0679 182.045V187.299L56.0428 194.415V189.161ZM70.0679 188.031V193.264L56.0428 200.387V195.147L70.0679 188.031ZM70.7925 187.662L84.8176 180.546V185.785L70.7925 192.901V187.662ZM85.5423 180.183L99.5674 173.066V178.32L85.5423 185.436V180.183ZM100.292 172.697L114.317 165.581V170.786L100.292 177.902V172.697ZM115.042 165.211L129.067 158.095V163.327L115.042 170.443V165.211ZM129.791 157.725L143.817 150.609V155.841L129.791 162.957V157.725ZM144.541 150.239L158.566 143.123V148.355L144.541 155.472V150.239ZM159.291 142.753L173.316 135.637V140.87L159.291 147.986V142.753ZM174.009 135.267L188.035 128.151V133.384L174.009 140.5V135.267ZM188.814 127.788L202.839 120.665V125.898L188.814 133.014V127.788ZM188.814 127.048V121.795L202.839 114.679V119.932L188.814 127.048ZM217.581 106.46L203.556 113.577V108.323L217.581 101.207V106.46ZM217.581 100.468L203.556 107.584V102.331L217.581 95.2213V100.468ZM217.581 94.4817L203.54 101.611V96.3583L217.565 89.2422L217.581 94.4817ZM217.581 88.4888L203.556 95.6049V90.3517L217.581 83.2357V88.4888ZM217.581 82.5028L203.556 89.6189V84.3658L217.581 77.2497V82.5028ZM217.581 76.51L203.556 83.6261V78.3729L217.581 71.2569V76.51ZM217.581 70.524L203.54 77.6401V72.387L217.565 65.2709L217.581 70.524ZM217.581 64.5312L203.556 71.6473V66.3941L217.581 59.2781V64.5312ZM217.581 58.5452L203.556 65.6613V60.4081L217.581 53.2921V58.5452ZM217.581 52.5524L203.556 59.6685V54.4153L217.581 47.2993V52.5524ZM217.581 46.5664L203.54 53.6688V48.4293L217.565 41.3133L217.581 46.5664ZM217.581 40.5736L203.556 47.6896V42.4434L217.581 35.3273V40.5736ZM55.3182 117.658V122.912L41.2931 130.021V124.775L55.3182 117.658ZM41.2931 202.633L55.3182 195.517V200.75L41.2931 207.866V202.633ZM203.54 125.535V120.302L217.565 113.186V118.419L203.54 125.535Z" fill="#2058BB"/>
<path d="M158.9 70.6887L217.923 40.7588V70.7092L158.9 100.625V70.6887Z" fill="#FAFAFA"/>
<path d="M158.504 101.22V70.4892L158.699 70.3933L218.305 40.1689V70.907L158.504 101.22ZM159.283 70.8865V100.036L217.526 70.5098V41.3401L159.283 70.8865Z" fill="#E0E0E0"/>
<path d="M161.877 93.3927H161.783C161.71 93.368 161.65 93.3193 161.617 93.2567C161.583 93.1941 161.579 93.1226 161.604 93.0571L169.583 73.8801C169.598 73.8456 169.622 73.8144 169.653 73.7887C169.683 73.763 169.72 73.7433 169.76 73.731C169.799 73.7187 169.842 73.714 169.884 73.7172C169.926 73.7205 169.967 73.7317 170.004 73.7499L178.629 78.325L187.332 70.5309C187.385 70.4931 187.451 70.4725 187.519 70.4725C187.588 70.4725 187.654 70.4931 187.706 70.5309L196.277 75.4827L204.981 56.6344C204.997 56.6018 205.02 56.5723 205.049 56.5479C205.079 56.5234 205.113 56.5046 205.151 56.4924C205.189 56.4802 205.23 56.4749 205.27 56.477C205.31 56.479 205.35 56.4883 205.386 56.5043L214.229 60.4904C214.263 60.5057 214.293 60.5266 214.318 60.5521C214.342 60.5776 214.361 60.6071 214.372 60.6389C214.384 60.6707 214.388 60.7042 214.385 60.7375C214.382 60.7707 214.371 60.8031 214.354 60.8328C214.337 60.8625 214.313 60.8889 214.284 60.9104C214.255 60.932 214.221 60.9484 214.185 60.9585C214.149 60.9687 214.111 60.9725 214.073 60.9698C214.035 60.967 213.998 60.9577 213.964 60.9424L205.394 57.0864L196.667 75.969C196.65 76.004 196.625 76.0352 196.592 76.0601C196.56 76.085 196.521 76.1031 196.48 76.1128C196.442 76.1296 196.401 76.1384 196.359 76.1384C196.317 76.1384 196.276 76.1296 196.238 76.1128L187.589 71.1062L178.894 78.8935C178.848 78.9342 178.788 78.9603 178.723 78.9677C178.658 78.9751 178.592 78.9635 178.536 78.9346L170.019 74.4554L162.165 93.3105C162.129 93.3452 162.084 93.371 162.033 93.3855C161.983 93.3999 161.929 93.4024 161.877 93.3927Z" fill="#455A64"/>
<path d="M169.857 73.1059C169.596 73.2557 169.379 73.4582 169.225 73.6964C169.07 73.9346 168.982 74.2017 168.969 74.4756C168.969 74.9756 169.366 75.1605 169.857 74.9277C170.118 74.7774 170.334 74.5748 170.489 74.3367C170.643 74.0986 170.731 73.8317 170.745 73.5579C170.745 73.0579 170.348 72.8456 169.857 73.1059Z" fill="#2058BB"/>
<path d="M178.685 77.7353C178.425 77.8864 178.209 78.0892 178.055 78.3271C177.901 78.5651 177.812 78.8316 177.797 79.1051C177.797 79.6051 178.194 79.79 178.685 79.5572C178.945 79.4061 179.161 79.2033 179.315 78.9654C179.469 78.7274 179.558 78.4609 179.573 78.1874C179.589 77.6942 179.192 77.4888 178.685 77.7353Z" fill="#2058BB"/>
<path d="M187.543 69.7978C187.283 69.9489 187.067 70.1517 186.913 70.3896C186.758 70.6276 186.67 70.8941 186.654 71.1676C186.654 71.6676 187.052 71.8525 187.543 71.6197C187.803 71.4694 188.02 71.2668 188.174 71.0287C188.329 70.7906 188.417 70.5237 188.431 70.2499C188.431 69.7567 188.033 69.5513 187.543 69.7978Z" fill="#2058BB"/>
<path d="M196.386 74.9002C196.125 75.0501 195.908 75.2525 195.754 75.4907C195.599 75.7289 195.512 75.9961 195.498 76.27C195.498 76.77 195.895 76.9549 196.386 76.722C196.648 76.5721 196.864 76.3697 197.019 76.1315C197.173 75.8933 197.261 75.6261 197.275 75.3522C197.275 74.9002 196.877 74.6742 196.386 74.9002Z" fill="#2058BB"/>
<path d="M205.23 55.785C204.969 55.9349 204.752 56.1374 204.598 56.3756C204.443 56.6138 204.355 56.8809 204.342 57.1548C204.342 57.6548 204.739 57.8397 205.23 57.6069C205.491 57.4566 205.707 57.254 205.862 57.0159C206.016 56.7778 206.104 56.5109 206.118 56.2371C206.118 55.7234 205.721 55.5316 205.23 55.785Z" fill="#2058BB"/>
<path d="M214.074 59.7708C213.813 59.9207 213.596 60.1231 213.441 60.3613C213.287 60.5995 213.199 60.8667 213.186 61.1406C213.186 61.6406 213.583 61.8255 214.074 61.5926C214.335 61.4427 214.552 61.2403 214.706 61.0021C214.861 60.7639 214.948 60.4968 214.962 60.2228C214.962 59.7229 214.565 59.5174 214.074 59.7708Z" fill="#2058BB"/>
<path d="M278.316 51.8672C287.009 51.8672 291.136 54.3262 294.272 62.4164C297.408 70.5066 305.7 89.2812 305.863 94.8386C306.038 100.605 287.047 118.089 287.775 117.794C287.975 117.695 281.992 107.195 281.992 107.195L292.654 94.396L286.545 77.023L278.316 51.8672Z" fill="#FFA8A7"/>
<path d="M289.079 242.897C289.618 243.401 289.718 243.88 289.693 245.7C289.668 247.52 290.458 249.549 289.505 251.245C288.803 252.475 285.165 253.385 283.321 252.475C281.714 251.444 280.276 250.179 279.056 248.725C277.909 247.443 276.65 246.262 275.293 245.196C273.725 244.053 271.906 243.29 270.275 242.245C268.997 241.434 267.924 240.348 267.137 239.07C266.35 237.792 265.871 236.355 265.734 234.868C265.629 233.898 265.83 232.919 266.311 232.065C266.702 231.606 267.216 231.264 267.794 231.078C268.373 230.891 268.993 230.866 269.585 231.007C271.354 231.29 277.35 234.573 278.73 235.507C280.536 236.663 288.527 242.38 289.079 242.897Z" fill="#263238"/>
<path d="M280.275 235.372C280.212 236.676 274.605 233.627 272.309 233.922H272.247C270.102 234.93 271.883 237.868 273.865 239.368C275.847 240.868 282.345 245.516 282.345 245.516L283.674 237.979L280.275 235.372Z" fill="#FFA8A7"/>
<path d="M255.939 256.605C256.98 256.605 257.444 259.95 257.645 262.519C257.783 264.511 258.561 267.769 257.833 269.233C257.106 270.696 254.384 271.606 250.156 271.519C247.409 271.519 243.119 273.228 240.184 274.79C237.229 276.184 233.89 276.594 230.676 275.958C226.912 275.478 223.049 273.29 222.459 271.765C221.87 270.241 222.673 269.503 231.579 265.913C231.667 265.913 240.987 261.892 245.377 257.306L255.939 256.605Z" fill="#263238"/>
<path d="M231.615 265.913C230.361 266.404 229.32 266.847 228.379 267.24C228.141 268.064 228.467 269.38 232.406 270.019C238.402 271.003 256.039 257.982 256.039 257.982C256.039 257.982 253.53 258.671 253.041 257.257H245.376C240.986 261.892 231.615 265.876 231.615 265.913Z" fill="#FFA8A7"/>
<path d="M292.654 200.135C292.746 194.404 292.166 188.682 290.923 183.081C290.923 183.081 291.976 161.122 292.089 147.327C292.327 120.032 291.801 116.024 285.642 104.294C285.642 104.294 249.678 100.175 248.16 117.352C246.279 138.745 244.083 174.536 244.134 184.729C244.134 192.315 245.062 200.54 245.488 217.741C245.764 228.807 246.943 244.323 245.338 257.356C247.37 260.7 252.864 260.639 256 258.032C256.903 245.27 263.376 220.827 264.38 212.307C264.924 206.152 264.662 199.954 263.602 193.864C263.602 193.864 268.369 157.421 269.209 151.876C270.429 157.74 271.126 163.697 271.291 169.68C271.291 172.139 272.144 180.216 273.562 193.864C274.427 202.176 280.423 234.659 281.728 245.098C284.738 247.95 288.627 245.983 288.803 244.754C289.806 232.016 292.654 208.09 292.654 200.135Z" fill="#FFA8A7"/>
<path opacity="0.15" d="M269.248 151.839L272.422 134.146C277.835 133.326 282.817 130.766 286.584 126.867C286.584 126.867 284.677 133.937 275.294 136.347L271.531 152.33L270.904 166.925L269.248 151.839Z" fill="black"/>
<path d="M260.191 45.9288L261.684 61.9617L276.059 61.1133L274.956 43.3223L260.191 45.9288Z" fill="#FFA8A7"/>
<path d="M289.042 108.561C287.394 104.294 285.292 100.21 282.77 96.3761C288.916 76.9744 290.886 70.4457 289.694 62.1464C288.929 56.8718 284.677 51.5972 279.458 51.88H275.52C275.294 55.5686 264.87 55.7284 260.918 53.1956L257.268 53.294C254.697 54.1915 245.979 66.8186 244.975 75.1178C244.185 81.8924 249.616 87.7695 249.616 87.7695C249.636 90.6462 249.464 93.5212 249.102 96.3761C249.102 96.3761 249.102 112.79 249.102 120.966C249.102 120.966 251.122 127.261 272.22 125.294C291.036 123.548 291.438 117.265 291.438 117.265C290.988 114.282 290.184 111.361 289.042 108.561Z" fill="#2058BB"/>
<g opacity="0.3">
<path d="M289.042 108.561C287.394 104.294 285.292 100.21 282.77 96.3761C288.916 76.9744 290.886 70.4457 289.694 62.1464C288.929 56.8718 284.677 51.5972 279.458 51.88H275.52C275.294 55.5686 264.87 55.7284 260.918 53.1956L257.268 53.294C254.697 54.1915 245.979 66.8186 244.975 75.1178C244.185 81.8924 249.616 87.7695 249.616 87.7695C249.636 90.6462 249.464 93.5212 249.102 96.3761C249.102 96.3761 249.102 112.79 249.102 120.966C249.102 120.966 251.122 127.261 272.22 125.294C291.036 123.548 291.438 117.265 291.438 117.265C290.988 114.282 290.184 111.361 289.042 108.561Z" fill="#2058BB"/>
</g>
<path d="M262.361 8.40425C260.241 8.13141 258.084 8.36203 256.074 9.0767C254.063 9.79136 252.257 10.9691 250.808 12.5108C243.457 20.6256 251.523 26.601 251.523 26.601L262.361 8.40425Z" fill="#263238"/>
<path d="M249.578 28.2979C249.578 28.2979 246.379 33.0069 246.793 33.511C247.535 33.9937 248.359 34.3434 249.226 34.5438L249.578 28.2979Z" fill="#F28F8F"/>
<path d="M259.338 13.3834C256.239 14.9449 250.883 17.822 249.478 28.9859C248.035 40.4573 250.632 44.4409 252.225 45.9532C253.291 46.9737 258.848 47.3549 261.746 46.4819C265.384 45.3876 273.249 41.5639 276.937 35.6868C281.289 28.74 282.218 19.4572 277.225 15.8056C270.201 10.7031 261.959 12.0678 259.338 13.3834Z" fill="#FFA8A7"/>
<path d="M257.794 26.5764C251.309 23.3428 252.965 14.9083 252.965 14.9083C252.965 14.9083 262.222 1.93696 279.307 10.3222C285.215 13.2239 288.765 19.8141 288.627 27.5354C288.627 32.355 286.674 36.9771 283.197 40.3851C279.72 43.793 275.004 45.7076 270.087 45.7076C267.219 45.7076 264.469 44.591 262.441 42.6034C260.413 40.6158 259.274 37.9201 259.274 35.1092V34.4084L259.826 34.5805C260.708 34.7849 261.628 34.7718 262.504 34.5422C263.38 34.3126 264.184 33.8738 264.844 33.2649C267.691 30.8059 268.03 26.1461 264.43 24.9657C260.83 23.7854 258.961 27.9166 258.961 27.9166L257.568 31.6051C257.232 31.4856 256.923 31.3024 256.66 31.066C256.396 30.8296 256.182 30.5445 256.031 30.2271C255.879 29.9097 255.793 29.5662 255.777 29.2162C255.761 28.8661 255.816 28.5164 255.938 28.187C256.089 27.7904 256.338 27.4363 256.661 27.1555C256.985 26.8747 257.374 26.6759 257.794 26.5764Z" fill="#263238"/>
<path d="M218.595 29.1582L187.762 44.2935L202.263 85.2486L231.063 70.0518L218.595 29.1582Z" fill="#2058BB"/>
<path d="M217.127 33.1172L191.262 45.8181L204.107 81.0436L228.266 68.2935L217.127 33.1172Z" fill="#F5F5F5"/>
<path opacity="0.15" d="M211.659 36.8059L211.182 35.5763C210.919 34.8878 208.774 35.269 206.39 36.4247L201.837 38.6256C199.466 39.7813 197.748 41.2813 198.011 41.9821L198.488 43.2116L211.659 36.8059Z" fill="black"/>
<path d="M211.244 31.8258C211.081 31.3831 210.153 31.4446 209.162 31.9487L207.381 32.8463C207.381 32.8463 206.34 30.1413 202.238 31.9364C198.136 33.7315 199.014 36.8545 199.014 36.8545L197.12 37.8381C196.079 38.3791 195.326 39.1783 195.439 39.6086L195.652 40.4078L211.545 32.625L211.244 31.8258Z" fill="#37474F"/>
<path d="M209.513 33.597C208.033 34.2855 207.456 34.6175 207.858 35.6872C208.259 36.7569 208.748 37.7774 208.748 37.7774L201.724 41.2323C201.724 41.2323 201.172 39.6831 200.921 39.0929C200.67 38.5028 200.181 38.1954 199.064 38.7487L198.65 38.306L209.739 33.0068L209.513 33.597Z" fill="#263238"/>
<path d="M211.945 36.8795L211.481 35.6499C211.218 34.9614 209.073 35.3303 206.689 36.486L202.136 38.6991C199.753 39.8549 198.047 41.3549 198.31 42.0434L198.774 43.2729L211.945 36.8795Z" fill="#37474F"/>
<path d="M257.232 53.2934C252.377 53.2196 249.442 53.6377 242.819 63.277C236.195 72.9164 223.902 90.6214 222.472 92.9698C220.465 96.1665 219.963 101.072 221.644 104.035C223.162 106.826 225.847 107.798 233.486 99.8427C239.131 93.9534 251.047 78.314 251.047 78.314C251.047 78.314 260.267 61.4574 257.232 53.2934Z" fill="#FFA8A7"/>
<path d="M224.654 106.089C220.652 107.318 205.963 90.179 201.886 85.0274C198.606 80.7355 194.75 76.8975 190.421 73.6175C184.764 69.3757 185.705 63.0191 188.301 57.2281C189.204 55.2117 192.064 56.5764 192.064 56.5764L193.055 59.3674L194.761 64.1994C195.953 65.3183 196.643 65.6871 196.718 65.3551C196.881 64.7404 195.89 62.1461 195.953 59.4535C196.041 56.2199 198.324 58.3838 198.989 59.5273C199.903 61.2682 200.687 63.0722 201.334 64.9248C202.438 67.8388 201.911 70.7527 203.291 72.7568C204.671 74.7609 224.616 90.9905 224.616 90.9905L224.654 106.089Z" fill="#FFA8A7"/>
<path d="M282.82 96.376C282.82 96.376 268.759 104.515 249.065 96.376C247.308 106.502 246.115 116.714 245.49 126.966C244.787 140.024 243.244 168.044 243.244 168.044C243.244 168.044 249.052 174.696 269.8 173.343C289.745 172.114 293.257 166.95 293.257 166.95C293.257 166.95 293.257 141.782 293.407 130.778C293.545 116.712 291.538 109.065 282.82 96.376Z" fill="#2058BB"/>
<path d="M282.82 96.376C282.82 96.376 268.759 104.515 249.065 96.376C247.308 106.502 246.115 116.714 245.49 126.966C244.787 140.024 243.244 168.044 243.244 168.044C243.244 168.044 249.052 174.696 269.8 173.343C289.745 172.114 293.257 166.95 293.257 166.95C293.257 166.95 293.257 141.782 293.407 130.778C293.545 116.712 291.538 109.065 282.82 96.376Z" fill="#37474F"/>
<path d="M289.317 22.1256L292.616 19.1747C292.173 18.7074 291.582 18.4005 290.939 18.304C290.296 18.2075 289.638 18.3271 289.073 18.6433C288.507 18.9595 288.068 19.4537 287.825 20.0457C287.583 20.6377 287.552 21.2927 287.737 21.9043C287.335 21.9043 286.921 21.8428 286.482 21.8428V47.7609C286.482 51.3372 287.928 54.768 290.502 57.3026C293.076 59.8372 296.569 61.2693 300.218 61.2855V35.2937C300.205 32.2094 299.117 29.2222 297.135 26.8271C295.152 24.4321 292.394 22.7732 289.317 22.1256Z" fill="#263238"/>
</svg>
