<svg width="340" height="320" viewBox="0 0 340 320" fill="none" xmlns="http://www.w3.org/2000/svg">
<path d="M170 301.538C263.888 301.538 340 253.323 340 193.846C340 134.369 263.888 86.1538 170 86.1538C76.1116 86.1538 0 134.369 0 193.846C0 253.323 76.1116 301.538 170 301.538Z" fill="#2058BB" fill-opacity="0.1"/>
<path d="M1.10645 45.8149C4.37005 44.0906 8.8004 44.4256 13.6795 47.2532C16.0143 48.6346 18.1546 50.3221 20.0435 52.2709C26.9379 59.2336 31.8333 69.7512 31.8333 78.757C31.8333 90.3696 39.9923 104.475 50.0034 110.285L68.1736 120.786L145.611 76.0193L127.465 65.5098C117.438 59.7158 109.295 45.5942 109.295 33.9898C109.295 22.3853 101.136 8.28008 91.1249 2.47784C86.2295 -0.374253 81.7094 -0.67662 78.4376 1.12126L77.997 1.36642L52.4511 16.1499L48.3716 18.479L1.10645 45.8149Z" fill="#E6E6E6"/>
<path d="M230.653 108.25C230.563 108.191 230.458 108.159 230.351 108.159C230.244 108.159 230.139 108.191 230.049 108.25L227.822 109.55C227.583 109.711 227.386 109.926 227.244 110.177C227.102 110.428 227.021 110.708 227.006 110.996V137.204L320.835 190.528L324.531 162.505L230.653 108.25Z" fill="#263238"/>
<path d="M324.49 162.473C324.397 162.44 324.296 162.43 324.198 162.444C324.1 162.459 324.007 162.496 323.927 162.555L321.651 163.821C321.402 163.968 321.199 164.18 321.063 164.434L227.21 110.163C227.353 109.914 227.555 109.703 227.797 109.55L230.041 108.259C230.131 108.199 230.236 108.168 230.343 108.168C230.45 108.168 230.555 108.199 230.645 108.259L324.49 162.473Z" fill="#455A64"/>
<path d="M323.927 162.546L321.651 163.821C321.412 163.982 321.213 164.196 321.071 164.447C320.93 164.698 320.849 164.979 320.835 165.267V190.503L324.751 192.742V163.004C324.759 162.497 324.384 162.285 323.927 162.546Z" fill="#37474F"/>
<path d="M320.843 190.528V192.252L314.976 194.867L221.099 140.571L226.965 137.204L320.843 190.528Z" fill="black"/>
<path d="M316.934 198.267L323.926 194.181C324.166 194.021 324.364 193.806 324.506 193.555C324.648 193.304 324.729 193.023 324.742 192.734L320.825 190.495C320.813 190.784 320.733 191.065 320.591 191.317C320.449 191.568 320.25 191.782 320.01 191.942L317.766 193.241C317.309 193.503 316.95 193.29 316.95 192.759L316.934 198.267Z" fill="#37474F"/>
<path d="M338.531 195.537C338.966 195.239 339.326 194.842 339.581 194.38C339.836 193.917 339.979 193.401 340 192.873V108.071C339.971 107.526 339.815 106.995 339.542 106.522C339.27 106.049 338.89 105.647 338.433 105.349L229.821 42.538C229.367 42.2522 228.844 42.0957 228.309 42.0854C227.773 42.0751 227.244 42.2114 226.78 42.4795C226.316 42.7477 225.934 43.1376 225.675 43.6073C225.415 44.077 225.289 44.6086 225.309 45.1449V129.948C225.339 130.493 225.497 131.024 225.771 131.497C226.044 131.97 226.426 132.371 226.883 132.669L335.521 195.48C335.984 195.722 336.497 195.854 337.019 195.863C337.542 195.873 338.059 195.762 338.531 195.537Z" fill="#2058BB"/>
<path d="M337.063 109.77V194.573C337.063 195.57 336.361 195.979 335.496 195.48L226.883 132.669C226.426 132.371 226.044 131.97 225.771 131.497C225.497 131.024 225.339 130.493 225.309 129.947V45.1446C225.309 44.1476 226.018 43.739 226.883 44.2375L335.521 107.049C335.973 107.35 336.348 107.753 336.616 108.225C336.884 108.698 337.037 109.227 337.063 109.77Z" fill="#2058BB"/>
<path opacity="0.2" d="M340 108.07V192.873C339.98 193.401 339.836 193.917 339.581 194.379C339.326 194.842 338.967 195.238 338.532 195.537C338.113 195.74 337.656 195.853 337.191 195.869C336.726 195.884 336.262 195.802 335.831 195.627C336.533 195.856 337.063 195.447 337.063 194.573V109.762C337.042 109.217 336.885 108.686 336.606 108.218L339.535 106.518C339.821 106.987 339.981 107.521 340 108.07Z" fill="black"/>
<path d="M328.235 131.876V145.254C328.235 146.259 327.533 146.66 326.668 146.161L309.216 136.036C308.76 135.739 308.381 135.338 308.109 134.867C307.837 134.395 307.679 133.866 307.649 133.323V119.969C307.649 118.972 308.351 118.564 309.216 119.062L326.668 129.155C327.125 129.453 327.505 129.854 327.777 130.327C328.049 130.8 328.206 131.331 328.235 131.876Z" fill="#455A64"/>
<mask id="mask0_505_958" style="mask-type:luminance" maskUnits="userSpaceOnUse" x="307" y="118" width="22" height="29">
<path d="M328.235 131.876V145.254C328.235 146.259 327.533 146.66 326.668 146.161L309.216 136.036C308.76 135.739 308.381 135.338 308.109 134.867C307.837 134.395 307.679 133.866 307.649 133.323V119.969C307.649 118.972 308.351 118.564 309.216 119.062L326.668 129.155C327.125 129.453 327.505 129.854 327.777 130.327C328.049 130.8 328.206 131.331 328.235 131.876Z" fill="white"/>
</mask>
<g mask="url(#mask0_505_958)">
<path d="M304.884 121.238L304.529 121.854L330.993 137.17L331.348 136.554L304.884 121.238Z" fill="white"/>
<path d="M322.709 131.762H322V138.578H322.709V131.762Z" fill="white"/>
<path d="M313.89 126.687H313.181V133.494H313.89V126.687Z" fill="white"/>
<path d="M304.883 128.072L304.528 128.688L330.992 144.003L331.347 143.388L304.883 128.072Z" fill="white"/>
</g>
<path d="M328.235 157.39V160.552C328.235 161.557 327.533 161.958 326.668 161.459L309.216 151.367C308.76 151.07 308.381 150.669 308.109 150.198C307.837 149.726 307.679 149.197 307.649 148.654V145.475C307.649 144.469 308.351 144.069 309.216 144.567L326.668 154.66C327.126 154.959 327.506 155.362 327.779 155.836C328.051 156.311 328.207 156.843 328.235 157.39Z" fill="#FAFAFA"/>
<path d="M303.701 143.211V146.39C303.701 147.387 303 147.796 302.135 147.297L284.683 137.204C284.226 136.906 283.846 136.505 283.574 136.032C283.302 135.559 283.145 135.028 283.116 134.483V131.312C283.116 130.307 283.818 129.898 284.683 130.405L302.135 140.498C302.59 140.795 302.97 141.195 303.242 141.667C303.514 142.138 303.672 142.667 303.701 143.211Z" fill="#FAFAFA"/>
<path d="M279.224 129.04V132.219C279.224 133.216 278.522 133.625 277.657 133.126L260.205 123.034C259.749 122.736 259.369 122.334 259.096 121.861C258.824 121.388 258.667 120.858 258.639 120.312V117.134C258.639 116.137 259.34 115.728 260.205 116.226L277.657 126.319C278.113 126.618 278.492 127.02 278.764 127.493C279.037 127.965 279.194 128.496 279.224 129.04Z" fill="#FAFAFA"/>
<path d="M254.746 114.87V118.057C254.746 119.062 254.045 119.471 253.18 118.964L235.728 108.88C235.272 108.58 234.893 108.178 234.621 107.706C234.349 107.233 234.192 106.703 234.161 106.158V102.979C234.161 101.982 234.863 101.574 235.728 102.072L253.18 112.165C253.634 112.461 254.013 112.86 254.285 113.33C254.557 113.8 254.715 114.328 254.746 114.87Z" fill="#FAFAFA"/>
<path opacity="0.15" d="M243.895 118.702L247.901 121.015C248.174 121.195 248.401 121.437 248.564 121.721C248.727 122.005 248.821 122.323 248.84 122.649V123.875C248.84 124.472 248.415 124.693 247.901 124.415L243.895 122.143C243.622 121.963 243.395 121.721 243.232 121.437C243.069 121.154 242.975 120.835 242.957 120.508V119.283C242.957 118.645 243.381 118.4 243.895 118.702Z" fill="black"/>
<path opacity="0.15" d="M235.075 113.603L239.073 115.916C239.348 116.094 239.577 116.335 239.742 116.619C239.906 116.903 240.001 117.222 240.019 117.55V118.776C240.019 119.381 239.595 119.593 239.073 119.324L235.075 117.011C234.801 116.832 234.573 116.591 234.41 116.306C234.247 116.022 234.153 115.704 234.137 115.376V114.151C234.137 113.546 234.553 113.301 235.075 113.603Z" fill="black"/>
<path opacity="0.15" d="M285.58 151.31L235.81 122.511C234.945 122.012 234.243 122.413 234.243 123.418V124.889C234.272 125.434 234.429 125.965 234.701 126.438C234.973 126.911 235.353 127.312 235.81 127.61L285.58 156.409C286.445 156.908 287.146 156.507 287.146 155.502V154.015C287.115 153.472 286.957 152.945 286.685 152.475C286.413 152.005 286.034 151.606 285.58 151.31Z" fill="black"/>
<path opacity="0.5" d="M339.535 106.518L336.606 108.25C336.339 107.774 335.958 107.372 335.496 107.082L226.875 44.2377C226.06 43.7883 225.439 44.0825 225.325 44.8915C225.347 44.3771 225.503 43.8774 225.779 43.4427C226.054 43.0081 226.439 42.6537 226.895 42.4152C227.35 42.1767 227.861 42.0624 228.374 42.084C228.888 42.1055 229.387 42.2621 229.821 42.5379L338.434 105.349C338.897 105.636 339.276 106.039 339.535 106.518Z" fill="#FAFAFA"/>
<path d="M316.69 167.033L307.405 172.092C307.249 172.445 307.166 172.825 307.16 173.211V202.95C307.155 203.039 307.167 203.128 307.196 203.212C307.226 203.296 307.272 203.374 307.331 203.44L213.503 149.201C213.418 149.143 213.351 149.063 213.307 148.969C213.264 148.876 213.247 148.772 213.258 148.67V118.923C213.273 118.635 213.354 118.355 213.496 118.104C213.638 117.853 213.835 117.638 214.074 117.477L222.192 112.77C222.277 112.703 222.38 112.664 222.488 112.656C222.595 112.649 222.703 112.674 222.796 112.729L316.69 167.033Z" fill="#263238"/>
<path opacity="0.5" d="M316.698 167.025L230.889 117.387L226.973 115.123L222.836 112.729C222.743 112.674 222.636 112.649 222.528 112.656C222.421 112.664 222.318 112.703 222.233 112.77L214.114 117.477C213.87 117.629 213.67 117.843 213.535 118.098L307.413 172.083L316.698 167.025Z" fill="#37474F"/>
<path d="M307.405 172.091C307.248 172.45 307.162 172.836 307.152 173.227V202.966C307.152 203.497 307.528 203.709 307.968 203.448L316.943 198.267V167.572C316.955 167.468 316.939 167.363 316.896 167.268C316.853 167.173 316.784 167.092 316.698 167.033L307.405 172.091Z" fill="#37474F"/>
<path d="M308.074 203.367L308.392 203.211L309.771 202.394C311.106 200.733 311.834 198.666 311.836 196.535V171.405C311.829 170.854 311.76 170.306 311.632 169.771L310.889 170.179C310.971 170.577 311.015 170.982 311.02 171.389V196.535C310.87 199.088 309.827 201.507 308.074 203.367Z" fill="#263238"/>
<path d="M202.806 84.126C199.64 81.5599 193.88 78.2338 190.339 76.1908C184.383 72.7339 162.117 59.8464 152.808 54.4609C151.516 53.8041 150.087 53.4618 148.638 53.4618C147.189 53.4618 145.761 53.8041 144.469 54.4609L68.5902 98.3619C67.3781 99.156 66.3694 100.224 65.6452 101.481C64.921 102.737 64.5016 104.146 64.4209 105.594V151.563C64.5023 153.012 64.9219 154.422 65.6459 155.68C66.37 156.937 67.3784 158.007 68.5902 158.803L222.673 247.994C223.966 248.648 225.394 248.988 226.842 248.988C228.291 248.988 229.719 248.648 231.012 247.994L306.891 204.11C308.104 203.308 309.111 202.233 309.833 200.969C310.554 199.706 310.969 198.29 311.044 196.837V170.931C311.049 169.666 310.762 168.418 310.204 167.283C309.646 166.149 308.833 165.159 307.829 164.393C290.418 151.146 207.865 88.2202 202.806 84.126Z" fill="#455A64"/>
<path d="M311.043 196.837V171.691C311.042 171.185 310.982 170.68 310.863 170.188L226.63 218.82C226.756 219.342 226.824 219.877 226.834 220.414V245.543C226.834 247.995 225.283 249.065 223.276 248.248H223.333C223.521 248.33 223.709 248.403 223.905 248.469L224.28 248.583C224.484 248.64 224.688 248.689 224.9 248.73C225.112 248.771 225.177 248.779 225.316 248.804L225.944 248.886H226.418H227.013H227.544L228.082 248.845C228.278 248.845 228.474 248.779 228.669 248.738L229.126 248.657C229.339 248.6 229.551 248.526 229.755 248.461C229.959 248.395 229.999 248.395 230.114 248.346C230.38 248.242 230.639 248.119 230.889 247.978C230.929 247.964 230.967 247.945 231.003 247.921L306.882 204.037L307.975 203.416C309.776 201.679 310.869 199.335 311.043 196.837Z" fill="#37474F"/>
<path d="M118.588 132.84C132.818 144.347 207.13 200.669 223.595 213.14C224.608 213.901 225.431 214.888 225.997 216.023C226.564 217.158 226.859 218.409 226.859 219.678V245.543C226.859 248.199 224.982 249.286 222.689 247.994L68.5491 158.836C67.3374 158.04 66.329 156.97 65.6049 155.712C64.8809 154.455 64.4613 153.045 64.3799 151.595V105.594C64.3799 102.938 66.2565 101.851 68.5491 103.183L106.081 124.889C109.646 126.94 115.406 130.266 118.588 132.84Z" fill="#263238"/>
<path d="M118.131 117.942C121.672 119.985 127.433 123.312 130.623 125.894C133.703 128.436 136.624 131.165 139.369 134.066C139.969 134.651 140.738 135.03 141.566 135.151C142.394 135.271 143.239 135.126 143.979 134.736L199.036 102.865C199.361 102.706 199.642 102.469 199.855 102.176C200.068 101.884 200.206 101.543 200.257 101.185C200.309 100.826 200.272 100.461 200.15 100.12C200.028 99.7786 199.825 99.4726 199.558 99.2281C196.804 96.3278 193.874 93.5987 190.788 91.0559C187.614 88.4899 181.853 85.172 178.312 83.1207C171.573 79.2144 164.01 74.8423 157.197 70.9115C156.401 70.5105 155.522 70.3016 154.631 70.3016C153.74 70.3016 152.861 70.5105 152.065 70.9115L97.0323 102.767C95.6208 103.584 95.6208 104.916 97.0323 105.733L118.131 117.942Z" fill="#E0E0E0"/>
<path d="M152.066 73.5432C152.862 73.1422 153.741 72.9333 154.632 72.9333C155.523 72.9333 156.402 73.1422 157.198 73.5432C164.011 77.474 171.574 81.8462 178.313 85.7525C181.854 87.8037 187.615 91.1297 190.788 93.6958C193.876 96.2383 196.805 98.9675 199.559 101.868C199.658 101.972 199.749 102.084 199.829 102.203C199.607 102.488 199.329 102.725 199.013 102.898L143.956 134.769C143.215 135.159 142.37 135.304 141.542 135.184C140.714 135.063 139.945 134.684 139.346 134.099C136.6 131.198 133.679 128.469 130.599 125.927C127.409 123.344 121.624 120.018 118.108 117.975L97.0332 105.733C96.9353 105.676 96.8619 105.611 96.7803 105.554C96.8598 105.487 96.9444 105.427 97.0332 105.374L152.066 73.5432Z" fill="white"/>
<path d="M152.97 115.914L136.497 115.661V109.074L148.295 111.215L148.14 85.0395L158.396 84.8761L152.97 115.914Z" fill="#3D86E6"/>
<path d="M200.677 116.275L201.223 114.003L203.508 113.815L210.973 109.5C214.514 107.457 219.206 107.866 221.49 110.408C221.975 110.937 222.329 111.572 222.527 112.263L223.171 112.205L222.592 114.616C222.336 115.471 221.911 116.265 221.344 116.953C220.776 117.641 220.077 118.208 219.287 118.621L210.198 123.867C209.46 124.263 208.614 124.412 207.785 124.293C206.956 124.174 206.186 123.793 205.588 123.205C204.152 121.669 202.716 120.075 201.28 118.457C201.007 118.172 200.809 117.823 200.704 117.442C200.598 117.062 200.589 116.66 200.677 116.275Z" fill="#2058BB"/>
<path opacity="0.1" d="M200.677 116.275L201.223 114.003L203.508 113.815L210.973 109.5C214.514 107.457 219.206 107.866 221.49 110.408C221.975 110.937 222.329 111.572 222.527 112.263L223.171 112.205L222.592 114.616C222.336 115.471 221.911 116.265 221.344 116.953C220.776 117.641 220.077 118.208 219.287 118.621L210.198 123.867C209.46 124.263 208.614 124.412 207.785 124.293C206.956 124.174 206.186 123.793 205.588 123.205C204.152 121.669 202.716 120.075 201.28 118.457C201.007 118.172 200.809 117.823 200.704 117.442C200.598 117.062 200.589 116.66 200.677 116.275Z" fill="black"/>
<path d="M210.688 121.604L219.777 116.349C223.326 114.298 224.272 110.629 221.988 108.128C219.703 105.627 215.012 105.178 211.471 107.221L202.382 112.476C202.055 112.641 201.772 112.881 201.556 113.176C201.339 113.471 201.195 113.814 201.136 114.175C201.076 114.537 201.102 114.907 201.213 115.256C201.323 115.606 201.514 115.924 201.77 116.186C203.206 117.82 204.645 119.403 206.086 120.934C206.682 121.522 207.449 121.904 208.277 122.025C209.105 122.146 209.95 121.998 210.688 121.604Z" fill="#2058BB"/>
<path d="M154.195 144.6L154.75 142.296L155.394 142.238C156.011 141.497 156.758 140.874 157.597 140.4L166.686 135.145C167.419 134.754 168.259 134.614 169.078 134.747C169.898 134.879 170.651 135.278 171.223 135.881C172.634 137.474 174.046 139.043 175.457 140.563L176.738 140.457L176.159 142.851C175.976 143.451 175.566 143.956 175.017 144.257L165.928 149.512C162.378 151.563 157.589 151.236 155.321 148.695C154.81 148.159 154.439 147.504 154.243 146.79C154.046 146.075 154.03 145.323 154.195 144.6Z" fill="#2058BB"/>
<path opacity="0.1" d="M154.195 144.6L154.75 142.296L155.394 142.238C156.011 141.497 156.758 140.874 157.597 140.4L166.686 135.145C167.419 134.754 168.259 134.614 169.078 134.747C169.898 134.879 170.651 135.278 171.223 135.881C172.634 137.474 174.046 139.043 175.457 140.563L176.738 140.457L176.159 142.851C175.976 143.451 175.566 143.956 175.017 144.257L165.928 149.512C162.378 151.563 157.589 151.236 155.321 148.695C154.81 148.159 154.439 147.504 154.243 146.79C154.046 146.075 154.03 145.323 154.195 144.6Z" fill="black"/>
<path d="M166.441 147.223L175.531 141.969C175.854 141.808 176.133 141.571 176.345 141.278C176.557 140.985 176.694 140.645 176.745 140.288C176.797 139.93 176.761 139.565 176.64 139.224C176.519 138.884 176.318 138.577 176.053 138.332C174.617 136.787 173.189 135.202 171.753 133.584C171.182 132.98 170.429 132.58 169.61 132.446C168.791 132.311 167.95 132.45 167.217 132.84L158.127 138.095C154.586 140.146 153.518 143.889 155.81 146.414C158.103 148.939 162.9 149.266 166.441 147.223Z" fill="#2058BB"/>
<path d="M176.942 130.217L177.48 127.97L179.226 127.855L190.102 121.563C191.018 121.075 192.069 120.901 193.093 121.068C194.117 121.235 195.058 121.733 195.773 122.486C196.861 123.728 197.962 124.946 199.077 126.139C199.185 126.26 199.283 126.388 199.371 126.523L200.456 126.458L199.893 128.803C199.794 129.199 199.613 129.57 199.363 129.892C199.113 130.214 198.799 130.481 198.441 130.675L186.781 137.409C185.861 137.906 184.806 138.094 183.771 137.947C182.736 137.8 181.775 137.325 181.029 136.591C179.928 135.398 178.818 134.181 177.717 132.939C177.373 132.584 177.123 132.15 176.988 131.675C176.852 131.201 176.837 130.7 176.942 130.217Z" fill="#2058BB"/>
<path opacity="0.1" d="M176.942 130.217L177.48 127.97L179.226 127.855L190.102 121.563C191.018 121.075 192.069 120.901 193.093 121.068C194.117 121.235 195.058 121.733 195.773 122.486C196.861 123.728 197.962 124.946 199.077 126.139C199.185 126.26 199.283 126.388 199.371 126.523L200.456 126.458L199.893 128.803C199.794 129.199 199.613 129.57 199.363 129.892C199.113 130.214 198.799 130.481 198.441 130.675L186.781 137.409C185.861 137.906 184.806 138.094 183.771 137.947C182.736 137.8 181.775 137.325 181.029 136.591C179.928 135.398 178.818 134.181 177.717 132.939C177.373 132.584 177.123 132.15 176.988 131.675C176.852 131.201 176.837 130.7 176.942 130.217Z" fill="black"/>
<path d="M178.231 130.658C179.332 131.901 180.442 133.11 181.543 134.311C182.29 135.045 183.25 135.52 184.285 135.667C185.32 135.814 186.375 135.625 187.296 135.129L198.955 128.395C199.358 128.194 199.707 127.898 199.971 127.532C200.235 127.167 200.407 126.743 200.472 126.296C200.537 125.85 200.493 125.394 200.344 124.968C200.195 124.542 199.945 124.159 199.616 123.851C198.514 122.658 197.413 121.399 196.311 120.19C195.596 119.437 194.655 118.939 193.63 118.774C192.606 118.609 191.556 118.785 190.641 119.275L178.99 126.008C178.579 126.215 178.224 126.515 177.952 126.886C177.68 127.256 177.5 127.686 177.426 128.14C177.352 128.593 177.386 129.058 177.526 129.496C177.666 129.934 177.908 130.332 178.231 130.658Z" fill="#2058BB"/>
<g opacity="0.75">
<path d="M210.687 121.604L219.776 116.349C223.325 114.298 224.271 110.629 221.987 108.128C219.702 105.627 215.011 105.178 211.47 107.221L202.381 112.476C202.054 112.641 201.771 112.881 201.555 113.176C201.338 113.471 201.194 113.814 201.135 114.175C201.075 114.537 201.101 114.907 201.212 115.256C201.322 115.606 201.513 115.924 201.769 116.186C203.205 117.82 204.644 119.403 206.085 120.934C206.681 121.522 207.448 121.904 208.276 122.025C209.104 122.146 209.949 121.998 210.687 121.604Z" fill="white"/>
<path d="M166.441 147.223L175.531 141.969C175.854 141.808 176.133 141.571 176.345 141.278C176.557 140.986 176.694 140.646 176.745 140.288C176.797 139.93 176.761 139.565 176.64 139.224C176.519 138.884 176.318 138.578 176.053 138.332C174.617 136.788 173.189 135.202 171.753 133.584C171.182 132.98 170.429 132.58 169.61 132.446C168.791 132.311 167.95 132.45 167.217 132.84L158.127 138.095C154.586 140.146 153.518 143.889 155.81 146.414C158.103 148.94 162.9 149.267 166.441 147.223Z" fill="white"/>
<path d="M178.231 130.659C179.332 131.901 180.442 133.11 181.543 134.312C182.29 135.045 183.25 135.52 184.285 135.667C185.32 135.814 186.375 135.626 187.296 135.129L198.955 128.395C199.358 128.194 199.707 127.898 199.971 127.532C200.235 127.167 200.407 126.743 200.472 126.296C200.537 125.85 200.493 125.394 200.344 124.968C200.195 124.543 199.945 124.159 199.616 123.851C198.514 122.658 197.413 121.399 196.311 120.19C195.596 119.437 194.655 118.94 193.63 118.774C192.606 118.609 191.556 118.785 190.641 119.275L178.99 126.009C178.579 126.215 178.224 126.515 177.952 126.886C177.68 127.256 177.5 127.686 177.426 128.14C177.352 128.593 177.386 129.058 177.526 129.496C177.666 129.934 177.908 130.332 178.231 130.659Z" fill="white"/>
</g>
<path d="M195.911 155.877L193.513 155.935L186.798 150.803C186.205 150.393 185.513 150.152 184.794 150.106C184.076 150.06 183.358 150.21 182.718 150.541L172.454 156.466L169.231 156.548V159.179C169.246 159.443 169.321 159.7 169.451 159.929C169.582 160.159 169.763 160.355 169.982 160.503L178.337 166.894C178.93 167.302 179.623 167.541 180.341 167.587C181.059 167.633 181.776 167.484 182.416 167.155L194.973 159.898C195.239 159.772 195.465 159.576 195.629 159.332C195.793 159.087 195.888 158.803 195.903 158.509L195.911 155.877Z" fill="#2058BB"/>
<path opacity="0.1" d="M195.911 155.877L193.513 155.935L186.798 150.803C186.205 150.393 185.513 150.152 184.794 150.106C184.076 150.06 183.358 150.21 182.718 150.541L172.454 156.466L169.231 156.548V159.179C169.246 159.443 169.321 159.7 169.451 159.929C169.582 160.159 169.763 160.355 169.982 160.503L178.337 166.894C178.93 167.302 179.623 167.541 180.341 167.587C181.059 167.633 181.776 167.484 182.416 167.155L194.973 159.898C195.239 159.772 195.465 159.576 195.629 159.332C195.793 159.087 195.888 158.803 195.903 158.509L195.911 155.877Z" fill="black"/>
<path d="M170.162 155.159L182.727 147.91C183.367 147.579 184.085 147.429 184.803 147.475C185.522 147.521 186.214 147.762 186.807 148.172L195.186 154.562C195.432 154.702 195.634 154.908 195.769 155.157C195.903 155.406 195.965 155.689 195.946 155.971C195.927 156.254 195.829 156.526 195.663 156.755C195.497 156.984 195.269 157.162 195.007 157.267L182.45 164.524C181.81 164.853 181.092 165.002 180.374 164.956C179.656 164.91 178.964 164.671 178.37 164.263L170.015 157.872C169.771 157.732 169.57 157.527 169.436 157.279C169.301 157.032 169.238 156.751 169.253 156.47C169.268 156.188 169.362 155.917 169.522 155.685C169.683 155.454 169.904 155.271 170.162 155.159Z" fill="#2058BB"/>
<path opacity="0.75" d="M170.162 155.159L182.727 147.91C183.367 147.579 184.085 147.429 184.803 147.475C185.522 147.521 186.214 147.762 186.807 148.172L195.186 154.562C195.432 154.702 195.634 154.908 195.769 155.157C195.903 155.406 195.965 155.689 195.946 155.971C195.927 156.254 195.829 156.526 195.663 156.755C195.497 156.984 195.269 157.162 195.007 157.267L182.45 164.524C181.81 164.853 181.092 165.002 180.374 164.956C179.656 164.91 178.964 164.671 178.37 164.263L170.015 157.872C169.771 157.732 169.57 157.527 169.436 157.279C169.301 157.032 169.238 156.751 169.253 156.47C169.268 156.188 169.362 155.917 169.522 155.685C169.683 155.454 169.904 155.271 170.162 155.159Z" fill="white"/>
<path d="M244.956 193.331L242.557 193.396L235.842 188.256C235.249 187.848 234.556 187.608 233.838 187.562C233.12 187.516 232.403 187.665 231.763 187.994L221.49 193.927L218.268 194.001V196.632C218.28 196.897 218.355 197.154 218.485 197.384C218.615 197.614 218.798 197.81 219.018 197.956L227.373 204.347C227.966 204.757 228.658 204.997 229.377 205.043C230.095 205.089 230.813 204.939 231.453 204.608L243.977 197.327C244.242 197.199 244.468 197.002 244.63 196.755C244.792 196.509 244.885 196.224 244.899 195.929L244.956 193.331Z" fill="#2058BB"/>
<path opacity="0.1" d="M244.956 193.331L242.557 193.396L235.842 188.256C235.249 187.848 234.556 187.608 233.838 187.562C233.12 187.516 232.403 187.665 231.763 187.994L221.49 193.927L218.268 194.001V196.632C218.28 196.897 218.355 197.154 218.485 197.384C218.615 197.614 218.798 197.81 219.018 197.956L227.373 204.347C227.966 204.757 228.658 204.997 229.377 205.043C230.095 205.089 230.813 204.939 231.453 204.608L243.977 197.327C244.242 197.199 244.468 197.002 244.63 196.755C244.792 196.509 244.885 196.224 244.899 195.929L244.956 193.331Z" fill="black"/>
<path d="M219.165 192.612L231.73 185.363C232.37 185.034 233.088 184.885 233.806 184.931C234.524 184.977 235.216 185.216 235.81 185.624L244.14 192.015C244.386 192.156 244.587 192.363 244.721 192.613C244.855 192.862 244.916 193.145 244.898 193.428C244.879 193.711 244.781 193.983 244.615 194.213C244.45 194.443 244.223 194.621 243.961 194.728L231.396 201.977C230.756 202.308 230.038 202.458 229.32 202.412C228.601 202.366 227.909 202.125 227.316 201.715L218.961 195.325C218.719 195.18 218.522 194.971 218.392 194.72C218.261 194.469 218.204 194.187 218.225 193.905C218.246 193.623 218.345 193.353 218.511 193.124C218.678 192.896 218.904 192.718 219.165 192.612Z" fill="#2058BB"/>
<path opacity="0.75" d="M219.165 192.612L231.73 185.363C232.37 185.034 233.088 184.885 233.806 184.931C234.524 184.977 235.216 185.216 235.81 185.624L244.14 192.015C244.386 192.156 244.587 192.363 244.721 192.613C244.855 192.862 244.916 193.145 244.898 193.428C244.879 193.711 244.781 193.983 244.615 194.213C244.45 194.443 244.223 194.621 243.961 194.728L231.396 201.977C230.756 202.308 230.038 202.458 229.32 202.412C228.601 202.366 227.909 202.125 227.316 201.715L218.961 195.325C218.719 195.18 218.522 194.971 218.392 194.72C218.261 194.469 218.204 194.187 218.225 193.905C218.246 193.623 218.345 193.353 218.511 193.124C218.678 192.896 218.904 192.718 219.165 192.612Z" fill="white"/>
<path d="M212.247 168.365L209.848 168.422L203.133 163.29C202.54 162.881 201.848 162.639 201.13 162.592C200.412 162.544 199.694 162.692 199.053 163.02L188.781 168.953L185.518 169.035V171.666C185.533 171.93 185.609 172.186 185.739 172.416C185.869 172.645 186.05 172.842 186.268 172.99L194.68 179.348C195.273 179.758 195.965 179.999 196.683 180.046C197.401 180.094 198.119 179.946 198.76 179.618L211.316 172.361C211.582 172.235 211.809 172.039 211.972 171.795C212.136 171.55 212.231 171.266 212.247 170.972V168.365Z" fill="#2058BB"/>
<path opacity="0.1" d="M212.247 168.365L209.848 168.422L203.133 163.29C202.54 162.881 201.848 162.639 201.13 162.592C200.412 162.544 199.694 162.692 199.053 163.02L188.781 168.953L185.518 169.035V171.666C185.533 171.93 185.609 172.186 185.739 172.416C185.869 172.645 186.05 172.842 186.268 172.99L194.68 179.348C195.273 179.758 195.965 179.999 196.683 180.046C197.401 180.094 198.119 179.946 198.76 179.618L211.316 172.361C211.582 172.235 211.809 172.039 211.972 171.795C212.136 171.55 212.231 171.266 212.247 170.972V168.365Z" fill="black"/>
<path d="M186.496 167.646L199.061 160.389C199.702 160.061 200.419 159.913 201.137 159.961C201.856 160.008 202.548 160.249 203.14 160.659L211.503 167.041C211.749 167.182 211.95 167.389 212.084 167.639C212.218 167.888 212.279 168.171 212.261 168.454C212.242 168.737 212.144 169.009 211.978 169.239C211.813 169.469 211.586 169.647 211.324 169.754L198.767 177.011C198.126 177.339 197.408 177.487 196.69 177.439C195.972 177.392 195.28 177.151 194.687 176.741L186.324 170.359C186.081 170.217 185.882 170.01 185.749 169.761C185.616 169.512 185.556 169.231 185.573 168.949C185.591 168.668 185.687 168.397 185.85 168.166C186.013 167.936 186.236 167.756 186.496 167.646Z" fill="#2058BB"/>
<path opacity="0.75" d="M186.496 167.646L199.061 160.389C199.702 160.061 200.419 159.913 201.137 159.961C201.856 160.008 202.548 160.249 203.14 160.659L211.503 167.041C211.749 167.182 211.95 167.389 212.084 167.639C212.218 167.888 212.279 168.171 212.261 168.454C212.242 168.737 212.144 169.009 211.978 169.239C211.813 169.469 211.586 169.647 211.324 169.754L198.767 177.011C198.126 177.339 197.408 177.487 196.69 177.439C195.972 177.392 195.28 177.151 194.687 176.741L186.324 170.359C186.081 170.217 185.882 170.01 185.749 169.761C185.616 169.512 185.556 169.231 185.573 168.949C185.591 168.668 185.687 168.397 185.85 168.166C186.013 167.936 186.236 167.756 186.496 167.646Z" fill="white"/>
<path d="M228.581 180.844L226.182 180.909L219.467 175.769C218.874 175.361 218.182 175.121 217.463 175.075C216.745 175.029 216.028 175.178 215.388 175.507L205.115 181.44L201.893 181.522V184.153C201.906 184.416 201.981 184.672 202.112 184.901C202.242 185.129 202.424 185.324 202.643 185.469L210.998 191.86C211.591 192.269 212.283 192.51 213.002 192.556C213.72 192.602 214.438 192.452 215.078 192.121L227.634 184.872C227.9 184.744 228.125 184.547 228.288 184.301C228.45 184.055 228.543 183.77 228.556 183.475L228.581 180.844Z" fill="#2058BB"/>
<path opacity="0.1" d="M228.581 180.844L226.182 180.909L219.467 175.769C218.874 175.361 218.182 175.121 217.463 175.075C216.745 175.029 216.028 175.178 215.388 175.507L205.115 181.44L201.893 181.522V184.153C201.906 184.416 201.981 184.672 202.112 184.901C202.242 185.129 202.424 185.324 202.643 185.469L210.998 191.86C211.591 192.269 212.283 192.51 213.002 192.556C213.72 192.602 214.438 192.452 215.078 192.121L227.634 184.872C227.9 184.744 228.125 184.547 228.288 184.301C228.45 184.055 228.543 183.77 228.556 183.475L228.581 180.844Z" fill="black"/>
<path d="M202.83 180.165L215.395 172.909C216.035 172.58 216.752 172.43 217.471 172.476C218.189 172.522 218.881 172.762 219.474 173.17L227.821 179.528C228.067 179.669 228.268 179.876 228.402 180.126C228.536 180.375 228.597 180.658 228.579 180.941C228.56 181.224 228.462 181.496 228.296 181.726C228.131 181.956 227.904 182.134 227.641 182.241L215.085 189.49C214.445 189.821 213.727 189.971 213.009 189.925C212.29 189.879 211.598 189.638 211.005 189.228L202.65 182.838C202.416 182.694 202.225 182.488 202.098 182.243C201.972 181.998 201.915 181.723 201.933 181.447C201.952 181.172 202.045 180.907 202.203 180.681C202.361 180.455 202.578 180.277 202.83 180.165Z" fill="#2058BB"/>
<path opacity="0.75" d="M202.83 180.165L215.395 172.909C216.035 172.58 216.752 172.43 217.471 172.476C218.189 172.522 218.881 172.762 219.474 173.17L227.821 179.528C228.067 179.669 228.268 179.876 228.402 180.126C228.536 180.375 228.597 180.658 228.579 180.941C228.56 181.224 228.462 181.496 228.296 181.726C228.131 181.956 227.904 182.134 227.641 182.241L215.085 189.49C214.445 189.821 213.727 189.971 213.009 189.925C212.29 189.879 211.598 189.638 211.005 189.228L202.65 182.838C202.416 182.694 202.225 182.488 202.098 182.243C201.972 181.998 201.915 181.723 201.933 181.447C201.952 181.172 202.045 180.907 202.203 180.681C202.361 180.455 202.578 180.277 202.83 180.165Z" fill="white"/>
<path d="M221.123 141.323L218.724 141.389L212.009 136.248C211.416 135.84 210.723 135.6 210.005 135.554C209.287 135.508 208.57 135.658 207.929 135.987L197.633 141.92L194.369 142.001V144.633C194.385 144.895 194.461 145.151 194.591 145.379C194.721 145.607 194.902 145.802 195.12 145.949L203.556 152.38C204.149 152.79 204.841 153.031 205.56 153.077C206.278 153.123 206.996 152.972 207.636 152.642L220.201 145.393C220.466 145.265 220.692 145.068 220.854 144.821C221.016 144.575 221.109 144.29 221.123 143.995V141.323Z" fill="#2058BB"/>
<path opacity="0.1" d="M221.123 141.323L218.724 141.389L212.009 136.248C211.416 135.84 210.723 135.6 210.005 135.554C209.287 135.508 208.57 135.658 207.929 135.987L197.633 141.92L194.369 142.001V144.633C194.385 144.895 194.461 145.151 194.591 145.379C194.721 145.607 194.902 145.802 195.12 145.949L203.556 152.38C204.149 152.79 204.841 153.031 205.56 153.077C206.278 153.123 206.996 152.972 207.636 152.642L220.201 145.393C220.466 145.265 220.692 145.068 220.854 144.821C221.016 144.575 221.109 144.29 221.123 143.995V141.323Z" fill="black"/>
<path d="M195.373 140.612L207.938 133.355C208.579 133.026 209.296 132.877 210.014 132.923C210.732 132.969 211.425 133.209 212.018 133.617L220.373 140.007C220.616 140.149 220.815 140.356 220.948 140.605C221.081 140.854 221.141 141.135 221.124 141.417C221.106 141.699 221.01 141.97 220.847 142.2C220.684 142.43 220.461 142.61 220.201 142.72L207.636 149.969C206.997 150.3 206.279 150.45 205.561 150.404C204.842 150.358 204.149 150.117 203.557 149.708L195.186 143.317C194.942 143.175 194.744 142.968 194.612 142.718C194.48 142.469 194.421 142.188 194.44 141.906C194.46 141.625 194.557 141.354 194.722 141.126C194.887 140.897 195.113 140.719 195.373 140.612Z" fill="#2058BB"/>
<path opacity="0.75" d="M195.373 140.612L207.938 133.355C208.579 133.026 209.296 132.877 210.014 132.923C210.732 132.969 211.425 133.209 212.018 133.617L220.373 140.007C220.616 140.149 220.815 140.356 220.948 140.605C221.081 140.854 221.141 141.135 221.124 141.417C221.106 141.699 221.01 141.97 220.847 142.2C220.684 142.43 220.461 142.61 220.201 142.72L207.636 149.969C206.997 150.3 206.279 150.45 205.561 150.404C204.842 150.358 204.149 150.117 203.557 149.708L195.186 143.317C194.942 143.175 194.744 142.968 194.612 142.718C194.48 142.469 194.421 142.188 194.44 141.906C194.46 141.625 194.557 141.354 194.722 141.126C194.887 140.897 195.113 140.719 195.373 140.612Z" fill="white"/>
<path d="M270.126 178.785L267.727 178.842L261.012 173.701C260.419 173.295 259.726 173.056 259.008 173.01C258.291 172.964 257.574 173.113 256.933 173.44L246.669 179.348L243.405 179.43V182.062C243.42 182.325 243.495 182.582 243.625 182.812C243.755 183.042 243.937 183.238 244.156 183.385L252.511 189.768C253.103 190.177 253.795 190.418 254.513 190.466C255.232 190.513 255.949 190.365 256.59 190.038L269.147 182.781C269.412 182.653 269.638 182.455 269.8 182.209C269.963 181.963 270.055 181.678 270.069 181.383L270.126 178.785Z" fill="#2058BB"/>
<path opacity="0.1" d="M270.126 178.785L267.727 178.842L261.012 173.701C260.419 173.295 259.726 173.056 259.008 173.01C258.291 172.964 257.574 173.113 256.933 173.44L246.669 179.348L243.405 179.43V182.062C243.42 182.325 243.495 182.582 243.625 182.812C243.755 183.042 243.937 183.238 244.156 183.385L252.511 189.768C253.103 190.177 253.795 190.418 254.513 190.466C255.232 190.513 255.949 190.365 256.59 190.038L269.147 182.781C269.412 182.653 269.638 182.455 269.8 182.209C269.963 181.963 270.055 181.678 270.069 181.383L270.126 178.785Z" fill="black"/>
<path d="M244.377 178.065L256.941 170.808C257.582 170.481 258.3 170.333 259.018 170.38C259.736 170.427 260.428 170.669 261.021 171.078L269.376 177.46C269.622 177.601 269.823 177.808 269.957 178.058C270.091 178.308 270.152 178.59 270.133 178.873C270.115 179.156 270.017 179.428 269.851 179.658C269.685 179.888 269.459 180.067 269.196 180.174L256.64 187.431C255.999 187.758 255.281 187.906 254.563 187.859C253.845 187.811 253.153 187.57 252.56 187.161L244.205 180.778C243.962 180.636 243.763 180.429 243.63 180.18C243.497 179.931 243.436 179.65 243.454 179.369C243.472 179.087 243.568 178.816 243.731 178.586C243.893 178.356 244.117 178.175 244.377 178.065Z" fill="#2058BB"/>
<path opacity="0.75" d="M244.377 178.065L256.941 170.808C257.582 170.481 258.3 170.333 259.018 170.38C259.736 170.427 260.428 170.669 261.021 171.078L269.376 177.46C269.622 177.601 269.823 177.808 269.957 178.058C270.091 178.308 270.152 178.59 270.133 178.873C270.115 179.156 270.017 179.428 269.851 179.658C269.685 179.888 269.459 180.067 269.196 180.174L256.64 187.431C255.999 187.758 255.281 187.906 254.563 187.859C253.845 187.811 253.153 187.57 252.56 187.161L244.205 180.778C243.962 180.636 243.763 180.429 243.63 180.18C243.497 179.931 243.436 179.65 243.454 179.369C243.472 179.087 243.568 178.816 243.731 178.586C243.893 178.356 244.117 178.175 244.377 178.065Z" fill="white"/>
<path d="M237.457 153.81L235.058 153.876L228.343 148.735C227.751 148.326 227.058 148.085 226.339 148.039C225.621 147.993 224.903 148.143 224.264 148.474L213.991 154.399L210.769 154.48V157.112C210.783 157.376 210.858 157.632 210.988 157.862C211.119 158.092 211.3 158.288 211.519 158.436L219.874 164.826C220.467 165.234 221.16 165.474 221.878 165.52C222.596 165.566 223.313 165.417 223.954 165.088L236.518 157.839C236.782 157.714 237.007 157.521 237.17 157.28C237.334 157.038 237.43 156.757 237.449 156.466L237.457 153.81Z" fill="#2058BB"/>
<path opacity="0.1" d="M237.457 153.81L235.058 153.876L228.343 148.735C227.751 148.326 227.058 148.085 226.339 148.039C225.621 147.993 224.903 148.143 224.264 148.474L213.991 154.399L210.769 154.48V157.112C210.783 157.376 210.858 157.632 210.988 157.862C211.119 158.092 211.3 158.288 211.519 158.436L219.874 164.826C220.467 165.234 221.16 165.474 221.878 165.52C222.596 165.566 223.313 165.417 223.954 165.088L236.518 157.839C236.782 157.714 237.007 157.521 237.17 157.28C237.334 157.038 237.43 156.757 237.449 156.466L237.457 153.81Z" fill="black"/>
<path d="M211.707 153.091L224.272 145.842C224.912 145.513 225.63 145.364 226.348 145.41C227.066 145.456 227.758 145.696 228.352 146.104L236.706 152.494C236.95 152.636 237.149 152.843 237.282 153.092C237.414 153.341 237.475 153.622 237.457 153.904C237.44 154.186 237.344 154.457 237.181 154.687C237.018 154.917 236.795 155.097 236.535 155.208L223.97 162.456C223.33 162.785 222.613 162.935 221.895 162.889C221.176 162.843 220.484 162.603 219.891 162.195L211.503 155.804C211.261 155.659 211.064 155.45 210.934 155.199C210.803 154.948 210.746 154.666 210.767 154.384C210.788 154.102 210.887 153.832 211.053 153.604C211.22 153.375 211.446 153.198 211.707 153.091Z" fill="#2058BB"/>
<path opacity="0.75" d="M211.707 153.091L224.272 145.842C224.912 145.513 225.63 145.364 226.348 145.41C227.066 145.456 227.758 145.696 228.352 146.104L236.706 152.494C236.95 152.636 237.149 152.843 237.282 153.092C237.414 153.341 237.475 153.622 237.457 153.904C237.44 154.186 237.344 154.457 237.181 154.687C237.018 154.917 236.795 155.097 236.535 155.208L223.97 162.456C223.33 162.785 222.613 162.935 221.895 162.889C221.176 162.843 220.484 162.603 219.891 162.195L211.503 155.804C211.261 155.659 211.064 155.45 210.934 155.199C210.803 154.948 210.746 154.666 210.767 154.384C210.788 154.102 210.887 153.832 211.053 153.604C211.22 153.375 211.446 153.198 211.707 153.091Z" fill="white"/>
<path d="M253.792 166.273L251.393 166.33L244.678 161.198C244.086 160.788 243.393 160.548 242.674 160.502C241.956 160.455 241.238 160.606 240.599 160.937L230.326 166.861L227.104 166.943V169.575C227.118 169.838 227.193 170.095 227.323 170.325C227.454 170.555 227.635 170.751 227.854 170.898L236.209 177.289C236.803 177.695 237.495 177.934 238.213 177.98C238.931 178.026 239.648 177.878 240.288 177.551L252.853 170.359C253.119 170.233 253.346 170.037 253.509 169.793C253.673 169.548 253.768 169.264 253.784 168.97L253.792 166.273Z" fill="#2058BB"/>
<path opacity="0.1" d="M253.792 166.273L251.393 166.33L244.678 161.198C244.086 160.788 243.393 160.548 242.674 160.502C241.956 160.455 241.238 160.606 240.599 160.937L230.326 166.861L227.104 166.943V169.575C227.118 169.838 227.193 170.095 227.323 170.325C227.454 170.555 227.635 170.751 227.854 170.898L236.209 177.289C236.803 177.695 237.495 177.934 238.213 177.98C238.931 178.026 239.648 177.878 240.288 177.551L252.853 170.359C253.119 170.233 253.346 170.037 253.509 169.793C253.673 169.548 253.768 169.264 253.784 168.97L253.792 166.273Z" fill="black"/>
<path d="M228.042 165.578L240.607 158.329C241.246 157.999 241.964 157.848 242.682 157.894C243.401 157.94 244.093 158.181 244.686 158.591L253.041 164.981C253.287 165.121 253.489 165.327 253.624 165.576C253.758 165.825 253.819 166.108 253.801 166.39C253.782 166.673 253.684 166.945 253.518 167.174C253.351 167.403 253.124 167.581 252.861 167.686L240.305 174.943C239.664 175.272 238.947 175.422 238.229 175.376C237.511 175.33 236.818 175.09 236.225 174.682L227.87 168.291C227.627 168.149 227.428 167.942 227.295 167.693C227.162 167.444 227.101 167.163 227.119 166.882C227.137 166.6 227.233 166.329 227.396 166.099C227.559 165.868 227.782 165.688 228.042 165.578Z" fill="#2058BB"/>
<path opacity="0.75" d="M228.042 165.578L240.607 158.329C241.246 157.999 241.964 157.848 242.682 157.894C243.401 157.94 244.093 158.181 244.686 158.591L253.041 164.981C253.287 165.121 253.489 165.327 253.624 165.576C253.758 165.825 253.819 166.108 253.801 166.39C253.782 166.673 253.684 166.945 253.518 167.174C253.351 167.403 253.124 167.581 252.861 167.686L240.305 174.943C239.664 175.272 238.947 175.422 238.229 175.376C237.511 175.33 236.818 175.09 236.225 174.682L227.87 168.291C227.627 168.149 227.428 167.942 227.295 167.693C227.162 167.444 227.101 167.163 227.119 166.882C227.137 166.6 227.233 166.329 227.396 166.099C227.559 165.868 227.782 165.688 228.042 165.578Z" fill="white"/>
<path d="M246.326 126.768L243.927 126.826L237.212 121.694C236.62 121.284 235.927 121.043 235.209 120.997C234.49 120.951 233.773 121.101 233.133 121.432L222.861 127.357L219.638 127.439V130.07C219.652 130.334 219.727 130.591 219.858 130.82C219.988 131.05 220.17 131.246 220.388 131.394L228.743 137.785C229.336 138.193 230.029 138.432 230.747 138.478C231.465 138.524 232.182 138.375 232.823 138.046L245.379 130.789C245.645 130.663 245.872 130.467 246.035 130.223C246.199 129.978 246.294 129.694 246.31 129.4L246.326 126.768Z" fill="#2058BB"/>
<path opacity="0.1" d="M246.326 126.768L243.927 126.826L237.212 121.694C236.62 121.284 235.927 121.043 235.209 120.997C234.49 120.951 233.773 121.101 233.133 121.432L222.861 127.357L219.638 127.439V130.07C219.652 130.334 219.727 130.591 219.858 130.82C219.988 131.05 220.17 131.246 220.388 131.394L228.743 137.785C229.336 138.193 230.029 138.432 230.747 138.478C231.465 138.524 232.182 138.375 232.823 138.046L245.379 130.789C245.645 130.663 245.872 130.467 246.035 130.223C246.199 129.978 246.294 129.694 246.31 129.4L246.326 126.768Z" fill="black"/>
<path d="M220.576 126.049L233.141 118.8C233.781 118.47 234.498 118.319 235.217 118.365C235.935 118.411 236.628 118.652 237.22 119.062L245.575 125.453C245.821 125.592 246.023 125.798 246.158 126.047C246.292 126.297 246.354 126.579 246.335 126.862C246.316 127.144 246.218 127.416 246.052 127.645C245.886 127.875 245.658 128.052 245.396 128.158L232.839 135.414C232.198 135.743 231.481 135.893 230.763 135.847C230.045 135.801 229.353 135.561 228.759 135.153L220.404 128.762C220.161 128.62 219.962 128.413 219.829 128.164C219.696 127.915 219.636 127.634 219.653 127.353C219.671 127.071 219.767 126.8 219.93 126.57C220.093 126.34 220.316 126.159 220.576 126.049Z" fill="#2058BB"/>
<path opacity="0.75" d="M220.576 126.049L233.141 118.8C233.781 118.47 234.498 118.319 235.217 118.365C235.935 118.411 236.628 118.652 237.22 119.062L245.575 125.453C245.821 125.592 246.023 125.798 246.158 126.047C246.292 126.297 246.354 126.579 246.335 126.862C246.316 127.144 246.218 127.416 246.052 127.645C245.886 127.875 245.658 128.052 245.396 128.158L232.839 135.414C232.198 135.743 231.481 135.893 230.763 135.847C230.045 135.801 229.353 135.561 228.759 135.153L220.404 128.762C220.161 128.62 219.962 128.413 219.829 128.164C219.696 127.915 219.636 127.634 219.653 127.353C219.671 127.071 219.767 126.8 219.93 126.57C220.093 126.34 220.316 126.159 220.576 126.049Z" fill="white"/>
<path d="M295.329 164.222L292.93 164.287L286.215 159.147C285.623 158.737 284.93 158.496 284.212 158.45C283.493 158.404 282.776 158.554 282.136 158.885L271.88 164.81L268.657 164.892V167.523C268.67 167.787 268.744 168.045 268.875 168.275C269.005 168.505 269.188 168.701 269.408 168.847L277.763 175.262C278.355 175.672 279.048 175.913 279.766 175.959C280.485 176.005 281.202 175.854 281.842 175.524L294.407 168.275C294.672 168.147 294.898 167.95 295.06 167.704C295.223 167.458 295.316 167.172 295.329 166.878V164.222Z" fill="#2058BB"/>
<path opacity="0.1" d="M295.329 164.222L292.93 164.287L286.215 159.147C285.623 158.737 284.93 158.496 284.212 158.45C283.493 158.404 282.776 158.554 282.136 158.885L271.88 164.81L268.657 164.892V167.523C268.67 167.787 268.744 168.045 268.875 168.275C269.005 168.505 269.188 168.701 269.408 168.847L277.763 175.262C278.355 175.672 279.048 175.913 279.766 175.959C280.485 176.005 281.202 175.854 281.842 175.524L294.407 168.275C294.672 168.147 294.898 167.95 295.06 167.704C295.223 167.458 295.316 167.172 295.329 166.878V164.222Z" fill="black"/>
<path d="M269.579 163.502L282.144 156.254C282.785 155.925 283.502 155.775 284.22 155.821C284.938 155.867 285.631 156.107 286.224 156.515L294.579 162.906C294.824 163.046 295.026 163.253 295.16 163.503C295.294 163.753 295.355 164.036 295.336 164.319C295.317 164.602 295.22 164.873 295.054 165.103C294.888 165.333 294.661 165.512 294.399 165.619L281.834 172.868C281.194 173.198 280.477 173.349 279.758 173.303C279.04 173.257 278.347 173.016 277.755 172.606L269.432 166.215C269.188 166.076 268.987 165.87 268.853 165.623C268.718 165.375 268.655 165.095 268.67 164.814C268.685 164.532 268.779 164.26 268.939 164.029C269.1 163.797 269.321 163.615 269.579 163.502Z" fill="#2058BB"/>
<path opacity="0.75" d="M269.579 163.502L282.144 156.254C282.785 155.925 283.502 155.775 284.22 155.821C284.938 155.867 285.631 156.107 286.224 156.515L294.579 162.906C294.824 163.046 295.026 163.253 295.16 163.503C295.294 163.753 295.355 164.036 295.336 164.319C295.317 164.602 295.22 164.873 295.054 165.103C294.888 165.333 294.661 165.512 294.399 165.619L281.834 172.868C281.194 173.198 280.477 173.349 279.758 173.303C279.04 173.257 278.347 173.016 277.755 172.606L269.432 166.215C269.188 166.076 268.987 165.87 268.853 165.623C268.718 165.375 268.655 165.095 268.67 164.814C268.685 164.532 268.779 164.26 268.939 164.029C269.1 163.797 269.321 163.615 269.579 163.502Z" fill="white"/>
<path d="M278.995 151.735L276.596 151.8L269.882 146.66C269.288 146.252 268.596 146.012 267.878 145.966C267.16 145.92 266.442 146.069 265.802 146.398L255.562 152.331L252.299 152.413V155.044C252.313 155.307 252.388 155.563 252.518 155.792C252.648 156.02 252.83 156.215 253.049 156.36L261.404 162.751C261.996 163.162 262.689 163.404 263.408 163.45C264.127 163.496 264.844 163.345 265.484 163.012L278.049 155.763C278.314 155.635 278.54 155.438 278.702 155.192C278.864 154.946 278.957 154.661 278.971 154.366L278.995 151.735Z" fill="#2058BB"/>
<path opacity="0.1" d="M278.995 151.735L276.596 151.8L269.882 146.66C269.288 146.252 268.596 146.012 267.878 145.966C267.16 145.92 266.442 146.069 265.802 146.398L255.562 152.331L252.299 152.413V155.044C252.313 155.307 252.388 155.563 252.518 155.792C252.648 156.02 252.83 156.215 253.049 156.36L261.404 162.751C261.996 163.162 262.689 163.404 263.408 163.45C264.127 163.496 264.844 163.345 265.484 163.012L278.049 155.763C278.314 155.635 278.54 155.438 278.702 155.192C278.864 154.946 278.957 154.661 278.971 154.366L278.995 151.735Z" fill="black"/>
<path d="M253.245 151.023L265.81 143.767C266.45 143.438 267.167 143.288 267.886 143.334C268.604 143.38 269.296 143.62 269.889 144.028L278.244 150.419C278.49 150.559 278.691 150.766 278.825 151.016C278.959 151.266 279.02 151.549 279.002 151.831C278.983 152.114 278.885 152.386 278.72 152.616C278.554 152.846 278.327 153.025 278.065 153.132L265.5 160.381C264.86 160.713 264.143 160.864 263.424 160.818C262.705 160.772 262.012 160.53 261.42 160.119L253.114 153.728C252.869 153.591 252.667 153.388 252.53 153.142C252.394 152.896 252.329 152.617 252.343 152.335C252.356 152.054 252.448 151.782 252.607 151.551C252.767 151.319 252.988 151.136 253.245 151.023Z" fill="#2058BB"/>
<path opacity="0.75" d="M253.245 151.023L265.81 143.767C266.45 143.438 267.167 143.288 267.886 143.334C268.604 143.38 269.296 143.62 269.889 144.028L278.244 150.419C278.49 150.559 278.691 150.766 278.825 151.016C278.959 151.266 279.02 151.549 279.002 151.831C278.983 152.114 278.885 152.386 278.72 152.616C278.554 152.846 278.327 153.025 278.065 153.132L265.5 160.381C264.86 160.713 264.143 160.864 263.424 160.818C262.705 160.772 262.012 160.53 261.42 160.119L253.114 153.728C252.869 153.591 252.667 153.388 252.53 153.142C252.394 152.896 252.329 152.617 252.343 152.335C252.356 152.054 252.448 151.782 252.607 151.551C252.767 151.319 252.988 151.136 253.245 151.023Z" fill="white"/>
<path d="M262.661 139.255L260.262 139.313L253.547 134.181C252.955 133.771 252.263 133.53 251.544 133.483C250.826 133.435 250.109 133.583 249.468 133.911L239.244 139.844L236.021 139.926V142.573C236.035 142.837 236.11 143.094 236.241 143.324C236.371 143.554 236.553 143.75 236.772 143.897L245.127 150.28C245.719 150.689 246.411 150.93 247.13 150.978C247.848 151.025 248.565 150.877 249.206 150.549L261.763 143.293C262.027 143.165 262.252 142.969 262.414 142.725C262.577 142.48 262.67 142.196 262.685 141.903L262.661 139.255Z" fill="#2058BB"/>
<path opacity="0.1" d="M262.661 139.255L260.262 139.313L253.547 134.181C252.955 133.771 252.263 133.53 251.544 133.483C250.826 133.435 250.109 133.583 249.468 133.911L239.244 139.844L236.021 139.926V142.573C236.035 142.837 236.11 143.094 236.241 143.324C236.371 143.554 236.553 143.75 236.772 143.897L245.127 150.28C245.719 150.689 246.411 150.93 247.13 150.978C247.848 151.025 248.565 150.877 249.206 150.549L261.763 143.293C262.027 143.165 262.252 142.969 262.414 142.725C262.577 142.48 262.67 142.196 262.685 141.903L262.661 139.255Z" fill="black"/>
<path d="M236.911 138.536L249.476 131.28C250.117 130.952 250.834 130.804 251.553 130.851C252.271 130.899 252.963 131.14 253.555 131.549L261.91 137.932C262.156 138.072 262.357 138.279 262.491 138.529C262.625 138.779 262.686 139.062 262.668 139.344C262.649 139.627 262.551 139.899 262.385 140.129C262.22 140.359 261.993 140.538 261.73 140.645L249.174 147.902C248.533 148.23 247.815 148.378 247.097 148.33C246.379 148.283 245.687 148.041 245.094 147.632L236.739 141.25C236.496 141.108 236.297 140.901 236.164 140.652C236.031 140.403 235.971 140.122 235.988 139.84C236.006 139.558 236.102 139.287 236.265 139.057C236.428 138.827 236.651 138.647 236.911 138.536Z" fill="#2058BB"/>
<path opacity="0.75" d="M236.911 138.536L249.476 131.28C250.117 130.952 250.834 130.804 251.553 130.851C252.271 130.899 252.963 131.14 253.555 131.549L261.91 137.932C262.156 138.072 262.357 138.279 262.491 138.529C262.625 138.779 262.686 139.062 262.668 139.344C262.649 139.627 262.551 139.899 262.385 140.129C262.22 140.359 261.993 140.538 261.73 140.645L249.174 147.902C248.533 148.23 247.815 148.378 247.097 148.33C246.379 148.283 245.687 148.041 245.094 147.632L236.739 141.25C236.496 141.108 236.297 140.901 236.164 140.652C236.031 140.403 235.971 140.122 235.988 139.84C236.006 139.558 236.102 139.287 236.265 139.057C236.428 138.827 236.651 138.647 236.911 138.536Z" fill="white"/>
<path d="M76.1544 70.6704V61.0669C76.1452 58.6867 75.1831 56.4071 73.4788 54.7272C71.7746 53.0474 69.4671 52.1042 67.0615 52.1042V61.7077C67.0708 64.088 68.0329 66.3676 69.7371 68.0474C71.4414 69.7273 73.7489 70.6705 76.1544 70.6704Z" fill="#263238"/>
<path d="M105.735 149.507L76.6709 134.899L79.2964 183.219L108.36 197.828L105.735 149.507Z" fill="#2058BB"/>
<path opacity="0.5" d="M105.735 149.507L76.6709 134.899L79.2964 183.219L108.36 197.828L105.735 149.507Z" fill="white"/>
<path d="M108.361 197.828L122.022 189.03L111.205 145.992L105.735 149.507L108.361 197.828Z" fill="#2058BB"/>
<path d="M122.022 189.03L112.745 188.337L108.36 197.828L122.022 189.03Z" fill="#2058BB"/>
<path opacity="0.3" d="M122.022 189.03L112.745 188.337L108.36 197.828L122.022 189.03Z" fill="#3D86E6"/>
<path d="M112.745 188.337L105.56 146.286L105.735 149.507L108.36 197.828L112.745 188.337Z" fill="#2058BB"/>
<path opacity="0.1" d="M112.745 188.337L105.56 146.286L105.735 149.507L108.36 197.828L112.745 188.337Z" fill="#3D86E6"/>
<path d="M76.6709 134.899L82.3069 134.604L82.1319 131.383L111.205 145.992L105.56 146.286L105.735 149.507L76.6709 134.899Z" fill="#3D86E6"/>
<path d="M96.5186 147.827C96.5186 148.234 96.2562 148.425 95.8802 148.234C95.6828 148.121 95.5152 147.963 95.3906 147.773C95.2661 147.584 95.1882 147.368 95.1631 147.143C95.1631 146.728 95.4254 146.546 95.8015 146.728C95.999 146.843 96.1667 147.003 96.2911 147.194C96.4156 147.385 96.4935 147.602 96.5186 147.827Z" fill="#455A64"/>
<path d="M87.8282 143.532C87.8282 143.948 87.5658 144.139 87.1898 143.948C86.9938 143.833 86.8271 143.675 86.7028 143.485C86.5784 143.296 86.4997 143.081 86.4727 142.857C86.4727 142.441 86.735 142.259 87.111 142.441C87.3088 142.555 87.4769 142.712 87.6015 142.902C87.7261 143.091 87.8038 143.308 87.8282 143.532Z" fill="#455A64"/>
<path d="M101.831 144.407C101.831 144.822 101.569 145.004 101.193 144.814C100.994 144.701 100.826 144.543 100.701 144.354C100.577 144.164 100.499 143.948 100.476 143.723C100.476 143.307 100.738 143.125 101.114 143.316C101.312 143.428 101.481 143.586 101.605 143.776C101.73 143.965 101.807 144.182 101.831 144.407Z" fill="#455A64"/>
<path d="M93.1934 140.068C93.1934 140.484 92.931 140.666 92.555 140.484C92.3561 140.37 92.1873 140.211 92.0627 140.019C91.938 139.828 91.861 139.611 91.8379 139.384C91.8379 138.968 92.1002 138.787 92.4763 138.977C92.6736 139.091 92.8413 139.249 92.9658 139.438C93.0904 139.628 93.1683 139.843 93.1934 140.068Z" fill="#455A64"/>
<path d="M111.204 145.992L105.56 146.286L112.745 188.337L122.021 189.03L111.204 145.992Z" fill="#2058BB"/>
<path opacity="0.2" d="M111.204 145.992L105.56 146.286L112.745 188.337L122.021 189.03L111.204 145.992Z" fill="#3D86E6"/>
<path d="M82.1318 131.383L82.3069 134.604L82.4819 137.826L83.9609 138.562L82.1318 131.383Z" fill="#2058BB"/>
<path opacity="0.2" d="M82.1318 131.383L82.3069 134.604L82.4819 137.826L83.9609 138.562L82.1318 131.383Z" fill="black"/>
<path d="M69.0654 59.9846C72.9861 59.7768 80.9238 60.1058 83.8293 71.2421C86.2798 80.5944 92.9048 101.066 94.6288 110.158C95.9416 117.086 97.7444 121.935 98.0069 126.767C97.5168 129.253 95.5127 131.963 89.9992 132.829C84.7483 131.452 85.6672 130.595 85.2996 125.988C84.9321 121.381 87.33 120.065 86.5686 114.601C84.9758 103.127 74.5964 79.2176 74.5964 79.2176L69.0654 59.9846Z" fill="#FFA8A7"/>
<path d="M101.149 144.476C101.055 144.475 100.965 144.442 100.892 144.384C100.819 144.326 100.768 144.246 100.746 144.156C100.746 144.095 99.4509 138.475 98.0069 134.214C96.8692 130.863 94.3663 130.11 92.1696 129.443C91.6795 129.296 91.2157 129.157 90.7956 129.001C90.6941 128.959 90.6129 128.88 90.5689 128.78C90.5249 128.68 90.5215 128.567 90.5593 128.464C90.5788 128.413 90.6082 128.366 90.6461 128.326C90.6839 128.286 90.7293 128.254 90.7797 128.232C90.8301 128.209 90.8845 128.197 90.9398 128.195C90.9951 128.193 91.0502 128.203 91.1019 128.222C91.5045 128.378 91.9771 128.508 92.4147 128.655C94.6901 129.339 97.5256 130.196 98.8033 133.955C100.256 138.284 101.551 143.913 101.56 143.974C101.573 144.027 101.575 144.082 101.566 144.135C101.557 144.189 101.537 144.24 101.508 144.286C101.479 144.332 101.44 144.372 101.395 144.403C101.35 144.434 101.299 144.456 101.245 144.467L101.149 144.476Z" fill="#263238"/>
<path d="M94.3403 121.935C93.4774 123.545 92.833 125.26 92.4237 127.036C92.2836 127.997 90.6734 127.244 90.3496 125.997C90.0909 124.007 89.9798 122.001 90.017 119.995C90.017 119.995 89.2644 123.832 89.6757 125.659C90.087 127.486 90.5508 127.85 91.8986 128.257C93.2463 128.664 93.0363 127.486 93.3513 125.962C93.6664 124.438 94.3403 121.935 94.3403 121.935Z" fill="#776768"/>
<path d="M95.3464 147.264L94.7425 136.102C94.62 133.643 94.4712 130.846 90.2792 128.716C88.809 127.971 87.7238 127.754 87.2074 128.118C86.6911 128.482 86.8224 129.382 86.8224 129.391L87.5662 143.091C87.5517 143.189 87.5017 143.28 87.4254 143.345C87.349 143.41 87.2515 143.446 87.1505 143.446C87.0496 143.446 86.952 143.41 86.8757 143.345C86.7994 143.28 86.7494 143.189 86.7348 143.091L85.9909 129.434C85.934 129.063 85.9705 128.685 86.0973 128.331C86.224 127.977 86.437 127.66 86.7173 127.408C87.5312 126.828 88.8265 127.001 90.6643 127.936C95.2851 130.292 95.4514 133.461 95.5739 136.016L96.1865 147.161C96.1913 147.272 96.1518 147.38 96.0765 147.463C96.0012 147.545 95.8962 147.595 95.784 147.602C95.682 147.608 95.5813 147.577 95.5008 147.515C95.4203 147.453 95.3654 147.364 95.3464 147.264Z" fill="#263238"/>
<path d="M92.5113 140.017C92.4177 140.015 92.3273 139.983 92.2544 139.925C92.1814 139.867 92.1302 139.786 92.1087 139.696L90.2446 131.348C90.2331 131.295 90.2323 131.24 90.2423 131.186C90.2524 131.132 90.273 131.081 90.3031 131.035C90.3332 130.989 90.3721 130.95 90.4176 130.919C90.4632 130.888 90.5144 130.866 90.5685 130.855C90.6773 130.834 90.7901 130.856 90.8831 130.915C90.9761 130.975 91.0421 131.068 91.0673 131.175L92.9226 139.514C92.9355 139.567 92.9375 139.622 92.9286 139.676C92.9196 139.73 92.8999 139.781 92.8705 139.827C92.8411 139.873 92.8027 139.913 92.7576 139.944C92.7124 139.975 92.6614 139.997 92.6076 140.008L92.5113 140.017Z" fill="#263238"/>
<path d="M89.6846 128.439C88.1005 127.486 85.02 126.092 84.3024 126.941C83.5847 127.789 82.6658 131.27 86.2365 132.5C88.6159 133.156 91.1545 132.94 93.3865 131.894L89.6846 128.439Z" fill="#FFA8A7"/>
<path d="M63.3254 54.269H59.9036C55.2614 54.269 50.8094 52.4443 47.5269 49.1963C44.2445 45.9484 42.4004 41.5431 42.4004 36.9498C42.4004 32.0464 44.3689 27.3438 47.873 23.8766C51.377 20.4094 56.1296 18.4615 61.085 18.4615H62.179C67.1253 18.4707 71.8662 20.4203 75.3622 23.8827C78.8582 27.3452 80.824 32.0381 80.8286 36.9325C80.8309 39.2083 80.3799 41.4623 79.5013 43.5656C78.6227 45.6688 77.3338 47.5801 75.7082 49.1902C74.0827 50.8003 72.1524 52.0776 70.0276 52.949C67.9029 53.8205 65.6255 54.269 63.3254 54.269Z" fill="#263238"/>
<path d="M44.8242 23.328C45.4782 23.4576 46.0536 23.8385 46.4243 24.3871C46.795 24.9357 46.9309 25.6074 46.8021 26.2549L41.8662 25.2591C42.0032 24.6168 42.3906 24.0538 42.9443 23.6923C43.4981 23.3308 44.1736 23.1999 44.8242 23.328Z" fill="#263238"/>
<path d="M48.0441 22.2721C48.1465 22.5825 48.1861 22.9099 48.1606 23.2355C48.1351 23.5611 48.045 23.8786 47.8955 24.1697C47.7459 24.4608 47.5399 24.7199 47.2891 24.9322C47.0382 25.1445 46.7476 25.3058 46.4338 25.4068L44.876 20.67C45.1903 20.5689 45.5217 20.53 45.8512 20.5558C46.1807 20.5816 46.5018 20.6715 46.7961 20.8203C47.0904 20.9692 47.3521 21.174 47.5663 21.4231C47.7804 21.6723 47.9428 21.9607 48.0441 22.2721Z" fill="#263238"/>
<path d="M72.7327 250.409C71.5863 249.543 70.2911 248.729 69.2846 247.811C67.053 245.794 66.3703 240.685 66.2041 238.961C66.0333 237.495 66.0187 236.014 66.1603 234.545C66.6066 231.081 69.1796 223.469 69.1796 223.469C69.1796 223.469 60.8919 218.074 60.7693 218.144C60.6468 218.213 59.2728 228.059 57.9163 229.67C56.271 231.098 54.862 231.497 53.9343 233.385C53.1204 235.714 53.453 236.97 54.7045 239.394C55.6296 241.495 56.3164 243.691 56.7524 245.941C57.4612 248.781 57.1637 253.432 64.2962 254.852C68.0769 255.605 70.6936 255.103 72.4965 254.306C74.5268 253.414 74.5093 251.734 72.7327 250.409Z" fill="#FFA8A7"/>
<path d="M53.9343 233.393C53.1204 235.722 53.453 236.978 54.7045 239.403C55.6296 241.503 56.3164 243.699 56.7524 245.949C57.4612 248.79 57.1637 253.44 64.2962 254.86C68.0769 255.613 70.6936 255.111 72.4965 254.314C74.5268 253.449 74.5093 251.717 72.7327 250.409C71.8576 249.734 70.8424 249.084 69.976 248.391C70.9212 250.071 66.3791 250.47 63.7624 248.92C61.1457 247.369 57.8813 236.45 57.5575 234.008C57.3613 232.556 57.4836 231.079 57.9163 229.678C58.0126 229.548 58.1351 229.357 58.1351 229.357C58.1351 229.357 57.8551 229.245 57.5575 229.47C56.046 230.467 54.8024 231.814 53.9343 233.393Z" fill="#263238"/>
<path d="M81.4751 108.547C82.7528 122.403 86.621 169.927 85.5796 178.881C85.1158 182.942 67.7176 228.145 67.7176 228.145C67.7176 228.145 63.4731 229.435 59.4736 224.95C61.539 205.518 63.5169 184.7 67.8052 178.248C66.9913 171.563 58.5635 138.258 58.5635 138.258L81.4751 108.547Z" fill="#37474F"/>
<path d="M50.0836 243.62V242.399C50.5736 243.828 52.8403 250.011 56.2709 253.102C58.9927 255.57 62.7121 258.411 63.6573 261.156C64.6024 263.901 58.4851 264.966 55.9384 264.516C52.9716 264.005 49.1471 262.342 47.0642 259.805C45.594 258.021 44.6576 255.908 43.6161 254.505C42.5747 253.102 40.1155 251.544 39.5904 249.924C39.2753 249.058 39.6517 247.075 40.0805 245.43C40.5093 243.785 40.9556 242.252 41.4457 242.399V243.326C42.0671 244.019 43.8087 244.703 45.7603 244.772C47.0292 244.824 50.1011 244.573 50.0836 243.62Z" fill="#263238"/>
<path d="M58.7384 255.267C57.8633 254.522 57.0406 253.795 56.2705 253.094C53.8726 250.937 52.0435 247.266 51.0195 244.763C50.4331 243.333 50.1358 241.803 50.1444 240.26V235.385H41.4453V243.317V243.525C41.8566 245.3 45.8211 250.028 48.079 253.111C49.593 255.181 52.4548 257.804 55.8942 258.263C59.1848 258.722 60.8476 257.709 58.7384 255.267Z" fill="#FFA8A7"/>
<path d="M43.1965 110.669C36.4928 125.157 43.4415 176.179 43.4415 176.179C43.2402 178.535 40.5185 183.159 39.5121 193.498C38.3131 205.717 41.3849 236.415 41.3849 236.415C42.7046 237.175 44.1924 237.603 45.7182 237.662C47.2439 237.721 48.761 237.409 50.1365 236.753C50.1365 236.753 58.3805 190.528 59.9295 178.379C61.2772 167.771 64.9879 135.141 64.9879 135.141L81.5284 108.539L43.1965 110.669Z" fill="#37474F"/>
<path d="M57.4515 60.5069L48.4461 60.9312C47.2121 61.3122 43.8953 64.3951 42.5913 69.1146C41.6575 72.9998 41.867 77.0684 43.1951 80.8397L49.1812 97.977C49.1812 97.977 46.3807 104.688 43.1251 111.018C58.1516 119.323 76.915 114.958 81.4396 108.897C81.6233 107.615 81.3695 101.822 81.7284 95.2406C82.1222 88.209 83.0936 80.2768 81.9822 75.9383C79.908 67.8762 76.0223 60.3077 68.2947 60.3077L57.4515 60.5069Z" fill="#2058BB"/>
<path d="M74.492 26.1252C76.5224 27.3116 79.0341 32.3688 78.789 42.9682C78.579 51.9482 75.6297 54.165 74.1594 54.8059C72.6892 55.4467 69.8274 55.057 67.0619 54.598V59.993C67.0619 59.993 70.8864 64.392 70.6501 66.86C70.4138 69.328 65.1191 69.9169 61.5397 67.5008C59.2159 65.8592 57.2215 63.8035 55.6586 61.4391V49.5062C54.8456 49.793 53.9758 49.886 53.1197 49.7777C52.2635 49.6694 51.4453 49.3627 50.7315 48.8827C47.6509 46.9083 47.5721 41.8771 49.3225 40.0932C51.0728 38.3093 54.9322 38.8722 55.6499 41.3402C55.6499 41.3402 60.0694 41.496 65.9505 38.3006C68.2419 37.0793 70.2097 35.3401 71.6939 33.2245C73.1781 31.1089 74.1368 28.6765 74.492 26.1252Z" fill="#FFA8A7"/>
<path d="M69.0399 40.8469C69.0431 41.0697 68.9799 41.2885 68.8582 41.476C68.7365 41.6635 68.5617 41.8114 68.3556 41.9012C68.1495 41.991 67.9212 42.0188 67.6993 41.981C67.4773 41.9432 67.2716 41.8417 67.1076 41.6889C66.9436 41.5361 66.8288 41.339 66.7774 41.122C66.7259 40.9051 66.7402 40.678 66.8184 40.469C66.8967 40.26 67.0353 40.0785 67.2172 39.947C67.399 39.8156 67.6159 39.74 67.8409 39.7298C67.9938 39.7252 68.1461 39.7504 68.2891 39.8041C68.4321 39.8577 68.563 39.9387 68.6743 40.0425C68.7857 40.1462 68.8753 40.2707 68.938 40.4087C69.0007 40.5467 69.0353 40.6956 69.0399 40.8469Z" fill="#263238"/>
<path d="M68.9513 48.3458L71.5768 49.2118C71.5299 49.3908 71.4464 49.5584 71.3315 49.7041C71.2165 49.8499 71.0725 49.9708 70.9085 50.0593C70.7444 50.1478 70.5637 50.202 70.3776 50.2186C70.1914 50.2351 70.0039 50.2137 69.8265 50.1557C69.4723 50.0246 69.1833 49.7628 69.0201 49.4253C68.8569 49.0879 68.8322 48.7009 68.9513 48.3458Z" fill="#9A4A4D"/>
<path d="M78.0106 37.2616L75.7002 35.6509C75.7968 35.497 75.9241 35.3642 76.0743 35.2606C76.2245 35.157 76.3945 35.0848 76.5738 35.0483C76.7532 35.0118 76.9381 35.0119 77.1175 35.0485C77.2968 35.0851 77.4667 35.1575 77.6168 35.2613C77.9323 35.4786 78.1499 35.8091 78.2234 36.1825C78.2969 36.5559 78.2206 36.943 78.0106 37.2616Z" fill="#263238"/>
<path d="M77.6776 40.6562C77.6808 40.879 77.6176 41.0978 77.4959 41.2853C77.3742 41.4728 77.1994 41.6207 76.9933 41.7105C76.7872 41.8003 76.5589 41.8281 76.337 41.7904C76.115 41.7526 75.9092 41.651 75.7453 41.4982C75.5813 41.3455 75.4665 41.1483 75.4151 40.9314C75.3636 40.7144 75.3779 40.4873 75.4561 40.2783C75.5343 40.0694 75.673 39.8878 75.8549 39.7564C76.0367 39.6249 76.2536 39.5494 76.4786 39.5391C76.7867 39.5321 77.0852 39.6453 77.3096 39.8544C77.534 40.0634 77.6661 40.3515 77.6776 40.6562Z" fill="#263238"/>
<path d="M72.0938 39.2625L72.2775 46.0689L75.8919 44.9605L72.0938 39.2625Z" fill="#A78182"/>
<path d="M67.0613 54.6155C64.1382 54.2431 58.1347 52.5285 57.1982 50.1818C57.5733 51.3713 58.3098 52.4175 59.3074 53.178C61.0577 54.7021 67.0613 56.4167 67.0613 56.4167V54.6155Z" fill="#968787"/>
<path d="M65.2409 165.77L62.668 154.877L64.9346 135.15C64.9346 135.15 72.0672 132.492 75.8479 127.027C74.1637 131.01 71.3526 134.426 67.7526 136.865L63.8669 154.825L65.2409 165.77Z" fill="#263238"/>
<path d="M58.3793 144.562L27.0923 126.689L20.835 178.82L52.1219 196.693L58.3793 144.562Z" fill="#2058BB"/>
<path opacity="0.5" d="M58.3793 144.562L27.0923 126.689L20.835 178.82L52.1219 196.693L58.3793 144.562Z" fill="white"/>
<path d="M67.7612 187.757L58.3795 185.964L52.1221 196.693L67.7612 187.757Z" fill="#2058BB"/>
<path opacity="0.3" d="M67.7612 187.757L58.3795 185.964L52.1221 196.693L67.7612 187.757Z" fill="#3D86E6"/>
<path d="M58.3795 185.964L61.5038 139.202L58.3795 144.563L52.1221 196.694L58.3795 185.964Z" fill="#2058BB"/>
<path opacity="0.1" d="M58.3795 185.964L61.5038 139.202L58.3795 144.563L52.1221 196.694L58.3795 185.964Z" fill="#3D86E6"/>
<path d="M27.0928 126.69L36.4745 124.906V121.329L67.7614 139.203H61.504L58.3797 144.563L27.0928 126.69Z" fill="#3D86E6"/>
<path d="M46.8882 144.052C46.8882 144.511 46.5559 144.693 46.1536 144.468C45.9421 144.329 45.7663 144.143 45.6403 143.925C45.5142 143.707 45.4415 143.463 45.4277 143.212C45.4277 142.753 45.7513 142.563 46.1536 142.796C46.3672 142.934 46.545 143.119 46.6727 143.337C46.8003 143.555 46.8742 143.8 46.8882 144.052Z" fill="#455A64"/>
<path d="M37.7163 138.284C37.7163 138.752 37.3927 138.934 36.9817 138.709C36.7702 138.57 36.5944 138.384 36.4684 138.166C36.3424 137.948 36.2696 137.704 36.2559 137.453C36.2559 136.994 36.5794 136.803 36.9817 137.037C37.1961 137.172 37.3748 137.355 37.5026 137.572C37.6305 137.789 37.7037 138.033 37.7163 138.284Z" fill="#455A64"/>
<path d="M56.603 137.834C56.603 138.293 56.2794 138.483 55.8772 138.25C55.6642 138.114 55.4867 137.93 55.3591 137.713C55.2314 137.497 55.1572 137.253 55.1426 137.003C55.1426 136.535 55.4749 136.353 55.8772 136.578C56.0887 136.717 56.2644 136.903 56.3905 137.121C56.5165 137.339 56.5893 137.583 56.603 137.834Z" fill="#455A64"/>
<path d="M47.3257 132.708C47.3257 133.167 46.9934 133.357 46.5911 133.123C46.3793 132.987 46.2031 132.803 46.0769 132.586C45.9508 132.369 45.8782 132.126 45.8652 131.876C45.8652 131.417 46.1888 131.227 46.5911 131.461C46.804 131.597 46.9815 131.78 47.1092 131.997C47.2368 132.214 47.311 132.457 47.3257 132.708Z" fill="#455A64"/>
<path d="M67.7616 139.202H61.5042L58.3799 185.964L67.7616 187.757V139.202Z" fill="#2058BB"/>
<path d="M36.4745 124.906V132.05L27.0928 126.689L36.4745 124.906Z" fill="#2058BB"/>
<path opacity="0.2" d="M67.7616 139.202H61.5042L58.3799 185.964L67.7616 187.757V139.202Z" fill="#3D86E6"/>
<path opacity="0.2" d="M36.4745 124.906V132.05L27.0928 126.689L36.4745 124.906Z" fill="black"/>
<path d="M36.9827 138.146C36.928 138.158 36.8712 138.158 36.8164 138.146C36.7109 138.098 36.6276 138.013 36.5837 137.907C36.5398 137.8 36.5385 137.682 36.5801 137.574L44.5441 118.93C44.5904 118.824 44.6768 118.741 44.7847 118.697C44.8927 118.653 45.0136 118.653 45.1217 118.697C45.2273 118.744 45.3105 118.83 45.3544 118.936C45.3984 119.042 45.3996 119.161 45.358 119.268L37.394 137.912C37.3538 137.985 37.2942 138.045 37.2216 138.086C37.149 138.128 37.0664 138.148 36.9827 138.146Z" fill="#263238"/>
<path d="M46.5916 132.639C46.4756 132.639 46.3644 132.593 46.2824 132.512C46.2004 132.431 46.1543 132.32 46.1543 132.206V119.303C46.1543 119.188 46.2004 119.078 46.2824 118.997C46.3644 118.915 46.4756 118.87 46.5916 118.87C46.7075 118.87 46.8187 118.915 46.9007 118.997C46.9827 119.078 47.0288 119.188 47.0288 119.303V132.214C47.0265 132.328 46.9794 132.436 46.8977 132.515C46.8159 132.594 46.706 132.639 46.5916 132.639Z" fill="#263238"/>
<path d="M31.8193 99.2821L43.9578 82.4738C45.891 80.5393 47.3466 78.1892 48.211 75.6067C50.3289 68.9648 50.6615 65.068 48.4386 60.5823C43.5027 60.5823 40.6147 61.0759 35.0049 70.4716C30.4278 78.1353 23.6278 91.2026 21.965 94.0257C19.8909 97.4895 19.287 98.4507 21.0899 101.88C22.8927 105.309 29.6839 114.116 35.3987 120.741C41.1135 127.365 44.4566 129.599 48.7274 130.578C52.9981 131.556 54.906 130.734 57.3127 128.543C59.7194 126.352 58.0216 124.404 55.7811 123.893C53.656 123.438 51.6293 122.614 49.7951 121.459C48.4386 120.489 48.0447 119.727 49.2787 119.675C50.9065 119.606 52.4293 119.286 52.8494 118.16C53.3745 116.748 52.0267 117.129 50.1626 116.558C47.7544 115.834 45.2756 115.364 42.7675 115.155C39.6957 115.32 31.8193 99.2821 31.8193 99.2821Z" fill="#FFA8A7"/>
<path d="M54.4596 51.9739H55.6585V63.2314C55.6585 65.4109 54.7835 67.5012 53.226 69.0423C51.6684 70.5835 49.556 71.4493 47.3533 71.4493H46.1543V60.1918C46.1543 58.0123 47.0293 55.922 48.5868 54.3809C50.1444 52.8397 52.2569 51.9739 54.4596 51.9739Z" fill="#263238"/>
<path d="M55.4488 137.297V127.521C55.4488 126.092 55.02 123.814 53.8385 123.39C53.783 123.372 53.7317 123.343 53.6876 123.305C53.6436 123.267 53.6077 123.22 53.5821 123.168C53.5565 123.116 53.5418 123.059 53.5387 123.002C53.5356 122.944 53.5443 122.886 53.5642 122.831C53.5841 122.777 53.6148 122.727 53.6545 122.685C53.6943 122.642 53.7422 122.608 53.7956 122.584C53.8489 122.56 53.9065 122.547 53.965 122.546C54.0235 122.544 54.0816 122.555 54.1361 122.576C56.2627 123.347 56.324 127.096 56.324 127.521V137.297C56.324 137.412 56.2779 137.522 56.1958 137.603C56.1137 137.685 56.0024 137.73 55.8864 137.73C55.7703 137.73 55.659 137.685 55.577 137.603C55.4949 137.522 55.4488 137.412 55.4488 137.297Z" fill="#263238"/>
<path d="M46.2682 144.008C46.213 144.017 46.157 144.017 46.1019 144.008C46.0481 143.987 45.9993 143.955 45.9582 143.914C45.9171 143.873 45.8847 143.825 45.8627 143.772C45.8407 143.718 45.8296 143.661 45.8301 143.604C45.8306 143.547 45.8427 143.49 45.8656 143.437C45.8656 143.385 48.0097 138.397 50.5389 131.244C52.9981 124.316 52.1317 122.931 51.6416 122.671C51.591 122.644 51.5462 122.607 51.51 122.563C51.4737 122.518 51.4467 122.467 51.4304 122.413C51.4142 122.358 51.409 122.301 51.4152 122.244C51.4214 122.187 51.4389 122.132 51.4666 122.082C51.5237 121.983 51.6177 121.909 51.7288 121.877C51.8398 121.844 51.9592 121.856 52.0617 121.909C53.6107 122.775 53.3919 125.797 51.3703 131.53C48.8324 138.7 46.697 143.697 46.697 143.749C46.6622 143.831 46.6021 143.901 46.5251 143.947C46.4481 143.994 46.3582 144.015 46.2682 144.008Z" fill="#263238"/>
</svg>
