<svg width="740" height="300" viewBox="0 0 740 300" fill="none" xmlns="http://www.w3.org/2000/svg">
<rect width="740" height="300" rx="16" fill="#2058BB"/>
<path d="M38.9432 48.7273V72H34.0227V48.7273H38.9432ZM47.7415 61.9091V72H42.9006V54.5455H47.5142V57.625H47.7188C48.1051 56.6098 48.7528 55.8068 49.6619 55.2159C50.571 54.6174 51.6733 54.3182 52.9688 54.3182C54.1809 54.3182 55.2377 54.5833 56.1392 55.1136C57.0407 55.6439 57.7415 56.4015 58.2415 57.3864C58.7415 58.3636 58.9915 59.5303 58.9915 60.8864V72H54.1506V61.75C54.1581 60.6818 53.8854 59.8485 53.3324 59.25C52.7794 58.6439 52.018 58.3409 51.0483 58.3409C50.3968 58.3409 49.821 58.4811 49.321 58.7614C48.8286 59.0417 48.4422 59.4508 48.1619 59.9886C47.8892 60.5189 47.7491 61.1591 47.7415 61.9091ZM72.0909 54.5455V58.1818H61.5795V54.5455H72.0909ZM63.9659 50.3636H68.8068V66.6364C68.8068 67.0833 68.875 67.4318 69.0114 67.6818C69.1477 67.9242 69.3371 68.0947 69.5795 68.1932C69.8295 68.2917 70.1174 68.3409 70.4432 68.3409C70.6705 68.3409 70.8977 68.322 71.125 68.2841C71.3523 68.2386 71.5265 68.2045 71.6477 68.1818L72.4091 71.7841C72.1667 71.8598 71.8258 71.947 71.3864 72.0455C70.947 72.1515 70.4129 72.2159 69.7841 72.2386C68.6174 72.2841 67.5947 72.1288 66.7159 71.7727C65.8447 71.4167 65.1667 70.8636 64.6818 70.1136C64.197 69.3636 63.9583 68.4167 63.9659 67.2727V50.3636ZM83.0114 72.3409C81.2159 72.3409 79.6705 71.9773 78.375 71.25C77.0871 70.5152 76.0947 69.4773 75.3977 68.1364C74.7008 66.7879 74.3523 65.1932 74.3523 63.3523C74.3523 61.5568 74.7008 59.9811 75.3977 58.625C76.0947 57.2689 77.0758 56.2121 78.3409 55.4545C79.6136 54.697 81.1061 54.3182 82.8182 54.3182C83.9697 54.3182 85.0417 54.5038 86.0341 54.875C87.0341 55.2386 87.9053 55.7879 88.6477 56.5227C89.3977 57.2576 89.9811 58.1818 90.3977 59.2955C90.8144 60.4015 91.0227 61.697 91.0227 63.1818V64.5114H76.2841V61.5114H86.4659C86.4659 60.8144 86.3144 60.197 86.0114 59.6591C85.7083 59.1212 85.2879 58.7008 84.75 58.3977C84.2197 58.0871 83.6023 57.9318 82.8977 57.9318C82.1629 57.9318 81.5114 58.1023 80.9432 58.4432C80.3826 58.7765 79.9432 59.2273 79.625 59.7955C79.3068 60.3561 79.1439 60.9811 79.1364 61.6705V64.5227C79.1364 65.3864 79.2955 66.1326 79.6136 66.7614C79.9394 67.3902 80.3977 67.875 80.9886 68.2159C81.5795 68.5568 82.2803 68.7273 83.0909 68.7273C83.6288 68.7273 84.1212 68.6515 84.5682 68.5C85.0152 68.3485 85.3977 68.1212 85.7159 67.8182C86.0341 67.5152 86.2765 67.1439 86.4432 66.7045L90.9205 67C90.6932 68.0758 90.2273 69.0152 89.5227 69.8182C88.8258 70.6136 87.9242 71.2348 86.8182 71.6818C85.7197 72.1212 84.4508 72.3409 83.0114 72.3409ZM102.045 78.9091C100.477 78.9091 99.1326 78.6932 98.0114 78.2614C96.8977 77.8371 96.0114 77.2576 95.3523 76.5227C94.6932 75.7879 94.2652 74.9621 94.0682 74.0455L98.5455 73.4432C98.6818 73.7917 98.8977 74.1174 99.1932 74.4205C99.4886 74.7235 99.8788 74.9659 100.364 75.1477C100.856 75.3371 101.455 75.4318 102.159 75.4318C103.212 75.4318 104.08 75.1742 104.761 74.6591C105.451 74.1515 105.795 73.2992 105.795 72.1023V68.9091H105.591C105.379 69.3939 105.061 69.8523 104.636 70.2841C104.212 70.7159 103.667 71.0682 103 71.3409C102.333 71.6136 101.538 71.75 100.614 71.75C99.303 71.75 98.1098 71.447 97.0341 70.8409C95.9659 70.2273 95.1136 69.2917 94.4773 68.0341C93.8485 66.7689 93.5341 65.1705 93.5341 63.2386C93.5341 61.2614 93.8561 59.6098 94.5 58.2841C95.1439 56.9583 96 55.9659 97.0682 55.3068C98.1439 54.6477 99.322 54.3182 100.602 54.3182C101.58 54.3182 102.398 54.4848 103.057 54.8182C103.716 55.1439 104.246 55.553 104.648 56.0455C105.057 56.5303 105.371 57.0076 105.591 57.4773H105.773V54.5455H110.58V72.1705C110.58 73.6553 110.216 74.8977 109.489 75.8977C108.761 76.8977 107.754 77.6477 106.466 78.1477C105.186 78.6553 103.712 78.9091 102.045 78.9091ZM102.148 68.1136C102.928 68.1136 103.587 67.9205 104.125 67.5341C104.67 67.1402 105.087 66.5795 105.375 65.8523C105.67 65.1174 105.818 64.2386 105.818 63.2159C105.818 62.1932 105.674 61.3068 105.386 60.5568C105.098 59.7992 104.682 59.2121 104.136 58.7955C103.591 58.3788 102.928 58.1705 102.148 58.1705C101.352 58.1705 100.682 58.3864 100.136 58.8182C99.5909 59.2424 99.178 59.8333 98.8977 60.5909C98.6174 61.3485 98.4773 62.2235 98.4773 63.2159C98.4773 64.2235 98.6174 65.0947 98.8977 65.8295C99.1856 66.5568 99.5985 67.1212 100.136 67.5227C100.682 67.9167 101.352 68.1136 102.148 68.1136ZM114.432 72V54.5455H119.125V57.5909H119.307C119.625 56.5076 120.159 55.6894 120.909 55.1364C121.659 54.5758 122.523 54.2955 123.5 54.2955C123.742 54.2955 124.004 54.3106 124.284 54.3409C124.564 54.3712 124.811 54.4129 125.023 54.4659V58.7614C124.795 58.6932 124.481 58.6326 124.08 58.5795C123.678 58.5265 123.311 58.5 122.977 58.5C122.265 58.5 121.629 58.6553 121.068 58.9659C120.515 59.2689 120.076 59.6932 119.75 60.2386C119.432 60.7841 119.273 61.4129 119.273 62.125V72H114.432ZM132.003 72.3295C130.889 72.3295 129.897 72.1364 129.026 71.75C128.154 71.3561 127.465 70.7765 126.957 70.0114C126.457 69.2386 126.207 68.2765 126.207 67.125C126.207 66.1553 126.385 65.3409 126.741 64.6818C127.098 64.0227 127.582 63.4924 128.196 63.0909C128.81 62.6894 129.507 62.3864 130.287 62.1818C131.075 61.9773 131.901 61.8333 132.764 61.75C133.779 61.6439 134.598 61.5455 135.219 61.4545C135.84 61.3561 136.291 61.2121 136.571 61.0227C136.851 60.8333 136.991 60.553 136.991 60.1818V60.1136C136.991 59.3939 136.764 58.8371 136.31 58.4432C135.863 58.0492 135.226 57.8523 134.401 57.8523C133.529 57.8523 132.836 58.0455 132.321 58.4318C131.806 58.8106 131.465 59.2879 131.298 59.8636L126.821 59.5C127.048 58.4394 127.495 57.5227 128.162 56.75C128.829 55.9697 129.688 55.3712 130.741 54.9545C131.802 54.5303 133.029 54.3182 134.423 54.3182C135.393 54.3182 136.321 54.4318 137.207 54.6591C138.101 54.8864 138.893 55.2386 139.582 55.7159C140.279 56.1932 140.829 56.8068 141.23 57.5568C141.632 58.2992 141.832 59.1894 141.832 60.2273V72H137.241V69.5795H137.105C136.825 70.125 136.45 70.6061 135.98 71.0227C135.51 71.4318 134.946 71.7538 134.287 71.9886C133.628 72.2159 132.866 72.3295 132.003 72.3295ZM133.389 68.9886C134.101 68.9886 134.73 68.8485 135.276 68.5682C135.821 68.2803 136.249 67.8939 136.56 67.4091C136.87 66.9242 137.026 66.375 137.026 65.7614V63.9091C136.874 64.0076 136.666 64.0985 136.401 64.1818C136.143 64.2576 135.851 64.3295 135.526 64.3977C135.2 64.4583 134.874 64.5152 134.548 64.5682C134.223 64.6136 133.927 64.6553 133.662 64.6932C133.094 64.7765 132.598 64.9091 132.173 65.0909C131.749 65.2727 131.42 65.5189 131.185 65.8295C130.95 66.1326 130.832 66.5114 130.832 66.9659C130.832 67.625 131.071 68.1288 131.548 68.4773C132.033 68.8182 132.647 68.9886 133.389 68.9886ZM154.872 54.5455V58.1818H144.361V54.5455H154.872ZM146.747 50.3636H151.588V66.6364C151.588 67.0833 151.656 67.4318 151.793 67.6818C151.929 67.9242 152.118 68.0947 152.361 68.1932C152.611 68.2917 152.899 68.3409 153.224 68.3409C153.452 68.3409 153.679 68.322 153.906 68.2841C154.134 68.2386 154.308 68.2045 154.429 68.1818L155.19 71.7841C154.948 71.8598 154.607 71.947 154.168 72.0455C153.728 72.1515 153.194 72.2159 152.565 72.2386C151.399 72.2841 150.376 72.1288 149.497 71.7727C148.626 71.4167 147.948 70.8636 147.463 70.1136C146.978 69.3636 146.74 68.4167 146.747 67.2727V50.3636ZM165.793 72.3409C163.997 72.3409 162.452 71.9773 161.156 71.25C159.868 70.5152 158.876 69.4773 158.179 68.1364C157.482 66.7879 157.134 65.1932 157.134 63.3523C157.134 61.5568 157.482 59.9811 158.179 58.625C158.876 57.2689 159.857 56.2121 161.122 55.4545C162.395 54.697 163.887 54.3182 165.599 54.3182C166.751 54.3182 167.823 54.5038 168.815 54.875C169.815 55.2386 170.687 55.7879 171.429 56.5227C172.179 57.2576 172.762 58.1818 173.179 59.2955C173.596 60.4015 173.804 61.697 173.804 63.1818V64.5114H159.065V61.5114H169.247C169.247 60.8144 169.096 60.197 168.793 59.6591C168.49 59.1212 168.069 58.7008 167.531 58.3977C167.001 58.0871 166.384 57.9318 165.679 57.9318C164.944 57.9318 164.293 58.1023 163.724 58.4432C163.164 58.7765 162.724 59.2273 162.406 59.7955C162.088 60.3561 161.925 60.9811 161.918 61.6705V64.5227C161.918 65.3864 162.077 66.1326 162.395 66.7614C162.721 67.3902 163.179 67.875 163.77 68.2159C164.361 68.5568 165.062 68.7273 165.872 68.7273C166.41 68.7273 166.902 68.6515 167.349 68.5C167.796 68.3485 168.179 68.1212 168.497 67.8182C168.815 67.5152 169.058 67.1439 169.224 66.7045L173.702 67C173.474 68.0758 173.009 69.0152 172.304 69.8182C171.607 70.6136 170.705 71.2348 169.599 71.6818C168.501 72.1212 167.232 72.3409 165.793 72.3409ZM183.395 72.2841C182.069 72.2841 180.868 71.9432 179.793 71.2614C178.724 70.572 177.876 69.5606 177.247 68.2273C176.626 66.8864 176.315 65.2424 176.315 63.2955C176.315 61.2955 176.637 59.6326 177.281 58.3068C177.925 56.9735 178.781 55.9773 179.849 55.3182C180.925 54.6515 182.103 54.3182 183.384 54.3182C184.361 54.3182 185.175 54.4848 185.827 54.8182C186.486 55.1439 187.016 55.553 187.418 56.0455C187.827 56.5303 188.137 57.0076 188.349 57.4773H188.497V48.7273H193.327V72H188.554V69.2045H188.349C188.122 69.6894 187.8 70.1705 187.384 70.6477C186.974 71.1174 186.44 71.5076 185.781 71.8182C185.13 72.1288 184.334 72.2841 183.395 72.2841ZM184.929 68.4318C185.709 68.4318 186.368 68.2197 186.906 67.7955C187.452 67.3636 187.868 66.7614 188.156 65.9886C188.452 65.2159 188.599 64.3106 188.599 63.2727C188.599 62.2348 188.455 61.3333 188.168 60.5682C187.88 59.803 187.463 59.2121 186.918 58.7955C186.372 58.3788 185.709 58.1705 184.929 58.1705C184.134 58.1705 183.463 58.3864 182.918 58.8182C182.372 59.25 181.959 59.8485 181.679 60.6136C181.399 61.3788 181.259 62.2652 181.259 63.2727C181.259 64.2879 181.399 65.1856 181.679 65.9659C181.967 66.7386 182.38 67.3447 182.918 67.7841C183.463 68.2159 184.134 68.4318 184.929 68.4318ZM204.804 72V48.7273H213.986C215.751 48.7273 217.255 49.0644 218.497 49.7386C219.74 50.4053 220.687 51.3333 221.338 52.5227C221.997 53.7045 222.327 55.0682 222.327 56.6136C222.327 58.1591 221.993 59.5227 221.327 60.7045C220.66 61.8864 219.694 62.8068 218.429 63.4659C217.171 64.125 215.649 64.4545 213.861 64.4545H208.009V60.5114H213.065C214.012 60.5114 214.793 60.3485 215.406 60.0227C216.027 59.6894 216.49 59.2311 216.793 58.6477C217.103 58.0568 217.259 57.3788 217.259 56.6136C217.259 55.8409 217.103 55.1667 216.793 54.5909C216.49 54.0076 216.027 53.5568 215.406 53.2386C214.785 52.9129 213.997 52.75 213.043 52.75H209.724V72H204.804ZM229.94 72.3295C228.827 72.3295 227.834 72.1364 226.963 71.75C226.092 71.3561 225.402 70.7765 224.895 70.0114C224.395 69.2386 224.145 68.2765 224.145 67.125C224.145 66.1553 224.323 65.3409 224.679 64.6818C225.035 64.0227 225.52 63.4924 226.134 63.0909C226.747 62.6894 227.444 62.3864 228.224 62.1818C229.012 61.9773 229.838 61.8333 230.702 61.75C231.717 61.6439 232.535 61.5455 233.156 61.4545C233.777 61.3561 234.228 61.2121 234.509 61.0227C234.789 60.8333 234.929 60.553 234.929 60.1818V60.1136C234.929 59.3939 234.702 58.8371 234.247 58.4432C233.8 58.0492 233.164 57.8523 232.338 57.8523C231.467 57.8523 230.774 58.0455 230.259 58.4318C229.743 58.8106 229.402 59.2879 229.236 59.8636L224.759 59.5C224.986 58.4394 225.433 57.5227 226.099 56.75C226.766 55.9697 227.626 55.3712 228.679 54.9545C229.74 54.5303 230.967 54.3182 232.361 54.3182C233.33 54.3182 234.259 54.4318 235.145 54.6591C236.039 54.8864 236.83 55.2386 237.52 55.7159C238.217 56.1932 238.766 56.8068 239.168 57.5568C239.569 58.2992 239.77 59.1894 239.77 60.2273V72H235.179V69.5795H235.043C234.762 70.125 234.387 70.6061 233.918 71.0227C233.448 71.4318 232.884 71.7538 232.224 71.9886C231.565 72.2159 230.804 72.3295 229.94 72.3295ZM231.327 68.9886C232.039 68.9886 232.668 68.8485 233.213 68.5682C233.759 68.2803 234.187 67.8939 234.497 67.4091C234.808 66.9242 234.963 66.375 234.963 65.7614V63.9091C234.812 64.0076 234.603 64.0985 234.338 64.1818C234.08 64.2576 233.789 64.3295 233.463 64.3977C233.137 64.4583 232.812 64.5152 232.486 64.5682C232.16 64.6136 231.865 64.6553 231.599 64.6932C231.031 64.7765 230.535 64.9091 230.111 65.0909C229.687 65.2727 229.357 65.5189 229.122 65.8295C228.887 66.1326 228.77 66.5114 228.77 66.9659C228.77 67.625 229.009 68.1288 229.486 68.4773C229.971 68.8182 230.584 68.9886 231.327 68.9886ZM245.889 78.5455C245.276 78.5455 244.7 78.4962 244.162 78.3977C243.632 78.3068 243.192 78.1894 242.844 78.0455L243.935 74.4318C244.503 74.6061 245.014 74.7008 245.469 74.7159C245.931 74.7311 246.329 74.625 246.662 74.3977C247.003 74.1705 247.279 73.7841 247.491 73.2386L247.776 72.5L241.514 54.5455H246.605L250.219 67.3636H250.401L254.048 54.5455H259.173L252.389 73.8864C252.063 74.8258 251.62 75.6439 251.06 76.3409C250.507 77.0455 249.806 77.5871 248.957 77.9659C248.109 78.3523 247.086 78.5455 245.889 78.5455ZM261.651 72V54.5455H266.264V57.625H266.469C266.832 56.6023 267.438 55.7955 268.287 55.2045C269.135 54.6136 270.151 54.3182 271.332 54.3182C272.529 54.3182 273.548 54.6174 274.389 55.2159C275.23 55.8068 275.791 56.6098 276.071 57.625H276.253C276.609 56.625 277.253 55.8258 278.185 55.2273C279.124 54.6212 280.234 54.3182 281.514 54.3182C283.143 54.3182 284.465 54.8371 285.48 55.875C286.503 56.9053 287.014 58.3674 287.014 60.2614V72H282.185V61.2159C282.185 60.2462 281.927 59.5189 281.412 59.0341C280.897 58.5492 280.253 58.3068 279.48 58.3068C278.601 58.3068 277.916 58.5871 277.423 59.1477C276.931 59.7008 276.685 60.4318 276.685 61.3409V72H271.991V61.1136C271.991 60.2576 271.745 59.5758 271.253 59.0682C270.768 58.5606 270.128 58.3068 269.332 58.3068C268.795 58.3068 268.31 58.4432 267.878 58.7159C267.454 58.9811 267.116 59.3561 266.866 59.8409C266.616 60.3182 266.491 60.8788 266.491 61.5227V72H261.651ZM298.793 72.3409C296.997 72.3409 295.452 71.9773 294.156 71.25C292.868 70.5152 291.876 69.4773 291.179 68.1364C290.482 66.7879 290.134 65.1932 290.134 63.3523C290.134 61.5568 290.482 59.9811 291.179 58.625C291.876 57.2689 292.857 56.2121 294.122 55.4545C295.395 54.697 296.887 54.3182 298.599 54.3182C299.751 54.3182 300.823 54.5038 301.815 54.875C302.815 55.2386 303.687 55.7879 304.429 56.5227C305.179 57.2576 305.762 58.1818 306.179 59.2955C306.596 60.4015 306.804 61.697 306.804 63.1818V64.5114H292.065V61.5114H302.247C302.247 60.8144 302.096 60.197 301.793 59.6591C301.49 59.1212 301.069 58.7008 300.531 58.3977C300.001 58.0871 299.384 57.9318 298.679 57.9318C297.944 57.9318 297.293 58.1023 296.724 58.4432C296.164 58.7765 295.724 59.2273 295.406 59.7955C295.088 60.3561 294.925 60.9811 294.918 61.6705V64.5227C294.918 65.3864 295.077 66.1326 295.395 66.7614C295.721 67.3902 296.179 67.875 296.77 68.2159C297.361 68.5568 298.062 68.7273 298.872 68.7273C299.41 68.7273 299.902 68.6515 300.349 68.5C300.796 68.3485 301.179 68.1212 301.497 67.8182C301.815 67.5152 302.058 67.1439 302.224 66.7045L306.702 67C306.474 68.0758 306.009 69.0152 305.304 69.8182C304.607 70.6136 303.705 71.2348 302.599 71.6818C301.501 72.1212 300.232 72.3409 298.793 72.3409ZM314.804 61.9091V72H309.963V54.5455H314.577V57.625H314.781C315.168 56.6098 315.815 55.8068 316.724 55.2159C317.634 54.6174 318.736 54.3182 320.031 54.3182C321.243 54.3182 322.3 54.5833 323.202 55.1136C324.103 55.6439 324.804 56.4015 325.304 57.3864C325.804 58.3636 326.054 59.5303 326.054 60.8864V72H321.213V61.75C321.221 60.6818 320.948 59.8485 320.395 59.25C319.842 58.6439 319.08 58.3409 318.111 58.3409C317.459 58.3409 316.884 58.4811 316.384 58.7614C315.891 59.0417 315.505 59.4508 315.224 59.9886C314.952 60.5189 314.812 61.1591 314.804 61.9091ZM339.153 54.5455V58.1818H328.642V54.5455H339.153ZM331.028 50.3636H335.869V66.6364C335.869 67.0833 335.938 67.4318 336.074 67.6818C336.21 67.9242 336.4 68.0947 336.642 68.1932C336.892 68.2917 337.18 68.3409 337.506 68.3409C337.733 68.3409 337.96 68.322 338.188 68.2841C338.415 68.2386 338.589 68.2045 338.71 68.1818L339.472 71.7841C339.229 71.8598 338.888 71.947 338.449 72.0455C338.009 72.1515 337.475 72.2159 336.847 72.2386C335.68 72.2841 334.657 72.1288 333.778 71.7727C332.907 71.4167 332.229 70.8636 331.744 70.1136C331.259 69.3636 331.021 68.4167 331.028 67.2727V50.3636ZM365.236 56.25C365.077 55.697 364.853 55.2083 364.565 54.7841C364.277 54.3523 363.925 53.9886 363.509 53.6932C363.099 53.3902 362.63 53.1591 362.099 53C361.577 52.8409 360.997 52.7614 360.361 52.7614C359.171 52.7614 358.126 53.0568 357.224 53.6477C356.33 54.2386 355.634 55.0985 355.134 56.2273C354.634 57.3485 354.384 58.7197 354.384 60.3409C354.384 61.9621 354.63 63.3409 355.122 64.4773C355.615 65.6136 356.312 66.4811 357.213 67.0795C358.115 67.6705 359.179 67.9659 360.406 67.9659C361.52 67.9659 362.471 67.7689 363.259 67.375C364.054 66.9735 364.66 66.4091 365.077 65.6818C365.501 64.9545 365.713 64.0947 365.713 63.1023L366.713 63.25H360.713V59.5455H370.452V62.4773C370.452 64.5227 370.02 66.2803 369.156 67.75C368.293 69.2121 367.103 70.3409 365.588 71.1364C364.073 71.9242 362.338 72.3182 360.384 72.3182C358.202 72.3182 356.285 71.8371 354.634 70.875C352.982 69.9053 351.694 68.5303 350.77 66.75C349.853 64.9621 349.395 62.8409 349.395 60.3864C349.395 58.5 349.668 56.8182 350.213 55.3409C350.766 53.8561 351.539 52.5985 352.531 51.5682C353.524 50.5379 354.679 49.7538 355.997 49.2159C357.315 48.678 358.743 48.4091 360.281 48.4091C361.599 48.4091 362.827 48.6023 363.963 48.9886C365.099 49.3674 366.107 49.9053 366.986 50.6023C367.872 51.2992 368.596 52.1288 369.156 53.0909C369.717 54.0455 370.077 55.0985 370.236 56.25H365.236ZM379.034 72.3295C377.92 72.3295 376.928 72.1364 376.057 71.75C375.186 71.3561 374.496 70.7765 373.989 70.0114C373.489 69.2386 373.239 68.2765 373.239 67.125C373.239 66.1553 373.417 65.3409 373.773 64.6818C374.129 64.0227 374.614 63.4924 375.227 63.0909C375.841 62.6894 376.538 62.3864 377.318 62.1818C378.106 61.9773 378.932 61.8333 379.795 61.75C380.811 61.6439 381.629 61.5455 382.25 61.4545C382.871 61.3561 383.322 61.2121 383.602 61.0227C383.883 60.8333 384.023 60.553 384.023 60.1818V60.1136C384.023 59.3939 383.795 58.8371 383.341 58.4432C382.894 58.0492 382.258 57.8523 381.432 57.8523C380.561 57.8523 379.867 58.0455 379.352 58.4318C378.837 58.8106 378.496 59.2879 378.33 59.8636L373.852 59.5C374.08 58.4394 374.527 57.5227 375.193 56.75C375.86 55.9697 376.72 55.3712 377.773 54.9545C378.833 54.5303 380.061 54.3182 381.455 54.3182C382.424 54.3182 383.352 54.4318 384.239 54.6591C385.133 54.8864 385.924 55.2386 386.614 55.7159C387.311 56.1932 387.86 56.8068 388.261 57.5568C388.663 58.2992 388.864 59.1894 388.864 60.2273V72H384.273V69.5795H384.136C383.856 70.125 383.481 70.6061 383.011 71.0227C382.542 71.4318 381.977 71.7538 381.318 71.9886C380.659 72.2159 379.898 72.3295 379.034 72.3295ZM380.42 68.9886C381.133 68.9886 381.761 68.8485 382.307 68.5682C382.852 68.2803 383.28 67.8939 383.591 67.4091C383.902 66.9242 384.057 66.375 384.057 65.7614V63.9091C383.905 64.0076 383.697 64.0985 383.432 64.1818C383.174 64.2576 382.883 64.3295 382.557 64.3977C382.231 64.4583 381.905 64.5152 381.58 64.5682C381.254 64.6136 380.958 64.6553 380.693 64.6932C380.125 64.7765 379.629 64.9091 379.205 65.0909C378.78 65.2727 378.451 65.5189 378.216 65.8295C377.981 66.1326 377.864 66.5114 377.864 66.9659C377.864 67.625 378.102 68.1288 378.58 68.4773C379.064 68.8182 379.678 68.9886 380.42 68.9886ZM401.903 54.5455V58.1818H391.392V54.5455H401.903ZM393.778 50.3636H398.619V66.6364C398.619 67.0833 398.688 67.4318 398.824 67.6818C398.96 67.9242 399.15 68.0947 399.392 68.1932C399.642 68.2917 399.93 68.3409 400.256 68.3409C400.483 68.3409 400.71 68.322 400.938 68.2841C401.165 68.2386 401.339 68.2045 401.46 68.1818L402.222 71.7841C401.979 71.8598 401.638 71.947 401.199 72.0455C400.759 72.1515 400.225 72.2159 399.597 72.2386C398.43 72.2841 397.407 72.1288 396.528 71.7727C395.657 71.4167 394.979 70.8636 394.494 70.1136C394.009 69.3636 393.771 68.4167 393.778 67.2727V50.3636ZM412.824 72.3409C411.028 72.3409 409.483 71.9773 408.188 71.25C406.9 70.5152 405.907 69.4773 405.21 68.1364C404.513 66.7879 404.165 65.1932 404.165 63.3523C404.165 61.5568 404.513 59.9811 405.21 58.625C405.907 57.2689 406.888 56.2121 408.153 55.4545C409.426 54.697 410.919 54.3182 412.631 54.3182C413.782 54.3182 414.854 54.5038 415.847 54.875C416.847 55.2386 417.718 55.7879 418.46 56.5227C419.21 57.2576 419.794 58.1818 420.21 59.2955C420.627 60.4015 420.835 61.697 420.835 63.1818V64.5114H406.097V61.5114H416.278C416.278 60.8144 416.127 60.197 415.824 59.6591C415.521 59.1212 415.1 58.7008 414.562 58.3977C414.032 58.0871 413.415 57.9318 412.71 57.9318C411.975 57.9318 411.324 58.1023 410.756 58.4432C410.195 58.7765 409.756 59.2273 409.438 59.7955C409.119 60.3561 408.956 60.9811 408.949 61.6705V64.5227C408.949 65.3864 409.108 66.1326 409.426 66.7614C409.752 67.3902 410.21 67.875 410.801 68.2159C411.392 68.5568 412.093 68.7273 412.903 68.7273C413.441 68.7273 413.934 68.6515 414.381 68.5C414.828 68.3485 415.21 68.1212 415.528 67.8182C415.847 67.5152 416.089 67.1439 416.256 66.7045L420.733 67C420.506 68.0758 420.04 69.0152 419.335 69.8182C418.638 70.6136 417.737 71.2348 416.631 71.6818C415.532 72.1212 414.263 72.3409 412.824 72.3409ZM427.312 72L422.562 54.5455H427.46L430.165 66.2727H430.324L433.142 54.5455H437.949L440.812 66.2045H440.96L443.619 54.5455H448.506L443.767 72H438.642L435.642 61.0227H435.426L432.426 72H427.312ZM456.065 72.3295C454.952 72.3295 453.959 72.1364 453.088 71.75C452.217 71.3561 451.527 70.7765 451.02 70.0114C450.52 69.2386 450.27 68.2765 450.27 67.125C450.27 66.1553 450.448 65.3409 450.804 64.6818C451.16 64.0227 451.645 63.4924 452.259 63.0909C452.872 62.6894 453.569 62.3864 454.349 62.1818C455.137 61.9773 455.963 61.8333 456.827 61.75C457.842 61.6439 458.66 61.5455 459.281 61.4545C459.902 61.3561 460.353 61.2121 460.634 61.0227C460.914 60.8333 461.054 60.553 461.054 60.1818V60.1136C461.054 59.3939 460.827 58.8371 460.372 58.4432C459.925 58.0492 459.289 57.8523 458.463 57.8523C457.592 57.8523 456.899 58.0455 456.384 58.4318C455.868 58.8106 455.527 59.2879 455.361 59.8636L450.884 59.5C451.111 58.4394 451.558 57.5227 452.224 56.75C452.891 55.9697 453.751 55.3712 454.804 54.9545C455.865 54.5303 457.092 54.3182 458.486 54.3182C459.455 54.3182 460.384 54.4318 461.27 54.6591C462.164 54.8864 462.955 55.2386 463.645 55.7159C464.342 56.1932 464.891 56.8068 465.293 57.5568C465.694 58.2992 465.895 59.1894 465.895 60.2273V72H461.304V69.5795H461.168C460.887 70.125 460.512 70.6061 460.043 71.0227C459.573 71.4318 459.009 71.7538 458.349 71.9886C457.69 72.2159 456.929 72.3295 456.065 72.3295ZM457.452 68.9886C458.164 68.9886 458.793 68.8485 459.338 68.5682C459.884 68.2803 460.312 67.8939 460.622 67.4091C460.933 66.9242 461.088 66.375 461.088 65.7614V63.9091C460.937 64.0076 460.728 64.0985 460.463 64.1818C460.205 64.2576 459.914 64.3295 459.588 64.3977C459.262 64.4583 458.937 64.5152 458.611 64.5682C458.285 64.6136 457.99 64.6553 457.724 64.6932C457.156 64.7765 456.66 64.9091 456.236 65.0909C455.812 65.2727 455.482 65.5189 455.247 65.8295C455.012 66.1326 454.895 66.5114 454.895 66.9659C454.895 67.625 455.134 68.1288 455.611 68.4773C456.096 68.8182 456.709 68.9886 457.452 68.9886ZM472.014 78.5455C471.401 78.5455 470.825 78.4962 470.287 78.3977C469.757 78.3068 469.317 78.1894 468.969 78.0455L470.06 74.4318C470.628 74.6061 471.139 74.7008 471.594 74.7159C472.056 74.7311 472.454 74.625 472.787 74.3977C473.128 74.1705 473.404 73.7841 473.616 73.2386L473.901 72.5L467.639 54.5455H472.73L476.344 67.3636H476.526L480.173 54.5455H485.298L478.514 73.8864C478.188 74.8258 477.745 75.6439 477.185 76.3409C476.632 77.0455 475.931 77.5871 475.082 77.9659C474.234 78.3523 473.211 78.5455 472.014 78.5455Z" fill="white"/>
<path d="M34.8295 124H32.6136L39.0227 106.545H41.2045L47.6136 124H45.3977L40.1818 109.307H40.0455L34.8295 124ZM35.6477 117.182H44.5795V119.057H35.6477V117.182ZM55.3778 124.273C54.1506 124.273 53.0938 123.983 52.2074 123.403C51.321 122.824 50.6392 122.026 50.1619 121.009C49.6847 119.991 49.446 118.83 49.446 117.523C49.446 116.193 49.6903 115.02 50.179 114.003C50.6733 112.98 51.3608 112.182 52.2415 111.608C53.1278 111.028 54.1619 110.739 55.3438 110.739C56.2642 110.739 57.0938 110.909 57.8324 111.25C58.571 111.591 59.1761 112.068 59.6477 112.682C60.1193 113.295 60.4119 114.011 60.5256 114.83H58.5142C58.3608 114.233 58.0199 113.705 57.4915 113.244C56.9688 112.778 56.2642 112.545 55.3778 112.545C54.5938 112.545 53.9063 112.75 53.3153 113.159C52.7301 113.562 52.2727 114.134 51.9432 114.872C51.6193 115.605 51.4574 116.466 51.4574 117.455C51.4574 118.466 51.6165 119.347 51.9347 120.097C52.2585 120.847 52.7131 121.429 53.2983 121.844C53.8892 122.259 54.5824 122.466 55.3778 122.466C55.9006 122.466 56.375 122.375 56.8011 122.193C57.2273 122.011 57.5881 121.75 57.8835 121.409C58.179 121.068 58.3892 120.659 58.5142 120.182H60.5256C60.4119 120.955 60.1307 121.651 59.6818 122.27C59.2386 122.884 58.6506 123.372 57.9176 123.736C57.1903 124.094 56.3438 124.273 55.3778 124.273ZM68.7841 124.273C67.5568 124.273 66.5 123.983 65.6136 123.403C64.7273 122.824 64.0455 122.026 63.5682 121.009C63.0909 119.991 62.8523 118.83 62.8523 117.523C62.8523 116.193 63.0966 115.02 63.5852 114.003C64.0795 112.98 64.767 112.182 65.6477 111.608C66.5341 111.028 67.5682 110.739 68.75 110.739C69.6705 110.739 70.5 110.909 71.2386 111.25C71.9773 111.591 72.5824 112.068 73.054 112.682C73.5256 113.295 73.8182 114.011 73.9318 114.83H71.9205C71.767 114.233 71.4261 113.705 70.8977 113.244C70.375 112.778 69.6705 112.545 68.7841 112.545C68 112.545 67.3125 112.75 66.7216 113.159C66.1364 113.562 65.679 114.134 65.3494 114.872C65.0256 115.605 64.8636 116.466 64.8636 117.455C64.8636 118.466 65.0227 119.347 65.3409 120.097C65.6648 120.847 66.1193 121.429 66.7045 121.844C67.2955 122.259 67.9886 122.466 68.7841 122.466C69.3068 122.466 69.7812 122.375 70.2074 122.193C70.6335 122.011 70.9943 121.75 71.2898 121.409C71.5852 121.068 71.7955 120.659 71.9205 120.182H73.9318C73.8182 120.955 73.5369 121.651 73.0881 122.27C72.6449 122.884 72.0568 123.372 71.3239 123.736C70.5966 124.094 69.75 124.273 68.7841 124.273ZM82.3608 124.273C81.0994 124.273 80.0114 123.994 79.0966 123.438C78.1875 122.875 77.4858 122.091 76.9915 121.085C76.5028 120.074 76.2585 118.898 76.2585 117.557C76.2585 116.216 76.5028 115.034 76.9915 114.011C77.4858 112.983 78.1733 112.182 79.054 111.608C79.9403 111.028 80.9744 110.739 82.1562 110.739C82.8381 110.739 83.5114 110.852 84.1761 111.08C84.8409 111.307 85.446 111.676 85.9915 112.188C86.5369 112.693 86.9716 113.364 87.2955 114.199C87.6193 115.034 87.7812 116.062 87.7812 117.284V118.136H77.6903V116.398H85.7358C85.7358 115.659 85.5881 115 85.2926 114.42C85.0028 113.841 84.5881 113.384 84.0483 113.048C83.5142 112.713 82.8835 112.545 82.1562 112.545C81.3551 112.545 80.6619 112.744 80.0767 113.142C79.4972 113.534 79.0511 114.045 78.7386 114.676C78.4261 115.307 78.2699 115.983 78.2699 116.705V117.864C78.2699 118.852 78.4403 119.69 78.7812 120.378C79.1278 121.06 79.608 121.58 80.2216 121.938C80.8352 122.29 81.5483 122.466 82.3608 122.466C82.8892 122.466 83.3665 122.392 83.7926 122.244C84.2244 122.091 84.5966 121.864 84.9091 121.562C85.2216 121.256 85.4631 120.875 85.6335 120.42L87.5767 120.966C87.3722 121.625 87.0284 122.205 86.5455 122.705C86.0625 123.199 85.4659 123.585 84.7557 123.864C84.0455 124.136 83.2472 124.273 82.3608 124.273ZM90.8409 128.909V110.909H92.7841V112.989H93.0227C93.1705 112.761 93.375 112.472 93.6364 112.119C93.9034 111.761 94.2841 111.443 94.7784 111.165C95.2784 110.881 95.9545 110.739 96.8068 110.739C97.9091 110.739 98.8807 111.014 99.7216 111.565C100.563 112.116 101.219 112.898 101.69 113.909C102.162 114.92 102.398 116.114 102.398 117.489C102.398 118.875 102.162 120.077 101.69 121.094C101.219 122.105 100.565 122.889 99.7301 123.446C98.8949 123.997 97.9318 124.273 96.8409 124.273C96 124.273 95.3267 124.134 94.821 123.855C94.3153 123.571 93.9261 123.25 93.6534 122.892C93.3807 122.528 93.1705 122.227 93.0227 121.989H92.8523V128.909H90.8409ZM92.8182 117.455C92.8182 118.443 92.9631 119.315 93.2528 120.071C93.5426 120.821 93.9659 121.409 94.5227 121.835C95.0795 122.256 95.7614 122.466 96.5682 122.466C97.4091 122.466 98.1108 122.244 98.6733 121.801C99.2415 121.352 99.6676 120.75 99.9517 119.994C100.241 119.233 100.386 118.386 100.386 117.455C100.386 116.534 100.244 115.705 99.9602 114.966C99.6818 114.222 99.2585 113.634 98.6903 113.202C98.1278 112.764 97.4205 112.545 96.5682 112.545C95.75 112.545 95.0625 112.753 94.5057 113.168C93.9489 113.577 93.5284 114.151 93.2443 114.889C92.9602 115.622 92.8182 116.477 92.8182 117.455ZM111.159 110.909V112.614H104.375V110.909H111.159ZM106.352 107.773H108.364V120.25C108.364 120.818 108.446 121.244 108.611 121.528C108.781 121.807 108.997 121.994 109.259 122.091C109.526 122.182 109.807 122.227 110.102 122.227C110.324 122.227 110.506 122.216 110.648 122.193C110.79 122.165 110.903 122.142 110.989 122.125L111.398 123.932C111.261 123.983 111.071 124.034 110.827 124.085C110.582 124.142 110.273 124.17 109.898 124.17C109.33 124.17 108.773 124.048 108.227 123.804C107.688 123.56 107.239 123.188 106.881 122.688C106.528 122.188 106.352 121.557 106.352 120.795V107.773ZM124.787 124.307C123.957 124.307 123.205 124.151 122.528 123.838C121.852 123.52 121.315 123.062 120.918 122.466C120.52 121.864 120.321 121.136 120.321 120.284C120.321 119.534 120.469 118.926 120.764 118.46C121.06 117.989 121.455 117.619 121.949 117.352C122.443 117.085 122.989 116.886 123.585 116.756C124.188 116.619 124.793 116.511 125.401 116.432C126.196 116.33 126.841 116.253 127.335 116.202C127.835 116.145 128.199 116.051 128.426 115.92C128.659 115.79 128.776 115.562 128.776 115.239V115.17C128.776 114.33 128.545 113.676 128.085 113.21C127.631 112.744 126.94 112.511 126.014 112.511C125.054 112.511 124.301 112.722 123.756 113.142C123.21 113.562 122.827 114.011 122.605 114.489L120.696 113.807C121.037 113.011 121.491 112.392 122.06 111.949C122.634 111.5 123.259 111.187 123.935 111.011C124.616 110.83 125.287 110.739 125.946 110.739C126.366 110.739 126.849 110.79 127.395 110.892C127.946 110.989 128.477 111.19 128.989 111.497C129.506 111.804 129.935 112.267 130.276 112.886C130.616 113.506 130.787 114.335 130.787 115.375V124H128.776V122.227H128.673C128.537 122.511 128.31 122.815 127.991 123.139C127.673 123.463 127.25 123.739 126.722 123.966C126.193 124.193 125.548 124.307 124.787 124.307ZM125.094 122.5C125.889 122.5 126.56 122.344 127.105 122.031C127.656 121.719 128.071 121.315 128.349 120.821C128.634 120.327 128.776 119.807 128.776 119.261V117.42C128.69 117.523 128.503 117.616 128.213 117.702C127.929 117.781 127.599 117.852 127.224 117.915C126.855 117.972 126.494 118.023 126.142 118.068C125.795 118.108 125.514 118.142 125.298 118.17C124.776 118.239 124.287 118.349 123.832 118.503C123.384 118.651 123.02 118.875 122.741 119.176C122.469 119.472 122.332 119.875 122.332 120.386C122.332 121.085 122.591 121.614 123.108 121.972C123.631 122.324 124.293 122.5 125.094 122.5ZM136.469 106.545V124H134.458V106.545H136.469ZM142.165 106.545V124H140.153V106.545H142.165ZM152.599 128.909V110.909H154.542V112.989H154.781C154.928 112.761 155.133 112.472 155.394 112.119C155.661 111.761 156.042 111.443 156.536 111.165C157.036 110.881 157.712 110.739 158.565 110.739C159.667 110.739 160.638 111.014 161.479 111.565C162.32 112.116 162.977 112.898 163.448 113.909C163.92 114.92 164.156 116.114 164.156 117.489C164.156 118.875 163.92 120.077 163.448 121.094C162.977 122.105 162.323 122.889 161.488 123.446C160.653 123.997 159.69 124.273 158.599 124.273C157.758 124.273 157.085 124.134 156.579 123.855C156.073 123.571 155.684 123.25 155.411 122.892C155.138 122.528 154.928 122.227 154.781 121.989H154.61V128.909H152.599ZM154.576 117.455C154.576 118.443 154.721 119.315 155.011 120.071C155.3 120.821 155.724 121.409 156.281 121.835C156.837 122.256 157.519 122.466 158.326 122.466C159.167 122.466 159.869 122.244 160.431 121.801C160.999 121.352 161.425 120.75 161.71 119.994C161.999 119.233 162.144 118.386 162.144 117.455C162.144 116.534 162.002 115.705 161.718 114.966C161.44 114.222 161.016 113.634 160.448 113.202C159.886 112.764 159.178 112.545 158.326 112.545C157.508 112.545 156.82 112.753 156.263 113.168C155.707 113.577 155.286 114.151 155.002 114.889C154.718 115.622 154.576 116.477 154.576 117.455ZM171.076 124.307C170.246 124.307 169.494 124.151 168.817 123.838C168.141 123.52 167.604 123.062 167.207 122.466C166.809 121.864 166.61 121.136 166.61 120.284C166.61 119.534 166.758 118.926 167.053 118.46C167.349 117.989 167.744 117.619 168.238 117.352C168.732 117.085 169.278 116.886 169.874 116.756C170.477 116.619 171.082 116.511 171.69 116.432C172.485 116.33 173.13 116.253 173.624 116.202C174.124 116.145 174.488 116.051 174.715 115.92C174.948 115.79 175.065 115.562 175.065 115.239V115.17C175.065 114.33 174.835 113.676 174.374 113.21C173.92 112.744 173.229 112.511 172.303 112.511C171.343 112.511 170.59 112.722 170.045 113.142C169.499 113.562 169.116 114.011 168.894 114.489L166.985 113.807C167.326 113.011 167.781 112.392 168.349 111.949C168.923 111.5 169.548 111.187 170.224 111.011C170.906 110.83 171.576 110.739 172.235 110.739C172.656 110.739 173.138 110.79 173.684 110.892C174.235 110.989 174.766 111.19 175.278 111.497C175.795 111.804 176.224 112.267 176.565 112.886C176.906 113.506 177.076 114.335 177.076 115.375V124H175.065V122.227H174.962C174.826 122.511 174.599 122.815 174.281 123.139C173.962 123.463 173.539 123.739 173.011 123.966C172.482 124.193 171.837 124.307 171.076 124.307ZM171.383 122.5C172.178 122.5 172.849 122.344 173.394 122.031C173.945 121.719 174.36 121.315 174.638 120.821C174.923 120.327 175.065 119.807 175.065 119.261V117.42C174.979 117.523 174.792 117.616 174.502 117.702C174.218 117.781 173.888 117.852 173.513 117.915C173.144 117.972 172.783 118.023 172.431 118.068C172.085 118.108 171.803 118.142 171.587 118.17C171.065 118.239 170.576 118.349 170.121 118.503C169.673 118.651 169.309 118.875 169.031 119.176C168.758 119.472 168.621 119.875 168.621 120.386C168.621 121.085 168.88 121.614 169.397 121.972C169.92 122.324 170.582 122.5 171.383 122.5ZM181.574 128.909C181.233 128.909 180.929 128.881 180.662 128.824C180.395 128.773 180.21 128.722 180.108 128.67L180.619 126.898C181.108 127.023 181.54 127.068 181.915 127.034C182.29 127 182.622 126.832 182.912 126.531C183.207 126.236 183.477 125.756 183.722 125.091L184.097 124.068L179.256 110.909H181.438L185.051 121.341H185.188L188.801 110.909H190.983L185.426 125.909C185.176 126.585 184.866 127.145 184.497 127.588C184.128 128.037 183.699 128.369 183.21 128.585C182.727 128.801 182.182 128.909 181.574 128.909ZM193.638 124V110.909H195.581V112.955H195.751C196.024 112.256 196.464 111.713 197.072 111.327C197.68 110.935 198.411 110.739 199.263 110.739C200.126 110.739 200.845 110.935 201.419 111.327C201.999 111.713 202.45 112.256 202.774 112.955H202.911C203.246 112.278 203.749 111.741 204.419 111.344C205.089 110.94 205.893 110.739 206.831 110.739C208.001 110.739 208.959 111.105 209.703 111.838C210.447 112.565 210.82 113.699 210.82 115.239V124H208.808V115.239C208.808 114.273 208.544 113.582 208.016 113.168C207.487 112.753 206.865 112.545 206.149 112.545C205.229 112.545 204.516 112.824 204.01 113.381C203.504 113.932 203.251 114.631 203.251 115.477V124H201.206V115.034C201.206 114.29 200.964 113.69 200.482 113.236C199.999 112.776 199.376 112.545 198.615 112.545C198.092 112.545 197.604 112.685 197.149 112.963C196.7 113.241 196.337 113.628 196.058 114.122C195.786 114.611 195.649 115.176 195.649 115.818V124H193.638ZM219.986 124.273C218.724 124.273 217.636 123.994 216.722 123.438C215.812 122.875 215.111 122.091 214.616 121.085C214.128 120.074 213.884 118.898 213.884 117.557C213.884 116.216 214.128 115.034 214.616 114.011C215.111 112.983 215.798 112.182 216.679 111.608C217.565 111.028 218.599 110.739 219.781 110.739C220.463 110.739 221.136 110.852 221.801 111.08C222.466 111.307 223.071 111.676 223.616 112.188C224.162 112.693 224.597 113.364 224.92 114.199C225.244 115.034 225.406 116.062 225.406 117.284V118.136H215.315V116.398H223.361C223.361 115.659 223.213 115 222.918 114.42C222.628 113.841 222.213 113.384 221.673 113.048C221.139 112.713 220.509 112.545 219.781 112.545C218.98 112.545 218.287 112.744 217.702 113.142C217.122 113.534 216.676 114.045 216.364 114.676C216.051 115.307 215.895 115.983 215.895 116.705V117.864C215.895 118.852 216.065 119.69 216.406 120.378C216.753 121.06 217.233 121.58 217.847 121.938C218.46 122.29 219.173 122.466 219.986 122.466C220.514 122.466 220.991 122.392 221.418 122.244C221.849 122.091 222.222 121.864 222.534 121.562C222.847 121.256 223.088 120.875 223.259 120.42L225.202 120.966C224.997 121.625 224.653 122.205 224.17 122.705C223.688 123.199 223.091 123.585 222.381 123.864C221.67 124.136 220.872 124.273 219.986 124.273ZM230.477 116.125V124H228.466V110.909H230.409V112.955H230.58C230.886 112.29 231.352 111.756 231.977 111.352C232.602 110.943 233.409 110.739 234.398 110.739C235.284 110.739 236.06 110.92 236.724 111.284C237.389 111.642 237.906 112.188 238.276 112.92C238.645 113.648 238.83 114.568 238.83 115.682V124H236.818V115.818C236.818 114.79 236.551 113.989 236.017 113.415C235.483 112.835 234.75 112.545 233.818 112.545C233.176 112.545 232.602 112.685 232.097 112.963C231.597 113.241 231.202 113.648 230.912 114.182C230.622 114.716 230.477 115.364 230.477 116.125ZM248.198 110.909V112.614H241.414V110.909H248.198ZM243.391 107.773H245.403V120.25C245.403 120.818 245.485 121.244 245.65 121.528C245.82 121.807 246.036 121.994 246.298 122.091C246.565 122.182 246.846 122.227 247.141 122.227C247.363 122.227 247.545 122.216 247.687 122.193C247.829 122.165 247.942 122.142 248.028 122.125L248.437 123.932C248.3 123.983 248.11 124.034 247.866 124.085C247.621 124.142 247.312 124.17 246.937 124.17C246.369 124.17 245.812 124.048 245.266 123.804C244.727 123.56 244.278 123.188 243.92 122.688C243.567 122.188 243.391 121.557 243.391 120.795V107.773ZM257.974 124V110.909H259.917V112.955H260.087C260.36 112.256 260.8 111.713 261.408 111.327C262.016 110.935 262.746 110.739 263.599 110.739C264.462 110.739 265.181 110.935 265.755 111.327C266.335 111.713 266.786 112.256 267.11 112.955H267.246C267.582 112.278 268.085 111.741 268.755 111.344C269.425 110.94 270.229 110.739 271.167 110.739C272.337 110.739 273.295 111.105 274.039 111.838C274.783 112.565 275.156 113.699 275.156 115.239V124H273.144V115.239C273.144 114.273 272.88 113.582 272.352 113.168C271.823 112.753 271.201 112.545 270.485 112.545C269.565 112.545 268.852 112.824 268.346 113.381C267.84 113.932 267.587 114.631 267.587 115.477V124H265.542V115.034C265.542 114.29 265.3 113.69 264.817 113.236C264.335 112.776 263.712 112.545 262.951 112.545C262.428 112.545 261.94 112.685 261.485 112.963C261.036 113.241 260.673 113.628 260.394 114.122C260.121 114.611 259.985 115.176 259.985 115.818V124H257.974ZM284.151 124.273C282.969 124.273 281.933 123.991 281.04 123.429C280.154 122.866 279.461 122.08 278.961 121.068C278.467 120.057 278.219 118.875 278.219 117.523C278.219 116.159 278.467 114.969 278.961 113.952C279.461 112.935 280.154 112.145 281.04 111.582C281.933 111.02 282.969 110.739 284.151 110.739C285.333 110.739 286.367 111.02 287.254 111.582C288.146 112.145 288.839 112.935 289.333 113.952C289.833 114.969 290.083 116.159 290.083 117.523C290.083 118.875 289.833 120.057 289.333 121.068C288.839 122.08 288.146 122.866 287.254 123.429C286.367 123.991 285.333 124.273 284.151 124.273ZM284.151 122.466C285.049 122.466 285.788 122.236 286.367 121.776C286.947 121.315 287.376 120.71 287.654 119.96C287.933 119.21 288.072 118.398 288.072 117.523C288.072 116.648 287.933 115.832 287.654 115.077C287.376 114.321 286.947 113.71 286.367 113.244C285.788 112.778 285.049 112.545 284.151 112.545C283.254 112.545 282.515 112.778 281.935 113.244C281.356 113.71 280.927 114.321 280.648 115.077C280.37 115.832 280.231 116.648 280.231 117.523C280.231 118.398 280.37 119.21 280.648 119.96C280.927 120.71 281.356 121.315 281.935 121.776C282.515 122.236 283.254 122.466 284.151 122.466ZM298.097 124.273C297.006 124.273 296.043 123.997 295.207 123.446C294.372 122.889 293.719 122.105 293.247 121.094C292.776 120.077 292.54 118.875 292.54 117.489C292.54 116.114 292.776 114.92 293.247 113.909C293.719 112.898 294.375 112.116 295.216 111.565C296.057 111.014 297.028 110.739 298.131 110.739C298.983 110.739 299.656 110.881 300.151 111.165C300.651 111.443 301.031 111.761 301.293 112.119C301.56 112.472 301.767 112.761 301.915 112.989H302.085V106.545H304.097V124H302.153V121.989H301.915C301.767 122.227 301.557 122.528 301.284 122.892C301.011 123.25 300.622 123.571 300.116 123.855C299.611 124.134 298.938 124.273 298.097 124.273ZM298.369 122.466C299.176 122.466 299.858 122.256 300.415 121.835C300.972 121.409 301.395 120.821 301.685 120.071C301.974 119.315 302.119 118.443 302.119 117.455C302.119 116.477 301.977 115.622 301.693 114.889C301.409 114.151 300.989 113.577 300.432 113.168C299.875 112.753 299.188 112.545 298.369 112.545C297.517 112.545 296.807 112.764 296.239 113.202C295.676 113.634 295.253 114.222 294.969 114.966C294.69 115.705 294.551 116.534 294.551 117.455C294.551 118.386 294.693 119.233 294.977 119.994C295.267 120.75 295.693 121.352 296.256 121.801C296.824 122.244 297.528 122.466 298.369 122.466ZM313.548 124.273C312.287 124.273 311.199 123.994 310.284 123.438C309.375 122.875 308.673 122.091 308.179 121.085C307.69 120.074 307.446 118.898 307.446 117.557C307.446 116.216 307.69 115.034 308.179 114.011C308.673 112.983 309.361 112.182 310.241 111.608C311.128 111.028 312.162 110.739 313.344 110.739C314.026 110.739 314.699 110.852 315.364 111.08C316.028 111.307 316.634 111.676 317.179 112.188C317.724 112.693 318.159 113.364 318.483 114.199C318.807 115.034 318.969 116.062 318.969 117.284V118.136H308.878V116.398H316.923C316.923 115.659 316.776 115 316.48 114.42C316.19 113.841 315.776 113.384 315.236 113.048C314.702 112.713 314.071 112.545 313.344 112.545C312.543 112.545 311.849 112.744 311.264 113.142C310.685 113.534 310.239 114.045 309.926 114.676C309.614 115.307 309.457 115.983 309.457 116.705V117.864C309.457 118.852 309.628 119.69 309.969 120.378C310.315 121.06 310.795 121.58 311.409 121.938C312.023 122.29 312.736 122.466 313.548 122.466C314.077 122.466 314.554 122.392 314.98 122.244C315.412 122.091 315.784 121.864 316.097 121.562C316.409 121.256 316.651 120.875 316.821 120.42L318.764 120.966C318.56 121.625 318.216 122.205 317.733 122.705C317.25 123.199 316.653 123.585 315.943 123.864C315.233 124.136 314.435 124.273 313.548 124.273ZM331.301 113.841L329.494 114.352C329.381 114.051 329.213 113.759 328.991 113.474C328.776 113.185 328.48 112.946 328.105 112.759C327.73 112.571 327.25 112.477 326.665 112.477C325.864 112.477 325.196 112.662 324.662 113.031C324.134 113.395 323.869 113.858 323.869 114.42C323.869 114.92 324.051 115.315 324.415 115.605C324.778 115.895 325.347 116.136 326.119 116.33L328.062 116.807C329.233 117.091 330.105 117.526 330.679 118.111C331.253 118.69 331.54 119.437 331.54 120.352C331.54 121.102 331.324 121.773 330.892 122.364C330.466 122.955 329.869 123.42 329.102 123.761C328.335 124.102 327.443 124.273 326.426 124.273C325.091 124.273 323.986 123.983 323.111 123.403C322.236 122.824 321.682 121.977 321.449 120.864L323.358 120.386C323.54 121.091 323.884 121.619 324.389 121.972C324.901 122.324 325.568 122.5 326.392 122.5C327.33 122.5 328.074 122.301 328.625 121.903C329.182 121.5 329.46 121.017 329.46 120.455C329.46 120 329.301 119.619 328.983 119.312C328.665 119 328.176 118.767 327.517 118.614L325.335 118.102C324.136 117.818 323.256 117.378 322.693 116.781C322.136 116.179 321.858 115.426 321.858 114.523C321.858 113.784 322.065 113.131 322.48 112.562C322.901 111.994 323.472 111.548 324.193 111.224C324.92 110.901 325.744 110.739 326.665 110.739C327.96 110.739 328.977 111.023 329.716 111.591C330.46 112.159 330.989 112.909 331.301 113.841ZM347.011 110.909V112.614H340.227V110.909H347.011ZM342.204 107.773H344.215V120.25C344.215 120.818 344.298 121.244 344.462 121.528C344.633 121.807 344.849 121.994 345.11 122.091C345.377 122.182 345.658 122.227 345.954 122.227C346.175 122.227 346.357 122.216 346.499 122.193C346.641 122.165 346.755 122.142 346.84 122.125L347.249 123.932C347.113 123.983 346.923 124.034 346.678 124.085C346.434 124.142 346.124 124.17 345.749 124.17C345.181 124.17 344.624 124.048 344.079 123.804C343.539 123.56 343.09 123.188 342.732 122.688C342.38 122.188 342.204 121.557 342.204 120.795V107.773ZM352.329 116.125V124H350.317V106.545H352.329V112.955H352.499C352.806 112.278 353.266 111.741 353.88 111.344C354.499 110.94 355.323 110.739 356.352 110.739C357.244 110.739 358.025 110.918 358.695 111.276C359.366 111.628 359.886 112.17 360.255 112.903C360.63 113.631 360.817 114.557 360.817 115.682V124H358.806V115.818C358.806 114.778 358.536 113.974 357.996 113.406C357.462 112.832 356.721 112.545 355.772 112.545C355.113 112.545 354.522 112.685 353.999 112.963C353.482 113.241 353.073 113.648 352.772 114.182C352.477 114.716 352.329 115.364 352.329 116.125ZM364.497 124V110.909H366.44V112.886H366.577C366.815 112.239 367.247 111.713 367.872 111.31C368.497 110.906 369.202 110.705 369.986 110.705C370.134 110.705 370.318 110.707 370.54 110.713C370.761 110.719 370.929 110.727 371.043 110.739V112.784C370.974 112.767 370.818 112.741 370.574 112.707C370.335 112.668 370.082 112.648 369.815 112.648C369.179 112.648 368.611 112.781 368.111 113.048C367.616 113.31 367.224 113.673 366.935 114.139C366.651 114.599 366.509 115.125 366.509 115.716V124H364.497ZM378.347 124.273C377.165 124.273 376.128 123.991 375.236 123.429C374.349 122.866 373.656 122.08 373.156 121.068C372.662 120.057 372.415 118.875 372.415 117.523C372.415 116.159 372.662 114.969 373.156 113.952C373.656 112.935 374.349 112.145 375.236 111.582C376.128 111.02 377.165 110.739 378.347 110.739C379.528 110.739 380.563 111.02 381.449 111.582C382.341 112.145 383.034 112.935 383.528 113.952C384.028 114.969 384.278 116.159 384.278 117.523C384.278 118.875 384.028 120.057 383.528 121.068C383.034 122.08 382.341 122.866 381.449 123.429C380.563 123.991 379.528 124.273 378.347 124.273ZM378.347 122.466C379.244 122.466 379.983 122.236 380.562 121.776C381.142 121.315 381.571 120.71 381.849 119.96C382.128 119.21 382.267 118.398 382.267 117.523C382.267 116.648 382.128 115.832 381.849 115.077C381.571 114.321 381.142 113.71 380.562 113.244C379.983 112.778 379.244 112.545 378.347 112.545C377.449 112.545 376.71 112.778 376.131 113.244C375.551 113.71 375.122 114.321 374.844 115.077C374.565 115.832 374.426 116.648 374.426 117.523C374.426 118.398 374.565 119.21 374.844 119.96C375.122 120.71 375.551 121.315 376.131 121.776C376.71 122.236 377.449 122.466 378.347 122.466ZM395.599 118.648V110.909H397.61V124H395.599V121.784H395.462C395.156 122.449 394.678 123.014 394.031 123.48C393.383 123.94 392.565 124.17 391.576 124.17C390.758 124.17 390.031 123.991 389.394 123.634C388.758 123.27 388.258 122.724 387.894 121.997C387.531 121.264 387.349 120.341 387.349 119.227V110.909H389.36V119.091C389.36 120.045 389.627 120.807 390.161 121.375C390.701 121.943 391.388 122.227 392.224 122.227C392.724 122.227 393.232 122.099 393.749 121.844C394.272 121.588 394.71 121.196 395.062 120.668C395.42 120.139 395.599 119.466 395.599 118.648ZM406.578 129.182C405.607 129.182 404.771 129.057 404.072 128.807C403.374 128.562 402.791 128.239 402.325 127.835C401.865 127.438 401.499 127.011 401.226 126.557L402.828 125.432C403.01 125.67 403.24 125.943 403.518 126.25C403.797 126.562 404.178 126.832 404.661 127.06C405.149 127.293 405.788 127.409 406.578 127.409C407.635 127.409 408.507 127.153 409.195 126.642C409.882 126.131 410.226 125.33 410.226 124.239V121.58H410.055C409.908 121.818 409.697 122.114 409.425 122.466C409.158 122.812 408.771 123.122 408.266 123.395C407.766 123.662 407.089 123.795 406.237 123.795C405.18 123.795 404.232 123.545 403.391 123.045C402.555 122.545 401.893 121.818 401.405 120.864C400.922 119.909 400.68 118.75 400.68 117.386C400.68 116.045 400.916 114.878 401.388 113.884C401.859 112.884 402.516 112.111 403.357 111.565C404.197 111.014 405.169 110.739 406.271 110.739C407.124 110.739 407.8 110.881 408.3 111.165C408.805 111.443 409.192 111.761 409.459 112.119C409.732 112.472 409.942 112.761 410.089 112.989H410.294V110.909H412.237V124.375C412.237 125.5 411.982 126.415 411.47 127.119C410.964 127.83 410.283 128.349 409.425 128.679C408.572 129.014 407.624 129.182 406.578 129.182ZM406.51 121.989C407.317 121.989 407.999 121.804 408.555 121.435C409.112 121.065 409.536 120.534 409.825 119.841C410.115 119.148 410.26 118.318 410.26 117.352C410.26 116.409 410.118 115.577 409.834 114.855C409.55 114.134 409.129 113.568 408.572 113.159C408.016 112.75 407.328 112.545 406.51 112.545C405.658 112.545 404.947 112.761 404.379 113.193C403.817 113.625 403.393 114.205 403.109 114.932C402.831 115.659 402.692 116.466 402.692 117.352C402.692 118.261 402.834 119.065 403.118 119.764C403.408 120.457 403.834 121.003 404.396 121.401C404.964 121.793 405.669 121.989 406.51 121.989ZM417.93 116.125V124H415.919V106.545H417.93V112.955H418.101C418.408 112.278 418.868 111.741 419.482 111.344C420.101 110.94 420.925 110.739 421.953 110.739C422.845 110.739 423.626 110.918 424.297 111.276C424.967 111.628 425.487 112.17 425.857 112.903C426.232 113.631 426.419 114.557 426.419 115.682V124H424.408V115.818C424.408 114.778 424.138 113.974 423.598 113.406C423.064 112.832 422.322 112.545 421.374 112.545C420.714 112.545 420.124 112.685 419.601 112.963C419.084 113.241 418.675 113.648 418.374 114.182C418.078 114.716 417.93 115.364 417.93 116.125ZM442.167 124.273C440.985 124.273 439.948 123.991 439.056 123.429C438.17 122.866 437.477 122.08 436.977 121.068C436.482 120.057 436.235 118.875 436.235 117.523C436.235 116.159 436.482 114.969 436.977 113.952C437.477 112.935 438.17 112.145 439.056 111.582C439.948 111.02 440.985 110.739 442.167 110.739C443.349 110.739 444.383 111.02 445.269 111.582C446.161 112.145 446.854 112.935 447.349 113.952C447.849 114.969 448.099 116.159 448.099 117.523C448.099 118.875 447.849 120.057 447.349 121.068C446.854 122.08 446.161 122.866 445.269 123.429C444.383 123.991 443.349 124.273 442.167 124.273ZM442.167 122.466C443.065 122.466 443.803 122.236 444.383 121.776C444.962 121.315 445.391 120.71 445.67 119.96C445.948 119.21 446.087 118.398 446.087 117.523C446.087 116.648 445.948 115.832 445.67 115.077C445.391 114.321 444.962 113.71 444.383 113.244C443.803 112.778 443.065 112.545 442.167 112.545C441.269 112.545 440.531 112.778 439.951 113.244C439.371 113.71 438.942 114.321 438.664 115.077C438.386 115.832 438.246 116.648 438.246 117.523C438.246 118.398 438.386 119.21 438.664 119.96C438.942 120.71 439.371 121.315 439.951 121.776C440.531 122.236 441.269 122.466 442.167 122.466ZM453.18 116.125V124H451.169V110.909H453.112V112.955H453.283C453.589 112.29 454.055 111.756 454.68 111.352C455.305 110.943 456.112 110.739 457.101 110.739C457.987 110.739 458.763 110.92 459.428 111.284C460.092 111.642 460.609 112.188 460.979 112.92C461.348 113.648 461.533 114.568 461.533 115.682V124H459.521V115.818C459.521 114.79 459.254 113.989 458.72 113.415C458.186 112.835 457.453 112.545 456.521 112.545C455.879 112.545 455.305 112.685 454.8 112.963C454.3 113.241 453.905 113.648 453.615 114.182C453.325 114.716 453.18 115.364 453.18 116.125ZM470.697 124.273C469.435 124.273 468.347 123.994 467.433 123.438C466.523 122.875 465.822 122.091 465.327 121.085C464.839 120.074 464.594 118.898 464.594 117.557C464.594 116.216 464.839 115.034 465.327 114.011C465.822 112.983 466.509 112.182 467.39 111.608C468.276 111.028 469.31 110.739 470.492 110.739C471.174 110.739 471.847 110.852 472.512 111.08C473.177 111.307 473.782 111.676 474.327 112.188C474.873 112.693 475.308 113.364 475.631 114.199C475.955 115.034 476.117 116.062 476.117 117.284V118.136H466.026V116.398H474.072C474.072 115.659 473.924 115 473.629 114.42C473.339 113.841 472.924 113.384 472.384 113.048C471.85 112.713 471.219 112.545 470.492 112.545C469.691 112.545 468.998 112.744 468.413 113.142C467.833 113.534 467.387 114.045 467.075 114.676C466.762 115.307 466.606 115.983 466.606 116.705V117.864C466.606 118.852 466.776 119.69 467.117 120.378C467.464 121.06 467.944 121.58 468.558 121.938C469.171 122.29 469.884 122.466 470.697 122.466C471.225 122.466 471.702 122.392 472.129 122.244C472.56 122.091 472.933 121.864 473.245 121.562C473.558 121.256 473.799 120.875 473.969 120.42L475.913 120.966C475.708 121.625 475.364 122.205 474.881 122.705C474.398 123.199 473.802 123.585 473.092 123.864C472.381 124.136 471.583 124.273 470.697 124.273ZM494.177 118.648V110.909H496.188V124H494.177V121.784H494.04C493.734 122.449 493.256 123.014 492.609 123.48C491.961 123.94 491.143 124.17 490.154 124.17C489.336 124.17 488.609 123.991 487.972 123.634C487.336 123.27 486.836 122.724 486.472 121.997C486.109 121.264 485.927 120.341 485.927 119.227V110.909H487.938V119.091C487.938 120.045 488.205 120.807 488.739 121.375C489.279 121.943 489.967 122.227 490.802 122.227C491.302 122.227 491.81 122.099 492.327 121.844C492.85 121.588 493.288 121.196 493.64 120.668C493.998 120.139 494.177 119.466 494.177 118.648ZM501.884 116.125V124H499.872V110.909H501.815V112.955H501.986C502.293 112.29 502.759 111.756 503.384 111.352C504.009 110.943 504.815 110.739 505.804 110.739C506.69 110.739 507.466 110.92 508.131 111.284C508.795 111.642 509.313 112.188 509.682 112.92C510.051 113.648 510.236 114.568 510.236 115.682V124H508.224V115.818C508.224 114.79 507.957 113.989 507.423 113.415C506.889 112.835 506.156 112.545 505.224 112.545C504.582 112.545 504.009 112.685 503.503 112.963C503.003 113.241 502.608 113.648 502.318 114.182C502.028 114.716 501.884 115.364 501.884 116.125ZM513.911 124V110.909H515.923V124H513.911ZM514.934 108.727C514.542 108.727 514.204 108.594 513.92 108.327C513.641 108.06 513.502 107.739 513.502 107.364C513.502 106.989 513.641 106.668 513.92 106.401C514.204 106.134 514.542 106 514.934 106C515.326 106 515.661 106.134 515.94 106.401C516.224 106.668 516.366 106.989 516.366 107.364C516.366 107.739 516.224 108.06 515.94 108.327C515.661 108.594 515.326 108.727 514.934 108.727ZM525.436 110.909V112.614H518.379V110.909H525.436ZM520.493 124V109.102C520.493 108.352 520.669 107.727 521.021 107.227C521.374 106.727 521.831 106.352 522.393 106.102C522.956 105.852 523.55 105.727 524.175 105.727C524.669 105.727 525.072 105.767 525.385 105.847C525.697 105.926 525.93 106 526.084 106.068L525.504 107.807C525.402 107.773 525.26 107.73 525.078 107.679C524.902 107.628 524.669 107.602 524.379 107.602C523.714 107.602 523.234 107.77 522.939 108.105C522.649 108.44 522.504 108.932 522.504 109.58V124H520.493ZM528.255 124V110.909H530.266V124H528.255ZM529.278 108.727C528.886 108.727 528.548 108.594 528.263 108.327C527.985 108.06 527.846 107.739 527.846 107.364C527.846 106.989 527.985 106.668 528.263 106.401C528.548 106.134 528.886 106 529.278 106C529.67 106 530.005 106.134 530.283 106.401C530.567 106.668 530.71 106.989 530.71 107.364C530.71 107.739 530.567 108.06 530.283 108.327C530.005 108.594 529.67 108.727 529.278 108.727ZM539.439 124.273C538.178 124.273 537.089 123.994 536.175 123.438C535.266 122.875 534.564 122.091 534.07 121.085C533.581 120.074 533.337 118.898 533.337 117.557C533.337 116.216 533.581 115.034 534.07 114.011C534.564 112.983 535.251 112.182 536.132 111.608C537.018 111.028 538.053 110.739 539.234 110.739C539.916 110.739 540.589 110.852 541.254 111.08C541.919 111.307 542.524 111.676 543.07 112.188C543.615 112.693 544.05 113.364 544.374 114.199C544.697 115.034 544.859 116.062 544.859 117.284V118.136H534.768V116.398H542.814C542.814 115.659 542.666 115 542.371 114.42C542.081 113.841 541.666 113.384 541.126 113.048C540.592 112.713 539.962 112.545 539.234 112.545C538.433 112.545 537.74 112.744 537.155 113.142C536.575 113.534 536.129 114.045 535.817 114.676C535.504 115.307 535.348 115.983 535.348 116.705V117.864C535.348 118.852 535.518 119.69 535.859 120.378C536.206 121.06 536.686 121.58 537.3 121.938C537.913 122.29 538.626 122.466 539.439 122.466C539.967 122.466 540.445 122.392 540.871 122.244C541.303 122.091 541.675 121.864 541.987 121.562C542.3 121.256 542.541 120.875 542.712 120.42L544.655 120.966C544.45 121.625 544.107 122.205 543.624 122.705C543.141 123.199 542.544 123.585 541.834 123.864C541.124 124.136 540.325 124.273 539.439 124.273ZM552.862 124.273C551.771 124.273 550.808 123.997 549.973 123.446C549.138 122.889 548.484 122.105 548.013 121.094C547.541 120.077 547.305 118.875 547.305 117.489C547.305 116.114 547.541 114.92 548.013 113.909C548.484 112.898 549.141 112.116 549.982 111.565C550.822 111.014 551.794 110.739 552.896 110.739C553.749 110.739 554.422 110.881 554.916 111.165C555.416 111.443 555.797 111.761 556.058 112.119C556.325 112.472 556.533 112.761 556.68 112.989H556.851V106.545H558.862V124H556.919V121.989H556.68C556.533 122.227 556.322 122.528 556.05 122.892C555.777 123.25 555.388 123.571 554.882 123.855C554.376 124.134 553.703 124.273 552.862 124.273ZM553.135 122.466C553.942 122.466 554.624 122.256 555.18 121.835C555.737 121.409 556.161 120.821 556.45 120.071C556.74 119.315 556.885 118.443 556.885 117.455C556.885 116.477 556.743 115.622 556.459 114.889C556.175 114.151 555.754 113.577 555.197 113.168C554.641 112.753 553.953 112.545 553.135 112.545C552.283 112.545 551.572 112.764 551.004 113.202C550.442 113.634 550.018 114.222 549.734 114.966C549.456 115.705 549.317 116.534 549.317 117.455C549.317 118.386 549.459 119.233 549.743 119.994C550.033 120.75 550.459 121.352 551.021 121.801C551.589 122.244 552.294 122.466 553.135 122.466ZM569.575 128.909V110.909H571.518V112.989H571.757C571.905 112.761 572.109 112.472 572.371 112.119C572.638 111.761 573.018 111.443 573.513 111.165C574.013 110.881 574.689 110.739 575.541 110.739C576.643 110.739 577.615 111.014 578.456 111.565C579.297 112.116 579.953 112.898 580.425 113.909C580.896 114.92 581.132 116.114 581.132 117.489C581.132 118.875 580.896 120.077 580.425 121.094C579.953 122.105 579.3 122.889 578.464 123.446C577.629 123.997 576.666 124.273 575.575 124.273C574.734 124.273 574.061 124.134 573.555 123.855C573.05 123.571 572.661 123.25 572.388 122.892C572.115 122.528 571.905 122.227 571.757 121.989H571.587V128.909H569.575ZM571.553 117.455C571.553 118.443 571.697 119.315 571.987 120.071C572.277 120.821 572.7 121.409 573.257 121.835C573.814 122.256 574.496 122.466 575.303 122.466C576.143 122.466 576.845 122.244 577.408 121.801C577.976 121.352 578.402 120.75 578.686 119.994C578.976 119.233 579.121 118.386 579.121 117.455C579.121 116.534 578.979 115.705 578.695 114.966C578.416 114.222 577.993 113.634 577.425 113.202C576.862 112.764 576.155 112.545 575.303 112.545C574.484 112.545 573.797 112.753 573.24 113.168C572.683 113.577 572.263 114.151 571.979 114.889C571.695 115.622 571.553 116.477 571.553 117.455ZM586.212 106.545V124H584.2V106.545H586.212ZM593.748 124.307C592.918 124.307 592.165 124.151 591.489 123.838C590.813 123.52 590.276 123.062 589.879 122.466C589.481 121.864 589.282 121.136 589.282 120.284C589.282 119.534 589.43 118.926 589.725 118.46C590.021 117.989 590.415 117.619 590.91 117.352C591.404 117.085 591.95 116.886 592.546 116.756C593.148 116.619 593.754 116.511 594.362 116.432C595.157 116.33 595.802 116.253 596.296 116.202C596.796 116.145 597.16 116.051 597.387 115.92C597.62 115.79 597.737 115.562 597.737 115.239V115.17C597.737 114.33 597.506 113.676 597.046 113.21C596.592 112.744 595.901 112.511 594.975 112.511C594.015 112.511 593.262 112.722 592.717 113.142C592.171 113.562 591.788 114.011 591.566 114.489L589.657 113.807C589.998 113.011 590.452 112.392 591.021 111.949C591.594 111.5 592.219 111.187 592.896 111.011C593.577 110.83 594.248 110.739 594.907 110.739C595.327 110.739 595.81 110.79 596.356 110.892C596.907 110.989 597.438 111.19 597.95 111.497C598.467 111.804 598.896 112.267 599.237 112.886C599.577 113.506 599.748 114.335 599.748 115.375V124H597.737V122.227H597.634C597.498 122.511 597.271 122.815 596.952 123.139C596.634 123.463 596.211 123.739 595.683 123.966C595.154 124.193 594.509 124.307 593.748 124.307ZM594.055 122.5C594.85 122.5 595.521 122.344 596.066 122.031C596.617 121.719 597.032 121.315 597.31 120.821C597.594 120.327 597.737 119.807 597.737 119.261V117.42C597.651 117.523 597.464 117.616 597.174 117.702C596.89 117.781 596.56 117.852 596.185 117.915C595.816 117.972 595.455 118.023 595.103 118.068C594.756 118.108 594.475 118.142 594.259 118.17C593.737 118.239 593.248 118.349 592.793 118.503C592.344 118.651 591.981 118.875 591.702 119.176C591.43 119.472 591.293 119.875 591.293 120.386C591.293 121.085 591.552 121.614 592.069 121.972C592.592 122.324 593.254 122.5 594.055 122.5ZM609.112 110.909V112.614H602.328V110.909H609.112ZM604.305 107.773H606.317V120.25C606.317 120.818 606.399 121.244 606.564 121.528C606.734 121.807 606.95 121.994 607.212 122.091C607.479 122.182 607.76 122.227 608.055 122.227C608.277 122.227 608.459 122.216 608.601 122.193C608.743 122.165 608.857 122.142 608.942 122.125L609.351 123.932C609.214 123.983 609.024 124.034 608.78 124.085C608.536 124.142 608.226 124.17 607.851 124.17C607.283 124.17 606.726 124.048 606.18 123.804C605.641 123.56 605.192 123.188 604.834 122.688C604.482 122.188 604.305 121.557 604.305 120.795V107.773ZM617.967 110.909V112.614H610.911V110.909H617.967ZM613.024 124V109.102C613.024 108.352 613.2 107.727 613.553 107.227C613.905 106.727 614.362 106.352 614.925 106.102C615.487 105.852 616.081 105.727 616.706 105.727C617.2 105.727 617.604 105.767 617.916 105.847C618.229 105.926 618.462 106 618.615 106.068L618.036 107.807C617.933 107.773 617.791 107.73 617.609 107.679C617.433 107.628 617.2 107.602 616.911 107.602C616.246 107.602 615.766 107.77 615.47 108.105C615.18 108.44 615.036 108.932 615.036 109.58V124H613.024ZM625.565 124.273C624.384 124.273 623.347 123.991 622.455 123.429C621.568 122.866 620.875 122.08 620.375 121.068C619.881 120.057 619.634 118.875 619.634 117.523C619.634 116.159 619.881 114.969 620.375 113.952C620.875 112.935 621.568 112.145 622.455 111.582C623.347 111.02 624.384 110.739 625.565 110.739C626.747 110.739 627.781 111.02 628.668 111.582C629.56 112.145 630.253 112.935 630.747 113.952C631.247 114.969 631.497 116.159 631.497 117.523C631.497 118.875 631.247 120.057 630.747 121.068C630.253 122.08 629.56 122.866 628.668 123.429C627.781 123.991 626.747 124.273 625.565 124.273ZM625.565 122.466C626.463 122.466 627.202 122.236 627.781 121.776C628.361 121.315 628.79 120.71 629.068 119.96C629.347 119.21 629.486 118.398 629.486 117.523C629.486 116.648 629.347 115.832 629.068 115.077C628.79 114.321 628.361 113.71 627.781 113.244C627.202 112.778 626.463 112.545 625.565 112.545C624.668 112.545 623.929 112.778 623.349 113.244C622.77 113.71 622.341 114.321 622.062 115.077C621.784 115.832 621.645 116.648 621.645 117.523C621.645 118.398 621.784 119.21 622.062 119.96C622.341 120.71 622.77 121.315 623.349 121.776C623.929 122.236 624.668 122.466 625.565 122.466ZM634.567 124V110.909H636.511V112.886H636.647C636.886 112.239 637.317 111.713 637.942 111.31C638.567 110.906 639.272 110.705 640.056 110.705C640.204 110.705 640.388 110.707 640.61 110.713C640.832 110.719 640.999 110.727 641.113 110.739V112.784C641.045 112.767 640.888 112.741 640.644 112.707C640.406 112.668 640.153 112.648 639.886 112.648C639.249 112.648 638.681 112.781 638.181 113.048C637.687 113.31 637.295 113.673 637.005 114.139C636.721 114.599 636.579 115.125 636.579 115.716V124H634.567ZM643.497 124V110.909H645.44V112.955H645.611C645.884 112.256 646.324 111.713 646.932 111.327C647.54 110.935 648.27 110.739 649.122 110.739C649.986 110.739 650.705 110.935 651.278 111.327C651.858 111.713 652.31 112.256 652.634 112.955H652.77C653.105 112.278 653.608 111.741 654.278 111.344C654.949 110.94 655.753 110.739 656.69 110.739C657.861 110.739 658.818 111.105 659.562 111.838C660.307 112.565 660.679 113.699 660.679 115.239V124H658.668V115.239C658.668 114.273 658.403 113.582 657.875 113.168C657.347 112.753 656.724 112.545 656.009 112.545C655.088 112.545 654.375 112.824 653.869 113.381C653.364 113.932 653.111 114.631 653.111 115.477V124H651.065V115.034C651.065 114.29 650.824 113.69 650.341 113.236C649.858 112.776 649.236 112.545 648.474 112.545C647.952 112.545 647.463 112.685 647.009 112.963C646.56 113.241 646.196 113.628 645.918 114.122C645.645 114.611 645.509 115.176 645.509 115.818V124H643.497ZM665.822 124.136C665.402 124.136 665.041 123.986 664.74 123.685C664.439 123.384 664.288 123.023 664.288 122.602C664.288 122.182 664.439 121.821 664.74 121.52C665.041 121.219 665.402 121.068 665.822 121.068C666.243 121.068 666.604 121.219 666.905 121.52C667.206 121.821 667.357 122.182 667.357 122.602C667.357 122.881 667.286 123.136 667.143 123.369C667.007 123.602 666.822 123.79 666.589 123.932C666.362 124.068 666.107 124.136 665.822 124.136ZM687.534 110.909C687.432 110.045 687.017 109.375 686.29 108.898C685.563 108.42 684.67 108.182 683.614 108.182C682.841 108.182 682.165 108.307 681.585 108.557C681.011 108.807 680.563 109.151 680.239 109.588C679.92 110.026 679.761 110.523 679.761 111.08C679.761 111.545 679.872 111.946 680.094 112.281C680.321 112.611 680.611 112.886 680.963 113.108C681.315 113.324 681.685 113.503 682.071 113.645C682.457 113.781 682.812 113.892 683.136 113.977L684.909 114.455C685.364 114.574 685.869 114.739 686.426 114.949C686.989 115.159 687.526 115.446 688.037 115.81C688.554 116.168 688.98 116.628 689.315 117.19C689.651 117.753 689.818 118.443 689.818 119.261C689.818 120.205 689.571 121.057 689.077 121.818C688.588 122.58 687.872 123.185 686.929 123.634C685.991 124.082 684.852 124.307 683.511 124.307C682.261 124.307 681.179 124.105 680.264 123.702C679.355 123.298 678.639 122.736 678.116 122.014C677.599 121.293 677.307 120.455 677.239 119.5H679.42C679.477 120.159 679.699 120.705 680.085 121.136C680.477 121.562 680.972 121.881 681.568 122.091C682.17 122.295 682.818 122.398 683.511 122.398C684.318 122.398 685.043 122.267 685.685 122.006C686.327 121.739 686.835 121.369 687.21 120.898C687.585 120.42 687.773 119.864 687.773 119.227C687.773 118.648 687.611 118.176 687.287 117.812C686.963 117.449 686.537 117.153 686.009 116.926C685.48 116.699 684.909 116.5 684.295 116.33L682.148 115.716C680.784 115.324 679.705 114.764 678.909 114.037C678.114 113.31 677.716 112.358 677.716 111.182C677.716 110.205 677.98 109.352 678.509 108.625C679.043 107.892 679.759 107.324 680.656 106.92C681.56 106.511 682.568 106.307 683.682 106.307C684.807 106.307 685.807 106.509 686.682 106.912C687.557 107.31 688.25 107.855 688.761 108.548C689.278 109.241 689.551 110.028 689.58 110.909H687.534ZM696.873 124.307C696.043 124.307 695.29 124.151 694.614 123.838C693.938 123.52 693.401 123.062 693.004 122.466C692.606 121.864 692.407 121.136 692.407 120.284C692.407 119.534 692.555 118.926 692.85 118.46C693.146 117.989 693.54 117.619 694.035 117.352C694.529 117.085 695.075 116.886 695.671 116.756C696.273 116.619 696.879 116.511 697.487 116.432C698.282 116.33 698.927 116.253 699.421 116.202C699.921 116.145 700.285 116.051 700.512 115.92C700.745 115.79 700.862 115.562 700.862 115.239V115.17C700.862 114.33 700.631 113.676 700.171 113.21C699.717 112.744 699.026 112.511 698.1 112.511C697.14 112.511 696.387 112.722 695.842 113.142C695.296 113.562 694.913 114.011 694.691 114.489L692.782 113.807C693.123 113.011 693.577 112.392 694.146 111.949C694.719 111.5 695.344 111.187 696.021 111.011C696.702 110.83 697.373 110.739 698.032 110.739C698.452 110.739 698.935 110.79 699.481 110.892C700.032 110.989 700.563 111.19 701.075 111.497C701.592 111.804 702.021 112.267 702.362 112.886C702.702 113.506 702.873 114.335 702.873 115.375V124H700.862V122.227H700.759C700.623 122.511 700.396 122.815 700.077 123.139C699.759 123.463 699.336 123.739 698.808 123.966C698.279 124.193 697.634 124.307 696.873 124.307ZM697.18 122.5C697.975 122.5 698.646 122.344 699.191 122.031C699.742 121.719 700.157 121.315 700.435 120.821C700.719 120.327 700.862 119.807 700.862 119.261V117.42C700.776 117.523 700.589 117.616 700.299 117.702C700.015 117.781 699.685 117.852 699.31 117.915C698.941 117.972 698.58 118.023 698.228 118.068C697.881 118.108 697.6 118.142 697.384 118.17C696.862 118.239 696.373 118.349 695.918 118.503C695.469 118.651 695.106 118.875 694.827 119.176C694.555 119.472 694.418 119.875 694.418 120.386C694.418 121.085 694.677 121.614 695.194 121.972C695.717 122.324 696.379 122.5 697.18 122.5ZM707.371 128.909C707.03 128.909 706.726 128.881 706.459 128.824C706.192 128.773 706.007 128.722 705.905 128.67L706.416 126.898C706.905 127.023 707.337 127.068 707.712 127.034C708.087 127 708.419 126.832 708.709 126.531C709.004 126.236 709.274 125.756 709.518 125.091L709.893 124.068L705.053 110.909H707.234L710.848 121.341H710.984L714.598 110.909H716.78L711.223 125.909C710.973 126.585 710.663 127.145 710.294 127.588C709.925 128.037 709.496 128.369 709.007 128.585C708.524 128.801 707.979 128.909 707.371 128.909ZM39.125 158.182C38.1534 158.182 37.3182 158.057 36.6193 157.807C35.9205 157.562 35.3381 157.239 34.8722 156.835C34.4119 156.438 34.0455 156.011 33.7727 155.557L35.375 154.432C35.5568 154.67 35.7869 154.943 36.0653 155.25C36.3438 155.562 36.7244 155.832 37.2074 156.06C37.696 156.293 38.3352 156.409 39.125 156.409C40.1818 156.409 41.054 156.153 41.7415 155.642C42.429 155.131 42.7727 154.33 42.7727 153.239V150.58H42.6023C42.4545 150.818 42.2443 151.114 41.9716 151.466C41.7045 151.812 41.3182 152.122 40.8125 152.395C40.3125 152.662 39.6364 152.795 38.7841 152.795C37.7273 152.795 36.7784 152.545 35.9375 152.045C35.1023 151.545 34.4403 150.818 33.9517 149.864C33.4688 148.909 33.2273 147.75 33.2273 146.386C33.2273 145.045 33.4631 143.878 33.9347 142.884C34.4063 141.884 35.0625 141.111 35.9034 140.565C36.7443 140.014 37.7159 139.739 38.8182 139.739C39.6705 139.739 40.3466 139.881 40.8466 140.165C41.3523 140.443 41.7386 140.761 42.0057 141.119C42.2784 141.472 42.4886 141.761 42.6364 141.989H42.8409V139.909H44.7841V153.375C44.7841 154.5 44.5284 155.415 44.017 156.119C43.5114 156.83 42.8295 157.349 41.9716 157.679C41.1193 158.014 40.1705 158.182 39.125 158.182ZM39.0568 150.989C39.8636 150.989 40.5455 150.804 41.1023 150.435C41.6591 150.065 42.0824 149.534 42.3722 148.841C42.6619 148.148 42.8068 147.318 42.8068 146.352C42.8068 145.409 42.6648 144.577 42.3807 143.855C42.0966 143.134 41.6761 142.568 41.1193 142.159C40.5625 141.75 39.875 141.545 39.0568 141.545C38.2045 141.545 37.4943 141.761 36.9261 142.193C36.3636 142.625 35.9403 143.205 35.6562 143.932C35.3778 144.659 35.2386 145.466 35.2386 146.352C35.2386 147.261 35.3807 148.065 35.6648 148.764C35.9545 149.457 36.3807 150.003 36.9432 150.401C37.5114 150.793 38.2159 150.989 39.0568 150.989ZM53.7841 153.273C52.6023 153.273 51.5653 152.991 50.6733 152.429C49.7869 151.866 49.0938 151.08 48.5938 150.068C48.0994 149.057 47.8523 147.875 47.8523 146.523C47.8523 145.159 48.0994 143.969 48.5938 142.952C49.0938 141.935 49.7869 141.145 50.6733 140.582C51.5653 140.02 52.6023 139.739 53.7841 139.739C54.9659 139.739 56 140.02 56.8864 140.582C57.7784 141.145 58.4716 141.935 58.9659 142.952C59.4659 143.969 59.7159 145.159 59.7159 146.523C59.7159 147.875 59.4659 149.057 58.9659 150.068C58.4716 151.08 57.7784 151.866 56.8864 152.429C56 152.991 54.9659 153.273 53.7841 153.273ZM53.7841 151.466C54.6818 151.466 55.4205 151.236 56 150.776C56.5795 150.315 57.0085 149.71 57.2869 148.96C57.5653 148.21 57.7045 147.398 57.7045 146.523C57.7045 145.648 57.5653 144.832 57.2869 144.077C57.0085 143.321 56.5795 142.71 56 142.244C55.4205 141.778 54.6818 141.545 53.7841 141.545C52.8864 141.545 52.1477 141.778 51.5682 142.244C50.9886 142.71 50.5597 143.321 50.2812 144.077C50.0028 144.832 49.8636 145.648 49.8636 146.523C49.8636 147.398 50.0028 148.21 50.2812 148.96C50.5597 149.71 50.9886 150.315 51.5682 150.776C52.1477 151.236 52.8864 151.466 53.7841 151.466ZM68.1044 153.273C66.9226 153.273 65.8857 152.991 64.9936 152.429C64.1072 151.866 63.4141 151.08 62.9141 150.068C62.4197 149.057 62.1726 147.875 62.1726 146.523C62.1726 145.159 62.4197 143.969 62.9141 142.952C63.4141 141.935 64.1072 141.145 64.9936 140.582C65.8857 140.02 66.9226 139.739 68.1044 139.739C69.2862 139.739 70.3203 140.02 71.2067 140.582C72.0987 141.145 72.7919 141.935 73.2862 142.952C73.7862 143.969 74.0362 145.159 74.0362 146.523C74.0362 147.875 73.7862 149.057 73.2862 150.068C72.7919 151.08 72.0987 151.866 71.2067 152.429C70.3203 152.991 69.2862 153.273 68.1044 153.273ZM68.1044 151.466C69.0021 151.466 69.7408 151.236 70.3203 150.776C70.8999 150.315 71.3288 149.71 71.6072 148.96C71.8857 148.21 72.0249 147.398 72.0249 146.523C72.0249 145.648 71.8857 144.832 71.6072 144.077C71.3288 143.321 70.8999 142.71 70.3203 142.244C69.7408 141.778 69.0021 141.545 68.1044 141.545C67.2067 141.545 66.468 141.778 65.8885 142.244C65.3089 142.71 64.88 143.321 64.6016 144.077C64.3232 144.832 64.1839 145.648 64.1839 146.523C64.1839 147.398 64.3232 148.21 64.6016 148.96C64.88 149.71 65.3089 150.315 65.8885 150.776C66.468 151.236 67.2067 151.466 68.1044 151.466ZM82.0497 153.273C80.9588 153.273 79.9957 152.997 79.1605 152.446C78.3253 151.889 77.6719 151.105 77.2003 150.094C76.7287 149.077 76.4929 147.875 76.4929 146.489C76.4929 145.114 76.7287 143.92 77.2003 142.909C77.6719 141.898 78.3281 141.116 79.169 140.565C80.0099 140.014 80.9815 139.739 82.0838 139.739C82.9361 139.739 83.6094 139.881 84.1037 140.165C84.6037 140.443 84.9844 140.761 85.2457 141.119C85.5128 141.472 85.7202 141.761 85.8679 141.989H86.0384V135.545H88.0497V153H86.1065V150.989H85.8679C85.7202 151.227 85.5099 151.528 85.2372 151.892C84.9645 152.25 84.5753 152.571 84.0696 152.855C83.5639 153.134 82.8906 153.273 82.0497 153.273ZM82.3224 151.466C83.1293 151.466 83.8111 151.256 84.3679 150.835C84.9247 150.409 85.348 149.821 85.6378 149.071C85.9276 148.315 86.0724 147.443 86.0724 146.455C86.0724 145.477 85.9304 144.622 85.6463 143.889C85.3622 143.151 84.9418 142.577 84.3849 142.168C83.8281 141.753 83.1406 141.545 82.3224 141.545C81.4702 141.545 80.7599 141.764 80.1918 142.202C79.6293 142.634 79.206 143.222 78.9219 143.966C78.6435 144.705 78.5043 145.534 78.5043 146.455C78.5043 147.386 78.6463 148.233 78.9304 148.994C79.2202 149.75 79.6463 150.352 80.2088 150.801C80.777 151.244 81.4815 151.466 82.3224 151.466ZM92.2855 153V135.545H94.2969V141.989H94.4673C94.6151 141.761 94.8196 141.472 95.081 141.119C95.348 140.761 95.7287 140.443 96.223 140.165C96.723 139.881 97.3991 139.739 98.2514 139.739C99.3537 139.739 100.325 140.014 101.166 140.565C102.007 141.116 102.663 141.898 103.135 142.909C103.607 143.92 103.842 145.114 103.842 146.489C103.842 147.875 103.607 149.077 103.135 150.094C102.663 151.105 102.01 151.889 101.175 152.446C100.339 152.997 99.3764 153.273 98.2855 153.273C97.4446 153.273 96.7713 153.134 96.2656 152.855C95.7599 152.571 95.3707 152.25 95.098 151.892C94.8253 151.528 94.6151 151.227 94.4673 150.989H94.2287V153H92.2855ZM94.2628 146.455C94.2628 147.443 94.4077 148.315 94.6974 149.071C94.9872 149.821 95.4105 150.409 95.9673 150.835C96.5241 151.256 97.206 151.466 98.0128 151.466C98.8537 151.466 99.5554 151.244 100.118 150.801C100.686 150.352 101.112 149.75 101.396 148.994C101.686 148.233 101.831 147.386 101.831 146.455C101.831 145.534 101.689 144.705 101.405 143.966C101.126 143.222 100.703 142.634 100.135 142.202C99.5724 141.764 98.8651 141.545 98.0128 141.545C97.1946 141.545 96.5071 141.753 95.9503 142.168C95.3935 142.577 94.973 143.151 94.6889 143.889C94.4048 144.622 94.2628 145.477 94.2628 146.455ZM107.746 157.909C107.405 157.909 107.101 157.881 106.834 157.824C106.567 157.773 106.382 157.722 106.28 157.67L106.791 155.898C107.28 156.023 107.712 156.068 108.087 156.034C108.462 156 108.794 155.832 109.084 155.531C109.379 155.236 109.649 154.756 109.893 154.091L110.268 153.068L105.428 139.909H107.609L111.223 150.341H111.359L114.973 139.909H117.155L111.598 154.909C111.348 155.585 111.038 156.145 110.669 156.588C110.3 157.037 109.871 157.369 109.382 157.585C108.899 157.801 108.354 157.909 107.746 157.909ZM124.83 153.273C123.568 153.273 122.48 152.994 121.565 152.438C120.656 151.875 119.955 151.091 119.46 150.085C118.972 149.074 118.727 147.898 118.727 146.557C118.727 145.216 118.972 144.034 119.46 143.011C119.955 141.983 120.642 141.182 121.523 140.608C122.409 140.028 123.443 139.739 124.625 139.739C125.307 139.739 125.98 139.852 126.645 140.08C127.31 140.307 127.915 140.676 128.46 141.188C129.006 141.693 129.44 142.364 129.764 143.199C130.088 144.034 130.25 145.062 130.25 146.284V147.136H120.159V145.398H128.205C128.205 144.659 128.057 144 127.761 143.42C127.472 142.841 127.057 142.384 126.517 142.048C125.983 141.713 125.352 141.545 124.625 141.545C123.824 141.545 123.131 141.744 122.545 142.142C121.966 142.534 121.52 143.045 121.207 143.676C120.895 144.307 120.739 144.983 120.739 145.705V146.864C120.739 147.852 120.909 148.69 121.25 149.378C121.597 150.06 122.077 150.58 122.69 150.938C123.304 151.29 124.017 151.466 124.83 151.466C125.358 151.466 125.835 151.392 126.261 151.244C126.693 151.091 127.065 150.864 127.378 150.562C127.69 150.256 127.932 149.875 128.102 149.42L130.045 149.966C129.841 150.625 129.497 151.205 129.014 151.705C128.531 152.199 127.935 152.585 127.224 152.864C126.514 153.136 125.716 153.273 124.83 153.273ZM145.753 139.909V141.614H138.969V139.909H145.753ZM140.946 136.773H142.957V149.25C142.957 149.818 143.04 150.244 143.205 150.528C143.375 150.807 143.591 150.994 143.852 151.091C144.119 151.182 144.401 151.227 144.696 151.227C144.918 151.227 145.099 151.216 145.241 151.193C145.384 151.165 145.497 151.142 145.582 151.125L145.991 152.932C145.855 152.983 145.665 153.034 145.42 153.085C145.176 153.142 144.866 153.17 144.491 153.17C143.923 153.17 143.366 153.048 142.821 152.804C142.281 152.56 141.832 152.188 141.474 151.688C141.122 151.188 140.946 150.557 140.946 149.795V136.773ZM153.956 153.273C152.774 153.273 151.737 152.991 150.845 152.429C149.959 151.866 149.266 151.08 148.766 150.068C148.271 149.057 148.024 147.875 148.024 146.523C148.024 145.159 148.271 143.969 148.766 142.952C149.266 141.935 149.959 141.145 150.845 140.582C151.737 140.02 152.774 139.739 153.956 139.739C155.138 139.739 156.172 140.02 157.058 140.582C157.95 141.145 158.643 141.935 159.138 142.952C159.638 143.969 159.888 145.159 159.888 146.523C159.888 147.875 159.638 149.057 159.138 150.068C158.643 151.08 157.95 151.866 157.058 152.429C156.172 152.991 155.138 153.273 153.956 153.273ZM153.956 151.466C154.854 151.466 155.592 151.236 156.172 150.776C156.751 150.315 157.18 149.71 157.459 148.96C157.737 148.21 157.876 147.398 157.876 146.523C157.876 145.648 157.737 144.832 157.459 144.077C157.18 143.321 156.751 142.71 156.172 142.244C155.592 141.778 154.854 141.545 153.956 141.545C153.058 141.545 152.32 141.778 151.74 142.244C151.161 142.71 150.732 143.321 150.453 144.077C150.175 144.832 150.036 145.648 150.036 146.523C150.036 147.398 150.175 148.21 150.453 148.96C150.732 149.71 151.161 150.315 151.74 150.776C152.32 151.236 153.058 151.466 153.956 151.466ZM169.708 157.909V139.909H171.651V141.989H171.89C172.038 141.761 172.242 141.472 172.504 141.119C172.771 140.761 173.151 140.443 173.646 140.165C174.146 139.881 174.822 139.739 175.674 139.739C176.776 139.739 177.748 140.014 178.589 140.565C179.43 141.116 180.086 141.898 180.558 142.909C181.029 143.92 181.265 145.114 181.265 146.489C181.265 147.875 181.029 149.077 180.558 150.094C180.086 151.105 179.433 151.889 178.597 152.446C177.762 152.997 176.799 153.273 175.708 153.273C174.867 153.273 174.194 153.134 173.688 152.855C173.183 152.571 172.793 152.25 172.521 151.892C172.248 151.528 172.038 151.227 171.89 150.989H171.719V157.909H169.708ZM171.685 146.455C171.685 147.443 171.83 148.315 172.12 149.071C172.41 149.821 172.833 150.409 173.39 150.835C173.947 151.256 174.629 151.466 175.435 151.466C176.276 151.466 176.978 151.244 177.54 150.801C178.109 150.352 178.535 149.75 178.819 148.994C179.109 148.233 179.254 147.386 179.254 146.455C179.254 145.534 179.112 144.705 178.827 143.966C178.549 143.222 178.126 142.634 177.558 142.202C176.995 141.764 176.288 141.545 175.435 141.545C174.617 141.545 173.93 141.753 173.373 142.168C172.816 142.577 172.396 143.151 172.112 143.889C171.827 144.622 171.685 145.477 171.685 146.455ZM188.185 153.307C187.356 153.307 186.603 153.151 185.927 152.838C185.251 152.52 184.714 152.062 184.316 151.466C183.918 150.864 183.719 150.136 183.719 149.284C183.719 148.534 183.867 147.926 184.163 147.46C184.458 146.989 184.853 146.619 185.347 146.352C185.842 146.085 186.387 145.886 186.984 145.756C187.586 145.619 188.191 145.511 188.799 145.432C189.594 145.33 190.239 145.253 190.734 145.202C191.234 145.145 191.597 145.051 191.825 144.92C192.058 144.79 192.174 144.562 192.174 144.239V144.17C192.174 143.33 191.944 142.676 191.484 142.21C191.029 141.744 190.339 141.511 189.413 141.511C188.452 141.511 187.7 141.722 187.154 142.142C186.609 142.562 186.225 143.011 186.004 143.489L184.094 142.807C184.435 142.011 184.89 141.392 185.458 140.949C186.032 140.5 186.657 140.187 187.333 140.011C188.015 139.83 188.685 139.739 189.344 139.739C189.765 139.739 190.248 139.79 190.793 139.892C191.344 139.989 191.876 140.19 192.387 140.497C192.904 140.804 193.333 141.267 193.674 141.886C194.015 142.506 194.185 143.335 194.185 144.375V153H192.174V151.227H192.072C191.935 151.511 191.708 151.815 191.39 152.139C191.072 152.463 190.648 152.739 190.12 152.966C189.592 153.193 188.947 153.307 188.185 153.307ZM188.492 151.5C189.288 151.5 189.958 151.344 190.504 151.031C191.055 150.719 191.469 150.315 191.748 149.821C192.032 149.327 192.174 148.807 192.174 148.261V146.42C192.089 146.523 191.901 146.616 191.612 146.702C191.327 146.781 190.998 146.852 190.623 146.915C190.254 146.972 189.893 147.023 189.54 147.068C189.194 147.108 188.913 147.142 188.697 147.17C188.174 147.239 187.685 147.349 187.231 147.503C186.782 147.651 186.418 147.875 186.14 148.176C185.867 148.472 185.731 148.875 185.731 149.386C185.731 150.085 185.989 150.614 186.506 150.972C187.029 151.324 187.691 151.5 188.492 151.5ZM198.683 157.909C198.342 157.909 198.038 157.881 197.771 157.824C197.504 157.773 197.32 157.722 197.217 157.67L197.729 155.898C198.217 156.023 198.649 156.068 199.024 156.034C199.399 156 199.732 155.832 200.021 155.531C200.317 155.236 200.587 154.756 200.831 154.091L201.206 153.068L196.365 139.909H198.547L202.161 150.341H202.297L205.911 139.909H208.092L202.536 154.909C202.286 155.585 201.976 156.145 201.607 156.588C201.237 157.037 200.808 157.369 200.32 157.585C199.837 157.801 199.291 157.909 198.683 157.909ZM210.747 153V139.909H212.69V141.955H212.861C213.134 141.256 213.574 140.713 214.182 140.327C214.79 139.935 215.52 139.739 216.372 139.739C217.236 139.739 217.955 139.935 218.528 140.327C219.108 140.713 219.56 141.256 219.884 141.955H220.02C220.355 141.278 220.858 140.741 221.528 140.344C222.199 139.94 223.003 139.739 223.94 139.739C225.111 139.739 226.068 140.105 226.812 140.838C227.557 141.565 227.929 142.699 227.929 144.239V153H225.918V144.239C225.918 143.273 225.653 142.582 225.125 142.168C224.597 141.753 223.974 141.545 223.259 141.545C222.338 141.545 221.625 141.824 221.119 142.381C220.614 142.932 220.361 143.631 220.361 144.477V153H218.315V144.034C218.315 143.29 218.074 142.69 217.591 142.236C217.108 141.776 216.486 141.545 215.724 141.545C215.202 141.545 214.713 141.685 214.259 141.963C213.81 142.241 213.446 142.628 213.168 143.122C212.895 143.611 212.759 144.176 212.759 144.818V153H210.747ZM237.095 153.273C235.834 153.273 234.746 152.994 233.831 152.438C232.922 151.875 232.22 151.091 231.726 150.085C231.237 149.074 230.993 147.898 230.993 146.557C230.993 145.216 231.237 144.034 231.726 143.011C232.22 141.983 232.908 141.182 233.788 140.608C234.675 140.028 235.709 139.739 236.891 139.739C237.572 139.739 238.246 139.852 238.911 140.08C239.575 140.307 240.18 140.676 240.726 141.188C241.271 141.693 241.706 142.364 242.03 143.199C242.354 144.034 242.516 145.062 242.516 146.284V147.136H232.425V145.398H240.47C240.47 144.659 240.322 144 240.027 143.42C239.737 142.841 239.322 142.384 238.783 142.048C238.249 141.713 237.618 141.545 236.891 141.545C236.089 141.545 235.396 141.744 234.811 142.142C234.232 142.534 233.786 143.045 233.473 143.676C233.161 144.307 233.004 144.983 233.004 145.705V146.864C233.004 147.852 233.175 148.69 233.516 149.378C233.862 150.06 234.342 150.58 234.956 150.938C235.57 151.29 236.283 151.466 237.095 151.466C237.624 151.466 238.101 151.392 238.527 151.244C238.959 151.091 239.331 150.864 239.643 150.562C239.956 150.256 240.197 149.875 240.368 149.42L242.311 149.966C242.107 150.625 241.763 151.205 241.28 151.705C240.797 152.199 240.2 152.585 239.49 152.864C238.78 153.136 237.982 153.273 237.095 153.273ZM247.587 145.125V153H245.575V139.909H247.518V141.955H247.689C247.996 141.29 248.462 140.756 249.087 140.352C249.712 139.943 250.518 139.739 251.507 139.739C252.393 139.739 253.169 139.92 253.834 140.284C254.499 140.642 255.016 141.188 255.385 141.92C255.754 142.648 255.939 143.568 255.939 144.682V153H253.928V144.818C253.928 143.79 253.661 142.989 253.126 142.415C252.592 141.835 251.859 141.545 250.928 141.545C250.286 141.545 249.712 141.685 249.206 141.963C248.706 142.241 248.311 142.648 248.021 143.182C247.732 143.716 247.587 144.364 247.587 145.125ZM265.308 139.909V141.614H258.523V139.909H265.308ZM260.501 136.773H262.512V149.25C262.512 149.818 262.594 150.244 262.759 150.528C262.93 150.807 263.146 150.994 263.407 151.091C263.674 151.182 263.955 151.227 264.251 151.227C264.472 151.227 264.654 151.216 264.796 151.193C264.938 151.165 265.052 151.142 265.137 151.125L265.546 152.932C265.41 152.983 265.219 153.034 264.975 153.085C264.731 153.142 264.421 153.17 264.046 153.17C263.478 153.17 262.921 153.048 262.376 152.804C261.836 152.56 261.387 152.188 261.029 151.688C260.677 151.188 260.501 150.557 260.501 149.795V136.773ZM277.094 145.125V153H275.083V135.545H277.094V141.955H277.265C277.572 141.278 278.032 140.741 278.646 140.344C279.265 139.94 280.089 139.739 281.117 139.739C282.009 139.739 282.79 139.918 283.461 140.276C284.131 140.628 284.651 141.17 285.021 141.903C285.396 142.631 285.583 143.557 285.583 144.682V153H283.572V144.818C283.572 143.778 283.302 142.974 282.762 142.406C282.228 141.832 281.487 141.545 280.538 141.545C279.879 141.545 279.288 141.685 278.765 141.963C278.248 142.241 277.839 142.648 277.538 143.182C277.242 143.716 277.094 144.364 277.094 145.125ZM293.115 153.307C292.286 153.307 291.533 153.151 290.857 152.838C290.18 152.52 289.643 152.062 289.246 151.466C288.848 150.864 288.649 150.136 288.649 149.284C288.649 148.534 288.797 147.926 289.092 147.46C289.388 146.989 289.783 146.619 290.277 146.352C290.771 146.085 291.317 145.886 291.913 145.756C292.516 145.619 293.121 145.511 293.729 145.432C294.524 145.33 295.169 145.253 295.663 145.202C296.163 145.145 296.527 145.051 296.754 144.92C296.987 144.79 297.104 144.562 297.104 144.239V144.17C297.104 143.33 296.874 142.676 296.413 142.21C295.959 141.744 295.268 141.511 294.342 141.511C293.382 141.511 292.629 141.722 292.084 142.142C291.538 142.562 291.155 143.011 290.933 143.489L289.024 142.807C289.365 142.011 289.82 141.392 290.388 140.949C290.962 140.5 291.587 140.187 292.263 140.011C292.945 139.83 293.615 139.739 294.274 139.739C294.695 139.739 295.178 139.79 295.723 139.892C296.274 139.989 296.805 140.19 297.317 140.497C297.834 140.804 298.263 141.267 298.604 141.886C298.945 142.506 299.115 143.335 299.115 144.375V153H297.104V151.227H297.001C296.865 151.511 296.638 151.815 296.32 152.139C296.001 152.463 295.578 152.739 295.05 152.966C294.521 153.193 293.876 153.307 293.115 153.307ZM293.422 151.5C294.217 151.5 294.888 151.344 295.433 151.031C295.984 150.719 296.399 150.315 296.678 149.821C296.962 149.327 297.104 148.807 297.104 148.261V146.42C297.018 146.523 296.831 146.616 296.541 146.702C296.257 146.781 295.928 146.852 295.553 146.915C295.183 146.972 294.822 147.023 294.47 147.068C294.124 147.108 293.842 147.142 293.626 147.17C293.104 147.239 292.615 147.349 292.161 147.503C291.712 147.651 291.348 147.875 291.07 148.176C290.797 148.472 290.661 148.875 290.661 149.386C290.661 150.085 290.919 150.614 291.436 150.972C291.959 151.324 292.621 151.5 293.422 151.5ZM312.059 142.841L310.252 143.352C310.138 143.051 309.971 142.759 309.749 142.474C309.533 142.185 309.238 141.946 308.863 141.759C308.488 141.571 308.008 141.477 307.423 141.477C306.621 141.477 305.954 141.662 305.42 142.031C304.891 142.395 304.627 142.858 304.627 143.42C304.627 143.92 304.809 144.315 305.173 144.605C305.536 144.895 306.104 145.136 306.877 145.33L308.82 145.807C309.991 146.091 310.863 146.526 311.437 147.111C312.011 147.69 312.298 148.437 312.298 149.352C312.298 150.102 312.082 150.773 311.65 151.364C311.224 151.955 310.627 152.42 309.86 152.761C309.093 153.102 308.201 153.273 307.184 153.273C305.849 153.273 304.744 152.983 303.869 152.403C302.994 151.824 302.44 150.977 302.207 149.864L304.116 149.386C304.298 150.091 304.641 150.619 305.147 150.972C305.658 151.324 306.326 151.5 307.15 151.5C308.087 151.5 308.832 151.301 309.383 150.903C309.94 150.5 310.218 150.017 310.218 149.455C310.218 149 310.059 148.619 309.741 148.312C309.423 148 308.934 147.767 308.275 147.614L306.093 147.102C304.894 146.818 304.013 146.378 303.451 145.781C302.894 145.179 302.616 144.426 302.616 143.523C302.616 142.784 302.823 142.131 303.238 141.562C303.658 140.994 304.229 140.548 304.951 140.224C305.678 139.901 306.502 139.739 307.423 139.739C308.718 139.739 309.735 140.023 310.474 140.591C311.218 141.159 311.746 141.909 312.059 142.841ZM324.598 142.841L322.791 143.352C322.678 143.051 322.51 142.759 322.288 142.474C322.072 142.185 321.777 141.946 321.402 141.759C321.027 141.571 320.547 141.477 319.962 141.477C319.161 141.477 318.493 141.662 317.959 142.031C317.43 142.395 317.166 142.858 317.166 143.42C317.166 143.92 317.348 144.315 317.712 144.605C318.075 144.895 318.643 145.136 319.416 145.33L321.359 145.807C322.53 146.091 323.402 146.526 323.976 147.111C324.55 147.69 324.837 148.437 324.837 149.352C324.837 150.102 324.621 150.773 324.189 151.364C323.763 151.955 323.166 152.42 322.399 152.761C321.632 153.102 320.74 153.273 319.723 153.273C318.388 153.273 317.283 152.983 316.408 152.403C315.533 151.824 314.979 150.977 314.746 149.864L316.655 149.386C316.837 150.091 317.18 150.619 317.686 150.972C318.197 151.324 318.865 151.5 319.689 151.5C320.626 151.5 321.371 151.301 321.922 150.903C322.479 150.5 322.757 150.017 322.757 149.455C322.757 149 322.598 148.619 322.28 148.312C321.962 148 321.473 147.767 320.814 147.614L318.632 147.102C317.433 146.818 316.553 146.378 315.99 145.781C315.433 145.179 315.155 144.426 315.155 143.523C315.155 142.784 315.362 142.131 315.777 141.562C316.197 140.994 316.768 140.548 317.49 140.224C318.217 139.901 319.041 139.739 319.962 139.739C321.257 139.739 322.274 140.023 323.013 140.591C323.757 141.159 324.286 141.909 324.598 142.841ZM329.876 135.545V153H327.864V135.545H329.876ZM339.048 153.273C337.787 153.273 336.699 152.994 335.784 152.438C334.875 151.875 334.173 151.091 333.679 150.085C333.19 149.074 332.946 147.898 332.946 146.557C332.946 145.216 333.19 144.034 333.679 143.011C334.173 141.983 334.861 141.182 335.741 140.608C336.628 140.028 337.662 139.739 338.844 139.739C339.526 139.739 340.199 139.852 340.864 140.08C341.528 140.307 342.134 140.676 342.679 141.188C343.224 141.693 343.659 142.364 343.983 143.199C344.307 144.034 344.469 145.062 344.469 146.284V147.136H334.378V145.398H342.423C342.423 144.659 342.276 144 341.98 143.42C341.69 142.841 341.276 142.384 340.736 142.048C340.202 141.713 339.571 141.545 338.844 141.545C338.043 141.545 337.349 141.744 336.764 142.142C336.185 142.534 335.739 143.045 335.426 143.676C335.114 144.307 334.957 144.983 334.957 145.705V146.864C334.957 147.852 335.128 148.69 335.469 149.378C335.815 150.06 336.295 150.58 336.909 150.938C337.523 151.29 338.236 151.466 339.048 151.466C339.577 151.466 340.054 151.392 340.48 151.244C340.912 151.091 341.284 150.864 341.597 150.562C341.909 150.256 342.151 149.875 342.321 149.42L344.264 149.966C344.06 150.625 343.716 151.205 343.233 151.705C342.75 152.199 342.153 152.585 341.443 152.864C340.733 153.136 339.935 153.273 339.048 153.273ZM356.801 142.841L354.994 143.352C354.881 143.051 354.713 142.759 354.491 142.474C354.276 142.185 353.98 141.946 353.605 141.759C353.23 141.571 352.75 141.477 352.165 141.477C351.364 141.477 350.696 141.662 350.162 142.031C349.634 142.395 349.369 142.858 349.369 143.42C349.369 143.92 349.551 144.315 349.915 144.605C350.278 144.895 350.847 145.136 351.619 145.33L353.562 145.807C354.733 146.091 355.605 146.526 356.179 147.111C356.753 147.69 357.04 148.437 357.04 149.352C357.04 150.102 356.824 150.773 356.392 151.364C355.966 151.955 355.369 152.42 354.602 152.761C353.835 153.102 352.943 153.273 351.926 153.273C350.591 153.273 349.486 152.983 348.611 152.403C347.736 151.824 347.182 150.977 346.949 149.864L348.858 149.386C349.04 150.091 349.384 150.619 349.889 150.972C350.401 151.324 351.068 151.5 351.892 151.5C352.83 151.5 353.574 151.301 354.125 150.903C354.682 150.5 354.96 150.017 354.96 149.455C354.96 149 354.801 148.619 354.483 148.312C354.165 148 353.676 147.767 353.017 147.614L350.835 147.102C349.636 146.818 348.756 146.378 348.193 145.781C347.636 145.179 347.358 144.426 347.358 143.523C347.358 142.784 347.565 142.131 347.98 141.562C348.401 140.994 348.972 140.548 349.693 140.224C350.42 139.901 351.244 139.739 352.165 139.739C353.46 139.739 354.477 140.023 355.216 140.591C355.96 141.159 356.489 141.909 356.801 142.841ZM361.533 153.136C361.113 153.136 360.752 152.986 360.451 152.685C360.15 152.384 359.999 152.023 359.999 151.602C359.999 151.182 360.15 150.821 360.451 150.52C360.752 150.219 361.113 150.068 361.533 150.068C361.954 150.068 362.315 150.219 362.616 150.52C362.917 150.821 363.067 151.182 363.067 151.602C363.067 151.881 362.996 152.136 362.854 152.369C362.718 152.602 362.533 152.79 362.3 152.932C362.073 153.068 361.817 153.136 361.533 153.136Z" fill="white"/>
<rect x="32" y="215" width="88" height="40" rx="20" fill="white"/>
<path d="M66.9173 232.154C66.8583 231.631 66.6151 231.226 66.1877 230.938C65.7603 230.647 65.2223 230.502 64.5738 230.502C64.1095 230.502 63.7079 230.575 63.3689 230.723C63.0299 230.866 62.7665 231.065 62.5786 231.32C62.3943 231.57 62.3022 231.856 62.3022 232.176C62.3022 232.445 62.3648 232.677 62.4901 232.873C62.6191 233.068 62.7867 233.232 62.9931 233.365C63.2031 233.494 63.4279 233.602 63.6674 233.691C63.9069 233.775 64.1372 233.845 64.3583 233.901L65.4637 234.188C65.8248 234.277 66.1951 234.396 66.5746 234.547C66.9541 234.698 67.306 234.897 67.6303 235.144C67.9545 235.391 68.2161 235.697 68.4151 236.062C68.6177 236.427 68.7191 236.863 68.7191 237.372C68.7191 238.013 68.5533 238.582 68.2216 239.08C67.8937 239.577 67.4165 239.969 66.7901 240.257C66.1674 240.544 65.4139 240.688 64.5296 240.688C63.6821 240.688 62.9489 240.553 62.3298 240.284C61.7108 240.015 61.2263 239.634 60.8762 239.14C60.5262 238.643 60.3327 238.053 60.2959 237.372H62.0093C62.0424 237.781 62.1751 238.122 62.4072 238.394C62.643 238.663 62.9433 238.864 63.3081 238.997C63.6766 239.126 64.0801 239.19 64.5185 239.19C65.0012 239.19 65.4305 239.115 65.8063 238.963C66.1859 238.809 66.4843 238.595 66.7017 238.322C66.9191 238.046 67.0278 237.724 67.0278 237.355C67.0278 237.02 66.932 236.745 66.7404 236.532C66.5525 236.318 66.2964 236.141 65.9721 236.001C65.6516 235.861 65.2886 235.738 64.8833 235.631L63.5458 235.266C62.6394 235.019 61.9208 234.656 61.3902 234.177C60.8633 233.698 60.5999 233.064 60.5999 232.276C60.5999 231.624 60.7767 231.054 61.1305 230.568C61.4842 230.082 61.9632 229.704 62.5675 229.435C63.1718 229.162 63.8535 229.026 64.6125 229.026C65.3789 229.026 66.0551 229.16 66.6409 229.429C67.2305 229.698 67.6947 230.069 68.0337 230.54C68.3727 231.008 68.5496 231.546 68.5643 232.154H66.9173ZM72.1472 237.62L72.1362 235.603H72.4236L75.8061 232.01H77.7848L73.9269 236.1H73.6671L72.1472 237.62ZM70.6273 240.5V229.181H72.2799V240.5H70.6273ZM75.9885 240.5L72.9486 236.465L74.0872 235.31L78.0169 240.5H75.9885ZM79.2909 240.5V232.01H80.9435V240.5H79.2909ZM80.1255 230.701C79.8381 230.701 79.5912 230.605 79.3849 230.413C79.1822 230.218 79.0809 229.986 79.0809 229.717C79.0809 229.444 79.1822 229.212 79.3849 229.02C79.5912 228.825 79.8381 228.727 80.1255 228.727C80.4129 228.727 80.6579 228.825 80.8606 229.02C81.0669 229.212 81.1701 229.444 81.1701 229.717C81.1701 229.986 81.0669 230.218 80.8606 230.413C80.6579 230.605 80.4129 230.701 80.1255 230.701ZM83.1667 243.684V232.01H84.7806V233.387H84.9188C85.0146 233.21 85.1528 233.005 85.3333 232.773C85.5139 232.541 85.7644 232.338 86.085 232.165C86.4056 231.988 86.8293 231.9 87.3562 231.9C88.0416 231.9 88.6532 232.073 89.1912 232.419C89.7291 232.766 90.151 233.265 90.4569 233.917C90.7664 234.57 90.9211 235.354 90.9211 236.272C90.9211 237.189 90.7682 237.976 90.4624 238.632C90.1566 239.284 89.7365 239.787 89.2022 240.141C88.668 240.491 88.0581 240.666 87.3728 240.666C86.8569 240.666 86.435 240.579 86.1071 240.406C85.7828 240.233 85.5286 240.03 85.3444 239.798C85.1601 239.566 85.0183 239.36 84.9188 239.179H84.8193V243.684H83.1667ZM84.7861 236.255C84.7861 236.852 84.8727 237.375 85.0459 237.825C85.2191 238.274 85.4696 238.626 85.7976 238.881C86.1255 239.131 86.5272 239.256 87.0025 239.256C87.4962 239.256 87.9089 239.126 88.2405 238.864C88.5722 238.599 88.8227 238.239 88.9922 237.786C89.1654 237.333 89.252 236.823 89.252 236.255C89.252 235.695 89.1672 235.192 88.9977 234.746C88.8319 234.301 88.5814 233.949 88.2461 233.691C87.9144 233.433 87.4999 233.304 87.0025 233.304C86.5235 233.304 86.1182 233.427 85.7865 233.674C85.4586 233.921 85.2099 234.266 85.0404 234.708C84.8709 235.15 84.7861 235.666 84.7861 236.255Z" fill="#2058BB"/>
<circle cx="662" cy="235" r="32" fill="white"/>
<path d="M677.237 236.237C677.921 235.554 677.921 234.446 677.237 233.763L666.101 222.626C665.417 221.942 664.309 221.942 663.626 222.626C662.942 223.309 662.942 224.417 663.626 225.101L673.525 235L663.626 244.899C662.942 245.583 662.942 246.691 663.626 247.374C664.309 248.058 665.417 248.058 666.101 247.374L677.237 236.237ZM648 236.75L676 236.75L676 233.25L648 233.25L648 236.75Z" fill="#2058BB"/>
</svg>
