<?xml version="1.0" encoding="utf-8"?>
<!-- Generator: Adobe Illustrator 25.4.1, SVG Export Plug-In . SVG Version: 6.00 Build 0)  -->
<svg version="1.0" id="svg" xmlns="http://www.w3.org/2000/svg" xmlns:xlink="http://www.w3.org/1999/xlink" x="0px" y="0px"
	 viewBox="0 0 512 365.2" style="enable-background:new 0 0 512 365.2;" xml:space="preserve">
<style type="text/css">
	.st0{fill-rule:evenodd;clip-rule:evenodd;fill:#EC1C24;}
	.st1{fill-rule:evenodd;clip-rule:evenodd;fill:#F01C24;}
</style>
<g id="svgg">
	<path id="path0" class="st0" d="M109.1,128.1c-1.4,0-3.9,0.2-7.2,0.5c-0.7,0.1-1.7,0.2-2.3,0.2c-0.6,0.1-1.2,0.1-1.3,0.1
		c-0.1,0-1.4,0.1-2.9,0.3c-1.5,0.2-3,0.5-3.5,0.5c-0.5,0.1-1.2,0.2-1.8,0.3c-0.5,0.1-1.3,0.3-1.7,0.3c-1.1,0.1-3.2,0.7-3.2,0.8
		c0,0.1-0.2,0.1-0.3,0c-0.2,0-0.5,0-0.6,0c-0.2,0.1-0.4,0.1-0.5,0.2c-0.4,0.1-2.2,0.6-3.6,1c-0.7,0.2-1.4,0.4-1.5,0.4
		c-0.2,0-0.4,0.1-1.2,0.4c-0.7,0.3-1,0.4-1.1,0.4c-0.1,0-0.4,0.1-0.8,0.3c-0.4,0.2-0.8,0.3-0.9,0.3c-0.1,0-0.3,0.1-0.3,0.2
		s-0.1,0.2-0.3,0.2c-0.1,0-0.5,0.1-0.7,0.3c-0.3,0.2-0.5,0.3-0.6,0.2c-0.3-0.3,0,35.3,0.3,37.1c0.2,1,0.3,2,0.3,2.4
		c0.1,0.8,0.7,3.4,1.1,4.7c0.2,0.6,0.4,1.1,0.4,1.1c0,0.1,0,0.1,0.1,0.2c0,0,0.1,0.2,0.1,0.3c0,0.1,0.2,0.5,0.3,0.9
		c0.1,0.3,0.3,0.7,0.3,0.8c0,0.1,0.1,0.2,0.2,0.3c0.1,0.1,0.1,0.2,0.1,0.2c-0.1,0,0,0.3,0.2,0.6c0.2,0.3,0.3,0.7,0.3,0.8
		c0,0.1,0.1,0.3,0.1,0.3c0.1,0,0.5,0.7,0.9,1.5c0.4,0.8,0.8,1.5,1,1.6c0.1,0.1,0.2,0.2,0.1,0.3c-0.1,0.1,0,0.2,0.1,0.2
		c0.1,0,0.2,0.1,0.2,0.3c0,0.2,0.2,0.5,0.4,0.8c0.2,0.3,0.4,0.6,0.4,0.7c0,0.1,0.5,0.8,1.2,1.6c0.1,0.2,0.3,0.4,0.4,0.6
		c0.1,0.2,0.3,0.5,0.5,0.7c0.2,0.2,0.3,0.4,0.3,0.5s0.1,0.2,0.2,0.2c0.1,0,0.2,0.1,0.2,0.1c0,0.2,1,1.4,2.1,2.6
		c0.4,0.4,0.9,1,1.2,1.3c0.3,0.3,0.5,0.6,0.5,0.5c0-0.1,0.5,0.4,1.1,1c1.4,1.4,3.6,3.4,4.1,3.7c0.2,0.1,0.5,0.4,0.6,0.6
		c0.1,0.2,0.3,0.4,0.4,0.4c0.2,0,0.5,0.2,1.8,1.5c0.3,0.3,0.6,0.5,0.7,0.5c0.1,0,0.3,0.2,0.5,0.5s0.4,0.5,0.5,0.5
		c0.1,0,1,0.7,2.7,2.3c0.4,0.4,0.8,0.7,0.9,0.7c0,0,0.3,0.2,0.5,0.4c0.2,0.3,0.5,0.5,0.5,0.5c0.1,0,0.3,0.2,0.6,0.5
		c0.9,0.9,1.6,1.5,1.7,1.5c0.1,0,0.3,0.2,0.6,0.5c0.3,0.3,0.6,0.5,0.7,0.4c0.1-0.1,0.1-0.1,0.1,0c-0.1,0.1,0.5,0.9,0.7,0.9
		c0.2,0,1,0.9,1,1c0,0.3-0.4,0.1-0.9-0.4c-0.3-0.3-0.6-0.5-0.7-0.5c-0.1,0-0.3-0.1-0.3-0.3c-0.1-0.1-0.2-0.2-0.3-0.2
		s-0.4-0.1-0.5-0.3s-0.6-0.5-0.9-0.7c-0.3-0.2-0.7-0.5-0.8-0.7c-0.2-0.2-0.2-0.2-0.1,0c0.1,0.1-0.1,0-0.5-0.2
		c-1.3-1.1-1.9-1.5-2.2-1.7c-0.2-0.1-0.4-0.3-0.4-0.4s-0.1-0.1-0.1-0.1c-0.1,0.1-0.3-0.1-0.5-0.3c-0.2-0.2-0.8-0.7-1.3-1
		c-0.5-0.4-1-0.7-1.1-0.8c-0.1-0.1-0.5-0.4-0.9-0.7c-0.4-0.3-0.9-0.7-1.1-0.9c-0.2-0.2-0.4-0.3-0.5-0.3s-0.3-0.2-0.6-0.5
		c-0.3-0.3-0.4-0.3-0.4-0.2c0.1,0.1,0,0.1-0.2-0.1c-0.5-0.5-1.7-1.5-1.7-1.3c0,0.1-0.3-0.1-0.6-0.5c-0.3-0.3-0.6-0.6-0.6-0.5
		c0,0-0.3-0.2-0.5-0.4s-0.5-0.5-0.6-0.5c-0.1,0-0.5-0.3-1.5-1.2c-0.2-0.2-0.3-0.2-0.4-0.2c0,0-0.5-0.3-1-0.8c-0.5-0.5-1-0.9-1-0.8
		c0,0-0.2-0.1-0.4-0.3c-0.7-0.7-1.4-1.3-1.6-1.3c-0.1,0-0.5-0.4-1.3-1.2c-0.2-0.3-0.5-0.5-0.6-0.5c-0.1,0-0.3-0.1-0.4-0.3
		c-0.1-0.2-0.3-0.3-0.4-0.3c-0.1,0-0.4-0.2-0.6-0.4c-0.2-0.2-0.7-0.7-1.2-1.1c-1.2-1.1-3.4-3.2-3.3-3.2c0,0-0.2-0.2-0.5-0.5
		c-0.3-0.3-0.6-0.5-0.6-0.5s-0.3-0.3-0.6-0.8c-0.2-0.4-0.5-0.8-0.6-0.8s-0.2-0.2-0.2-0.3c0-0.2-0.2-0.3-0.3-0.2
		c-0.1,0.1-0.2-0.1-0.3-0.3c-0.1-0.2-0.2-0.5-0.3-0.6c-0.1-0.1-0.5-0.6-0.8-1.1c-0.3-0.5-0.6-0.9-0.7-1c-0.2-0.2-0.8-1.2-1.3-2.1
		c-0.3-0.6-0.6-1-0.6-1.1c-0.1,0-0.1-0.1,0-0.2c0.1-0.1,0-0.2-0.1-0.2s-0.2-0.1-0.2-0.3c0-0.2-0.2-0.7-0.4-1.2
		c-0.2-0.5-0.5-1.1-0.5-1.2c0-0.2-0.2-0.8-0.4-1.5c-0.2-0.6-0.4-1.4-0.4-1.8c-0.2-1.5-0.3-2.2-0.4-2.6c-0.3-1.4-0.4-4.8-0.4-10.6
		l0-6.5l0.5-0.3c0.3-0.2,0.5-0.3,0.5-0.3c0,0,0.1,0,0.2-0.1c0.1-0.2,1.5-0.9,3.4-1.8l0.6-0.3v-4.8c0-3.1-0.1-4.8-0.2-4.8
		c-0.1,0-0.2,0.1-0.2,0.2c0,0.1,0,0.1-0.1,0.1c-0.1-0.1-0.4,0-0.7,0.2c-0.4,0.2-0.8,0.3-0.9,0.3c-0.1,0-0.3,0.1-0.3,0.2
		s-0.1,0.1-0.2,0.1c-0.1-0.1-0.2,0-0.2,0.1c0,0.1,0,0.2-0.1,0.1s-0.5,0.1-1,0.4c-0.5,0.3-0.9,0.5-0.9,0.4c0-0.1-0.2,0.1-0.5,0.2
		c-0.3,0.2-0.5,0.3-0.5,0.3c0-0.1-1.4,0.6-1.5,0.8c-0.1,0.1-0.1,0.1-0.1,0c0-0.1-0.2,0-0.5,0.2c-0.3,0.2-0.7,0.4-0.9,0.5
		c-0.3,0.1-0.5,0.3-0.5,0.3c0,0.1-0.6,0.4-0.9,0.4c-0.1,0-0.1,0.1-0.1,0.1s-0.1,0.2-0.2,0.2c-0.1,0-0.3,0.1-0.3,0.1
		c0,0.1-0.4,0.3-0.9,0.6c-0.5,0.3-0.9,0.6-0.8,0.7c0.1,0.1,0,0.1-0.1,0c-0.1-0.1-0.4,0.1-0.6,0.3c-0.2,0.2-0.5,0.4-0.6,0.4
		c-0.2,0-0.1,17.2,0.1,19.3c0.1,0.9,0.3,2,0.4,2.6s0.2,1.3,0.2,1.8c0,0.4,0.3,1.4,0.5,2.2s0.4,1.6,0.5,1.7c0.3,1.3,1.2,3.4,1.5,3.6
		c0.1,0.1,0.1,0.1,0,0.1c-0.1,0,0,0.3,0.3,0.7c0.2,0.4,0.4,0.8,0.4,0.9c0,0.1,0.1,0.3,0.3,0.5c0.1,0.2,0.4,0.5,0.5,0.8
		c0.3,0.7,0.8,1.5,1,1.5c0.1,0,0.1,0.1,0.1,0.2c0,0.1,0.1,0.3,0.2,0.3c0.1,0.1,0.2,0.2,0.2,0.3c0,0.1,0.1,0.3,0.1,0.3
		c0.1,0,0.5,0.5,0.9,1.1c0.4,0.6,0.9,1,0.9,1s0.2,0.2,0.3,0.4c0.1,0.2,0.3,0.4,0.4,0.4c0.1,0,0.3,0.1,0.3,0.2c0,0.3,2,2.4,2.2,2.4
		c0.1,0,0.3,0.2,0.5,0.5c0.2,0.3,0.4,0.5,0.5,0.5s0.4,0.3,0.8,0.6c0.3,0.3,0.7,0.6,0.7,0.6s0.4,0.2,0.7,0.5c1.4,1.2,1.9,1.7,2.1,1.7
		c0.1,0,0.2,0.1,0.2,0.2c0,0.1,0.3,0.3,0.6,0.4c0.3,0.2,0.6,0.4,0.6,0.5s0.1,0.2,0.1,0.1c0.1-0.1,0.4,0.1,0.7,0.4
		c0.3,0.3,0.6,0.5,0.6,0.4s0.1,0,0.3,0.2c0.2,0.2,0.5,0.4,0.7,0.5c0.2,0.1,0.5,0.4,0.7,0.5s0.4,0.3,0.4,0.3c0.1,0,0.3,0.1,0.5,0.3
		c0.5,0.5,1.6,1.3,1.8,1.3c0.1,0,0.3,0.2,0.5,0.3c0.9,0.8,1.6,1.2,1.7,1.1c0.1-0.1,0.1,0,0.1,0.1c0,0.2,0.6,0.6,2.5,1.9
		c0.4,0.2,0.9,0.6,1.1,0.8c0.9,0.7,3.1,2.2,3.1,2.1c0-0.1,0.2,0.1,0.5,0.4c0.3,0.3,0.6,0.5,0.6,0.4c0.1,0,0.4,0.1,0.7,0.4
		c0.3,0.3,0.6,0.5,0.6,0.5c0.1,0,0.4,0.2,0.7,0.5c0.3,0.3,0.7,0.5,0.8,0.5c0.1,0,0.2,0.1,0.3,0.3c0.1,0.1,0.2,0.2,0.2,0.2
		c0.1,0,0.3,0.1,0.6,0.3c0.2,0.2,0.4,0.4,0.4,0.3c0-0.1,0.2,0.1,0.5,0.3c0.3,0.2,0.5,0.4,0.6,0.4c0.1,0,0.7,0.4,1.3,0.9
		c0.7,0.5,1.4,1,1.7,1.1c0.3,0.1,0.5,0.3,0.5,0.3s0.2,0.2,0.5,0.3c0.3,0.1,0.5,0.3,0.5,0.4c0,0.1,0.1,0.1,0.2,0.1
		c0.2,0,0.6,0.3,1.1,0.8c0.1,0.1,0.3,0.2,0.3,0.2c0.1,0,0.4,0.2,0.7,0.4c0.3,0.2,0.6,0.4,0.7,0.4c0.1,0,0.3,0.2,0.5,0.4
		c0.2,0.2,0.5,0.4,0.5,0.4c0.1,0,0.4,0.2,0.6,0.4c0.3,0.2,0.5,0.4,0.6,0.4c0.1,0,0.1,0.1,0,0.3c-0.1,0.2-0.3,0.3-0.4,0.3
		c-0.1,0-0.5,0.3-0.9,0.6c-0.4,0.4-0.7,0.6-0.7,0.5c0-0.1-0.1,0.1-0.3,0.3c-0.1,0.2-0.4,0.4-0.5,0.4c-0.1,0-0.2,0.1-0.2,0.1
		c0,0.1-0.7,0.7-1.6,1.4c-0.9,0.7-1.6,1.3-1.6,1.4c0,0.1-0.1,0.1-0.2,0.1s-0.5,0.3-0.8,0.7c-0.4,0.4-0.7,0.7-0.8,0.7
		c-0.1,0-0.2,0.1-0.4,0.3c-0.2,0.2-0.5,0.4-0.7,0.6c-0.8,0.6-1.7,1.5-1.7,1.7c0,0.1-0.1,0.2-0.1,0.1c-0.1,0-0.3,0.1-0.5,0.3
		c-0.2,0.2-0.3,0.4-0.2,0.4c0.1,0,0,0.1-0.1,0.2c-0.2,0.1-0.3,0.3-0.3,0.4s-0.1,0.2-0.2,0.1c-0.1-0.1-0.1,0-0.1,0.2
		c0.1,0.2,0,0.2-0.1,0.2c-0.1-0.1-0.2-0.1-0.2,0c0,0.1-0.1,0.4-0.2,0.8c-0.1,0.4-0.2,1.7-0.2,2.9l0,2.2h19.4H131l-0.1-2.6
		c0-1.4-0.1-2.7-0.2-2.9c-0.1-0.1-0.2-0.3-0.2-0.4c0-0.2-0.8-1.3-1.6-2c-1.3-1.2-1.4-1.4-1.6-1.4c-0.1,0-0.3-0.2-0.4-0.3
		c-0.1-0.2-0.3-0.3-0.3-0.3c0,0-0.3-0.1-0.5-0.3c-1-1-2-1.8-2.4-2.1c-0.3-0.2-0.6-0.4-0.7-0.6c-0.1-0.2-0.4-0.3-0.5-0.3
		c-0.1,0-0.2-0.1-0.3-0.2c-0.1-0.1-0.2-0.2-0.2-0.2c-0.1,0-0.4-0.3-0.8-0.7c-0.6-0.6-1.5-0.9-1.5-0.4c0,0.1,0,0.1-0.1,0
		s-0.2,0-0.4,0.1s-1,0.6-2,0.9c-0.9,0.4-1.8,0.8-1.8,0.9c0,0.1-0.2,0.1-0.4,0.1c-0.2,0-0.3,0.1-0.3,0.2s0,0.1-0.1,0.1
		c-0.1-0.1-0.3,0-0.5,0.1c-0.2,0.1-1.1,0.6-2.1,1c-2.7,1.2-3.2,1.4-4.5,2.1c-0.7,0.3-1.3,0.6-1.3,0.6c0,0-0.7,0.3-1.6,0.7
		c-0.8,0.4-1.5,0.7-1.6,0.7c-0.1,0-0.2,0.1-0.2,0.1c0,0.1-0.1,0.1-0.2,0.1c-0.4,0-0.3-0.2,0.1-0.4c0.2-0.1,0.6-0.3,0.8-0.5
		c0.2-0.2,0.5-0.4,0.6-0.4s0.3-0.2,0.6-0.4c0.3-0.2,0.5-0.4,0.6-0.4c0,0,0.2-0.1,0.4-0.2c0.2-0.2,0.4-0.3,0.5-0.3
		c0.1,0,0.2-0.1,0.2-0.1c0-0.1,0.2-0.2,0.4-0.3c0.2-0.1,0.4-0.3,0.3-0.4c-0.1-0.1,0-0.1,0.2-0.1c0.1,0.1,0.3,0,0.3-0.1
		c0-0.1,0.1-0.2,0.3-0.3c0.4-0.2,1-0.5,1.3-0.8c0.2-0.2,0.4-0.3,0.4-0.3s0.3-0.2,0.6-0.4c0.3-0.2,0.5-0.4,0.6-0.4
		c0,0,0.3-0.1,0.5-0.3c0.2-0.2,0.6-0.5,0.9-0.7c0.3-0.2,0.5-0.4,0.5-0.4s0.1-0.1,0.2-0.1c0.1,0,0.2-0.1,0.2-0.2
		c0-0.1,0.1-0.2,0.2-0.2c0.2,0,1.4-0.8,1.5-1c0-0.1,0.2-0.1,0.3-0.1s0.5-0.2,0.8-0.5c0.3-0.3,0.8-0.6,1.1-0.8
		c0.3-0.2,0.5-0.4,0.5-0.5c0-0.1,0.1-0.1,0.1-0.1c0.1,0,0.3-0.1,0.6-0.3c0.3-0.2,0.6-0.4,0.8-0.5c0.2-0.1,0.3-0.2,0.3-0.2
		c0-0.1,0.2-0.3,0.5-0.4c0.3-0.2,0.7-0.4,0.8-0.5c0.1-0.1,0.9-0.7,1.8-1.2c0.8-0.5,1.6-1.1,1.8-1.2c0.2-0.2,0.5-0.3,0.6-0.4
		c0.2-0.1,0.3-0.2,0.3-0.3c0-0.1,0.1-0.2,0.2-0.2c0.1,0,0.2-0.1,0.2-0.1c0-0.1,0.3-0.3,0.8-0.5c0.4-0.2,0.8-0.5,0.8-0.5
		c0-0.1,0.1-0.1,0.1-0.1c0.1,0,0.3,0,0.5-0.2c0.4-0.4,2.9-2,3-2c0.1,0,0.3-0.2,0.6-0.5c0.3-0.3,0.5-0.5,0.6-0.4
		c0.1,0,0.2-0.1,0.3-0.2c0.1-0.2,0.2-0.2,0.2-0.2c0,0.1,0.2,0,0.4-0.2c0.2-0.2,0.4-0.3,0.5-0.2c0.1,0,0.1,0,0.1-0.2
		c0-0.1,0.1-0.2,0.1-0.2c0.2,0.1,1.1-0.5,1.4-0.9c0.2-0.2,0.4-0.4,0.5-0.4c0.1,0,0.2-0.1,0.3-0.2c1-0.8,1.3-1,1.3-0.9
		c0,0.1,0.1,0,0.2-0.2c0.1-0.2,0.2-0.3,0.3-0.2c0.1,0.1,0.2,0,0.2,0c0-0.1,0.3-0.3,0.7-0.5c0.4-0.2,0.7-0.5,0.7-0.5s0.1-0.1,0.1-0.1
		c0.1,0,1.7-1,1.9-1.3c0.1-0.1,0.1-0.1,0.1-0.1c0,0.1,0.4-0.2,0.9-0.7c0.1-0.1,0.3-0.2,0.3-0.2c0.1,0,1.1-0.7,1.7-1.2
		c0.3-0.3,0.6-0.5,0.7-0.5c0.1,0,0.5-0.3,0.8-0.6s0.8-0.6,0.9-0.6s0.3-0.2,0.5-0.4c0.2-0.2,0.4-0.4,0.5-0.4s0.4-0.2,0.6-0.4
		s0.5-0.4,0.6-0.4s0.4-0.2,0.7-0.5s0.5-0.4,0.5-0.4c0,0.1,0.1,0,0.3-0.2c0.2-0.2,0.6-0.5,0.9-0.7c0.3-0.2,0.8-0.6,1-0.9
		c0.2-0.3,0.5-0.5,0.6-0.5c0.1,0,0.3-0.2,0.5-0.4c0.1-0.2,0.3-0.4,0.4-0.4c0.1,0,0.3-0.2,0.5-0.4c0.2-0.2,0.8-0.8,1.4-1.3
		c0.5-0.5,1-1,0.9-1s0.1-0.2,0.2-0.2c0.1-0.1,0.2-0.2,0.2-0.2s0-0.1,0.1-0.1c0.2,0.1,1.2-0.9,1.2-1.1c0-0.1,0.2-0.3,0.4-0.5
		c0.2-0.2,0.7-0.7,1-1.2c0.4-0.5,0.7-0.9,0.8-1c0.1-0.1,0.1-0.1,0-0.1c-0.1,0,0.1-0.2,0.4-0.5s0.5-0.6,0.5-0.7
		c0-0.1,0.1-0.3,0.2-0.4c0.3-0.3,1.2-1.7,1.1-1.8c0-0.1,0.1-0.1,0.2-0.1s0.1-0.1,0.1-0.1c-0.1-0.1,0.1-0.4,0.3-0.7s0.4-0.6,0.3-0.6
		c-0.1,0,0.1-0.4,0.4-0.9c0.3-0.5,0.5-0.9,0.4-0.9s0-0.2,0.2-0.5c0.4-0.7,1.4-4.1,1.5-4.8c0-0.3,0.2-1.2,0.3-1.8
		c0.2-0.7,0.3-1.7,0.3-2.3c0-0.6,0.1-1,0.1-1c0.1,0,0.1-4.4,0.1-9.7l0-9.7l-0.6-0.5c-0.3-0.3-0.6-0.5-0.7-0.5
		c-0.1,0-0.4-0.2-0.6-0.4c-0.3-0.2-0.6-0.4-0.8-0.3c-0.1,0.1-0.2,0.1-0.1,0c0.1-0.1-0.5-0.7-1.3-1.1c-0.3-0.2-0.9-0.5-1.4-0.8
		c-0.5-0.3-1-0.5-1-0.6c-0.1-0.1-0.7-0.4-0.9-0.3c-0.1,0-0.1,0-0.1-0.1c0-0.1-0.4-0.3-0.8-0.5c-0.5-0.2-0.8-0.4-0.8-0.5
		c0-0.1,0-0.1-0.1-0.1c-0.1,0.1-0.4-0.1-0.8-0.3c-0.4-0.2-0.8-0.4-0.8-0.3c-0.1,0.1-0.1,0-0.1-0.1c0-0.1-0.1-0.2-0.2-0.1
		c-0.1,0.1-0.2,0-0.2-0.1s-0.1-0.2-0.3-0.2c-0.1,0-0.6-0.2-1.1-0.4c-1.2-0.6-1.2-0.7-1.2,4.5l0,4.7l1.6,0.8c0.9,0.4,1.7,0.9,1.9,1
		c0.2,0.1,0.4,0.3,0.5,0.3c0.1,0,0.4,0.1,0.6,0.3c0.2,0.2,0.5,0.3,0.5,0.2c0.1-0.1,0.2,7.2,0.1,10.3c0,3.5-0.7,8.9-1.4,11.2
		c-0.2,0.6-0.4,1.2-0.4,1.3c-0.1,0.5-0.5,1.8-0.6,1.8c-0.1,0-0.1,0.1,0,0.2s0,0.2-0.1,0.2c-0.1,0-0.2,0.1-0.2,0.2
		c0,0.4-1.8,3.8-2,3.8c-0.1,0-0.1,0.1-0.1,0.2c0,0.2-0.3,0.6-1.1,1.6c-0.1,0.1-0.4,0.4-0.6,0.6c-0.2,0.2-0.4,0.4-0.3,0.4
		c0.1,0-0.2,0.3-0.6,0.7c-0.4,0.4-0.7,0.8-0.6,0.8c0,0-0.1,0.2-0.3,0.3c-0.2,0.1-0.4,0.3-0.4,0.4c0,0.2-3.4,3.6-3.6,3.6
		c-0.1,0-0.4,0.3-0.7,0.6s-0.5,0.6-0.4,0.5c0.2-0.1,0.2-0.1,0.1,0c-0.1,0.1-0.2,0.2-0.3,0.2s-0.4,0.2-0.7,0.5
		c-0.3,0.3-0.5,0.5-0.6,0.5c0,0-0.6,0.4-1.2,0.9c-0.6,0.5-1.9,1.6-2.8,2.3c-0.9,0.7-1.8,1.5-1.9,1.6c-0.1,0.2-0.3,0.3-0.5,0.3
		c-0.1,0-0.3,0.1-0.4,0.3c-0.1,0.2-0.3,0.3-0.4,0.3c-0.1,0-0.3,0.1-0.4,0.3c-0.1,0.2-0.3,0.3-0.4,0.3c-0.2,0-2.2,1.6-2.3,1.9
		c0,0.1-0.2,0.1-0.3,0.1c-0.1,0-0.2,0.1-0.2,0.2c0,0.1-0.1,0.2-0.2,0.2s-0.4,0.2-0.6,0.4c-0.2,0.2-0.6,0.6-0.9,0.8
		c-0.3,0.2-0.6,0.5-0.8,0.6c-0.1,0.1-0.3,0.2-0.4,0.2c-0.1,0-0.4,0.3-0.8,0.6c-0.9,0.8-0.9,0.8-2,1.6c-0.6,0.4-1.2,0.9-1.4,1.1
		c-0.2,0.2-0.5,0.4-0.6,0.4c-0.1,0-0.2,0.1-0.3,0.1c0,0.1-0.5,0.5-1.1,0.9c-0.6,0.4-1.1,0.8-1.1,0.9c-0.1,0.1-0.2,0.2-0.3,0.2
		c-0.1,0-0.4,0.2-0.6,0.4s-0.5,0.4-0.6,0.4c-0.1,0-0.3,0.1-0.5,0.3c-0.4,0.4-0.8,0.7-0.9,0.7c-0.1,0-1.8,1.4-1.9,1.5
		c0,0.1-0.2,0.1-0.3,0.1c-0.1,0-0.4,0.2-0.6,0.4c-0.4,0.4-0.5,0.4-0.6,0.1c-0.2-0.2-0.2-0.2,0-0.1c0.1,0.1,0.2,0,0.3-0.2
		c0.1-0.2,0.2-0.4,0.3-0.4c0.1,0,0.6-0.3,1-0.8c0.4-0.4,0.8-0.8,0.9-0.8c0.1,0,0.3-0.2,0.4-0.4c0.2-0.2,0.4-0.4,0.5-0.4
		c0.2,0,1-0.7,2.7-2.2c0.3-0.2,0.5-0.4,0.6-0.4c0.1,0,0.2-0.1,0.2-0.3c0-0.1,0.2-0.3,0.4-0.4c0.5-0.2,1-0.8,0.8-0.9
		c-0.1-0.1,0-0.1,0.1,0c0.1,0.1,0.4,0,0.7-0.3c0.5-0.4,0.7-0.7,2.2-1.9c0.5-0.4,1.1-1,1.4-1.2c0.3-0.3,0.6-0.5,0.6-0.5
		s0.2-0.1,0.2-0.3c0.1-0.2,0.3-0.4,0.6-0.6c0.3-0.2,0.8-0.6,1.2-0.9c0.4-0.3,1.1-1,1.5-1.4c0.5-0.4,1-0.9,1.2-1.1
		c0.2-0.2,0.7-0.6,1.1-1c0.4-0.3,0.7-0.6,0.6-0.6c-0.1,0,0.1-0.2,0.3-0.3c0.6-0.4,1.9-1.8,1.8-1.8c-0.1,0,0.2-0.3,0.5-0.6
		c0.3-0.3,0.6-0.6,0.6-0.7c0,0,0.3-0.4,0.7-0.8c0.4-0.4,0.7-0.8,0.7-0.9s0.2-0.3,0.4-0.5c0.2-0.2,0.5-0.5,0.6-0.7
		c0.2-0.3,0.9-1.3,1.7-2.4c0.3-0.4,0.5-0.8,0.4-0.8c-0.1-0.1,0-0.1,0.1-0.1s0.3-0.4,0.6-0.8c0.2-0.4,0.5-1,0.7-1.2
		c0.2-0.2,0.3-0.5,0.3-0.7c0-0.2,0.1-0.3,0.1-0.3c0.2,0,1.1-1.9,1-2.2c0-0.1,0.1-0.1,0.2-0.1s0.1-0.1,0.1-0.2
		c-0.1-0.1,0-0.2,0.1-0.2c0.1,0,0.2-0.2,0.2-0.4c0-0.2,0.2-0.6,0.4-1c0.2-0.4,0.3-0.7,0.3-0.9c0-0.1,0.2-0.8,0.5-1.5
		c0.6-1.9,1.3-4.4,1.2-4.6c0-0.1,0-0.5,0.1-0.9c0.4-1.7,0.6-4.6,0.5-5.9c-0.1-1,0-1.3,0.1-1.3c0.1,0,0.2-4,0.2-15.9
		c0-13.9,0-15.9-0.2-15.9c-0.1,0-0.5-0.1-0.8-0.2c-1.2-0.5-3.3-1.3-4.2-1.5c-0.6-0.2-1.1-0.3-1.2-0.4s-0.4-0.1-0.6-0.2
		c-0.2,0-0.7-0.2-1.2-0.4c-0.5-0.2-0.9-0.3-1-0.3c0,0-0.1,0-0.1,0s-0.2,0-0.5,0c-0.2,0-0.9-0.2-1.5-0.4c-0.6-0.2-1.3-0.4-1.6-0.4
		s-1-0.2-1.6-0.4s-1.3-0.3-1.5-0.3c-0.2,0-0.5-0.1-0.7-0.1c-0.4-0.2-2.9-0.6-3.7-0.7c-0.4,0-1.7-0.3-2.9-0.5
		c-1.2-0.2-2.5-0.4-2.8-0.4c-0.4,0-1.7-0.1-2.9-0.3c-1.2-0.1-3.6-0.3-5.2-0.4C113.4,128,112.5,128,109.1,128.1 M119,139.7
		c1,0.1,2.8,0.4,3.5,0.7c0.1,0.1,0.4,0.1,0.5,0.2c0.3,0.1,2.6,1.2,3.2,1.5c1.1,0.7,1.5,1,2.2,1.8c1.1,1.2,1.4,1.5,1.4,1.7
		c0,0.1,0.1,0.2,0.2,0.3s0.5,0.6,0.8,1.3c0.3,0.6,0.6,1.1,0.7,1c0,0,0.1,0,0.1,0.1c0,0.4,0.2,1.3,0.4,1.7c0.6,1.5,0.6,32.1,0.1,33.6
		c-0.1,0.2-0.2,0.6-0.3,0.8c-0.1,0.3-0.2,0.6-0.2,0.6c0,0.1,0,0.2-0.1,0.2c0,0-0.1,0.1-0.1,0.2c-0.1,0.3-1,2-1.3,2.3
		c-0.2,0.2-0.3,0.4-0.2,0.4c0,0-0.6,0.8-1.4,1.6c-0.8,0.8-1.5,1.5-1.5,1.4c0-0.1-0.2,0-0.7,0.5c-0.1,0.1-0.4,0.2-0.6,0.3
		c-0.2,0.1-0.5,0.3-0.7,0.4s-0.4,0.3-0.5,0.2c-0.1,0-0.1,0-0.1,0.1c0,0.1-0.2,0.2-0.4,0.2c-0.2,0-0.5,0.1-0.7,0.2
		c-0.2,0.1-0.5,0.2-0.6,0.2c-0.2,0-0.3,0.1-0.2,0.2c0.1,0.1,0,0.1,0,0.1c-0.1-0.1-0.7,0-1.3,0.2c-0.6,0.2-1.6,0.4-2.3,0.4
		c-0.7,0.1-1.5,0.2-1.8,0.2c-0.3,0.1-0.9,0.1-1.3,0.1c-1.4,0.1-23.7,0.1-23.8,0c-0.1-0.1,1.7-2,3-3.3c0.4-0.4,0.8-0.8,0.7-0.8
		s0-0.1,0.2-0.3l0.4-0.3v-23.1v-23.1l-0.7-0.6c-0.4-0.3-0.7-0.7-0.7-0.8c0-0.2-1.2-1.3-1.3-1.3c-0.1,0-0.2-0.2-0.4-0.5
		c-0.2-0.3-0.5-0.7-0.8-1l-0.5-0.5l13.1,0.1C112,139.6,118.4,139.7,119,139.7 M108.7,167v18.2l3.6-0.1c3.8-0.1,4.4-0.2,5.2-1
		c0.2-0.2,0.4-0.3,0.4-0.2c0,0.3,0.7-0.6,1.2-1.5l0.5-1l0-14.8c0-16.6,0.1-14.9-1.4-16.4c-0.4-0.4-0.9-0.8-1-0.7c-0.1,0-0.2,0-0.2,0
		c-0.2-0.5-1.8-0.7-5-0.7h-3.3V167 M366.6,154.9c0,0-2.3,0.1-5.1,0.2c-3.7,0.1-5.5,0.2-7.1,0.4c-1.1,0.2-2.1,0.3-2.2,0.3
		c0,0-0.8,0.1-1.6,0.3c-0.8,0.2-1.6,0.3-1.7,0.4c-0.2,0-0.3,3.2-0.3,27.1l0,27h6.4h6.4v-21.9v-21.9l0.5-0.1c0.9-0.2,5.3-0.2,5.6,0
		c0.1,0.1,0.3,0.1,0.3,0.1c0.3-0.3,2.6,1.4,2.6,1.8c0,0.1,0.1,0.2,0.2,0.2c0.1,0,0.2,0.1,0.1,0.1c0,0.1,0.1,0.4,0.2,0.8
		c0.1,0.5,0.2,5.9,0.2,20.8l0,20.1h5.7h5.7l0-21.4l0-21.4l1.3-0.4c3.6-1.1,7.3-0.2,7.8,1.8c0.1,0.2,0.2,0.5,0.2,0.6
		c0.1,0.1,0.1,0.2,0.1,0.3s0,9.2,0,20.4l0,20.2h6.5h6.5l-0.1-22.1c0-20.1-0.1-22.2-0.3-23.1c-0.2-0.6-0.3-1.2-0.3-1.4
		c0-0.2-0.2-0.7-0.3-1.1s-0.3-0.7-0.3-0.8c0-0.2-0.9-1.5-1-1.6c-0.1,0-0.1-0.1-0.1-0.2c0-0.1-0.9-1-2.1-2.1
		c-0.5-0.4-1.8-1.2-1.9-1.2c-0.1,0-0.1,0-0.1-0.1c0-0.1-0.2-0.2-0.5-0.3c-0.3-0.1-0.5-0.2-0.6-0.3c-0.1-0.1-0.3-0.2-0.5-0.2
		c-0.2,0-0.4-0.1-0.5-0.1c-0.2-0.1-1.5-0.5-2.4-0.6c-1.2-0.2-2.8-0.2-8.4-0.2c-0.8,0-2.8,0.3-3.4,0.5c-0.3,0.1-0.8,0.2-1,0.1
		c-0.2,0-0.5,0-0.6,0.1c-0.1,0.1-0.3,0.1-0.5,0.2c-0.4,0.1-3.2,1.1-3.4,1.2c-0.1,0.1-0.3,0-0.6-0.2c-0.5-0.4-2.1-1.1-2.4-1.1
		c-0.1,0-0.2,0-0.2-0.1c0-0.1-0.1-0.1-0.3-0.1c-0.2,0-0.9-0.1-1.5-0.3c-0.7-0.2-2-0.3-2.9-0.3s-1.7-0.1-1.8-0.2
		C366.8,154.9,366.7,154.9,366.6,154.9 M180.7,156c0,0.2,0.2,0.6,0.5,0.8c0.2,0.3,0.4,0.5,0.4,0.5c0,0,0.1,0.2,0.3,0.5
		c0.2,0.3,0.4,0.5,0.4,0.6c0,0.1,0.2,0.3,0.4,0.6c0.2,0.2,0.4,0.5,0.3,0.6c0,0.1,0,0.1,0.1,0.1c0.1,0,0.4,0.3,0.6,0.7l0.4,0.7
		l0,22.3l0,22.3l-0.5,0.6c-0.3,0.3-0.5,0.6-0.5,0.7c0,0.1-0.2,0.3-0.4,0.5c-0.2,0.2-0.5,0.7-0.6,1c-0.1,0.3-0.3,0.5-0.4,0.5
		c-0.1,0-0.1,0-0.1,0.1s-0.1,0.3-0.4,0.5c-1.3,1.1-1.7,1.1,10.3,1c12.2,0,15.4-0.1,17-0.7c0.6-0.2,1.3-0.4,1.5-0.4
		c0.4-0.1,1.5-0.6,2.2-0.9c0.1-0.1,0.7-0.4,1.2-0.7c1.3-0.7,3.2-2.3,3.2-2.7c0-0.2,0.1-0.3,0.1-0.3c0.2,0,1-0.8,1-1.1
		c0-0.1,0.2-0.4,0.4-0.7c0.5-0.7,1.3-2.5,1.4-3.2c0-0.3,0.2-0.8,0.3-1c0.7-1.6,0.3-33.1-0.4-33.1c-0.1,0-0.1-0.1,0-0.2
		c0.1-0.2-1-2.8-1.3-2.8c-0.1,0-0.3-0.3-0.5-0.7c-0.4-0.8-2.6-3-2.9-3c-0.1,0-0.2-0.1-0.2-0.1c0-0.2-0.8-0.7-1-0.8
		c-0.1,0-0.5-0.2-0.8-0.4c-0.3-0.2-0.8-0.4-1-0.5c-0.2-0.1-0.5-0.2-0.6-0.2c-0.2-0.1-1.4-0.6-1.8-0.6c-0.1,0-1-0.2-1.9-0.4
		c-2.1-0.4-0.3-0.4-14.5-0.5l-12-0.1L180.7,156 M226.6,155.8c-0.1,0.1-0.1,12.4-0.1,27.4v27.3h6.4h6.4V201v-9.5l4,0.1
		c2.2,0,4.2,0.1,4.4,0.2c0.2,0.1,0.4,0.1,0.4,0.1c0.2,0,1,0.8,1.2,1.3c0.3,0.5,0.3,1.4,0.3,9l0,8.4h6.6h6.6l-0.1-8.6
		c0-4.7-0.1-8.8-0.2-9c-0.1-0.2-0.2-0.8-0.3-1.2c-0.2-0.9-0.8-2-1-2c-0.1,0-0.1-0.1,0-0.2c0.1-0.1,0-0.3-0.1-0.4
		c-0.1-0.1-0.3-0.4-0.4-0.6c-0.1-0.2-0.3-0.4-0.3-0.3c-0.1,0-0.6-0.3-1.2-0.7c-0.6-0.4-1.4-0.8-1.9-0.9l-0.8-0.2l0.9-0.6
		c0.5-0.3,0.9-0.7,1-0.8c0.1-0.1,0.2-0.2,0.3-0.2c0.2,0,1-0.8,1-1c0-0.1,0.2-0.3,0.3-0.4c0.2-0.2,0.3-0.4,0.3-0.5
		c0-0.1,0.1-0.2,0.2-0.3c0.2-0.1,0.7-1.3,0.9-2.3c0.3-1.3,0.2-15.7-0.2-17.3c-0.2-0.7-1-2.5-1.1-2.5c-0.1,0-0.2-0.1-0.2-0.3
		c-0.1-0.4-1.7-2-1.9-2c-0.1,0-0.2-0.1-0.4-0.3c-0.3-0.3-2.2-1.2-2.8-1.3c-0.2,0-0.8-0.2-1.3-0.3c-0.5-0.1-1.6-0.3-2.5-0.4
		C249.4,155.6,226.8,155.6,226.6,155.8 M279.5,155.9c-0.7,0.1-1.7,0.3-2.2,0.4c-0.6,0.1-1.1,0.3-1.2,0.3c-0.1,0-0.4,0.1-0.6,0.2
		c-0.8,0.3-1.4,0.5-1.5,0.5c0,0-0.1,0.1-0.2,0.2c-0.1,0.1-0.2,0.2-0.4,0.2s-0.5,0.2-0.7,0.5c-0.3,0.3-0.5,0.4-0.6,0.4
		c0,0-0.3,0.2-0.5,0.6c-0.3,0.3-0.6,0.8-0.8,1c-0.3,0.3-0.7,0.9-0.7,1.3c0,0.1-0.1,0.3-0.3,0.4c-0.1,0.2-0.2,0.4-0.1,0.5
		c0.1,0.1,0,0.2-0.1,0.2c-0.2,0-0.8,1.8-0.9,2.8c-0.1,1.3-0.1,34.5,0,35.5c0.1,1,0.9,3.4,1.2,3.7c0.1,0.1,0.3,0.4,0.4,0.7
		c0.2,0.6,1.8,2.3,2.1,2.3c0.1,0,0.2,0.1,0.2,0.2c0.1,0.1,0.2,0.3,0.2,0.3c0.1,0,0.5,0.3,1,0.6c0.5,0.3,1.1,0.6,1.3,0.7
		c0.2,0,0.8,0.2,1.3,0.4c1.4,0.5,3.9,0.6,13.4,0.7l8.5,0l0-5.2l0-5.2l-7.8,0c-4.3,0-7.9-0.1-8-0.2c-0.1-0.1-0.4-0.4-0.7-0.7
		l-0.5-0.6v-5.2v-5.2h7.5h7.5l0-5.1l0-5.1l-7.5,0l-7.5,0v-5.1v-5.1l0.5-0.7c0.7-1,0.6-1,9-1h7.6v-5.2v-5.2l-8.8,0
		C284.7,155.7,280.2,155.8,279.5,155.9 M304.6,155.8c-0.1,0.1-0.1,12.4-0.1,27.4v27.3h6.5h6.5V201v-9.5h5.4h5.4l0,9.5l0,9.5l6.6,0
		l6.6,0l-0.1-21c0-19.3-0.1-21-0.3-22c-0.2-0.6-0.3-1.2-0.3-1.4c0-0.2-0.1-0.3-0.2-0.4c-0.1-0.1-0.1-0.2-0.1-0.4
		c0-0.1-0.2-0.6-0.3-0.9c-0.2-0.4-0.3-0.8-0.3-0.9c0-0.1-0.1-0.2-0.2-0.2c-0.1,0-0.2-0.1-0.1-0.1c0.1-0.3-1.1-1.9-1.2-1.8
		c-0.1,0.1-0.1,0-0.1-0.1c0.1-0.2-1.6-2-1.9-2c-0.1,0-0.2-0.1-0.2-0.1c-0.2-0.3-1.7-1.3-2-1.2c-0.1,0-0.1,0-0.1-0.1
		c0-0.2-2.5-1.2-3.2-1.3c-0.2,0-0.8-0.1-1.1-0.2c-0.4-0.1-0.7-0.1-0.8-0.1c-0.1,0.1-0.2,0-0.3-0.1
		C328.2,155.7,305,155.4,304.6,155.8 M416.6,156.6c-0.2,0.5-0.4,1.4-0.6,1.9c-0.2,0.5-0.3,1.1-0.4,1.2c0,0.2-0.4,1.2-0.7,2.4
		c-0.4,1.1-0.7,2.3-0.8,2.6c0,0.3-0.2,0.7-0.3,0.9c-0.1,0.3-0.3,0.6-0.3,0.9c0,0.2-0.1,0.4-0.1,0.4c0,0-0.1,0.1-0.1,0.3
		c-0.1,0.3,0.2,0.3,2.8,0.3h2.8V189v21.5h6.5h6.5v-27.4v-27.4l-7.5,0l-7.5,0L416.6,156.6 M441.1,155.9c-0.2,0.6-0.6,1.9-0.8,2.2
		c-0.1,0.2-0.1,0.4-0.1,0.5c0,0.1-0.1,0.4-0.2,0.7c-0.1,0.3-0.3,0.9-0.5,1.3c-0.1,0.4-0.4,1.1-0.5,1.6c-0.2,0.5-0.3,0.9-0.3,0.9
		c0,0.1-0.1,0.5-0.4,1.4c-0.3,0.8-0.4,1.2-0.7,2.5l-0.1,0.5h2.9h2.9V189v21.5h6.4h6.4v-27.4v-27.4h-7.4
		C442.8,155.7,441.1,155.7,441.1,155.9 M246.9,165.6c0.6,0.4,0.9,0.7,1.3,1.4l0.5,0.9l0,5.4l0,5.4l-0.5,0.9
		c-0.3,0.5-0.5,0.8-0.6,0.8s-0.2,0-0.3,0.2c-0.5,0.5-1.5,0.6-4.7,0.7l-3.2,0.1v-8.2V165l3.4,0.1l3.4,0.1L246.9,165.6 M326,165.5
		c0.5,0.3,0.8,0.4,0.8,0.2c0-0.1,0.1-0.1,0.1,0.1c0.1,0.1,0.3,0.5,0.5,0.8c0.8,1.1,0.8,1.3,0.8,8.2v6.5h-5.4h-5.4v-8.2V165l3.9,0.1
		C325.2,165.1,325.3,165.1,326,165.5 M202.5,165.7c0.5,0.1,1.1,0.2,1.3,0.2c0.2,0,0.5,0.2,0.6,0.3c0.1,0.1,0.2,0.1,0.2,0.1
		c0-0.1,0.1,0,0.2,0.2c0.1,0.2,0.2,0.3,0.2,0.2c0-0.2,0.6,0.5,1.2,1.4l0.6,0.9l0,14.2c0,13.5-0.1,14.2-0.4,14.6
		c-0.2,0.3-0.3,0.5-0.2,0.5c0.2,0-0.7,0.9-1.5,1.4c-0.9,0.7-1.5,0.8-4.8,0.9l-3,0.1V183v-17.5h2.2
		C200.6,165.5,202,165.6,202.5,165.7"/>
	<path id="path1" class="st1" d="M65.3,144.9c-0.2,0.3-0.2,0.3,0.2,0.1c0.6-0.3,0.6-0.3,0.3-0.3C65.7,144.7,65.4,144.8,65.3,144.9
		 M131.4,148.3c-0.1,0.1,0.2,0.9,0.3,0.9c0,0,0-0.2-0.1-0.4c-0.1-0.2-0.1-0.4-0.1-0.5c0.1-0.1,0.1-0.1,0-0.1
		S131.5,148.2,131.4,148.3 M359.3,155c-0.5,0.1,6,0.1,7,0c0.3,0-1.1-0.1-3-0.1S359.5,154.9,359.3,155 M366.8,154.9
		c0,0,0.5,0.1,1,0.2c0.6,0.1,0.8,0,0.5,0C367.9,154.9,366.7,154.8,366.8,154.9 M385.4,155c-0.2,0.1,0,0.1,0.5,0
		c0.5-0.1,0.9-0.1,0.9-0.2C387,154.8,385.7,154.9,385.4,155 M387.4,154.9c1.1,0.1,5.1,0.1,4.8,0c-0.2-0.1-1.4-0.1-2.8-0.1
		C388,154.9,387.1,154.9,387.4,154.9 M56.1,160.6c0,1.9,0,2.7,0.1,1.7c0-1,0-2.6,0-3.5C56.1,157.8,56.1,158.7,56.1,160.6
		 M150.2,167.9c0,0.6,0,0.8,0.1,0.5c0-0.3,0-0.8,0-1C150.2,167.1,150.2,167.4,150.2,167.9 M167,168.2c0,0.4,0,0.5,0.1,0.3
		c0-0.2,0-0.5,0-0.7C167.1,167.7,167,167.9,167,168.2 M281.5,177.9c0.2,0,0.4,0,0.6,0c0.2,0,0-0.1-0.3-0.1
		C281.5,177.9,281.4,177.9,281.5,177.9 M283.2,178c0.4,0,1.1,0,1.5,0c0.4,0,0-0.1-0.8-0.1C283.1,177.9,282.8,177.9,283.2,178
		 M286.5,178c0.6,0,1.5,0,2.1,0c0.6,0,0.1-0.1-1-0.1S285.9,177.9,286.5,178 M290.6,178c0.6,0,1.5,0,2.1,0c0.6,0,0.1-0.1-1-0.1
		S290.1,177.9,290.6,178 M294.1,178c0.2,0,0.5,0,0.7,0c0.2,0,0-0.1-0.4-0.1C294,177.9,293.9,177.9,294.1,178 M296,177.9
		c0.3,0.1,0.3,0.5,0.3,5.1l0,5l0-5.1C296.4,178,296.4,177.9,296,177.9C295.8,177.9,295.8,177.9,296,177.9 M259.2,187.5
		c0.6,0.4,0.9,0.5,0.5,0.2c-0.2-0.2-0.5-0.3-0.6-0.3C259,187.3,259,187.4,259.2,187.5"/>
	<path id="path2" class="st1" d="M65.3,144.9c-0.2,0.3-0.2,0.3,0.2,0.1c0.6-0.3,0.6-0.3,0.3-0.3C65.7,144.7,65.4,144.8,65.3,144.9
		 M131.4,148.3c-0.1,0.1,0.2,0.9,0.3,0.9c0,0,0-0.2-0.1-0.4c-0.1-0.2-0.1-0.4-0.1-0.5c0.1-0.1,0.1-0.1,0-0.1
		S131.5,148.2,131.4,148.3 M359.3,155c-0.5,0.1,6,0.1,7,0c0.3,0-1.1-0.1-3-0.1S359.5,154.9,359.3,155 M366.8,154.9
		c0,0,0.5,0.1,1,0.2c0.6,0.1,0.8,0,0.5,0C367.9,154.9,366.7,154.8,366.8,154.9 M385.4,155c-0.2,0.1,0,0.1,0.5,0
		c0.5-0.1,0.9-0.1,0.9-0.2C387,154.8,385.7,154.9,385.4,155 M387.4,154.9c1.1,0.1,5.1,0.1,4.8,0c-0.2-0.1-1.4-0.1-2.8-0.1
		C388,154.9,387.1,154.9,387.4,154.9 M56.1,160.6c0,1.9,0,2.7,0.1,1.7c0-1,0-2.6,0-3.5C56.1,157.8,56.1,158.7,56.1,160.6
		 M150.2,167.9c0,0.6,0,0.8,0.1,0.5c0-0.3,0-0.8,0-1C150.2,167.1,150.2,167.4,150.2,167.9 M167,168.2c0,0.4,0,0.5,0.1,0.3
		c0-0.2,0-0.5,0-0.7C167.1,167.7,167,167.9,167,168.2 M281.5,177.9c0.2,0,0.4,0,0.6,0c0.2,0,0-0.1-0.3-0.1
		C281.5,177.9,281.4,177.9,281.5,177.9 M283.2,178c0.4,0,1.1,0,1.5,0c0.4,0,0-0.1-0.8-0.1C283.1,177.9,282.8,177.9,283.2,178
		 M286.5,178c0.6,0,1.5,0,2.1,0c0.6,0,0.1-0.1-1-0.1S285.9,177.9,286.5,178 M290.6,178c0.6,0,1.5,0,2.1,0c0.6,0,0.1-0.1-1-0.1
		S290.1,177.9,290.6,178 M294.1,178c0.2,0,0.5,0,0.7,0c0.2,0,0-0.1-0.4-0.1C294,177.9,293.9,177.9,294.1,178 M296,177.9
		c0.3,0.1,0.3,0.5,0.3,5.1l0,5l0-5.1C296.4,178,296.4,177.9,296,177.9C295.8,177.9,295.8,177.9,296,177.9 M259.2,187.5
		c0.6,0.4,0.9,0.5,0.5,0.2c-0.2-0.2-0.5-0.3-0.6-0.3C259,187.3,259,187.4,259.2,187.5"/>
	<path id="path3" class="st1" d="M65.3,144.9c-0.2,0.3-0.2,0.3,0.2,0.1c0.6-0.3,0.6-0.3,0.3-0.3C65.7,144.7,65.4,144.8,65.3,144.9
		 M131.4,148.3c-0.1,0.1,0.2,0.9,0.3,0.9c0,0,0-0.2-0.1-0.4c-0.1-0.2-0.1-0.4-0.1-0.5c0.1-0.1,0.1-0.1,0-0.1
		S131.5,148.2,131.4,148.3 M359.3,155c-0.5,0.1,6,0.1,7,0c0.3,0-1.1-0.1-3-0.1S359.5,154.9,359.3,155 M366.8,154.9
		c0,0,0.5,0.1,1,0.2c0.6,0.1,0.8,0,0.5,0C367.9,154.9,366.7,154.8,366.8,154.9 M385.4,155c-0.2,0.1,0,0.1,0.5,0
		c0.5-0.1,0.9-0.1,0.9-0.2C387,154.8,385.7,154.9,385.4,155 M387.4,154.9c1.1,0.1,5.1,0.1,4.8,0c-0.2-0.1-1.4-0.1-2.8-0.1
		C388,154.9,387.1,154.9,387.4,154.9 M56.1,160.6c0,1.9,0,2.7,0.1,1.7c0-1,0-2.6,0-3.5C56.1,157.8,56.1,158.7,56.1,160.6
		 M150.2,167.9c0,0.6,0,0.8,0.1,0.5c0-0.3,0-0.8,0-1C150.2,167.1,150.2,167.4,150.2,167.9 M167,168.2c0,0.4,0,0.5,0.1,0.3
		c0-0.2,0-0.5,0-0.7C167.1,167.7,167,167.9,167,168.2 M281.5,177.9c0.2,0,0.4,0,0.6,0c0.2,0,0-0.1-0.3-0.1
		C281.5,177.9,281.4,177.9,281.5,177.9 M283.2,178c0.4,0,1.1,0,1.5,0c0.4,0,0-0.1-0.8-0.1C283.1,177.9,282.8,177.9,283.2,178
		 M286.5,178c0.6,0,1.5,0,2.1,0c0.6,0,0.1-0.1-1-0.1S285.9,177.9,286.5,178 M290.6,178c0.6,0,1.5,0,2.1,0c0.6,0,0.1-0.1-1-0.1
		S290.1,177.9,290.6,178 M294.1,178c0.2,0,0.5,0,0.7,0c0.2,0,0-0.1-0.4-0.1C294,177.9,293.9,177.9,294.1,178 M296,177.9
		c0.3,0.1,0.3,0.5,0.3,5.1l0,5l0-5.1C296.4,178,296.4,177.9,296,177.9C295.8,177.9,295.8,177.9,296,177.9 M259.2,187.5
		c0.6,0.4,0.9,0.5,0.5,0.2c-0.2-0.2-0.5-0.3-0.6-0.3C259,187.3,259,187.4,259.2,187.5"/>
	<path id="path4" class="st1" d="M65.3,144.9c-0.2,0.3-0.2,0.3,0.2,0.1c0.6-0.3,0.6-0.3,0.3-0.3C65.7,144.7,65.4,144.8,65.3,144.9
		 M131.4,148.3c-0.1,0.1,0.2,0.9,0.3,0.9c0,0,0-0.2-0.1-0.4c-0.1-0.2-0.1-0.4-0.1-0.5c0.1-0.1,0.1-0.1,0-0.1
		S131.5,148.2,131.4,148.3 M359.3,155c-0.5,0.1,6,0.1,7,0c0.3,0-1.1-0.1-3-0.1S359.5,154.9,359.3,155 M366.8,154.9
		c0,0,0.5,0.1,1,0.2c0.6,0.1,0.8,0,0.5,0C367.9,154.9,366.7,154.8,366.8,154.9 M385.4,155c-0.2,0.1,0,0.1,0.5,0
		c0.5-0.1,0.9-0.1,0.9-0.2C387,154.8,385.7,154.9,385.4,155 M387.4,154.9c1.1,0.1,5.1,0.1,4.8,0c-0.2-0.1-1.4-0.1-2.8-0.1
		C388,154.9,387.1,154.9,387.4,154.9 M56.1,160.6c0,1.9,0,2.7,0.1,1.7c0-1,0-2.6,0-3.5C56.1,157.8,56.1,158.7,56.1,160.6
		 M150.2,167.9c0,0.6,0,0.8,0.1,0.5c0-0.3,0-0.8,0-1C150.2,167.1,150.2,167.4,150.2,167.9 M167,168.2c0,0.4,0,0.5,0.1,0.3
		c0-0.2,0-0.5,0-0.7C167.1,167.7,167,167.9,167,168.2 M281.5,177.9c0.2,0,0.4,0,0.6,0c0.2,0,0-0.1-0.3-0.1
		C281.5,177.9,281.4,177.9,281.5,177.9 M283.2,178c0.4,0,1.1,0,1.5,0c0.4,0,0-0.1-0.8-0.1C283.1,177.9,282.8,177.9,283.2,178
		 M286.5,178c0.6,0,1.5,0,2.1,0c0.6,0,0.1-0.1-1-0.1S285.9,177.9,286.5,178 M290.6,178c0.6,0,1.5,0,2.1,0c0.6,0,0.1-0.1-1-0.1
		S290.1,177.9,290.6,178 M294.1,178c0.2,0,0.5,0,0.7,0c0.2,0,0-0.1-0.4-0.1C294,177.9,293.9,177.9,294.1,178 M296,177.9
		c0.3,0.1,0.3,0.5,0.3,5.1l0,5l0-5.1C296.4,178,296.4,177.9,296,177.9C295.8,177.9,295.8,177.9,296,177.9 M259.2,187.5
		c0.6,0.4,0.9,0.5,0.5,0.2c-0.2-0.2-0.5-0.3-0.6-0.3C259,187.3,259,187.4,259.2,187.5"/>
</g>
</svg>
