<svg width="49" height="49" fill="none" xmlns="http://www.w3.org/2000/svg"><path d="M33.419 29.456v3a2 2 0 0 1-2.18 2 19.788 19.788 0 0 1-8.63-3.07 19.499 19.499 0 0 1-6-6 19.79 19.79 0 0 1-3.07-8.67 2 2 0 0 1 1.99-2.18h3a2 2 0 0 1 2 1.72c.127.96.361 1.903.7 2.81a2.001 2.001 0 0 1-.45 2.11l-1.27 1.27a15.998 15.998 0 0 0 6 6l1.27-1.27a2 2 0 0 1 2.11-.45c.907.339 1.85.574 2.81.7a2 2 0 0 1 1.72 2.03Z" fill="#7D47CE"/><path d="M27.469 14.536a9 9 0 0 1 8 7.94M27.469 18.536a5 5 0 0 1 3.95 4" stroke="#7D47CE" stroke-width="2" stroke-linecap="round" stroke-linejoin="round"/></svg>